<?xml version="1.0" standalone="no"?>
<!DOCTYPE svg PUBLIC "-//W3C//DTD SVG 1.1//EN" "http://www.w3.org/Graphics/SVG/1.1/DTD/svg11.dtd" >
<svg xmlns="http://www.w3.org/2000/svg" xmlns:xlink="http://www.w3.org/1999/xlink" version="1.1">
<metadata>
Created by FontForge 20170910 at Wed Aug 27 17:19:23 2003
 By Jimmy Wärting
Copyright (c) Typographer Mediengestaltung, 2000. All rights reserved. Scanned by Aldus. Full character set added by Dieter Steffmann, Kreuztal.
</metadata>
<defs>
<font id="Cardinal-Regular" horiz-adv-x="358" >
  <font-face 
    font-family="Cardinal"
    font-weight="400"
    font-stretch="normal"
    units-per-em="1000"
    panose-1="2 0 5 5 2 0 0 2 0 3"
    ascent="800"
    descent="-200"
    x-height="405"
    cap-height="756"
    bbox="-254 -370 1415 987"
    underline-thickness="18"
    underline-position="-130"
    unicode-range="U+001A-E002"
  />
<missing-glyph horiz-adv-x="500" 
 />
    <glyph glyph-name=".notdef" horiz-adv-x="500" 
 />
    <glyph glyph-name="fi" horiz-adv-x="345" 
d="M255 527q43 0 43 49q0 19 -13 34t-32 15q-11 0 -18 -4q9 13 9 22q0 18 -18 31t-36 13q-80 0 -107 -59q-14 -33 -19 -129q-1 -17 -2.5 -38t-4.5 -44l-39 1l1 -18h38v-319q0 -22 -36 -80h125q-26 63 -26 71v328h41v19h-41q-2 25 -5.5 46t-8.5 40q-14 58 -14 75
q0 22 12 38.5t33 16.5q38 0 53 -60q7 5 12.5 10t10.5 10q-4 -9 -4 -20q0 -20 13 -34t33 -14zM316 0l-31 18l4 396h-9l-88 -80q27 -44 27 -79v-99q0 -112 -44 -156h141z" />
    <glyph glyph-name="fl" horiz-adv-x="337" 
d="M326 1q-28 38 -28 215l2 456q-25 -20 -43 -35t-29 -26q16 19 16 32q0 18 -18 31t-36 13q-80 0 -107 -59q-14 -33 -19 -129q-1 -18 -2.5 -38.5t-4.5 -43.5l-39 1l1 -18h38v-319q0 -22 -36 -80h125q-26 63 -26 71v328h41v19h-41q-2 25 -5.5 46t-8.5 40q-14 59 -14 75
q0 22 12 38.5t33 16.5q38 0 53 -60l16 14q25 -24 25 -71v-92t-1 -129t-1 -129v-92q0 -14 -27 -75h124z" />
    <glyph glyph-name="Lslash" horiz-adv-x="784" 
d="M614 397v-2h-1zM99 255l22 -46l122 59v-134q0 -68 -46 -92q-34 -17 -107 -17h-33q-11 1 -20 1h-13v-27h749v18q-42 24 -76 57.5t-58 73t-37 85t-13 93.5l12 27q13 27 13 44q0 24 -28 24q-26 0 -26 -23q0 1 0.5 -5.5l1.5 -19.5q2 -13 2.5 -23t1.5 -17q9 -111 51 -199
l-60 -41q-4 -8 -4 -18v-49h-173q-15 14 -24.5 25t-14.5 18q-16 25 -16 56v183l157 76l-22 46l-135 -65v208q0 86 48 115q24 13 95 18q58 3 70 28q2 6 2 7q0 17 -20 17t-39 -16t-23 -16q-5 0 -16 1.5t-16 1.5h-302q-16 0 -41 11q-19 7 -40 17v-19q17 -20 71 -26q75 -9 87 -12
q42 -14 42 -53v-322z" />
    <glyph glyph-name="lslash" horiz-adv-x="189" 
d="M2 243v-57l61 29v-139q0 -15 -27 -75h124q-28 38 -28 231v16l53 25v58l-53 -26l2 367q-8 -5 -20 -15.5l-28 -24.5t-28 -24t-22 -15q19 -18 25 -34q4 -11 4 -41l-1 -245z" />
    <glyph glyph-name="Zcaron" horiz-adv-x="737" 
d="M720 -71v27q-15 21 -41 38q-8 5 -20.5 11.5t-29.5 14.5q6 10 6 25q0 66 -117 66q-139 0 -335 -78q7 28 100 157q46 64 75.5 102.5t43.5 52.5q6 0 16.5 1t22 1.5t22 1.5t16.5 1q10 0 30 -2.5t30 -2.5q78 0 126 71q-30 -4 -72 -5.5t-96 -1.5q-14 0 -26 0.5t-22 1.5l243 310
v9h-573q-28 0 -40 21q-1 2 -4.5 11.5t-8.5 27.5q-6 21 -21 21q-35 0 -35 -26q0 -57 59 -75q30 -9 105 -9q-8 -90 45 -90q19 0 121 45t161 45h136q-71 -90 -128 -162t-102 -128q-11 0 -27 -1.5t-39 -3.5t-39.5 -3t-27.5 -1q-10 0 -27.5 8.5t-27.5 8.5q-24 0 -54 -81
q37 10 87 10h44q26 0 59 -1l-249 -350q-69 -99 -117 -160.5t-75 -86.5q-32 -30 -58 -30q-30 0 -48 24q-20 23 -35 23q-27 0 -27 -29q0 -40 47 -40q102 0 141 43q66 79 96 120q79 97 200 137q96 31 243 31q77 0 121 -19q52 -23 90 -81h36zM415 804q40 85 90 168l-22 15
q-26 -34 -46 -60t-34 -46q-16 23 -36 50t-43 56l-22 -15q26 -43 48 -84.5t41 -83.5h24z" />
    <glyph glyph-name="zcaron" horiz-adv-x="251" 
d="M239 85q0 72 -83 125q4 8 43 57q30 39 30 59q0 33 -29 56q-29 24 -63 24q-65 0 -114 -76q60 0 80 -3q53 -11 53 -46q0 -19 -50 -74q-28 -31 -44 -50.5t-20 -27.5q27 1 45.5 0t29.5 -5q39 -14 39 -57t-48 -100q-23 -26 -45 -51.5t-44 -51.5q-47 -67 -47 -128q0 -59 92 -59
q48 0 113 17l-10 17v18h-51q-67 -35 -72 -35q-22 0 -36 15.5t-14 37.5q0 55 63 118q29 26 59 53t59 53q64 61 64 114zM141 528q40 85 90 168l-22 15q-26 -34 -46 -60t-34 -46q-16 23 -36 50t-43 56l-22 -15q26 -43 48 -84.5t41 -83.5h24z" />
    <glyph glyph-name="space" unicode=" " horiz-adv-x="345" 
 />
    <glyph glyph-name="exclam" unicode="!" horiz-adv-x="167" 
d="M205 725q-11 14 -24 14q-29 0 -78 -91q-1 -59 -2 -117t-3 -118q-7 -225 -28 -258l13 -5q12 18 27 28q22 99 32 109q4 34 11.5 88.5t20.5 130.5q12 72 19.5 126.5t11.5 92.5zM141 58q0 42 -32 42q-9 0 -17.5 -5.5t-14.5 -14t-10 -19t-4 -19.5q0 -42 35 -42q17 0 31 21
q12 18 12 37z" />
    <glyph glyph-name="quotedbl" unicode="&#x22;" horiz-adv-x="330" 
d="M276 685q0 39 -34 39q-41 0 -41 -94q0 -113 28 -113q20 0 35 74q12 58 12 94zM90 517q18 0 35 71q13 56 13 91q0 45 -34 45q-41 0 -41 -96q0 -111 27 -111z" />
    <glyph glyph-name="numbersign" unicode="#" horiz-adv-x="408" 
d="M143 191q-33 -40 -58.5 -70l-42.5 -50q21 -11 42 -23l42 -24q51 -24 92 -24q67 0 120 44q57 46 57 113q0 41 -36 88q-3 4 -19.5 22t-47.5 50l94 93q-123 57 -168 57q-64 0 -102 -38t-38 -102q0 -54 13 -77q4 -7 17 -21.5t35 -37.5zM274 344q0 -20 -27 -42
q-26 -22 -47 -22q-16 0 -31.5 6t-27.5 16t-19 24t-7 29q0 21 22 47q22 27 43 27q31 0 62 -28q32 -29 32 -57zM330 120q0 -36 -14.5 -49.5t-51.5 -13.5q-18 0 -36 6.5t-34 17.5t-29 26t-22 33l22 26l22 26q32 32 59 32q34 0 60 -36q24 -32 24 -68z" />
    <glyph glyph-name="dollar" unicode="$" horiz-adv-x="427" 
d="M236 275q23 -13 40 -26t27 -27q22 -31 22 -82q0 -91 -89 -109v244zM204 376q-89 41 -89 113q0 42 23.5 70.5t65.5 34.5v-218zM236 594q45 -8 71 -40q16 -23 36 -75l23 5q-4 29 -9 58.5t-10 61.5q-7 1 -20.5 3.5t-33.5 7.5q-35 8 -57 8v74h-32v-77q-66 -8 -106.5 -52
t-40.5 -110q0 -64 46 -107q29 -28 101 -62v-260q-95 14 -144 143l-24 -6q9 -49 15.5 -81t10.5 -46q58 -39 142 -39v-81h32v84q72 9 113.5 56t41.5 119q0 69 -47 116q-30 29 -108 67v233z" />
    <glyph glyph-name="percent" unicode="%" horiz-adv-x="659" 
d="M157 310q73 0 124 82q45 73 45 151q0 44 -23 78q-25 37 -68 37q-74 0 -130 -74q-52 -68 -52 -145q0 -50 26 -87q28 -42 78 -42zM534 647l-56 22q-73 -165 -159.5 -332t-186.5 -340l56 -21q73 165 159.5 331.5t186.5 339.5zM443 -13q73 0 124 82q46 71 46 150q0 44 -23 78
q-25 37 -69 37q-73 0 -129 -74q-51 -69 -51 -146q0 -52 25 -87q28 -40 77 -40zM279 493q0 -48 -20 -86q-26 -45 -69 -45q-44 0 -69 39q-21 33 -21 80q0 49 22 86q25 46 71 46q44 0 66 -40q20 -35 20 -80zM565 172q0 -50 -19 -87q-23 -47 -68 -47q-43 0 -69 38q-22 32 -22 80
t23 86q27 46 71 46q42 0 65 -39q19 -31 19 -77z" />
    <glyph glyph-name="ampersand" unicode="&#x26;" horiz-adv-x="789" 
d="M774 -14q-19 120 -47 186q-47 112 -143 223q-117 136 -210 136q-14 0 -24 -16q-2 -24 40 -38q33 -11 61 -11q4 1 10 3q39 -25 69 -80q0 -46 -97 -156q-37 -43 -71.5 -77.5t-66.5 -62.5q-30 -26 -52.5 -45t-37.5 -32q-23 -21 -37 -33t-18 -15q-38 -31 -63 -31
q-13 0 -13 10l70 338q22 108 50 108q18 0 45 -13q28 -12 45 -12q31 0 56.5 18.5t25.5 48.5q0 12 -7 23t-17.5 19t-24.5 12.5t-27 4.5q-53 0 -91 -38q-16 10 -25 52q-8 35 -8 61q0 59 17 108q24 68 72 68q23 0 43.5 -12.5t20.5 -34.5q0 -126 56 -126q38 0 38 42q0 51 -52 106
q-53 56 -103 56q-71 0 -122 -64q-50 -64 -50 -136q0 -73 67 -156q-19 -20 -32.5 -35.5t-22.5 -25.5q-42 -50 -67 -140q-24 -84 -24 -156q0 -151 70 -151q192 0 479 450q35 -40 65.5 -84t56.5 -94q4 -11 96 -198zM281 459q49 0 49 -33q0 -23 -33 -23q-38 0 -76 23
q4 14 24 23.5t36 9.5z" />
    <glyph glyph-name="quotesingle" unicode="'" horiz-adv-x="220" 
d="M104 517q19 0 34 72q13 56 13 90q0 45 -33 45q-40 0 -40 -95q0 -112 26 -112z" />
    <glyph glyph-name="parenleft" unicode="(" horiz-adv-x="313" 
d="M318 723l-7 8q-26 -15 -52 -20q-157 -203 -157 -514q0 -202 86 -376q5 3 41 9q27 4 27 23q0 7 -12 31q-86 174 -86 352q0 136 37 260q44 148 123 227z" />
    <glyph glyph-name="parenright" unicode=")" horiz-adv-x="311" 
d="M57 -158q155 202 155 506q0 209 -86 384q-33 3 -46 -15q-10 -13 -10 -48q86 -137 86 -340q0 -140 -35 -266q-42 -151 -123 -233l6 -7q25 15 53 19z" />
    <glyph glyph-name="asterisk" unicode="*" horiz-adv-x="420" 
d="M267 645l-22 6l-61 -143l-125 88l-15 -19l111 -111l-107 -97l13 -21l126 79l72 -137l21 9l-40 147l138 27l-1 24l-139 -1z" />
    <glyph glyph-name="plus" unicode="+" horiz-adv-x="564" 
d="M255 61h71v177h181v69h-181v177h-71v-177h-181v-69h181v-177z" />
    <glyph glyph-name="comma" unicode="," horiz-adv-x="237" 
d="M105 96q0 41 -32 41q-41 0 -41 -97q0 -108 25 -108q21 0 36 72q12 55 12 92z" />
    <glyph glyph-name="hyphen" unicode="-" 
d="M317 336l-14 11q-14 -23 -45 -23q-21 0 -64 3q-42 3 -63 3q-60 0 -100 -78l13 -11q4 5 7 9.5t7 8.5q13 3 20 3l177 -2q18 0 38 30q1 1 7 12.5t17 33.5z" />
    <glyph glyph-name="period" unicode="." horiz-adv-x="235" 
d="M100 58q0 42 -32 42q-9 0 -17.5 -5.5t-14.5 -14t-10 -19t-4 -19.5q0 -42 35 -42q17 0 31 21q12 18 12 37z" />
    <glyph glyph-name="slash" unicode="/" horiz-adv-x="385" 
d="M412 712l-66 23q-158 -358 -369 -727l66 -22q159 358 369 726z" />
    <glyph glyph-name="zero" unicode="0" horiz-adv-x="618" 
d="M290 -8q144 0 234 172q75 142 75 302q0 88 -24 160q-33 104 -101 104q-28 0 -38 -18q-11 -18 -22 -20q-53 63 -109 63q-58 0 -107 -67q-32 26 -50 26q-70 0 -104 -100q-25 -71 -25 -158q0 -136 68 -286q82 -178 203 -178zM304 744q92 0 143 -133q40 -101 40 -212
q0 -128 -36 -237q-51 -153 -150 -153q-15 0 -27 6q-84 43 -121 160q-29 90 -29 207q0 111 40 219q51 143 140 143z" />
    <glyph glyph-name="one" unicode="1" horiz-adv-x="302" 
d="M280 733q-27 -5 -55.5 -8t-57.5 -3q-66 0 -111 15v-3q26 -9 35 -27q29 -56 29 -205q0 -12 -0.5 -30t-1.5 -42q-1 -23 -1 -41v-30q0 -78 -1.5 -129.5t-3.5 -77.5q-13 -160 -68 -160q-25 0 -38 -3l1 -3q63 12 168 12q17 0 52 -3q17 -2 30.5 -3t21.5 -1q11 0 15 1
q-10 2 -17.5 4t-12.5 3q-54 16 -54 209v258q0 20 2 49.5t6 67.5q9 92 19 110q7 13 19 23q3 2 9 6.5t15 10.5z" />
    <glyph glyph-name="two" unicode="2" horiz-adv-x="635" 
d="M22 -5q202 15 301 15q290 0 290 -95q0 -6 -4.5 -18.5t-4.5 -19.5v-4q22 28 22 55q0 47 -74 76q0 6 2 20t2 21q0 28 -29 43q-23 12 -54 12q-74 0 -239 -67q-23 -9 -36 -9q-7 0 -10 1q29 72 114 172q40 46 77.5 82.5t72.5 62.5l49 35t35 26q29 21 47 77q17 51 17 91
q0 97 -65 156q-62 55 -162 55q-67 0 -166 -28q-8 10 -21 46q-13 33 -22 40l-1 -10q30 -99 30 -194q0 -97 -31 -228l12 -2q34 151 75 217q66 106 190 106q52 0 87 -24q40 -27 40 -77q0 -21 -6 -43.5t-17.5 -43t-27 -37.5t-33.5 -28q-145 -85 -252 -218q-46 -57 -97.5 -122
t-110.5 -141z" />
    <glyph glyph-name="three" unicode="3" horiz-adv-x="494" 
d="M208 0q114 0 193 70q83 74 83 186q0 78 -54 146q48 55 48 120q0 100 -80 168q-77 66 -177 66q-68 0 -167 -28q-9 10 -21 45q-12 33 -21 41l-2 -11q37 -78 37 -259q0 -81 -3 -205q-2 -87 -3 -138t-1 -68q-2 -152 -9 -197l3 -2l2 1q14 43 20 90q71 -25 152 -25zM273 707
q54 0 104 -45q50 -44 50 -99q0 -91 -56 -120q-38 -18 -139 -18q-116 0 -166 26q-3 18 -3 33q0 90 60 156q61 67 150 67zM367 371q37 -46 37 -105q0 -86 -68 -162q-68 -74 -153 -74q-51 0 -93 65q-38 59 -38 114q0 12 0.5 30t1.5 42t1.5 42t0.5 29q112 30 231 30q17 0 37 -3
t43 -8z" />
    <glyph glyph-name="four" unicode="4" horiz-adv-x="648" 
d="M118 924q-104 -12 -104 -87q0 -72 104 -95q42 -9 82 -14t81 -6l6 -7q-14 -41 -18 -48q-11 -20 -30.5 -49.5t-47.5 -69.5q-26 -38 -45.5 -67.5t-32.5 -51.5q-40 -70 -66.5 -135.5t-39.5 -128.5q53 56 187 96q120 36 212 36q38 0 55 -12q3 -17 3 -38q0 -2 -1.5 -28
t-5.5 -78l-2 -36t-2 -37q-8 -46 -31 -62q-14 -8 -34 -15l1 -3q67 15 154 15q39 0 98 -6q-27 13 -52 16q-28 40 -28 301q0 131 3 221.5t10 144.5q8 56 38 75q-125 -26 -297 -26q-91 0 -165 17q-111 27 -111 88q0 65 79 90zM460 548v-38q0 -22 1 -51t1.5 -51t0.5 -36
q-3 -8 -11 -11q-2 -1 -6 -1t-11 -1q-60 -3 -95 -6t-47 -5q-69 -15 -121 -71q16 99 54 225q6 20 23 74.5t46 145.5h56q21 1 35 1h22q26 0 41 -20.5t15 -47.5q0 -9 -0.5 -22.5t-1.5 -31.5q-1 -17 -1.5 -30.5t-0.5 -22.5z" />
    <glyph glyph-name="five" unicode="5" horiz-adv-x="568" 
d="M97 17l9 15q78 -29 170 -29q125 0 205 111q24 34 48 124q25 88 25 135q0 52 -25 102q-30 60 -76 60q-10 0 -27 -10t-21 -10q3 0 -27 14q-29 15 -46 15q-48 0 -101 -34q-1 8 -1.5 19t-0.5 24q0 40 12 117l7 6h87q27 0 85 -14q63 -17 76 -32q-2 -11 -3.5 -18t-0.5 -11v-5
q4 19 8 37t9 37q5 23 11 41t11 30l-1 1q-78 -29 -169 -29h-154q-22 0 -67.5 5.5t-115.5 16.5q11 -5 19.5 -8.5t13.5 -5.5q56 -29 55 -288v-39q23 44 95 88q71 44 121 44q60 0 89 -93q19 -61 19 -144q0 -101 -15 -132q-63 -135 -186 -135q-55 0 -93 56q-5 9 -17 35t-30 70
q2 -32 3 -57t1 -44q0 -17 -0.5 -33.5t-1.5 -31.5z" />
    <glyph glyph-name="six" unicode="6" horiz-adv-x="537" 
d="M483 777q-11 -30 -21 -46l-22 14t-22 15q-28 16 -49 16q-118 0 -169 -75q-29 21 -54 21q-74 0 -106 -110q-22 -70 -22 -170q0 -135 61 -273q75 -171 190 -171q59 0 92 16q74 35 119 141q38 93 38 187q0 43 -22 88q-26 56 -61 56q-40 0 -74 -30q-61 31 -90 31
q-40 0 -71 -33q-31 -31 -31 -73q0 -10 3 -19h1q13 54 27 75q24 37 68 37q80 0 117 -76q29 -60 29 -146q0 -75 -23 -144q-32 -95 -90 -95q-13 0 -24 4q-87 29 -127 147q-31 87 -31 203q0 117 40 233q52 156 144 156q48 0 92 -56q39 -48 49 -101l2 -2q6 50 15 94.5t22 85.5z
" />
    <glyph glyph-name="seven" unicode="7" horiz-adv-x="625" 
d="M159 345q-13 22 -13 56q0 61 47 61q36 0 105 -72q-11 -30 -19 -42q-18 -31 -42 -73.5t-53 -97.5q-3 -6 -13.5 -29t-29.5 -64q-25 -57 -51 -88h44t45 -1q67 2 92 6q13 4 59 21q37 14 61 14q54 0 54 -61q0 -34 -13 -56q21 24 21 64q0 29 -17 49t-46 20q-25 0 -69 -19
q-45 -18 -59 -18q-6 0 -13 5q0 63 36 165q34 96 75 152q45 -36 101 -36q71 0 71 65q0 43 -30 60q25 -34 25 -50q0 -19 -12.5 -33t-31.5 -14q-24 0 -55 18q-30 19 -41 40q65 109 109 179t69 102q7 8 13 16l12 16q19 25 19 33v4q-17 -1 -44.5 -2.5t-67.5 -5.5
q-36 -4 -64.5 -5.5t-48.5 -1.5h-145q-54 0 -118 14q-87 19 -87 55q0 43 59 63v1q-39 -3 -53 -11q-22 -12 -22 -47q0 -29 24 -51q23 -22 52 -22q14 0 22 -9q1 -57 6 -69q12 -31 57 -31q52 0 103 25q10 5 30 17t49 31q40 25 60 25q26 0 31 -14q-18 -35 -60 -132
q-19 -42 -34.5 -75t-29.5 -56q-14 7 -28.5 14t-28.5 14q-36 17 -59 17q-74 0 -74 -72q0 -40 21 -64z" />
    <glyph glyph-name="eight" unicode="8" horiz-adv-x="451" 
d="M213 -20q1 4 6 4q10 0 10 -5q13 3 22.5 5t14.5 4q88 25 135 112q41 76 41 175q0 62 -16 104q-22 64 -71 64q-37 0 -62 -33q-9 0 -26 5t-26 5h-9q-1 3 -1 13v15q1 5 1 9v7q80 -5 130 59q47 58 47 139q0 38 -16 69q-20 39 -53 39q-35 0 -53 -34q-25 18 -59 28
q-46 -15 -63 -28q-19 34 -54 34q-34 0 -53 -39q-15 -30 -15 -69q0 -87 46 -140q49 -58 133 -58q2 -10 2 -18q0 -7 -4 -27q-5 0 -13 -1.5t-16.5 -3t-16.5 -3t-12 -1.5h-3q-26 33 -63 33q-49 0 -71 -64q-16 -42 -16 -104q0 -103 52 -185q56 -89 152 -110zM138 594q0 49 20 98
q25 61 67 61q45 0 70 -61q21 -50 21 -100q0 -122 -66 -122q-12 0 -23 4q-11 -4 -22 -4q-67 0 -67 124zM244 414q51 0 76 -58q19 -42 19 -103q0 -167 -51 -233q-38 -20 -68 -20q-21 0 -56 20q-51 67 -51 225q0 61 19 106q25 63 75 63q9 0 19 -2q10 2 18 2z" />
    <glyph glyph-name="nine" unicode="9" horiz-adv-x="574" 
d="M486 438v137q2 46 7.5 78.5t15.5 51.5q9 17 24.5 28.5t18.5 15.5q-66 -10 -122 -14.5t-105 -4.5q-186 0 -305 68v-6q34 -35 102 -52q19 -5 48 -9t68 -8q-32 -36 -62 -60q-15 20 -44 20q-45 0 -69 -51q-19 -39 -19 -91q0 -96 64 -203q73 -121 161 -121q77 0 125 93
q-12 -170 -36 -252q-19 -67 -63 -115q-51 -55 -115 -55q-46 0 -75 23t-29 68q0 35 23 65.5t58 43.5l1 2q-42 -8 -77 -55q-35 -49 -35 -91q0 -48 49 -76q43 -25 93 -25q48 0 77 12q99 40 148 118q44 71 54 182q10 106 14.5 177t4.5 106zM335 724q44 0 52 -53
q7 -49 10.5 -99.5t3.5 -104.5q0 -220 -107 -220q-85 0 -125 87q-32 67 -32 160q0 96 50 160q54 70 148 70z" />
    <glyph glyph-name="colon" unicode=":" horiz-adv-x="143" 
d="M122 340q0 42 -33 42q-9 0 -17.5 -5.5t-14.5 -14t-10 -19t-4 -19.5q0 -42 36 -42q17 0 31 21q12 18 12 37zM57 -65q20 0 34 69q11 58 11 90q0 46 -32 46q-40 0 -40 -89q0 -116 27 -116z" />
    <glyph glyph-name="semicolon" unicode=";" horiz-adv-x="240" 
d="M129 58q0 42 -33 42q-9 0 -17.5 -5.5t-14.5 -14t-10 -19t-4 -19.5q0 -42 36 -42q17 0 31 21q12 18 12 37zM156 301q0 42 -33 42q-9 0 -17.5 -5.5t-14.5 -14t-10 -19t-4 -19.5q0 -42 36 -42q17 0 31 21q12 18 12 37z" />
    <glyph glyph-name="less" unicode="&#x3c;" horiz-adv-x="619" 
d="M60 252l499 -252v52l-441 222v3l441 222v52l-499 -252v-47z" />
    <glyph glyph-name="equal" unicode="=" horiz-adv-x="619" 
d="M50 201v-47h518v47h-518zM50 399v-47h518v47h-518z" />
    <glyph glyph-name="greater" unicode="&#x3e;" horiz-adv-x="619" 
d="M559 299l-499 252v-52l441 -222v-3l-441 -222v-52l499 252v47z" />
    <glyph glyph-name="question" unicode="?" horiz-adv-x="367" 
d="M361 582q0 60 -57 107q-55 44 -115 44q-66 0 -122 -53q-54 -53 -54 -119q0 -44 15 -84q19 -54 54 -54q28 0 28 28q0 39 -46 150q0 41 36 70q37 29 78 29q24 0 43.5 -10t33.5 -26.5t21.5 -38.5t7.5 -46q0 -58 -42 -134q-29 -55 -45.5 -87t-18.5 -42q-19 -77 -22 -165
l27 14q7 13 18 77q10 58 17 65q12 36 83 135q60 82 60 140zM233 58q0 42 -33 42q-9 0 -17 -5.5t-14.5 -14t-10 -19t-3.5 -19.5q0 -42 36 -42q9 0 16.5 5.5t13 14.5t9 19t3.5 19z" />
    <glyph glyph-name="at" unicode="@" horiz-adv-x="662" 
d="M372 461q32 0 50 -9q-16 -98 -29 -124q-10 -23 -48 -67q-44 -50 -64 -50q-18 0 -18 41q0 63 25 126q33 83 84 83zM475 53q-56 -30 -128 -30q-116 0 -181 77q-59 73 -59 191q0 132 69 222q76 99 204 99q95 0 152 -58q57 -59 57 -154q0 -72 -31 -133q-39 -77 -104 -77
q-19 0 -19 22q0 29 12.5 96t37.5 175q-13 0 -37 6q-22 7 -36 7q-93 0 -157 -91q-59 -83 -59 -178q0 -74 39 -74q29 0 86 54q50 46 70 81l2 -1q-10 -45 -14.5 -70t-4.5 -30q0 -34 40 -34q95 0 157 75q57 70 57 169q0 110 -69 182t-178 72q-148 0 -247 -114q-95 -110 -95 -259
q0 -131 75 -210q76 -81 206 -81q93 0 164 43z" />
    <glyph glyph-name="A" unicode="A" horiz-adv-x="788" 
d="M766 -27q19 0 19 18q0 22 -73 35q-77 14 -113 168q-17 74 -30 130t-22 94q-36 159 -36 211q0 56 22 69q14 5 27 10.5t26 10.5q41 17 41 31q0 15 -22 15q-11 0 -27 -19q-17 -18 -40 -18h-336q-15 22 -21 28q-14 11 -33 11q-16 0 -16 -13q0 -17 26 -34q23 -14 43 -18l-2 1
q39 -17 39 -34l-146 -615q-3 -11 -36 -28q-7 -3 -18 -7.5t-28 -10.5v-34q111 34 237 34q15 0 28 -25h45q-18 27 -61 39q-17 3 -34.5 6t-34.5 5q-34 6 -34 21l57 61q26 29 26 159q0 86 3 148.5t8 104.5q25 184 106 184q44 0 61 -62q18 -78 31 -135.5t21 -95.5q-39 10 -72 10
q-9 0 -25 -5t-25 -5q-17 0 -44 27l-9 -18v-72h189q6 -39 12 -71t13 -57q22 -81 22 -126q0 -76 -45 -76q-15 0 -34 18q-18 18 -33 18q-18 0 -18 -17q0 -14 20 -29q19 -15 35 -15h257q31 -27 54 -27z" />
    <glyph glyph-name="B" unicode="B" horiz-adv-x="745" 
d="M730 220q0 70 -21 108q-18 32 -62 53l-102 41q44 40 67 62t26 26q46 53 46 114q0 64 -43 97q-39 30 -104 30q-95 0 -190 -65q-17 -11 -52 -40.5t-90 -78.5q-74 -65 -112 -65q-4 0 -13 2t-13 2q-27 0 -27 -17q0 -12 10 -23t22 -11q25 0 69 29q43 30 56 30q38 0 38 -46
v-284q0 -97 -32 -129q-20 -21 -81 -27q-69 -7 -107 -27v-35q7 1 18.5 6t28.5 13q33 16 44 16h198h25t35 -1h64q140 0 208 35q94 51 94 185zM620 193q0 -79 -43 -122t-122 -43q-41 0 -81 21q-48 25 -48 62v448q0 53 43 99q43 48 95 48q48 0 83 -39q35 -40 35 -89
q0 -72 -66 -118q-31 -19 -62 -37t-62 -37q-66 -47 -66 -120q0 -53 22 -79q20 -23 71 -42q16 -6 30 -6q30 0 49.5 21.5t19.5 52.5q0 29 -13 48q-15 24 -41 24q-19 0 -32.5 -13.5t-13.5 -32.5q0 -17 16 -29q8 -4 15 -8t15 -9q-5 -1 -7 -1.5l-2 -0.5q-92 0 -92 75q0 40 34 70
t76 30q55 0 102 -60q45 -56 45 -113z" />
    <glyph glyph-name="C" unicode="C" horiz-adv-x="592" 
d="M585 700q-51 0 -139 32q-87 32 -109 32q-130 0 -229 -139q-91 -127 -91 -263q0 -138 89 -257q96 -127 231 -127q121 0 190 76q31 34 31 60v28q-68 -101 -175 -101q-126 0 -209 113q-74 104 -74 235q0 112 45 216q59 131 156 131q51 0 81 -29t30 -80q0 -31 -42 -116
q-41 -87 -41 -132q0 -54 23 -80.5t77 -38.5q5 -1 9 -1.5t8 -0.5q29 0 55 25q28 25 28 52q0 31 -10 45.5t-41 14.5q-25 0 -25 -23q0 -19 18 -32l16 -10l16 -10q-20 -24 -27 -30q-15 -12 -37 -12q-37 0 -61 33q-22 29 -22 68q0 76 82 180q70 91 147 141z" />
    <glyph glyph-name="D" unicode="D" horiz-adv-x="761" 
d="M754 418q0 132 -42 225q-55 124 -170 124q-83 0 -175 -65q-37 -30 -73 -60t-73 -60q-83 -65 -143 -65q-2 0 -6.5 0.5t-9.5 1.5v-37q54 10 85.5 14.5t41.5 4.5q29 0 48 -10v-359q0 -78 -40 -100q-23 -12 -91 -15q-67 -1 -99 -23v-37q17 5 37.5 17t45.5 29h332
q114 0 194 68q75 64 109 177q29 96 29 170zM644 382q0 -159 -46 -242q-62 -110 -206 -110q-29 0 -61 29v516q0 48 53 93q53 46 103 46q88 0 129 -129q28 -87 28 -203z" />
    <glyph glyph-name="E" unicode="E" horiz-adv-x="812" 
d="M799 0q-99 90 -105 98q-70 71 -70 114q0 21 33 72q0 10 -8.5 19.5t-17.5 9.5q-11 0 -23 -21t-12 -33q0 -24 12 -61q13 -39 25 -60q-11 -5 -22.5 -11t-22.5 -11q-32 -17 -32 -30q0 -16 13 -68h-194q-14 11 -22.5 17.5t-10.5 8.5q-13 14 -13 39v259q44 -3 67.5 -4.5
t27.5 -2.5q28 -7 80 -50v185q-46 -41 -73 -55h-102v203q0 29 18 51.5t46 22.5h158q-8 -34 -8 -45q0 -18 23 -32q3 -2 12.5 -5.5t26.5 -10.5q-33 -62 -33 -77q0 -52 27 -52q20 0 20 50q0 12 -14 24q1 46 148 176h-655q-24 14 -29 47q-3 27 -21 27q-29 0 -29 -26q0 -10 12 -22
q17 -19 33 -25q26 -8 51.5 -15.5t51.5 -15.5q70 -25 70 -63v-544q0 -43 -43 -59q-23 -9 -90 -15q-59 -6 -79 -18v-37q41 13 82 46h692z" />
    <glyph glyph-name="F" unicode="F" horiz-adv-x="800" 
d="M787 730h-627q-29 0 -45 30q-19 34 -57 43v-4q-1 -61 59 -79q28 -5 56 -10.5t56 -10.5q60 -17 60 -71v-672q0 -80 -39 -144q-45 -77 -118 -77q-27 0 -46 16q-16 14 -25.5 21t-11.5 9q-16 0 -26 -14.5t-10 -31.5q0 -47 64 -47q113 0 207 121q88 112 88 229v323h76
q52 0 69 -60l27 -111q24 -60 95 -60q15 0 30 4.5t27.5 13t20 20.5t7.5 27q0 23 -17 49q-16 25 -40 25q-37 0 -37 -28q0 -19 22 -35q3 -2 39 -21q-13 -23 -16 -26q-11 -11 -27 -11q-53 0 -84 69q-26 58 -26 116q0 112 82 222q21 28 62.5 71.5t104.5 103.5zM603 595
q-28 -32 -51 -76q-28 -51 -32 -85h-129q-11 27 -11 57q0 10 0.5 23.5t1.5 32.5q3 37 3 56q0 99 70 99l10 -8q18 -5 33 -5q32 0 68 13q-2 -12 -3 -21.5t-1 -17.5q0 -42 41 -68z" />
    <glyph glyph-name="G" unicode="G" horiz-adv-x="735" 
d="M718 710q5 17 5 28q0 27 -24 27q-30 0 -71 -34q-47 -38 -57 -39q-92 40 -102 45q-51 19 -110 19q-164 0 -257 -119q-85 -107 -85 -277q0 -162 93 -280q101 -125 258 -125q115 0 206 80q90 81 90 196q0 99 -72 173q-71 75 -169 75q-83 0 -136 -46q-57 -48 -57 -129
q0 -78 44 -122t122 -44q37 0 55 5q12 3 24 12t21 21t14.5 24.5t5.5 23.5q0 55 -75 55q-21 0 -21 -14q0 -7 3 -16q47 -29 47 -46q0 -22 -27 -35q-23 -12 -47 -12q-59 0 -99 40t-40 99q0 47 32 88q33 42 79 42q86 0 160 -87q70 -83 70 -172q0 -71 -52 -114q-50 -43 -123 -43
q-144 0 -235 150q-79 130 -79 284q0 104 44 186q54 100 150 100q92 0 139 -56q26 -32 50 -112q19 -68 43 -82h36l-46 85q0 58 69 105q62 41 124 41z" />
    <glyph glyph-name="H" unicode="H" horiz-adv-x="793" 
d="M764 293q0 105 -46 166q-51 68 -153 68q-59 0 -117 -36q-18 -11 -98 -76v142q0 18 28 75q34 73 66 96q36 27 113 27q42 0 81 -24q7 -4 24 -17t45 -35h38q-18 58 -67 79q-35 15 -104 15q-89 0 -188 -66q-53 -35 -149 -122q-74 -66 -96 -66h-65v-29h65q43 31 47 31h55l2 4
l19 -6v-396q0 -64 -61 -88q-1 0 -28.5 -6t-84.5 -17q-61 -12 -61 -48h27q36 36 56 36h218q17 0 45 -7t45 -7q67 0 90 62h-39q-17 -38 -38 -38q-27 0 -53 19q-30 22 -30 46v256q0 46 66 96q61 45 111 45q73 0 112 -65q31 -53 31 -133q0 -116 -61 -213q-29 -37 -57.5 -74
t-57.5 -74q-61 -85 -61 -174q0 -55 33 -55q31 0 31 21q0 45 -45 71q0 52 81 141q136 147 150 165q81 109 81 211z" />
    <glyph glyph-name="I" unicode="I" horiz-adv-x="484" 
d="M473 729v27q-2 -1 -11.5 -5t-26.5 -11q-25 -11 -38 -11h-282q-6 0 -36 12q-34 13 -41 15v-27q18 -8 64 -14q49 -6 67 -16q30 -17 30 -55v-556q0 -47 -65 -71q-2 -1 -28 -6.5t-77 -16.5v-38q25 13 44 22t32 16h207q35 0 143 -38v29q-22 14 -82 26q-57 10 -78 30v574
q0 59 30 79q16 11 69 16q26 2 46 7t33 12z" />
    <glyph glyph-name="J" unicode="J" horiz-adv-x="495" 
d="M483 719q-11 2 -62 4t-142 4q-170 5 -174 7q-3 3 -22 39q-12 25 -34 25q-15 0 -15 -18q0 -9 5 -24q39 -30 51 -35q25 -11 62 -11q0 -6 -1 -19t-1 -20q0 -46 50 -46q31 0 93 33q61 33 77 33h75q-72 -149 -102 -270q-16 -64 -23.5 -135.5t-7.5 -150.5q0 -61 24 -131
q24 -71 24 -95q0 -89 -54 -155q-57 -71 -144 -71q-48 0 -113 47h-38v-47q61 -38 94 -38q161 0 247 137q73 115 73 286q0 34 -1 84.5t-3 117.5q-2 68 -3 118.5t-1 84.5q0 100 66 246z" />
    <glyph glyph-name="K" unicode="K" horiz-adv-x="695" 
d="M804 -330q51 0 51 42q0 34 -36 34q-9 0 -27.5 -4.5t-28.5 -4.5q-13 0 -38 24q-70 64 -70 182q0 21 13 57q14 37 14 56q0 84 -63 147q-13 13 -46.5 37t-87.5 60q51 37 79 58t34 26q67 60 67 114q0 41 -35 73q-34 31 -78 31q-45 0 -112 -50q-70 -54 -106 -62v112
q21 55 72 104q57 57 108 57q26 0 61 -26q35 -25 57 -25q32 0 32 34q0 36 -73 35l-39 -1q-75 -1 -182 -72q-32 -22 -72.5 -54t-90.5 -77q-79 -70 -90 -70q-10 0 -24 14t-20 14q-16 0 -16 -17q0 -38 41 -38q20 0 62 17q42 18 62 18q12 0 26 -8v-335q0 -80 -16 -109
q-23 -45 -95 -45q-13 0 -29 1t-22 1q-25 0 -63 -20v-39q76 39 84 39h340q44 0 57 46h-37q-22 -28 -48 -28q-31 0 -55 12q-30 15 -30 43v86q51 -48 74 -48q49 0 49 34q0 25 -23 25q-14 0 -17 -23q-2 -23 -21 -23q-38 0 -38 60q0 34 18.5 55.5t51.5 21.5q92 0 139 -153
q28 -95 48.5 -166t33.5 -119q34 -111 113 -142q30 -11 42 -11zM579 451q0 -37 -102 -109q-63 -44 -95.5 -68.5t-37.5 -29.5v188q31 28 48 43.5t20 17.5q43 34 82 34q16 0 31.5 -6t27.5 -16t19 -24t7 -30z" />
    <glyph glyph-name="L" unicode="L" horiz-adv-x="784" 
d="M773 -1v18q-42 24 -76 57.5t-58 73t-37 85t-13 93.5q0 1 9 18q5 8 7 14l3 9q4 19 6 30q0 24 -28 24q-26 0 -26 -23q0 1 0.5 -5.5l1.5 -19.5q2 -13 2.5 -23t1.5 -17q9 -111 51 -199l-60 -41q-4 -8 -4 -18v-49h-173q-15 14 -24.5 25t-14.5 18q-16 25 -16 56v448
q0 86 48 115q24 13 95 18q58 3 70 28q2 6 2 7q0 17 -20 17t-39 -16t-23 -16q-5 0 -16 1.5t-16 1.5h-302q-16 0 -41 11q-19 7 -40 17v-19q17 -20 71 -26q75 -9 87 -12q42 -14 42 -53v-513q0 -68 -46 -92q-34 -17 -107 -17h-33q-11 1 -20 1h-13v-27h749z" />
    <glyph glyph-name="M" unicode="M" horiz-adv-x="1105" 
d="M1074 -11q20 0 20 24q0 63 -54 63q-31 0 -84 -41q-26 -20 -39.5 -30l-13.5 -10q-12 0 -24 6.5t-21 17t-14.5 23.5t-5.5 25q0 45 52 128q48 76 72.5 114.5t25.5 40.5q52 97 52 175q0 92 -45 160q-51 77 -139 77q-61 0 -101 -27q-22 -14 -65 -60q-41 -42 -75 -60
q-22 47 -36 73.5t-19 33.5q-37 49 -105 49q-42 0 -125 -62q-37 -29 -73 -58.5t-73 -58.5q-82 -64 -121 -67q-8 -1 -20 -1h-26q-13 0 -18 1v-38q45 0 67 5q25 8 59 33q49 1 49 -59q0 -5 -1.5 -13.5t-4 -17.5t-4 -17t-1.5 -13v-393q0 -99 -37 -172q-47 -93 -136 -93
q-33 0 -67 15q-37 14 -45 14q-25 0 -25 -33q0 -32 24 -32q-1 0 3 0.5l12 1.5q54 5 89 11t51 11q54 19 115 86q98 109 98 191v347q0 147 20 222q38 134 145 134q22 0 41.5 -7.5t34.5 -21t23.5 -32t8.5 -39.5v-511q0 -40 -32 -58q-15 -8 -69 -19q-45 -9 -62 -24v-27h27
q28 36 109 36q22 0 66 -9q46 -8 66 -8q70 0 133 17v37h-27q-27 -28 -40 -28q-88 0 -88 74v392q0 78 66 144q67 66 145 66q136 0 136 -192q0 -77 -35 -164q-17 -34 -33 -68t-33 -68q-35 -76 -35 -129q0 -100 82 -100q66 0 109 46q2 0 7 1t8 1q16 0 31 -29q13 -6 25 -6z" />
    <glyph glyph-name="N" unicode="N" horiz-adv-x="825" 
d="M785 -10q26 0 26 32q0 45 -54 45q-35 0 -83 -36q-47 -36 -54 -36q-30 0 -47.5 20.5t-17.5 51.5q0 58 52 143q25 38 49 77t49 77q52 95 52 179q0 103 -54.5 161t-156.5 58q-82 0 -170 -61q-16 -11 -50 -39.5t-88 -76.5q-75 -66 -112 -70l-39 -5q-3 0 -13 4.5t-14 4.5
q-9 0 -9 -12q0 -29 39 -29q57 0 140 59l-3 -442q-2 -74 -149 -74h-20q-15 0 -42 1v-46q16 0 49 14q30 13 34 13h201q11 0 26 -1.5l35 -3.5t35.5 -3.5t26.5 -1.5q87 0 87 29q0 10 -9 23t-18 13q-11 0 -42 -18q-32 -18 -50 -18q-37 0 -59 21l-14 15v457q0 75 44 131
q46 60 121 60q85 0 135 -59q47 -56 47 -142q0 -82 -36 -164q-17 -32 -33 -65l-32 -66q-36 -72 -36 -125q0 -109 74 -109q77 0 110 46q18 0 37 -22q19 -10 36 -10z" />
    <glyph glyph-name="O" unicode="O" horiz-adv-x="627" 
d="M620 325q0 277 -188 355q-51 21 -107 21q-85 0 -132.5 -43t-47.5 -127q0 -58 36 -103q39 -49 96 -49q36 0 70 28q35 29 35 64q0 46 -46 46q-32 0 -32 -40q0 -31 -1 -34q-4 -19 -25 -19q-28 0 -57 26q-28 25 -28 55q0 42 33 86q35 44 75 44q108 0 179 -152
q57 -125 57 -250q0 -191 -155 -191q-138 0 -217 153q-66 124 -66 276q0 116 55 186q61 78 173 78q88 0 158 -52q9 16 9 31q0 5 -1 8q-45 30 -74 40q-33 11 -83 11q-161 0 -251 -135q-78 -116 -78 -286q0 -126 49 -218q56 -105 163 -147q67 -27 99 -27q145 0 228 113
q74 101 74 252z" />
    <glyph glyph-name="P" unicode="P" horiz-adv-x="701" 
d="M691 534q0 98 -56 163q-59 68 -156 68q-81 0 -175 -67q-43 -31 -143 -125q-70 -67 -96 -67l-4.5 3.5t-11 7.5t-14.5 7.5t-15 3.5q-18 0 -18 -17q0 -15 11 -26.5t26 -11.5q19 0 54 21q34 21 55 21q12 0 37 -19v-395q0 -60 -55 -72q-26 -1 -51 -2t-51 -3q-53 -5 -53 -50
q8 1 19 4t27 10q31 12 44 12h95q58 0 135 -1q78 -1 135 -1h95q32 0 82 24q19 -1 19 26q0 18 -18 18q-17 0 -43 -20q-27 -22 -44 -25q-14 -3 -46 -3q-48 0 -78.5 1.5t-46.5 3.5q-83 15 -83 68v470q0 51 53 109q52 57 105 57q76 0 127 -75q47 -68 47 -146q0 -77 -34 -123
q-38 -51 -113 -51q-46 0 -84 23q-45 25 -45 69q0 28 27 60q27 31 56 31q8 0 16.5 -4.5t16 -12t13 -16t5.5 -16.5q-35 -9 -45 -15q-20 -14 -20 -40q0 -23 21 -23q30 0 48 21.5t18 51.5q0 64 -73 64q-39 0 -70 -31q-31 -30 -31 -70q0 -58 46 -91q41 -29 101 -29q93 0 166 68
q73 69 73 162z" />
    <glyph glyph-name="Q" unicode="Q" horiz-adv-x="627" 
d="M622 383q0 118 -72 216q-79 106 -194 106q-72 0 -130 -46q-64 -49 -64 -119q0 -53 28 -93q31 -46 81 -46q56 0 77 30q7 10 13.5 29.5t11.5 50.5h-45q1 -15 1 -23v-10q0 -22 -20.5 -37t-42.5 -15q-32 0 -54 31t-22 64q0 43 43 86t86 43q115 0 170 -154q41 -112 41 -251
q0 -166 -100 -203h-2q-9 0 -25 16q-12 11 -23 23q-32 31 -93 50q-60 21 -107 21q-9 0 -13 -1q-14 19 -22 30.5t-10 16.5q-37 74 -37 240q0 137 50 220q61 102 189 102q54 0 85 -16q8 -4 25.5 -16t45.5 -33h19v20q-21 19 -39.5 31.5t-39 19.5t-43.5 10t-53 3
q-160 0 -252 -131q-80 -116 -80 -284q0 -131 65 -259q-21 -40 -31 -64l49 37q104 -100 268 -100q15 -101 38 -161q33 -83 95 -134q19 20 29.5 32t13.5 15q-20 -6 -33 -6q-51 0 -51 52q0 15 22 47q23 34 23 53q0 29 -19 67q-11 23 -17.5 38.5t-8.5 23.5q81 66 128 170
q46 99 46 208zM314 59q-81 2 -106 42l36 4q44 -10 70 -46z" />
    <glyph glyph-name="R" unicode="R" horiz-adv-x="697" 
d="M851 -281q0 22 -25 22q-6 0 -16 -16q-9 -17 -29 -17q-11 0 -38 12q-114 51 -114 197q0 33 27 77q28 43 28 70q0 200 -239 314q109 76 134 101q68 66 68 146q0 70 -41.5 109t-113.5 39q-75 0 -174 -69q-25 -17 -63.5 -49t-91.5 -80q-77 -69 -97 -69q-3 0 -16 7t-24 7
q-17 0 -17 -13q0 -24 34 -24q17 0 37 12q16 8 24 12.5t10 5.5q7 3 55 3q9 0 15 -7q1 -9 1.5 -19t0.5 -21v-378q0 -44 -49 -60q-23 -4 -45.5 -8t-45.5 -9q-48 -9 -48 -36q0 -18 12 -18q18 0 48 40h341q16 0 33 6q22 10 22 24q0 17 -17 17q-27 0 -45 -32q-76 12 -78 13
q-44 14 -44 55v470q0 66 46 115q47 50 111 50q47 0 92 -42q46 -40 46 -88q0 -59 -63 -120q-9 -9 -36.5 -31.5t-75.5 -57.5q-90 -69 -102 -94q-9 -20 -9 -39q0 -17 15 -17q31 0 31 57v8q-1 3 -1 8q0 19 29 30q24 8 46 8q80 0 130 -104q37 -75 58 -216l24 -186
q12 -76 115 -130q56 -29 76 -29q18 0 33.5 13.5t15.5 30.5z" />
    <glyph glyph-name="S" unicode="S" horiz-adv-x="679" 
d="M724 798q38 0 38 19t-27 19q-17 0 -28 -6.5t-22 -13.5q-17 -9 -29 -15.5t-20 -10.5q-11 -10 -21 -20t-21 -20q-28 -25 -50 -25q-12 0 -85 37t-121 37q-93 0 -158 -61q-65 -62 -65 -153q0 -90 68 -149q46 -40 149 -81q91 -34 91 -50q0 -32 -45 -134q-40 -90 -66 -133
q-26 8 -43.5 14.5t-25.5 10.5q-46 22 -67 86q-8 23 -24 121q-7 38 -16.5 65.5t-20.5 44.5h-39q4 -14 30 -63q18 -35 18 -69q0 -206 -121 -305v-28q27 13 50 39q21 24 34 32q25 13 74 13h136q-40 -109 -90 -178q-73 -103 -157 -103q-4 0 -25 9q-22 8 -30 8q-12 0 -26 -9.5
t-14 -20.5q0 -12 12.5 -20.5t25.5 -8.5q7 0 22.5 3t23.5 3q76 0 137 61q19 19 41.5 50.5t48.5 76.5q43 73 64 122q17 -2 35 -3.5t36 -1.5q128 0 186 43q68 51 68 173q0 151 -168 223q11 38 21.5 76t21.5 76q32 98 64 137q17 21 27 33.5t14 16.5q29 33 48 34h19v1
q5 -1 11 -1.5t11 -0.5zM478 565q0 -26 -10 -62q-11 -39 -23 -58q-70 28 -110.5 45t-52.5 23q-112 58 -112 120q0 47 46 87q47 41 95 41q78 0 125 -60q42 -54 42 -136zM599 146q0 -64 -64 -100q-52 -31 -122 -31q-17 0 -70 14q92 171 116 266q45 -28 67.5 -42.5t24.5 -15.5
q48 -41 48 -91z" />
    <glyph glyph-name="T" unicode="T" horiz-adv-x="692" 
d="M171 -4h356q5 -7 10 -13l10 -12q13 -16 26 -16q15 0 15 17q0 23 -52 33q-86 19 -96 24q-52 21 -52 66v561q17 17 26.5 25.5t11.5 10.5q22 16 48 16q17 0 28 0.5t16 1.5q8 -25 13 -39t7 -18q11 -20 44 -43q-45 -65 -45 -189q0 -60 28 -60t28 35q0 21 -20 55q-19 34 -19 39
q0 60 138 231h-686q22 -28 43 -55t42 -55q53 -77 53 -121q0 -4 -20 -39q-19 -32 -19 -54q0 -36 27 -36q21 0 27 21q1 5 1.5 15t0.5 24q0 124 -45 189q50 34 64 100q18 -2 36 -3t35 -3q14 -5 59 -48v-561q0 -45 -52 -66q-11 -5 -97 -24q-51 -11 -51 -33q0 -17 15 -17
q22 0 46 41z" />
    <glyph glyph-name="U" unicode="U" horiz-adv-x="820" 
d="M798 -332q30 0 30 30q0 25 -46 61q-26 22 -41 35t-18 18q-17 32 -29 84q-10 47 -10 89v660q0 36 27 53q14 7 27 13t27 13q33 20 40 61h-28q-24 -56 -184 -56h-507q-23 0 -45 40t-37 40q-6 0 -11.5 -10t-5.5 -18q0 -39 43 -58q33 -14 76 -14h16q12 0 32 1q-2 -17 -3.5 -29
t-1.5 -19q0 -55 42 -55q7 0 63 34q31 19 49.5 29.5t23.5 12.5q64 27 134 27q79 0 107 -16q41 -23 41 -94q0 -16 -19 -39q-22 55 -46 76q-32 27 -83 27q-143 0 -231 -139q-76 -119 -76 -271q0 -119 59 -208q67 -100 182 -100q54 0 110 30q6 3 30 18.5t66 43.5q30 0 50 -48
q10 -21 22 -73q9 -38 24 -80q5 -12 8 -21l5 -15l6 -54q5 -32 27.5 -55.5t54.5 -23.5zM601 169q0 -66 -41.5 -102.5t-108.5 -36.5q-100 0 -157 93q-49 79 -49 186t53 204q63 113 163 113q42 0 72 -25t30 -67q0 -32 -22 -60q-21 -28 -51 -28q-32 0 -32 26q0 6 3 14
q10 -5 19 -5q15 0 25.5 11.5t10.5 27.5q0 41 -55 41q-57 0 -57 -65q0 -35 24 -55t60 -20q63 0 113 93v-345z" />
    <glyph glyph-name="V" unicode="V" horiz-adv-x="878" 
d="M867 635q0 74 -46 99q-40 22 -73 22q-43 0 -67 -27q-12 -12 -37 -65v-29q38 29 55 29q104 0 104 -113q0 -65 -91 -248q-35 -72 -69 -132.5t-66 -112.5l-232 597q10 34 52 49l36 10t35 10q35 14 35 47q0 15 -16 15q-12 0 -29 -29q-15 -28 -48 -28h-335q-19 8 -35 42
q-14 29 -38 29q-11 0 -11 -9q0 -62 60 -78q32 -7 64.5 -13t64.5 -13q80 -29 113 -117l54 -158t53 -159q81 -224 140 -278q42 0 83 87q79 169 153 321q91 186 91 252z" />
    <glyph glyph-name="W" unicode="W" horiz-adv-x="1133" 
d="M1172 -259q-101 0 -141 75q-30 55 -30 165v654q0 38 53 73q59 38 68 75h-28q-13 -32 -55 -57h-877q-125 0 -175 65q0 -60 49 -79q8 -4 33 -8t67 -9l-18 -47q1 -16 25 -25q17 -7 38 -7q18 0 123 46q108 47 153 47h388q24 0 48 -21q25 -19 25 -44v-545q0 -35 -44 -56
q-36 -18 -75 -18q-115 0 -175 130q-47 102 -47 231q0 102 33 173q43 94 134 94q50 0 82 -25q37 -28 37 -75q0 -32 -21 -65q-22 -37 -53 -37t-38 48q-1 17 -1.5 35t-1.5 36q-23 -11 -31 -20q-11 -13 -11 -35q0 -74 74 -74q46 0 78 36q33 37 33 84q0 55 -43 85q-38 26 -95 26
q-127 0 -194 -118q-55 -95 -55 -233q0 -128 55 -231q0 -32 -41 -50q-33 -15 -69 -15q-86 0 -149 104q-55 91 -55 184q0 120 38 207q49 115 156 115q60 0 101 9q-33 37 -74 37q-129 0 -216 -133q-78 -119 -78 -254q0 -116 56 -211q64 -111 174 -111q61 0 98 19q31 15 77 63
q76 -82 184 -82q92 0 157 63q23 -1 46 -54q5 -14 11 -32.5t12 -43.5q17 -69 30 -112t23 -61q26 -47 107 -47q20 0 25 56z" />
    <glyph glyph-name="X" unicode="X" horiz-adv-x="905" 
d="M893 50h-38q-24 -38 -55 -38q-64 0 -175 166q-23 34 -57 91t-79 138q51 61 80 96.5t37 46.5q83 110 83 150q0 25 -15 45t-39 20q-62 0 -92 -97q73 -1 73 -42q0 -33 -58 -100q-54 -62 -88 -81q-16 16 -34.5 41t-41.5 60q-52 79 -52 109t13 41t43 11q43 0 54 7q19 10 18 51
q-27 -14 -39 -21q-32 -20 -253 -20q-123 0 -138 68h-37v-37q25 -35 57 -45q16 -6 62 -9q40 -3 67 -14q37 -17 87 -96q10 -16 27 -45.5t40 -74.5q11 -22 17.5 -33t7.5 -13q17 -25 26.5 -38.5t10.5 -15.5q-2 -20 -90 -114q-57 -61 -97.5 -108.5t-65.5 -82.5q-87 -122 -87 -209
q0 -70 30 -116q35 -56 100 -56q32 0 91 22t74 22q21 0 101 -36l9 18v27q-31 28 -65 28q-29 0 -91 -32t-92 -32q-31 0 -56.5 11t-43.5 30.5t-27.5 46t-9.5 58.5q0 82 41 120q19 17 81 37q51 17 61 45l51 150q10 25 36.5 58t69.5 76l165 -275q-20 -47 -73 -47q-8 0 -24.5 1
t-24.5 1q-53 0 -72 -37l19 -18l37 37h357q58 0 84 54z" />
    <glyph glyph-name="Y" unicode="Y" horiz-adv-x="641" 
d="M627 679q0 65 -73 65q-45 0 -67 -18q-17 -14 -43 -56v-26q29 26 38 26q24 0 38.5 -18.5t14.5 -43.5q0 -55 -109 -183q-17 3 -95 114q-77 112 -77 131q0 17 46 33t46 28q0 17 -15 17q-16 0 -27 -9t-12 -9h-2q-10 -5 -19 -5h-236q-5 11 -11.5 22.5t-20.5 11.5
q-16 0 -16 -22q0 -12 5 -20q23 -9 40.5 -14.5t30.5 -7.5q111 -43 215 -238q48 -92 48 -105v-254q0 -34 -38 -57q-4 -2 -21 -9t-48 -20q-38 -14 -38 -31q0 -11 26 -28q8 0 36 23t46 23h219q52 0 52 27q0 16 -21 18l6 -1h-25q-10 0 -26 -14t-21 -14q-19 0 -34 33
q-13 27 -13 50v254q0 20 100 156q101 139 101 171z" />
    <glyph glyph-name="Z" unicode="Z" horiz-adv-x="737" 
d="M720 -71v27q-15 21 -41 38q-8 5 -20.5 11.5t-29.5 14.5q6 10 6 25q0 66 -117 66q-139 0 -335 -78q7 28 100 157q46 64 75.5 102.5t43.5 52.5q6 0 16.5 1t22 1.5t22 1.5t16.5 1q10 0 30 -2.5t30 -2.5q78 0 126 71q-30 -4 -72 -5.5t-96 -1.5q-14 0 -26 0.5t-22 1.5l243 310
v9h-573q-28 0 -40 21q-1 2 -4.5 11.5t-8.5 27.5q-6 21 -21 21q-35 0 -35 -26q0 -57 59 -75q30 -9 105 -9q-8 -90 45 -90q19 0 121 45t161 45h136q-71 -90 -128 -162t-102 -128q-11 0 -27 -1.5t-39 -3.5t-39.5 -3t-27.5 -1q-10 0 -27.5 8.5t-27.5 8.5q-24 0 -54 -81
q37 10 87 10h44q26 0 59 -1l-249 -350q-69 -99 -117 -160.5t-75 -86.5q-32 -30 -58 -30q-30 0 -48 24q-20 23 -35 23q-27 0 -27 -29q0 -40 47 -40q102 0 141 43q66 79 96 120q79 97 200 137q96 31 243 31q77 0 121 -19q52 -23 90 -81h36z" />
    <glyph glyph-name="bracketleft" unicode="[" horiz-adv-x="326" 
d="M108 -165h152v23q-65 6 -79 17q-13 10 -13 70v644q0 61 13 71q14 11 79 17v23h-152v-865z" />
    <glyph glyph-name="backslash" unicode="\" horiz-adv-x="177" 
d="M146 1q-26 63 -26 71v347q0 26 -14 80q-14 56 -14 81q0 22 12 38.5t33 16.5q38 0 53 -60q54 45 54 68q0 18 -18 31t-36 13q-80 0 -107 -59q-14 -33 -19 -129q-1 -18 -2.5 -38.5t-4.5 -43.5l-39 1l1 -18h38v-319q0 -22 -36 -80h125z" />
    <glyph glyph-name="bracketright" unicode="]" horiz-adv-x="326" 
d="M219 700h-152v-23q67 -6 77 -15q15 -12 15 -73v-642q0 -62 -14 -74q-11 -8 -78 -15v-23h152v865z" />
    <glyph glyph-name="asciicircum" unicode="^" horiz-adv-x="620" 
d="M82 176h55l171 379l171 -380h59l-207 448h-42z" />
    <glyph glyph-name="underscore" unicode="_" horiz-adv-x="500" 
d="M0 -74v-50h500v50h-500z" />
    <glyph glyph-name="grave" unicode="`" 
d="M155 541l-97 156q-7 13 -17 13q-11 0 -27 -13q-16 -12 -16 -21t12 -22l126 -126z" />
    <glyph glyph-name="a" unicode="a" 
d="M140 -9q25 0 121 51q3 -24 12 -43h71q-27 48 -27 79v214q0 10 23 54q-71 26 -124 71q-62 0 -134 -94q-68 -91 -68 -155q0 -60 32 -115q38 -62 94 -62zM255 78q-66 -20 -104 -20q-28 0 -53 60q-21 52 -21 86q0 36 30 95q31 66 64 66q55 -42 84 -63v-224z" />
    <glyph glyph-name="b" unicode="b" horiz-adv-x="365" 
d="M342 256q0 68 -28 117q-35 62 -95 62q-25 0 -56 -18q-20 -11 -33.5 -18t-18.5 -9v161q41 83 181 134q53 20 53 55q0 13 -17 13q-15 0 -25 -14.5t-19 -27.5q-15 -18 -55 -38q-21 -10 -46.5 -19.5t-55.5 -18.5l-105 -30q27 -62 27 -81v-196q0 -12 -1.5 -30l-3.5 -42
q-2 -23 -3.5 -41t-1.5 -30q0 -186 117 -186q82 0 138 90q48 79 48 167zM281 212q0 -60 -20 -111q-25 -67 -78 -67q-63 0 -63 53v267q40 26 63 26q54 0 79 -61q19 -42 19 -107z" />
    <glyph glyph-name="c" unicode="c" horiz-adv-x="282" 
d="M271 73q-32 -19 -64 -19q-68 0 -112 62q-39 55 -39 126q0 50 20 99q26 62 69 62q27 0 89 -53q35 32 35 53q0 45 -62 45q-82 0 -142 -86q-55 -77 -55 -164q0 -78 37 -133q42 -64 116 -64q42 0 65.5 16.5t42.5 55.5z" />
    <glyph glyph-name="d" unicode="d" horiz-adv-x="381" 
d="M369 0q-27 40 -30 48q-6 15 -6 58v589q-38 -35 -62.5 -57.5t-35.5 -32.5q8 -13 14.5 -24t12.5 -20v-125q-26 -9 -36 -9q-7 0 -21.5 4.5t-22.5 4.5q-80 0 -125 -84q-36 -69 -36 -157q0 -71 24 -128q31 -75 92 -75q37 0 63 12q2 1 53 35l17 -39h99zM262 205
q0 -153 -80 -153q-51 0 -82 76q-25 59 -25 120q0 53 16 95q21 58 64 58q62 -33 86 -80q21 -42 21 -116z" />
    <glyph glyph-name="e" unicode="e" horiz-adv-x="345" 
d="M329 331q0 41 -48 71q-42 27 -86 27q-82 0 -133 -78q-45 -68 -45 -154q0 -78 45 -138q49 -66 124 -66t134 57q-42 -7 -64 -10.5t-26 -3.5q-73 0 -132 107q3 12 117 90q114 79 114 98zM249 304q0 -20 -154 -123q-6 19 -6 48q0 173 70 173q32 0 61 -32t29 -66z" />
    <glyph glyph-name="f" unicode="f" horiz-adv-x="177" 
d="M244 643q0 18 -18 31t-36 13q-80 0 -107 -59q-14 -33 -19 -129q-1 -18 -2.5 -38.5t-4.5 -43.5l-39 1l1 -18h38v-319q0 -22 -36 -80h125q-26 63 -26 71v328h41v19h-41q-2 25 -5.5 46t-8.5 40q-14 58 -14 75q0 22 12 38.5t33 16.5q38 0 53 -60q54 45 54 68z" />
    <glyph glyph-name="g" unicode="g" horiz-adv-x="353" 
d="M393 -123q0 29 -35 85t-35 91q0 20 -1.5 50t-5.5 70q-4 41 -5.5 71t-1.5 50q0 21 14 66q-19 7 -65 40q-41 29 -67 29q-65 0 -128 -92q-58 -85 -58 -154q0 -67 25 -118q31 -66 90 -66q37 0 119 52q9 -32 20.5 -60.5t25.5 -51.5q17 -30 72 -97q0 -42 -27 -65.5t-69 -23.5
q-52 0 -154 32q-99 31 -153 31q-116 0 -149 -71q41 26 80 26q49 0 144 -30q93 -31 144 -31q83 0 147 41q73 46 73 126zM234 113q0 -27 -21 -44.5t-49 -17.5q-37 0 -69 53q-28 47 -28 89t21 102q25 73 59 73q11 0 87 -53v-202z" />
    <glyph glyph-name="h" unicode="h" horiz-adv-x="386" 
d="M364 224q0 67 -32 117q-37 58 -100 58q-28 0 -59 -21q-41 -29 -54 -33v159q22 61 79 99l48 26t49 26q52 28 69 69h-25q-54 -68 -142 -102q-16 -6 -58 -18t-112 -30q21 -35 21 -297q0 -248 -26 -282h123q-26 37 -26 61v237q0 22 24 46q25 25 46 25q53 0 85 -45
q29 -41 29 -95q0 -92 -51 -189q-10 -18 -94 -146q-51 -77 -51 -123q0 -34 16 -59q18 -29 51 -29q17 0 17 18q0 24 -36 41q-36 15 -36 39q0 40 64 123q109 145 117 156q64 97 64 169z" />
    <glyph glyph-name="i" unicode="i" horiz-adv-x="193" 
d="M106 528q43 0 43 49q0 19 -13 34t-32 15t-31.5 -15.5t-12.5 -34.5q0 -20 13 -34t33 -14zM167 1l-31 18l4 396h-9l-88 -80q27 -44 27 -79v-99q0 -112 -44 -156h141z" />
    <glyph glyph-name="j" unicode="j" horiz-adv-x="156" 
d="M150 -263q0 34 -13 93t-13 92v517q-21 -38 -37 -55q-13 -13 -52 -41q26 -40 26 -115v-368q0 -27 35 -68q36 -41 36 -47q0 -16 -14 -38q-13 -22 -30 -22q-16 0 -52 14q-33 13 -52 13q-40 0 -51 -8q-14 -11 -20 -48q26 2 70 -12q48 -14 69 -14q31 0 64 38q34 37 34 69z
M86 528q43 0 43 49q0 19 -13 34t-32 15t-31.5 -15.5t-12.5 -34.5q0 -20 13 -34t33 -14z" />
    <glyph glyph-name="k" unicode="k" horiz-adv-x="382" 
d="M367 -4q-66 62 -124 211q17 14 33 29t33 30q41 41 41 73t-30 52q-26 18 -59 18q-15 0 -70 -29q-23 -13 -41 -23t-29 -18v101q0 116 34 144q5 4 34 18.5t83 39.5q90 40 90 65q0 18 -23 18q-12 0 -30 -19l-12 -14t-13 -14q-30 -28 -127 -62q-63 -22 -98 -35t-44 -18
q35 -37 35 -66v-303q0 -151 -35 -198q17 -1 30 -1h22h40q14 1 23 1h17q-25 37 -25 77q0 21 1.5 39t3.5 34q12 7 23.5 13.5t22.5 12.5q23 -26 48 -89q25 -61 49 -87h97zM270 304q0 -31 -61 -77q-20 -14 -39.5 -27.5t-39.5 -27.5v114q51 71 88 71q21 0 36.5 -16t15.5 -37z" />
    <glyph glyph-name="l" unicode="l" horiz-adv-x="155" 
d="M146 1q-28 38 -28 218v69q0 10 0.5 105.5t1.5 278.5q-8 -5 -20 -15.5l-28 -24.5t-28 -24t-22 -15q19 -18 25 -34q4 -11 4 -41v-92t-1 -129t-1 -129v-92q0 -15 -27 -75h124z" />
    <glyph glyph-name="m" unicode="m" horiz-adv-x="561" 
d="M535 -7v336q0 33 -29 62t-62 29q-31 0 -63 -20q-8 -5 -20.5 -16t-30.5 -28q-57 64 -104 64q-25 0 -53 -18q-38 -23 -48 -27v63q-60 -61 -100 -94q37 -52 37 -89q0 -187 -37 -254h119q-22 26 -26 54q-3 15 -3 61v40l-1 9v2v-1q0 209 76 209q52 0 67 -53q7 -24 7 -95
q0 -176 -38 -226h136q-11 8 -17.5 13.5t-8.5 9.5q-11 14 -11 32v218q0 17 5 33.5t15 29t23 20.5t30 8q34 0 47 -10q17 -11 17 -45v-245q0 -24 -27 -72q17 5 28 7.5t18 3.5q14 -3 27.5 -6t26.5 -5z" />
    <glyph glyph-name="n" unicode="n" horiz-adv-x="404" 
d="M379 237q0 64 -28 113q-33 61 -91 61q-30 0 -70 -26q-50 -34 -65 -38v64q-66 -57 -91 -73q27 -53 27 -73v-190q0 -25 -36 -82h127q-27 40 -27 63v227q0 17 7.5 32t20 26t28.5 17.5t34 6.5q52 0 84 -62q26 -52 26 -110q0 -75 -56 -164q-26 -35 -51.5 -70.5t-51.5 -70.5
q-56 -77 -56 -124q0 -31 21 -53t52 -22q23 0 23 19q0 3 -1 4q-7 9 -40 22q-22 9 -22 41q0 52 61 132q29 37 57 74t57 74q61 94 61 182z" />
    <glyph glyph-name="o" unicode="o" horiz-adv-x="367" 
d="M356 217q0 85 -41 153q-48 81 -127 81q-85 0 -134 -94q-43 -77 -43 -169q0 -79 39 -137q44 -65 120 -65q89 0 140 73q46 64 46 158zM300 151q0 -121 -84 -121q-67 0 -112 92q-37 75 -37 152q0 45 19 79q22 42 65 42q71 0 115 -90q34 -71 34 -154z" />
    <glyph glyph-name="p" unicode="p" horiz-adv-x="363" 
d="M344 247q0 78 -23 136q-32 78 -98 78q-33 0 -64 -22q-21 -14 -35 -23t-22 -11v56q-60 -41 -74 -74v-503q0 -58 -32 -87q-12 -10 -62 -30q-33 -14 -33 -36q0 -21 20 -21q10 0 23 5q28 10 84 104q55 87 61 125q7 46 9 96q41 -37 69 -37q78 0 131 86q46 74 46 158zM289 209
q0 -61 -19 -106q-26 -63 -75 -63q-59 0 -80 49q-13 30 -13 101q0 206 84 206q51 0 80 -72q23 -57 23 -115z" />
    <glyph glyph-name="q" unicode="q" horiz-adv-x="389" 
d="M367 -37v409q-20 22 -66 51q-2 1 -74 42q-205 -97 -205 -280q0 -69 26 -121q31 -64 95 -64q25 0 66 15q48 18 66 21v-140q-53 -139 -65 -150q-9 3 -18 3q-12 0 -23.5 -5.5t-20.5 -14t-15 -19.5t-6 -23q0 -19 18 -19q28 0 58 35q5 6 8 10.5l5 7.5q68 102 151 242zM161 400
q72 -37 83 -47q35 -30 35 -85q0 -83 -8 -123q-17 -80 -72 -80q-52 0 -76 61q-17 45 -17 106q0 53 13 89q11 33 42 79z" />
    <glyph glyph-name="r" unicode="r" horiz-adv-x="320" 
d="M300 374q0 25 -15.5 40.5t-40.5 15.5q-32 0 -64 -25q-14 -9 -51 -48l3 82q-55 -55 -92 -74q26 -57 26 -90v-73q0 -131 -46 -202q72 0 140 -3q-22 25 -27 35q-12 19 -12 43q0 161 9 227q10 72 77 72q25 0 51 -47q42 30 42 47z" />
    <glyph glyph-name="s" unicode="s" horiz-adv-x="408" 
d="M441 697q-5 57 -42 57q-18 0 -18 -24q0 -29 29 -44t29 -55q0 -59 -32 -115q-11 -19 -29 -42.5t-44 -52.5q-101 46 -146 46q-64 0 -102 -38t-38 -102q0 -54 13 -77q7 -12 52 -59q-34 -40 -59 -70t-42 -50q21 -11 42 -23l42 -24q51 -24 92 -24q67 0 120 44q57 46 57 113
q0 41 -36 88q-3 4 -19.5 22t-47.5 50q41 40 65.5 64.5t33.5 35.5q54 61 73 119q21 63 21 102q0 33 -14 59zM244 344q0 -20 -27 -42q-26 -22 -47 -22q-16 0 -31.5 6t-27.5 16t-19 24t-7 29q0 21 22 47q22 27 43 27q31 0 62 -28q32 -29 32 -57zM300 120q0 -36 -14.5 -49.5
t-51.5 -13.5q-18 0 -36 6.5t-34 17.5t-29 26t-22 33l22 26l22 26q32 32 59 32q34 0 60 -36q24 -32 24 -68z" />
    <glyph glyph-name="t" unicode="t" horiz-adv-x="222" 
d="M212 399v14h-66q-3 43 -3 70q0 73 18 159l-111 -112l28 -37l1 -80h-69v-16h65q2 -55 3 -123t1 -150q0 -87 -40 -124h137q-34 27 -34 118q0 23 0.5 58t1.5 82q1 48 1.5 82.5t0.5 57.5z" />
    <glyph glyph-name="u" unicode="u" horiz-adv-x="371" 
d="M270 -3h63v410q-71 -47 -99 -63q20 -32 24 -49q5 -20 5 -53q0 -210 -93 -210q-68 0 -68 109q0 6 1 15t2.5 19t2.5 19t1 15v198q-18 -11 -40 -25.5t-48 -33.5q20 -38 20 -111q0 -8 -0.5 -20t-1.5 -29q-1 -16 -1 -28v-20q0 -161 88 -161q60 0 108 70l14 1q0 -27 22 -53z
" />
    <glyph glyph-name="v" unicode="v" horiz-adv-x="339" 
d="M325 359q0 37 -13 54t-49 17q-11 0 -20.5 -6t-17 -15.5t-12 -21t-4.5 -22.5q0 -10 1 -15q16 1 23 1h9q23 0 31.5 -10.5t8.5 -44.5q0 -54 -79 -230q-13 45 -26 89t-27 89q-16 54 -32 96.5t-33 76.5q-23 -19 -40.5 -33.5t-30.5 -24.5q25 -37 45.5 -81t37.5 -96
q7 -21 19 -68t31 -120h36q24 33 82 181q60 153 60 184z" />
    <glyph glyph-name="w" unicode="w" horiz-adv-x="532" 
d="M511 354q0 81 -72 81q-46 0 -78 -38q-7 -8 -46 -79l-62 107l-63 -62q27 -29 51 -72q29 -50 29 -80q0 -32 -55 -136l-123 350q-40 -14 -80 -67q46 -48 78 -134l24 -74t24 -75q22 -70 43 -70q17 0 52 71q22 43 33 65.5t13 24.5q23 -54 38.5 -93.5t24.5 -67.5h35q4 16 23 60
t53 118q58 126 58 171zM475 309q0 -47 -89 -199q-53 114 -53 155q0 36 27 71q27 36 62 36q53 -26 53 -63z" />
    <glyph glyph-name="x" unicode="x" horiz-adv-x="371" 
d="M350 374q0 35 -26 35q-32 0 -54 -48l36 -32q0 -46 -67 -80q-17 24 -39 85q-10 29 -19.5 50t-17.5 34q-19 -22 -34.5 -37t-28.5 -25q51 -51 90 -179q-19 -22 -38 -43.5t-38 -43.5q-44 -52 -66 -95q-28 -55 -28 -110q0 -56 24 -101q25 -50 75 -69h44l-9 18v18
q-5 -1 -11 -1.5t-11 -0.5q-43 0 -68 30t-25 78q0 56 18 85q19 27 70 50q-4 9 -4 22q0 32 21 68q20 35 50 52q32 -66 32 -134h115q-14 22 -28 47.5t-27 56.5q-7 16 -17.5 43t-25.5 67q15 19 30 37t30 37q47 62 47 86z" />
    <glyph glyph-name="y" unicode="y" 
d="M345 335q-7 36 -17 50q-14 20 -46 20q-29 0 -51 -54q37 -13 49 -22q20 -17 20 -48q0 -20 -37 -97q-16 -35 -28.5 -59.5t-21.5 -39.5l-128 320q-69 -40 -70 -70q151 -254 151 -356q0 -22 -41 -106q-40 -81 -40 -117q0 -50 50 -50q80 0 85 -1q54 -3 80 -20v44
q-31 28 -57 37t-68 9q-7 0 -16 -0.5t-20 -1.5q-26 -3 -36 -3z" />
    <glyph glyph-name="z" unicode="z" horiz-adv-x="251" 
d="M239 85q0 72 -83 125q4 8 43 57q30 39 30 59q0 33 -29 56q-29 24 -63 24q-65 0 -114 -76q60 0 80 -3q53 -11 53 -46q0 -19 -50 -74q-28 -31 -44 -50.5t-20 -27.5q27 1 45.5 0t29.5 -5q39 -14 39 -57t-48 -100q-23 -26 -45 -51.5t-44 -51.5q-47 -67 -47 -128q0 -59 92 -59
q48 0 113 17l-10 17v18h-51q-67 -35 -72 -35q-22 0 -36 15.5t-14 37.5q0 55 63 118q29 26 59 53t59 53q64 61 64 114z" />
    <glyph glyph-name="braceleft" unicode="{" horiz-adv-x="326" 
d="M60 254q45 -3 62 -24.5t17 -66.5q0 -35 -6 -105q-2 -35 -3.5 -61.5t-1.5 -43.5q0 -125 132 -125v23q-41 6 -57 30q-15 19 -15 63q0 17 2 42.5t6 59.5t6 59.5t2 42.5q0 98 -71 116v4q71 20 71 116q0 17 -2 42.5t-6 60.5t-6 61t-2 43q0 42 15 64t57 28v23q-132 0 -132 -125
q0 -17 1.5 -44t3.5 -62q6 -71 6 -105q0 -46 -16 -65q-20 -24 -63 -27v-24z" />
    <glyph glyph-name="bar" unicode="|" horiz-adv-x="326" 
d="M266 278q-45 3 -62 24.5t-17 66.5q0 17 1.5 43.5t3.5 61.5q6 70 6 107q0 123 -132 125v-23q42 -6 58 -30q14 -22 14 -64q0 -17 -2 -42.5t-6 -60.5q-4 -34 -6 -59.5t-2 -42.5q0 -96 71 -116v-4q-71 -18 -71 -116q0 -17 2 -42.5t6 -59.5t6 -59t2 -42q0 -42 -14 -64
q-16 -24 -58 -30v-23q132 0 132 125q0 34 -6 105q-2 35 -3.5 61.5t-1.5 43.5q0 45 17 66.5t62 24.5v24z" />
    <glyph glyph-name="braceright" unicode="}" horiz-adv-x="326" 
d="M266 278q-45 3 -62 24.5t-17 66.5q0 17 1.5 43.5t3.5 61.5q6 70 6 107q0 123 -132 125v-23q42 -6 58 -30q14 -22 14 -64q0 -17 -2 -42.5t-6 -60.5q-4 -34 -6 -59.5t-2 -42.5q0 -96 71 -116v-4q-71 -18 -71 -116q0 -17 2 -42.5t6 -59.5t6 -59t2 -42q0 -42 -14 -64
q-16 -24 -58 -30v-23q132 0 132 125q0 34 -6 105q-2 35 -3.5 61.5t-1.5 43.5q0 45 17 66.5t62 24.5v24z" />
    <glyph glyph-name="asciitilde" unicode="~" horiz-adv-x="619" 
d="M530 329q-31 -82 -90 -82q-39 0 -115 36q-77 36 -125 36q-94 0 -140 -109l38 -23q34 82 99 82q36 0 113 -36q76 -36 124 -36q100 0 135 113z" />
    <glyph glyph-name="quotesinglbase" unicode="&#x201a;" horiz-adv-x="220" 
d="M104 -65q19 0 34 71q13 56 13 90q0 45 -33 45q-40 0 -40 -95q0 -111 26 -111z" />
    <glyph glyph-name="florin" unicode="&#x192;" horiz-adv-x="427" 
d="M82 370v-31h83l-20 -207q-15 -159 -34 -192q-14 -26 -39 -26q-12 0 -36 11q-21 10 -27 10q-5 0 -9.5 -4.5t-8.5 -10.5t-6.5 -13t-2.5 -12q0 -14 17.5 -23.5t32.5 -9.5q36 0 82 41q75 68 98 235l28 201h108l1 31h-106q18 175 40 208q15 24 38 24q33 0 71 -29q2 -1 3 -1h1
q11 0 19.5 15t8.5 26q0 8 -5.5 15t-14 12t-18 8t-18.5 3q-55 0 -110 -58q-42 -43 -63 -104q-6 -18 -12 -47.5t-13 -71.5h-88z" />
    <glyph glyph-name="quotedblbase" unicode="&#x201e;" horiz-adv-x="330" 
d="M276 102q0 39 -34 39q-41 0 -41 -94q0 -112 28 -112q20 0 35 73q12 58 12 94zM90 -65q19 0 35 70q13 56 13 91q0 45 -34 45q-41 0 -41 -96q0 -110 27 -110z" />
    <glyph glyph-name="ellipsis" unicode="&#x2026;" horiz-adv-x="705" 
d="M570 58q0 42 -32 42q-9 0 -17.5 -5.5t-14.5 -14t-10 -19t-4 -19.5q0 -42 35 -42q17 0 31 21q12 18 12 37zM100 58q0 42 -32 42q-9 0 -17.5 -5.5t-14.5 -14t-10 -19t-4 -19.5q0 -42 35 -42q17 0 31 21q12 18 12 37zM335 58q0 42 -32 42q-9 0 -17.5 -5.5t-14.5 -14t-10 -19
t-4 -19.5q0 -42 35 -42q17 0 31 21q12 18 12 37z" />
    <glyph glyph-name="dagger" unicode="&#x2020;" horiz-adv-x="474" 
d="M258 -137q-1 21 -1.5 45t-0.5 50q0 217 32 305q-32 69 -35 136q76 -2 123 -36q37 16 52 50q-15 34 -52 50q-45 -33 -123 -35q5 92 37 157q-19 46 -53 66q-35 -23 -54 -66q32 -63 37 -157q-76 2 -123 35q-37 -16 -52 -50q16 -33 52 -50q46 34 123 36q-3 -68 -33 -136
q31 -78 31 -281q0 -42 -0.5 -71.5t-1.5 -47.5h42z" />
    <glyph glyph-name="daggerdbl" unicode="&#x2021;" horiz-adv-x="474" 
d="M253 116q0 114 37 151q-34 37 -37 148q82 -3 125 -36q35 17 51 50q-17 36 -51 51q-43 -33 -125 -36q2 38 11.5 73.5t26.5 69.5q-22 44 -54 64q-32 -21 -54 -64q17 -34 26.5 -69.5t11.5 -73.5q-81 3 -124 36q-36 -16 -52 -51q17 -35 52 -50q43 33 124 36q-3 -110 -36 -148
q24 -24 31 -71q2 -13 3 -32.5t2 -47.5q-81 3 -124 36q-35 -15 -52 -50q16 -35 52 -51q43 33 124 36q-2 -48 -11.5 -87.5t-26.5 -73.5q23 -45 54 -64q32 21 54 64q-17 34 -26.5 73.5t-11.5 87.5q82 -3 125 -36q34 16 51 51q-17 35 -51 50q-43 -33 -125 -36z" />
    <glyph glyph-name="circumflex" unicode="&#x2c6;" 
d="M188 711q-41 -86 -90 -168l22 -15q26 34 46 60t34 46q16 -23 36 -50t43 -56l22 15q-26 43 -48 84.5t-41 83.5h-24z" />
    <glyph glyph-name="perthousand" unicode="&#x2030;" horiz-adv-x="958" 
d="M157 310q73 0 124 82q45 73 45 151q0 44 -23 78q-25 37 -68 37q-74 0 -130 -74q-52 -68 -52 -145q0 -50 26 -87q28 -42 78 -42zM534 647l-56 22q-73 -165 -159.5 -332t-186.5 -340l56 -21q73 165 159.5 331.5t186.5 339.5zM443 -13q73 0 124 82q46 71 46 150q0 44 -23 78
q-25 37 -69 37q-73 0 -129 -74q-51 -69 -51 -146q0 -52 25 -87q28 -40 77 -40zM279 493q0 -48 -20 -86q-26 -45 -69 -45q-44 0 -69 39q-21 33 -21 80q0 49 22 86q25 46 71 46q44 0 66 -40q20 -35 20 -80zM565 172q0 -50 -19 -87q-23 -47 -68 -47q-43 0 -69 38q-22 32 -22 80
t23 86q27 46 71 46q42 0 65 -39q19 -31 19 -77zM743 -13q73 0 124 82q46 71 46 150q0 44 -23 78q-25 37 -69 37q-73 0 -129 -74q-51 -69 -51 -146q0 -52 25 -87q28 -40 77 -40zM865 172q0 -50 -19 -87q-23 -47 -68 -47q-43 0 -69 38q-22 32 -22 80t23 86q27 46 71 46
q42 0 65 -39q19 -31 19 -77z" />
    <glyph glyph-name="Scaron" unicode="&#x160;" horiz-adv-x="679" 
d="M724 798q38 0 38 19t-27 19q-17 0 -28 -6.5t-22 -13.5q-17 -9 -29 -15.5t-20 -10.5q-11 -10 -21 -20t-21 -20q-28 -25 -50 -25q-12 0 -85 37t-121 37q-93 0 -158 -61q-65 -62 -65 -153q0 -90 68 -149q46 -40 149 -81q91 -34 91 -50q0 -32 -45 -134q-40 -90 -66 -133
q-26 8 -43.5 14.5t-25.5 10.5q-46 22 -67 86q-8 23 -24 121q-7 38 -16.5 65.5t-20.5 44.5h-39q4 -14 30 -63q18 -35 18 -69q0 -206 -121 -305v-28q27 13 50 39q21 24 34 32q25 13 74 13h136q-40 -109 -90 -178q-73 -103 -157 -103q-4 0 -25 9q-22 8 -30 8q-12 0 -26 -9.5
t-14 -20.5q0 -12 12.5 -20.5t25.5 -8.5q7 0 22.5 3t23.5 3q76 0 137 61q19 19 41.5 50.5t48.5 76.5q43 73 64 122q17 -2 35 -3.5t36 -1.5q128 0 186 43q68 51 68 173q0 151 -168 223q11 38 21.5 76t21.5 76q31 96 65 138q17 20 26.5 32.5t13.5 16.5q29 33 48 34h19v1
q5 -1 11 -1.5t11 -0.5zM478 565q0 -26 -10 -62q-11 -39 -23 -58q-70 28 -110.5 45t-52.5 23q-112 58 -112 120q0 47 46 87q47 41 95 41q78 0 125 -60q42 -54 42 -136zM599 146q0 -64 -64 -100q-52 -31 -122 -31q-17 0 -70 14q92 171 116 266q45 -28 67.5 -42.5t24.5 -15.5
q48 -41 48 -91zM415 804q40 85 90 168l-22 15q-26 -34 -46 -60t-34 -46q-16 23 -36 50t-43 56l-22 -15q26 -43 48 -84.5t41 -83.5h24z" />
    <glyph glyph-name="guilsinglleft" unicode="&#x2039;" horiz-adv-x="245" 
d="M204 55l-84 173l84 175l-21 14q-42 -61 -77.5 -108t-64.5 -81q29 -32 64.5 -79t77.5 -110z" />
    <glyph glyph-name="OE" unicode="&#x152;" horiz-adv-x="1238" 
d="M327 735q69 0 131 -35q9 -5 15.5 -9.5t11.5 -7.5q2 -1 52 -10q49 -9 56 -9q34 0 43 -4q22 -7 22 -33v-544q0 -51 -74 -68q-29 -4 -57.5 -7.5t-57.5 -7.5q75 45 116 142q35 84 35 183q0 275 -188 355q-50 21 -107 21q-85 0 -132.5 -43t-47.5 -127q0 -58 36 -103
q39 -49 96 -49q36 0 70 28q35 29 35 64q0 46 -46 46q-32 0 -32 -40q0 -31 -1 -34q-4 -19 -25 -19q-28 0 -57 26q-28 25 -28 55q0 42 33 86q35 44 75 44q108 0 179 -153q57 -125 57 -249q0 -191 -155 -191q-138 0 -217 153q-66 124 -66 276q0 116 55 186q61 78 173 78z
M1174 720h-655q-4 -4 -35 13q-31 16 -35 16q-45 24 -113 24q-161 0 -251 -135q-78 -116 -78 -286q0 -127 49 -218q56 -104 163 -147q67 -27 99 -27q72 0 128 28v-34q41 13 82 46h692q-99 90 -105 98q-70 71 -70 114q0 21 33 72q0 10 -8.5 19.5t-17.5 9.5q-11 0 -23 -21
t-12 -33q0 -24 12 -61q13 -39 25 -60q-77 -38 -77 -52q0 -16 13 -68h-194q-27 20 -33 26q-13 14 -13 39v259q44 -3 67.5 -4.5t27.5 -2.5q28 -7 80 -50v185q-44 -41 -73 -55h-102v203q0 29 18 51.5t46 22.5h158q-8 -34 -8 -45q0 -18 23 -32q5 -4 39 -16q-33 -62 -33 -77
q0 -52 27 -52q20 0 20 50q0 13 -14 24q0 29 61 93q16 17 37.5 38t49.5 45z" />
    <glyph glyph-name="quoteleft" unicode="&#x2018;" horiz-adv-x="220" 
d="M104 517q19 0 34 72q13 56 13 90q0 45 -33 45q-40 0 -40 -95q0 -112 26 -112z" />
    <glyph glyph-name="quoteright" unicode="&#x2019;" horiz-adv-x="220" 
d="M104 517q19 0 34 72q13 56 13 90q0 45 -33 45q-40 0 -40 -95q0 -112 26 -112z" />
    <glyph glyph-name="quotedblleft" unicode="&#x201c;" horiz-adv-x="330" 
d="M276 685q0 39 -34 39q-41 0 -41 -94q0 -113 28 -113q20 0 35 74q12 58 12 94zM90 517q18 0 35 71q13 56 13 91q0 45 -34 45q-41 0 -41 -96q0 -111 27 -111z" />
    <glyph glyph-name="quotedblright" unicode="&#x201d;" horiz-adv-x="330" 
d="M276 685q0 39 -34 39q-41 0 -41 -94q0 -113 28 -113q20 0 35 74q12 58 12 94zM90 517q18 0 35 71q13 56 13 91q0 45 -34 45q-41 0 -41 -96q0 -111 27 -111z" />
    <glyph glyph-name="bullet" unicode="&#x2022;" horiz-adv-x="289" 
d="M146 425q-42 0 -70.5 -29t-28.5 -71t28 -71t70 -29t69.5 29t27.5 71q0 20 -7.5 38t-20.5 32t-30.5 22t-37.5 8z" />
    <glyph glyph-name="endash" unicode="&#x2013;" horiz-adv-x="501" 
d="M50 254v-51h401v51h-401z" />
    <glyph glyph-name="emdash" unicode="&#x2014;" horiz-adv-x="1002" 
d="M50 253v-51h902v51h-902z" />
    <glyph glyph-name="tilde" unicode="&#x2dc;" 
d="M139 613q-47 0 -77 -77l19 -13q21 41 47 41q19 0 56 -17q39 -17 58 -17q53 0 77 77l-20 11q-20 -39 -46 -39q-18 0 -57 17t-57 17z" />
    <glyph glyph-name="trademark" unicode="&#x2122;" horiz-adv-x="666" 
d="M176 616q46 0 56 -7q10 -6 22 -46l17 1l-5 85h-11q-7 -10 -19 -10h-160q-9 0 -13 1t-8 8l-12 1q0 5 -1.5 -16.5t-3.5 -69.5h17q7 28 17.5 40.5t35.5 12.5h22v-176q0 -31 -5 -39q-6 -10 -35 -12v-18h128v18q-15 1 -23 3t-12.5 7.5t-5.5 15t-1 25.5v176zM537 639l-75 -184
l-76 184h-91v-19q24 -2 28 -6q9 -5 9 -26q0 -48 -3.5 -92t-10.5 -85q-4 -21 -35 -22v-18h107v18q-31 3 -37 18q-3 6 -3 45q0 12 6 137h2l84 -213h14l88 220h2l1 -159q0 -29 -4 -36q-4 -10 -31 -12v-18h116v18q-27 2 -31 12q-2 5 -4 36q-3 142 -3 147q0 21 5.5 27.5t28.5 8.5
v19h-87z" />
    <glyph glyph-name="scaron" unicode="&#x161;" horiz-adv-x="408" 
d="M143 191q-33 -40 -58.5 -70l-42.5 -50q21 -11 42 -23l42 -24q51 -24 92 -24q67 0 120 44q57 46 57 113q0 41 -36 88q-3 4 -19.5 22t-47.5 50l94 93q-123 57 -168 57q-64 0 -102 -38t-38 -102q0 -54 13 -77q4 -7 17 -21.5t35 -37.5zM274 344q0 -20 -27 -42
q-26 -22 -47 -22q-16 0 -31.5 6t-27.5 16t-19 24t-7 29q0 21 22 47q22 27 43 27q31 0 62 -28q32 -29 32 -57zM330 120q0 -36 -14.5 -49.5t-51.5 -13.5q-18 0 -36 6.5t-34 17.5t-29 26t-22 33l22 26l22 26q32 32 59 32q34 0 60 -36q24 -32 24 -68zM231 528q40 85 90 168
l-22 15q-26 -34 -46 -60t-34 -46q-16 23 -36 50t-43 56l-22 -15q26 -43 48 -84.5t41 -83.5h24z" />
    <glyph glyph-name="guilsinglright" unicode="&#x203a;" horiz-adv-x="245" 
d="M62 39q42 63 77.5 110t64.5 79q-29 34 -64.5 81t-77.5 108l-21 -14l84 -175l-84 -173z" />
    <glyph glyph-name="oe" unicode="&#x153;" horiz-adv-x="626" 
d="M151 395q73 0 115 -90q34 -71 34 -154q0 -121 -84 -121q-67 0 -112 92q-37 75 -37 152q0 45 19 79q22 42 65 42zM609 331q0 41 -48 71q-42 27 -86 27q-91 0 -143 -93q-46 115 -144 115q-83 0 -134 -94q-43 -77 -43 -169q0 -79 39 -137q44 -65 120 -65q105 0 156 98
q49 -91 140 -91q75 0 134 57q-42 -7 -64 -10.5t-26 -3.5q-73 0 -132 107q1 11 118 91q113 78 113 97zM529 304q0 -20 -154 -123q-6 19 -6 48q0 173 70 173q32 0 61 -32t29 -66z" />
    <glyph glyph-name="Ydieresis" unicode="&#x178;" horiz-adv-x="641" 
d="M627 679q0 65 -73 65q-45 0 -67 -18q-17 -14 -43 -56v-26q29 26 38 26q24 0 38.5 -18.5t14.5 -43.5q0 -55 -109 -183q-17 3 -95 114q-77 112 -77 131q0 17 46 33t46 28q0 17 -15 17q-16 0 -27 -9t-12 -9h-2q-10 -5 -19 -5h-236q-5 11 -11.5 22.5t-20.5 11.5
q-16 0 -16 -22q0 -12 5 -20q23 -9 40.5 -14.5t30.5 -7.5q111 -43 215 -238q48 -92 48 -105v-254q0 -34 -38 -57q-4 -2 -21 -9t-48 -20q-38 -14 -38 -31q0 -11 26 -28q8 0 36 23t46 23h219q52 0 52 27q0 16 -21 18l6 -1h-25q-10 0 -26 -14t-21 -14q-19 0 -34 33
q-13 27 -13 50v254q0 20 100 156q101 139 101 171zM331 836q43 0 43 49q0 19 -13 34t-32 15t-31.5 -15.5t-12.5 -34.5q0 -20 13 -34t33 -14zM453 836q43 0 43 49q0 19 -13 34t-32 15t-31.5 -15.5t-12.5 -34.5q0 -20 13 -34t33 -14z" />
    <glyph glyph-name="exclamdown" unicode="&#xa1;" horiz-adv-x="167" 
d="M63 14q11 -14 24 -14q29 0 78 91q1 59 2 117t3 118q7 225 28 258l-13 5q-12 -18 -27 -28q-22 -99 -32 -109q-4 -34 -11.5 -88.5t-20.5 -130.5q-12 -72 -19.5 -126.5t-11.5 -92.5zM127 681q0 -42 32 -42q9 0 17.5 5.5t14.5 14t10 19t4 19.5q0 42 -35 42q-18 0 -30.5 -19.5
t-12.5 -38.5z" />
    <glyph glyph-name="cent" unicode="&#xa2;" horiz-adv-x="427" 
d="M226 150q-56 14 -86 71q-24 49 -24 113q0 57 26 107q32 61 84 62v-353zM258 504q26 -3 55 -27q29 -23 32 -23q14 0 24 11.5t10 26.5q0 26 -41 40q-29 9 -65 9q-12 0 -15 -1v80h-32v-84q-79 -19 -130 -90q-50 -71 -50 -152q0 -80 50 -139q53 -62 130 -66v-96h32v99
q75 14 134 98l-16 19q-56 -61 -118 -62v357z" />
    <glyph glyph-name="sterling" unicode="&#xa3;" horiz-adv-x="427" 
d="M334 299v31h-123q-8 23 -17 45t-17 45q-19 51 -19 93q0 29 14.5 51t42.5 22q35 0 63 -19t31 -19q10 0 20.5 13.5t10.5 22.5q0 23 -34 38q-27 13 -53 13q-39 0 -89 -44q-65 -57 -65 -141q0 -25 11 -61l10 -30t10 -29h-100v-31h111q7 -29 7 -60q0 -59 -35 -108
q-8 -11 -24 -27.5t-40 -36.5q-34 -30 -34 -48q0 -21 26 -21q10 0 18 24q7 25 23 25q12 0 74 -28q63 -28 98 -28q50 0 102 40q53 41 53 89q0 40 -25 40q-13 0 -26 -12t-13 -24q0 -7 4.5 -22t4.5 -23q0 -34 -43 -34q-38 0 -96 21q-69 23 -95 28q99 91 99 175q0 10 -0.5 17.5
t-1.5 12.5h117z" />
    <glyph glyph-name="currency" unicode="&#xa4;" horiz-adv-x="427" 
d="M206 481q57 0 90 -51q29 -46 29 -105q0 -61 -28 -104q-33 -52 -90 -52q-58 0 -89 52q-28 43 -28 104q0 60 28 104q31 52 88 52zM207 528q-60 0 -102 -39l-61 76l-42 -43l69 -68q-40 -55 -40 -129t40 -129l-69 -68l42 -43l61 76q43 -39 102 -39q57 0 101 39l61 -76l43 43
l-70 68q40 55 40 129t-40 129l70 68l-43 43l-60 -76q-45 39 -102 39z" />
    <glyph glyph-name="yen" unicode="&#xa5;" horiz-adv-x="427" 
d="M178 93q0 -46 -16 -58q-11 -9 -63 -14v-21h227v21q-53 5 -64 13q-16 13 -16 59v81h138v31h-138v51v22q0 10 1 17h137v31h-129q46 116 90 202q22 42 30 51q17 17 53 23v21h-170v-21q34 -5 36 -6q23 -6 23 -20q0 -34 -89 -236q-14 31 -27.5 61t-27.5 60q-44 100 -44 114
t22 21q3 2 34 6v21h-188v-21q31 -5 44 -18q9 -9 26 -43q22 -45 46 -98.5t52 -116.5h-126v-31h136q3 -23 3 -40v-50h-139v-31h139v-81z" />
    <glyph glyph-name="brokenbar" unicode="&#xa6;" horiz-adv-x="227" 
d="M84 325h60v350h-60v-350zM84 -174h60v349h-60v-349z" />
    <glyph glyph-name="section" unicode="&#xa7;" horiz-adv-x="472" 
d="M427 198q0 78 -66 143q-31 25 -61 49l-60 48q-66 54 -66 106q0 28 21 45t50 17q32 0 58 -16q28 -16 27 -16q11 0 20 15t9 27q0 20 -30 34q-25 11 -48 11q-5 0 -25 -7q-65 -23 -126 -97q-85 -103 -85 -204q0 -67 65 -132q30 -26 60 -51.5t59 -51.5q65 -59 65 -113
q0 -34 -22.5 -55t-58.5 -21q-26 0 -53 13q-29 12 -27 12q-6 0 -12 -4t-11.5 -10t-9 -13t-3.5 -13q0 -21 36 -36q27 -13 54 -13q2 0 23 8q61 25 115 96q102 132 102 229zM94 400q0 65 37 111l3 -1q-4 -66 59 -126q29 -25 59 -49t60 -49q65 -62 65 -128q0 -71 -40 -120l-2 1
q3 42 -12 77q-15 34 -77 84q-42 34 -67 55t-34 31q-51 55 -51 114z" />
    <glyph glyph-name="dieresis" unicode="&#xa8;" horiz-adv-x="193" 
d="M106 528q43 0 43 49q0 19 -13 34t-32 15t-31.5 -15.5t-12.5 -34.5q0 -20 13 -34t33 -14zM228 528q43 0 43 49q0 19 -13 34t-32 15t-31.5 -15.5t-12.5 -34.5q0 -20 13 -34t33 -14z" />
    <glyph glyph-name="copyright" unicode="&#xa9;" horiz-adv-x="684" 
d="M482 383q-4 30 -6.5 52.5t-4.5 37.5q-42 16 -102 16q-80 0 -134 -45q-57 -48 -57 -127q0 -78 55 -124q53 -44 131 -44q51 0 104 19q18 58 24 90l-20 5q-37 -85 -108 -85q-57 0 -88 46q-29 41 -29 99q0 57 27 95q31 43 86 43q69 0 102 -81zM343 617q-126 0 -211 -87
q-85 -85 -85 -211q0 -125 85 -210q86 -86 210 -86q125 0 210 85t85 211t-85 211q-84 87 -209 87zM342 580q107 0 178 -77q67 -73 67 -183t-67 -183q-69 -77 -177 -77q-106 0 -177 77q-67 73 -67 183q0 107 68 184q67 76 175 76z" />
    <glyph glyph-name="guillemotleft" unicode="&#xab;" horiz-adv-x="399" 
d="M204 55l-84 173l84 175l-20 14q-43 -63 -78.5 -110t-64.5 -79q29 -32 64.5 -79t77.5 -110zM354 55l-84 173l84 175l-21 14q-42 -61 -77.5 -108t-64.5 -81q29 -32 64.5 -79t77.5 -110z" />
    <glyph glyph-name="logicalnot" unicode="&#xac;" horiz-adv-x="619" 
d="M51 398v-47h461v-244h57v291h-518z" />
    <glyph glyph-name="registered" unicode="&#xae;" horiz-adv-x="496" 
d="M249 651q-87 0 -148 -59q-60 -59 -60 -147q0 -87 60 -147q61 -59 147 -59t147 59q60 60 60 147t-60 146q-59 60 -146 60zM248 619q71 0 118 -51q48 -51 48 -123q0 -71 -47 -123q-47 -50 -118 -50q-72 0 -119 50q-46 49 -46 123q0 73 46 123q46 51 118 51zM179 380
q0 -22 -5 -27.5t-27 -6.5v-17h104v17q-22 1 -26.5 6.5t-4.5 27.5v48q23 0 31 -11q8 -15 17 -30t17 -30q22 -30 59 -30h15l3 14q-18 5 -43 43q-12 18 -33 56q48 16 48 58q0 59 -81 59h-105v-17q21 -1 26 -6t5 -27v-127zM220 524q0 11 4 12.5t18 1.5q45 0 45 -47
q0 -45 -47 -45h-20v78z" />
    <glyph glyph-name="degree" unicode="&#xb0;" horiz-adv-x="324" 
d="M162 651q-58 0 -95 -39q-38 -40 -38 -97q0 -29 10 -54t27.5 -43t41.5 -28.5t53 -10.5t53 10.5t41.5 28.5t27.5 43t10 54q0 56 -38 96q-37 40 -93 40zM161 611q39 0 60 -28t21 -68t-20 -66q-23 -30 -60 -30q-38 0 -60 30q-19 26 -19 66q0 39 20.5 67.5t57.5 28.5z" />
    <glyph glyph-name="plusminus" unicode="&#xb1;" horiz-adv-x="619" 
d="M50 47v-47h518v47h-518zM50 387v-47h231v-225h57v225h230v47h-230v212h-57v-212h-231z" />
    <glyph glyph-name="acute" unicode="&#xb4;" 
d="M187 541l18 -13l127 126q13 13 13 22t-17 21q-16 13 -26 13q-11 0 -18 -13z" />
    <glyph glyph-name="paragraph" unicode="&#xb6;" horiz-adv-x="757" 
d="M488 179q34 13 81 48q52 37 67 63l43 75q42 73 42 162q0 147 -110 221q-94 62 -248 62q-198 0 -261 -108l-43 -74q-28 -47 -28 -97q0 -98 95 -169q89 -65 190 -65l-2 -144q-77 -26 -117 -36l-9 68l-101 -136l151 -21l-26 43q37 10 62.5 17t39.5 12v-281h42v297l46 20
t45 21v-338h41v360zM686 486q0 -66 -28 -110q-22 -36 -79 -81q-56 -44 -91 -59v480q99 -49 137 -85q61 -57 61 -145zM447 721v-507l-91 -44l3 563zM313 403h-22q-37 -1 -65 6q-63 15 -107 69q-42 54 -42 120q0 30 9 59q75 76 227 78v-332z" />
    <glyph glyph-name="periodcentered" unicode="&#xb7;" horiz-adv-x="219" 
d="M108 199q24 0 39 15.5t15 40.5q0 23 -15 39.5t-38 16.5t-37.5 -16.5t-14.5 -39.5t14 -39.5t37 -16.5z" />
    <glyph glyph-name="periodcentered" unicode="&#x2219;" horiz-adv-x="219" 
d="M108 199q24 0 39 15.5t15 40.5q0 23 -15 39.5t-38 16.5t-37.5 -16.5t-14.5 -39.5t14 -39.5t37 -16.5z" />
    <glyph glyph-name="cedilla" unicode="&#xb8;" horiz-adv-x="400" 
d="M204 0q-46 -64 -46 -76q0 -15 20 -38q21 -24 21 -40q0 -39 -58 -67l13 -21q103 40 103 102q0 28 -24 57q-24 28 -24 37q0 8 28 46h-33z" />
    <glyph glyph-name="onesuperior" unicode="&#xb9;" horiz-adv-x="430" 
d="M285 397l-28 -150h-100l27 150h101zM411 397l9 58h-89l31 168h-36l-31 -168h-100l31 168h-37l-30 -168h-98l-7 -58h94l-28 -150h-100l-8 -58h96l-34 -189h36l35 189h101l-35 -189h36l35 189h88l9 58h-86l28 150h90z" />
    <glyph glyph-name="guillemotright" unicode="&#xbb;" horiz-adv-x="394" 
d="M62 39q42 63 77.5 110t64.5 79q-29 34 -64.5 81t-77.5 108l-21 -14l84 -175l-84 -173zM212 39q42 63 77.5 110t64.5 79q-29 34 -64.5 81t-77.5 108l-21 -14l84 -175l-84 -173z" />
    <glyph glyph-name="questiondown" unicode="&#xbf;" horiz-adv-x="367" 
d="M13 151q0 -61 57 -107q55 -44 115 -44q68 0 121 52q55 52 55 120q0 43 -15 84q-20 54 -54 54q-28 0 -28 -28q0 -39 46 -150q0 -42 -36 -70q-37 -29 -78 -29q-24 0 -43.5 10t-33.5 26.5t-21.5 38.5t-7.5 46q0 57 42 134q29 55 45.5 87t18.5 42q19 77 22 165l-27 -14
q-7 -13 -18 -77q-11 -59 -17 -65q-12 -36 -83 -135q-60 -83 -60 -140zM141 675q0 -42 33 -42q9 0 17 5.5t14.5 14t10 19t3.5 19.5q0 42 -36 42q-9 0 -16.5 -5.5t-13 -14.5t-9 -19t-3.5 -19z" />
    <glyph glyph-name="Agrave" unicode="&#xc0;" horiz-adv-x="788" 
d="M766 -27q19 0 19 18q0 22 -73 35q-77 14 -113 168q-17 74 -30 130t-22 94q-36 159 -36 211q0 56 22 69q14 5 27 10.5t26 10.5q41 17 41 31q0 15 -22 15q-11 0 -27 -19q-17 -18 -40 -18h-336q-15 22 -21 28q-14 11 -33 11q-16 0 -16 -13q0 -17 26 -34q23 -14 43 -18l-2 1
q39 -17 39 -34l-146 -615q-3 -11 -36 -28q-7 -3 -18 -7.5t-28 -10.5v-34q111 34 237 34q15 0 28 -25h45q-18 27 -61 39q-17 3 -34.5 6t-34.5 5q-34 6 -34 21l57 61q26 29 26 159q0 86 3 148.5t8 104.5q25 184 106 184q44 0 61 -62q18 -78 31 -135.5t21 -95.5q-39 10 -72 10
q-9 0 -25 -5t-25 -5q-17 0 -44 27l-9 -18v-72h189q6 -39 12 -71t13 -57q22 -81 22 -126q0 -76 -45 -76q-15 0 -34 18q-18 18 -33 18q-18 0 -18 -17q0 -14 20 -29q19 -15 35 -15h257q31 -27 54 -27zM352 817l-97 156q-7 13 -17 13q-11 0 -27 -13q-17 -12 -17 -21t13 -22
l126 -126z" />
    <glyph glyph-name="Aacute" unicode="&#xc1;" horiz-adv-x="788" 
d="M766 -27q19 0 19 18q0 22 -73 35q-77 14 -113 168q-17 74 -30 130t-22 94q-36 159 -36 211q0 56 22 69q14 5 27 10.5t26 10.5q41 17 41 31q0 15 -22 15q-11 0 -27 -19q-17 -18 -40 -18h-336q-15 22 -21 28q-14 11 -33 11q-16 0 -16 -13q0 -17 26 -34q23 -14 43 -18l-2 1
q39 -17 39 -34l-146 -615q-3 -11 -36 -28q-7 -3 -18 -7.5t-28 -10.5v-34q111 34 237 34q15 0 28 -25h45q-18 27 -61 39q-17 3 -34.5 6t-34.5 5q-34 6 -34 21l57 61q26 29 26 159q0 86 3 148.5t8 104.5q25 184 106 184q44 0 61 -62q18 -78 31 -135.5t21 -95.5q-39 10 -72 10
q-9 0 -25 -5t-25 -5q-17 0 -44 27l-9 -18v-72h189q6 -39 12 -71t13 -57q22 -81 22 -126q0 -76 -45 -76q-15 0 -34 18q-18 18 -33 18q-18 0 -18 -17q0 -14 20 -29q19 -15 35 -15h257q31 -27 54 -27zM365 817l18 -13l127 126q13 13 13 22t-17 21q-16 13 -26 13q-11 0 -18 -13z
" />
    <glyph glyph-name="Acircumflex" unicode="&#xc2;" horiz-adv-x="788" 
d="M766 -27q19 0 19 18q0 22 -73 35q-77 14 -113 168q-17 74 -30 130t-22 94q-36 159 -36 211q0 56 22 69q14 5 27 10.5t26 10.5q41 17 41 31q0 15 -22 15q-11 0 -27 -19q-17 -18 -40 -18h-336q-15 22 -21 28q-14 11 -33 11q-16 0 -16 -13q0 -17 26 -34q23 -14 43 -18l-2 1
q39 -17 39 -34l-146 -615q-3 -11 -36 -28q-7 -3 -18 -7.5t-28 -10.5v-34q111 34 237 34q15 0 28 -25h45q-18 27 -61 39q-17 3 -34.5 6t-34.5 5q-34 6 -34 21l57 61q26 29 26 159q0 86 3 148.5t8 104.5q25 184 106 184q44 0 61 -62q18 -78 31 -135.5t21 -95.5q-39 10 -72 10
q-9 0 -25 -5t-25 -5q-17 0 -44 27l-9 -18v-72h189q6 -39 12 -71t13 -57q22 -81 22 -126q0 -76 -45 -76q-15 0 -34 18q-18 18 -33 18q-18 0 -18 -17q0 -14 20 -29q19 -15 35 -15h257q31 -27 54 -27zM362 987q-41 -86 -90 -168l22 -15q26 34 46 60t34 46q16 -23 36 -50t43 -56
l22 15q-26 43 -48 84.5t-41 83.5h-24z" />
    <glyph glyph-name="Atilde" unicode="&#xc3;" horiz-adv-x="788" 
d="M766 -27q19 0 19 18q0 22 -73 35q-77 14 -113 168q-17 74 -30 130t-22 94q-36 159 -36 211q0 56 22 69q14 5 27 10.5t26 10.5q41 17 41 31q0 15 -22 15q-11 0 -27 -19q-17 -18 -40 -18h-336q-15 22 -21 28q-14 11 -33 11q-16 0 -16 -13q0 -17 26 -34q23 -14 43 -18l-2 1
q39 -17 39 -34l-146 -615q-3 -11 -36 -28q-7 -3 -18 -7.5t-28 -10.5v-34q111 34 237 34q15 0 28 -25h45q-18 27 -61 39q-17 3 -34.5 6t-34.5 5q-34 6 -34 21l57 61q26 29 26 159q0 86 3 148.5t8 104.5q25 184 106 184q44 0 61 -62q18 -78 31 -135.5t21 -95.5q-39 10 -72 10
q-9 0 -25 -5t-25 -5q-17 0 -44 27l-9 -18v-72h189q6 -39 12 -71t13 -57q22 -81 22 -126q0 -76 -45 -76q-15 0 -34 18q-18 18 -33 18q-18 0 -18 -17q0 -14 20 -29q19 -15 35 -15h257q31 -27 54 -27zM330 888q-47 0 -77 -77l19 -13q21 41 47 41q19 0 56 -17q39 -17 58 -17
q53 0 77 77l-20 11q-20 -39 -46 -39q-18 0 -57 17t-57 17z" />
    <glyph glyph-name="Adieresis" unicode="&#xc4;" horiz-adv-x="788" 
d="M766 -27q19 0 19 18q0 22 -73 35q-77 14 -113 168q-17 74 -30 130t-22 94q-36 159 -36 211q0 56 22 69q14 5 27 10.5t26 10.5q41 17 41 31q0 15 -22 15q-11 0 -27 -19q-17 -18 -40 -18h-336q-15 22 -21 28q-14 11 -33 11q-16 0 -16 -13q0 -17 26 -34q23 -14 43 -18l-2 1
q39 -17 39 -34l-146 -615q-3 -11 -36 -28q-7 -3 -18 -7.5t-28 -10.5v-34q111 34 237 34q15 0 28 -25h45q-18 27 -61 39q-17 3 -34.5 6t-34.5 5q-34 6 -34 21l57 61q26 29 26 159q0 86 3 148.5t8 104.5q25 184 106 184q44 0 61 -62q18 -78 31 -135.5t21 -95.5q-39 10 -72 10
q-9 0 -25 -5t-25 -5q-17 0 -44 27l-9 -18v-72h189q6 -39 12 -71t13 -57q22 -81 22 -126q0 -76 -45 -76q-15 0 -34 18q-18 18 -33 18q-18 0 -18 -17q0 -14 20 -29q19 -15 35 -15h257q31 -27 54 -27zM297 836q43 0 43 49q0 19 -13 34t-32 15t-31.5 -15.5t-12.5 -34.5
q0 -20 13 -34t33 -14zM419 836q43 0 43 49q0 19 -13 34t-32 15t-31.5 -15.5t-12.5 -34.5q0 -20 13 -34t33 -14z" />
    <glyph glyph-name="Aring" unicode="&#xc5;" horiz-adv-x="788" 
d="M766 -27q19 0 19 18q0 22 -73 35q-77 14 -113 168q-17 74 -30 130t-22 94q-36 159 -36 211q0 56 22 69q14 5 27 10.5t26 10.5q41 17 41 31q0 15 -22 15q-11 0 -27 -19q-17 -18 -40 -18h-336q-15 22 -21 28q-14 11 -33 11q-16 0 -16 -13q0 -17 26 -34q23 -14 43 -18l-2 1
q39 -17 39 -34l-146 -615q-3 -11 -36 -28q-7 -3 -18 -7.5t-28 -10.5v-34q111 34 237 34q15 0 28 -25h45q-18 27 -61 39q-17 3 -34.5 6t-34.5 5q-34 6 -34 21l57 61q26 29 26 159q0 86 3 148.5t8 104.5q25 184 106 184q44 0 61 -62q18 -78 31 -135.5t21 -95.5q-39 10 -72 10
q-9 0 -25 -5t-25 -5q-17 0 -44 27l-9 -18v-72h189q6 -39 12 -71t13 -57q22 -81 22 -126q0 -76 -45 -76q-15 0 -34 18q-18 18 -33 18q-18 0 -18 -17q0 -14 20 -29q19 -15 35 -15h257q31 -27 54 -27zM355 950q-32 0 -54.5 -20t-22.5 -52t22 -52.5t54 -20.5q31 0 53.5 21
t22.5 52t-22 51.5t-53 20.5zM354 925q40 0 40 -46q0 -49 -39 -49q-40 0 -40 49q0 46 39 46z" />
    <glyph glyph-name="AE" unicode="&#xc6;" horiz-adv-x="1300" 
d="M696 30q-64 24 -97 164q-17 73 -30 129t-22 95q-36 159 -36 211q0 45 12 59q8 10 51 26q42 -12 64.5 -18.5t27.5 -8.5q60 -26 60 -60v-544q0 -37 -30 -53zM400 44q0 -14 20 -29q19 -15 35 -15h257q31 -27 54 -27q19 0 19 18q0 4 -3 9h506q-99 90 -105 98q-70 71 -70 114
q0 21 33 72q0 10 -8.5 19.5t-17.5 9.5q-11 0 -23 -21t-12 -33q0 -24 12 -61q13 -39 25 -60q-11 -5 -22.5 -11t-22.5 -11q-32 -17 -32 -30q0 -16 13 -68h-194q-14 11 -22.5 17.5t-10.5 8.5q-13 14 -13 39v259q44 -3 67.5 -4.5t27.5 -2.5q28 -7 80 -50v185q-46 -41 -73 -55
h-102v203q0 29 18 51.5t46 22.5h158q-8 -34 -8 -45q0 -18 23 -32q3 -2 12.5 -5.5t26.5 -10.5q-33 -62 -33 -77q0 -52 27 -52q20 0 20 50q0 12 -14 24q1 46 148 176h-654q39 16 39 30q0 15 -22 15q-9 0 -20 -11q-16 -16 -16 -18l-6.5 -1.5t-19.5 -3.5q-2 -1 -3 -1v0v-2h-338
q-15 22 -21 28q-14 11 -33 11q-16 0 -16 -13q0 -17 26 -34q23 -14 43 -18l-2 1q39 -17 39 -34l-146 -615q-3 -11 -36 -28q-7 -3 -18 -7.5t-28 -10.5v-34q111 34 237 34q15 0 28 -25h45q-18 27 -61 39q-17 3 -34.5 6t-34.5 5q-34 6 -34 21l57 61q26 29 26 159q0 86 3 149
t8 105q25 183 106 183q44 0 61 -62q18 -78 31 -135.5t21 -95.5q-39 10 -72 10q-9 0 -25 -5t-25 -5q-17 0 -44 27l-9 -18v-72h189q6 -39 12 -71t13 -57q22 -81 22 -126q0 -76 -45 -76q-15 0 -34 18q-18 18 -33 18q-18 0 -18 -17z" />
    <glyph glyph-name="Ccedilla" unicode="&#xc7;" horiz-adv-x="592" 
d="M350 -22q112 4 177 76q31 34 31 60v28q-68 -101 -175 -101q-126 0 -209 113q-74 104 -74 235q0 112 45 216q59 131 156 131q51 0 81 -29t30 -80q0 -31 -42 -116q-41 -87 -41 -132q0 -54 23 -80.5t77 -38.5q5 -1 9 -1.5t8 -0.5q29 0 55 25q28 25 28 52q0 31 -10 45.5
t-41 14.5q-25 0 -25 -23q0 -19 17 -30.5t33 -21.5q-20 -24 -27 -30q-15 -12 -37 -12q-37 0 -61 33q-22 29 -22 68q0 76 82 180q70 91 147 141q-51 0 -139 32q-87 32 -109 32q-130 0 -229 -139q-91 -127 -91 -263q0 -133 83 -249q90 -125 217 -134q-39 -56 -39 -68
q0 -15 20 -38q21 -24 21 -40q0 -39 -58 -67l13 -21q103 40 103 102q0 28 -24 57q-24 28 -24 37q0 7 21 37z" />
    <glyph glyph-name="Egrave" unicode="&#xc8;" horiz-adv-x="812" 
d="M799 0q-99 90 -105 98q-70 71 -70 114q0 21 33 72q0 10 -8.5 19.5t-17.5 9.5q-11 0 -23 -21t-12 -33q0 -24 12 -61q13 -39 25 -60q-11 -5 -22.5 -11t-22.5 -11q-32 -17 -32 -30q0 -16 13 -68h-194q-14 11 -22.5 17.5t-10.5 8.5q-13 14 -13 39v259q44 -3 67.5 -4.5
t27.5 -2.5q28 -7 80 -50v185q-46 -41 -73 -55h-102v203q0 29 18 51.5t46 22.5h158q-8 -34 -8 -45q0 -18 23 -32q3 -2 12.5 -5.5t26.5 -10.5q-33 -62 -33 -77q0 -52 27 -52q20 0 20 50q0 12 -14 24q1 46 148 176h-655q-24 14 -29 47q-3 27 -21 27q-29 0 -29 -26q0 -10 12 -22
q17 -19 33 -25q26 -8 51.5 -15.5t51.5 -15.5q70 -25 70 -63v-544q0 -43 -43 -59q-23 -9 -90 -15q-59 -6 -79 -18v-37q41 13 82 46h692zM402 817l-97 156q-7 13 -17 13q-11 0 -27 -13q-17 -12 -17 -21t13 -22l126 -126z" />
    <glyph glyph-name="Eacute" unicode="&#xc9;" horiz-adv-x="812" 
d="M799 0q-99 90 -105 98q-70 71 -70 114q0 21 33 72q0 10 -8.5 19.5t-17.5 9.5q-11 0 -23 -21t-12 -33q0 -24 12 -61q13 -39 25 -60q-11 -5 -22.5 -11t-22.5 -11q-32 -17 -32 -30q0 -16 13 -68h-194q-14 11 -22.5 17.5t-10.5 8.5q-13 14 -13 39v259q44 -3 67.5 -4.5
t27.5 -2.5q28 -7 80 -50v185q-46 -41 -73 -55h-102v203q0 29 18 51.5t46 22.5h158q-8 -34 -8 -45q0 -18 23 -32q3 -2 12.5 -5.5t26.5 -10.5q-33 -62 -33 -77q0 -52 27 -52q20 0 20 50q0 12 -14 24q1 46 148 176h-655q-24 14 -29 47q-3 27 -21 27q-29 0 -29 -26q0 -10 12 -22
q17 -19 33 -25q26 -8 51.5 -15.5t51.5 -15.5q70 -25 70 -63v-544q0 -43 -43 -59q-23 -9 -90 -15q-59 -6 -79 -18v-37q41 13 82 46h692zM385 817l18 -13l127 126q13 13 13 22t-17 21q-16 13 -26 13q-11 0 -18 -13z" />
    <glyph glyph-name="Ecircumflex" unicode="&#xca;" horiz-adv-x="812" 
d="M799 0q-99 90 -105 98q-70 71 -70 114q0 21 33 72q0 10 -8.5 19.5t-17.5 9.5q-11 0 -23 -21t-12 -33q0 -24 12 -61q13 -39 25 -60q-11 -5 -22.5 -11t-22.5 -11q-32 -17 -32 -30q0 -16 13 -68h-194q-14 11 -22.5 17.5t-10.5 8.5q-13 14 -13 39v259q44 -3 67.5 -4.5
t27.5 -2.5q28 -7 80 -50v185q-46 -41 -73 -55h-102v203q0 29 18 51.5t46 22.5h158q-8 -34 -8 -45q0 -18 23 -32q3 -2 12.5 -5.5t26.5 -10.5q-33 -62 -33 -77q0 -52 27 -52q20 0 20 50q0 12 -14 24q1 46 148 176h-655q-24 14 -29 47q-3 27 -21 27q-29 0 -29 -26q0 -10 12 -22
q17 -19 33 -25q26 -8 51.5 -15.5t51.5 -15.5q70 -25 70 -63v-544q0 -43 -43 -59q-23 -9 -90 -15q-59 -6 -79 -18v-37q41 13 82 46h692zM372 987q-41 -86 -90 -168l22 -15q26 34 46 60t34 46q16 -23 36 -50t43 -56l22 15q-26 43 -48 84.5t-41 83.5h-24z" />
    <glyph glyph-name="Edieresis" unicode="&#xcb;" horiz-adv-x="812" 
d="M799 0q-99 90 -105 98q-70 71 -70 114q0 21 33 72q0 10 -8.5 19.5t-17.5 9.5q-11 0 -23 -21t-12 -33q0 -24 12 -61q13 -39 25 -60q-11 -5 -22.5 -11t-22.5 -11q-32 -17 -32 -30q0 -16 13 -68h-194q-14 11 -22.5 17.5t-10.5 8.5q-13 14 -13 39v259q44 -3 67.5 -4.5
t27.5 -2.5q28 -7 80 -50v185q-46 -41 -73 -55h-102v203q0 29 18 51.5t46 22.5h158q-8 -34 -8 -45q0 -18 23 -32q3 -2 12.5 -5.5t26.5 -10.5q-33 -62 -33 -77q0 -52 27 -52q20 0 20 50q0 12 -14 24q1 46 148 176h-655q-24 14 -29 47q-3 27 -21 27q-29 0 -29 -26q0 -10 12 -22
q17 -19 33 -25q26 -8 51.5 -15.5t51.5 -15.5q70 -25 70 -63v-544q0 -43 -43 -59q-23 -9 -90 -15q-59 -6 -79 -18v-37q41 13 82 46h692zM330 836q43 0 43 49q0 19 -13 34t-32 15t-31.5 -15.5t-12.5 -34.5q0 -20 13 -34t33 -14zM452 836q43 0 43 49q0 19 -13 34t-32 15
t-31.5 -15.5t-12.5 -34.5q0 -20 13 -34t33 -14z" />
    <glyph glyph-name="Igrave" unicode="&#xcc;" horiz-adv-x="484" 
d="M473 729v27q-2 -1 -11.5 -5t-26.5 -11q-25 -11 -38 -11h-282q-6 0 -36 12q-34 13 -41 15v-27q18 -8 64 -14q49 -6 67 -16q30 -17 30 -55v-556q0 -47 -65 -71q-2 -1 -28 -6.5t-77 -16.5v-38q25 13 44 22t32 16h207q35 0 143 -38v29q-22 14 -82 26q-57 10 -78 30v574
q0 59 30 79q16 11 69 16q26 2 46 7t33 12zM232 817l-97 156q-7 13 -17 13q-11 0 -27 -13q-17 -12 -17 -21t13 -22l126 -126z" />
    <glyph glyph-name="Iacute" unicode="&#xcd;" horiz-adv-x="484" 
d="M473 729v27q-2 -1 -11.5 -5t-26.5 -11q-25 -11 -38 -11h-282q-6 0 -36 12q-34 13 -41 15v-27q18 -8 64 -14q49 -6 67 -16q30 -17 30 -55v-556q0 -47 -65 -71q-2 -1 -28 -6.5t-77 -16.5v-38q25 13 44 22t32 16h207q35 0 143 -38v29q-22 14 -82 26q-57 10 -78 30v574
q0 59 30 79q16 11 69 16q26 2 46 7t33 12zM295 817l18 -13l127 126q13 13 13 22t-17 21q-16 13 -26 13q-11 0 -18 -13z" />
    <glyph glyph-name="Icircumflex" unicode="&#xce;" horiz-adv-x="484" 
d="M473 729v27q-2 -1 -11.5 -5t-26.5 -11q-25 -11 -38 -11h-282q-6 0 -36 12q-34 13 -41 15v-27q18 -8 64 -14q49 -6 67 -16q30 -17 30 -55v-556q0 -47 -65 -71q-2 -1 -28 -6.5t-77 -16.5v-38q25 13 44 22t32 16h207q35 0 143 -38v29q-22 14 -82 26q-57 10 -78 30v574
q0 59 30 79q16 11 69 16q26 2 46 7t33 12zM232 987q-41 -86 -90 -168l22 -15q26 34 46 60t34 46q16 -23 36 -50t43 -56l22 15q-26 43 -48 84.5t-41 83.5h-24z" />
    <glyph glyph-name="Idieresis" unicode="&#xcf;" horiz-adv-x="484" 
d="M473 729v27q-2 -1 -11.5 -5t-26.5 -11q-25 -11 -38 -11h-282q-6 0 -36 12q-34 13 -41 15v-27q18 -8 64 -14q49 -6 67 -16q30 -17 30 -55v-556q0 -47 -65 -71q-2 -1 -28 -6.5t-77 -16.5v-38q25 13 44 22t32 16h207q35 0 143 -38v29q-22 14 -82 26q-57 10 -78 30v574
q0 59 30 79q16 11 69 16q26 2 46 7t33 12zM189 836q43 0 43 49q0 19 -13 34t-32 15t-31.5 -15.5t-12.5 -34.5q0 -20 13 -34t33 -14zM311 836q43 0 43 49q0 19 -13 34t-32 15t-31.5 -15.5t-12.5 -34.5q0 -20 13 -34t33 -14z" />
    <glyph glyph-name="Eth" unicode="&#xd0;" horiz-adv-x="761" 
d="M331 328v247q0 48 53 93q53 46 103 46q88 0 129 -129q28 -87 28 -203q0 -159 -46 -242q-62 -110 -206 -110q-29 0 -61 29v218h246v51h-246zM102 328v-51h135v-145q0 -78 -40 -100q-23 -12 -91 -15q-67 -1 -99 -23v-37q17 5 37.5 17t45.5 29h332q114 0 194 68
q75 64 109 177q29 96 29 170q0 132 -42 225q-55 124 -170 124q-83 0 -175 -65q-37 -30 -73 -60t-73 -60q-83 -65 -143 -65q-2 0 -6.5 0.5t-9.5 1.5v-37q54 10 85.5 14.5t41.5 4.5q29 0 48 -10v-163h-135z" />
    <glyph glyph-name="Ntilde" unicode="&#xd1;" horiz-adv-x="825" 
d="M785 -10q26 0 26 32q0 45 -54 45q-35 0 -83 -36q-47 -36 -54 -36q-30 0 -47.5 20.5t-17.5 51.5q0 58 52 143q25 38 49 77t49 77q52 95 52 179q0 103 -54.5 161t-156.5 58q-82 0 -170 -61q-16 -11 -50 -39.5t-88 -76.5q-75 -66 -112 -70l-39 -5q-3 0 -13 4.5t-14 4.5
q-9 0 -9 -12q0 -29 39 -29q57 0 140 59l-3 -442q-2 -74 -149 -74h-20q-15 0 -42 1v-46q16 0 49 14q30 13 34 13h201q11 0 26 -1.5l35 -3.5t35.5 -3.5t26.5 -1.5q87 0 87 29q0 10 -9 23t-18 13q-11 0 -42 -18q-32 -18 -50 -18q-37 0 -59 21l-14 15v457q0 75 44 131
q46 60 121 60q85 0 135 -59q47 -56 47 -142q0 -82 -36 -164q-17 -32 -33 -65l-32 -66q-36 -72 -36 -125q0 -109 74 -109q77 0 110 46q18 0 37 -22q19 -10 36 -10zM450 888q-47 0 -77 -77l19 -13q21 41 47 41q19 0 56 -17q39 -17 58 -17q53 0 77 77l-20 11q-20 -39 -46 -39
q-18 0 -57 17t-57 17z" />
    <glyph glyph-name="Ograve" unicode="&#xd2;" horiz-adv-x="627" 
d="M620 325q0 277 -188 355q-51 21 -107 21q-85 0 -132.5 -43t-47.5 -127q0 -58 36 -103q39 -49 96 -49q36 0 70 28q35 29 35 64q0 46 -46 46q-32 0 -32 -40q0 -31 -1 -34q-4 -19 -25 -19q-28 0 -57 26q-28 25 -28 55q0 42 33 86q35 44 75 44q108 0 179 -152
q57 -125 57 -250q0 -191 -155 -191q-138 0 -217 153q-66 124 -66 276q0 116 55 186q61 78 173 78q88 0 158 -52q9 16 9 31q0 5 -1 8q-45 30 -74 40q-33 11 -83 11q-161 0 -251 -135q-78 -116 -78 -286q0 -126 49 -218q56 -105 163 -147q67 -27 99 -27q145 0 228 113
q74 101 74 252zM332 817l-97 156q-7 13 -17 13q-11 0 -27 -13q-17 -12 -17 -21t13 -22l126 -126z" />
    <glyph glyph-name="Oacute" unicode="&#xd3;" horiz-adv-x="627" 
d="M620 325q0 277 -188 355q-51 21 -107 21q-85 0 -132.5 -43t-47.5 -127q0 -58 36 -103q39 -49 96 -49q36 0 70 28q35 29 35 64q0 46 -46 46q-32 0 -32 -40q0 -31 -1 -34q-4 -19 -25 -19q-28 0 -57 26q-28 25 -28 55q0 42 33 86q35 44 75 44q108 0 179 -152
q57 -125 57 -250q0 -191 -155 -191q-138 0 -217 153q-66 124 -66 276q0 116 55 186q61 78 173 78q88 0 158 -52q9 16 9 31q0 5 -1 8q-45 30 -74 40q-33 11 -83 11q-161 0 -251 -135q-78 -116 -78 -286q0 -126 49 -218q56 -105 163 -147q67 -27 99 -27q145 0 228 113
q74 101 74 252zM355 817l18 -13l127 126q13 13 13 22t-17 21q-16 13 -26 13q-11 0 -18 -13z" />
    <glyph glyph-name="Ocircumflex" unicode="&#xd4;" horiz-adv-x="627" 
d="M620 325q0 277 -188 355q-51 21 -107 21q-85 0 -132.5 -43t-47.5 -127q0 -58 36 -103q39 -49 96 -49q36 0 70 28q35 29 35 64q0 46 -46 46q-32 0 -32 -40q0 -31 -1 -34q-4 -19 -25 -19q-28 0 -57 26q-28 25 -28 55q0 42 33 86q35 44 75 44q108 0 179 -152
q57 -125 57 -250q0 -191 -155 -191q-138 0 -217 153q-66 124 -66 276q0 116 55 186q61 78 173 78q88 0 158 -52q9 16 9 31q0 5 -1 8q-45 30 -74 40q-33 11 -83 11q-161 0 -251 -135q-78 -116 -78 -286q0 -126 49 -218q56 -105 163 -147q67 -27 99 -27q145 0 228 113
q74 101 74 252zM332 987q-41 -86 -90 -168l22 -15q26 34 46 60t34 46q16 -23 36 -50t43 -56l22 15q-26 43 -48 84.5t-41 83.5h-24z" />
    <glyph glyph-name="Otilde" unicode="&#xd5;" horiz-adv-x="627" 
d="M620 325q0 277 -188 355q-51 21 -107 21q-85 0 -132.5 -43t-47.5 -127q0 -58 36 -103q39 -49 96 -49q36 0 70 28q35 29 35 64q0 46 -46 46q-32 0 -32 -40q0 -31 -1 -34q-4 -19 -25 -19q-28 0 -57 26q-28 25 -28 55q0 42 33 86q35 44 75 44q108 0 179 -152
q57 -125 57 -250q0 -191 -155 -191q-138 0 -217 153q-66 124 -66 276q0 116 55 186q61 78 173 78q88 0 158 -52q9 16 9 31q0 5 -1 8q-45 30 -74 40q-33 11 -83 11q-161 0 -251 -135q-78 -116 -78 -286q0 -126 49 -218q56 -105 163 -147q67 -27 99 -27q145 0 228 113
q74 101 74 252zM270 888q-47 0 -77 -77l19 -13q21 41 47 41q19 0 56 -17q39 -17 58 -17q53 0 77 77l-20 11q-20 -39 -46 -39q-18 0 -57 17t-57 17z" />
    <glyph glyph-name="Odieresis" unicode="&#xd6;" horiz-adv-x="627" 
d="M620 325q0 277 -188 355q-51 21 -107 21q-85 0 -132.5 -43t-47.5 -127q0 -58 36 -103q39 -49 96 -49q36 0 70 28q35 29 35 64q0 46 -46 46q-32 0 -32 -40q0 -31 -1 -34q-4 -19 -25 -19q-28 0 -57 26q-28 25 -28 55q0 42 33 86q35 44 75 44q108 0 179 -152
q57 -125 57 -250q0 -191 -155 -191q-138 0 -217 153q-66 124 -66 276q0 116 55 186q61 78 173 78q88 0 158 -52q9 16 9 31q0 5 -1 8q-45 30 -74 40q-33 11 -83 11q-161 0 -251 -135q-78 -116 -78 -286q0 -126 49 -218q56 -105 163 -147q67 -27 99 -27q145 0 228 113
q74 101 74 252zM259 836q43 0 43 49q0 19 -13 34t-32 15t-31.5 -15.5t-12.5 -34.5q0 -20 13 -34t33 -14zM381 836q43 0 43 49q0 19 -13 34t-32 15t-31.5 -15.5t-12.5 -34.5q0 -20 13 -34t33 -14z" />
    <glyph glyph-name="multiply" unicode="&#xd7;" horiz-adv-x="619" 
d="M561 489l-37 37l-215 -221l-215 220l-35 -38l213 -219l-213 -220l35 -38l215 220l215 -220l37 38l-215 220z" />
    <glyph glyph-name="Oslash" unicode="&#xd8;" horiz-adv-x="627" 
d="M620 325q0 277 -188 355q-51 21 -107 21q-85 0 -132.5 -43t-47.5 -127q0 -58 36 -103q39 -49 96 -49q36 0 70 28q35 29 35 64q0 46 -46 46q-32 0 -32 -40q0 -31 -1 -34q-4 -19 -25 -19q-28 0 -57 26q-28 25 -28 55q0 42 33 86q35 44 75 44q108 0 179 -153
q57 -125 57 -249q0 -191 -155 -191q-138 0 -217 153q-66 124 -66 276q0 116 55 186q61 78 173 78q88 0 158 -52q9 16 9 31q0 5 -1 8q-45 30 -74 40q-33 11 -83 11q-161 0 -251 -135q-78 -116 -78 -286q0 -126 49 -218q56 -105 163 -147q67 -27 99 -27q145 0 228 113
q74 101 74 252z" />
    <glyph glyph-name="Ugrave" unicode="&#xd9;" horiz-adv-x="820" 
d="M798 -332q30 0 30 30q0 25 -46 61q-26 22 -41 35t-18 18q-17 32 -29 84q-10 47 -10 89v660q0 36 27 53q14 7 27 13t27 13q33 20 40 61h-28q-24 -56 -184 -56h-507q-23 0 -45 40t-37 40q-6 0 -11.5 -10t-5.5 -18q0 -39 43 -58q33 -14 76 -14h16q12 0 32 1q-2 -17 -3.5 -29
t-1.5 -19q0 -55 42 -55q7 0 63 34q31 19 49.5 29.5t23.5 12.5q64 27 134 27q79 0 107 -16q41 -23 41 -94q0 -16 -19 -39q-22 55 -46 76q-32 27 -83 27q-143 0 -231 -139q-76 -119 -76 -271q0 -119 59 -208q67 -100 182 -100q54 0 110 30q6 3 30 18.5t66 43.5q30 0 50 -48
q10 -21 22 -73q9 -38 24 -80q5 -12 8 -21l5 -15l6 -54q5 -32 27.5 -55.5t54.5 -23.5zM601 169q0 -66 -41.5 -102.5t-108.5 -36.5q-100 0 -157 93q-49 79 -49 186q0 109 53 204q63 113 163 113q42 0 72 -25t30 -67q0 -32 -22 -60q-21 -28 -51 -28q-32 0 -32 26q0 6 3 14
q10 -5 19 -5q15 0 25.5 11.5t10.5 27.5q0 41 -55 41q-57 0 -57 -65q0 -35 24 -55t60 -20q63 0 113 93v-345zM402 817l-97 156q-7 13 -17 13q-11 0 -27 -13q-17 -12 -17 -21t13 -22l126 -126z" />
    <glyph glyph-name="Uacute" unicode="&#xda;" horiz-adv-x="820" 
d="M798 -332q30 0 30 30q0 25 -46 61q-26 22 -41 35t-18 18q-17 32 -29 84q-10 47 -10 89v660q0 36 27 53q14 7 27 13t27 13q33 20 40 61h-28q-24 -56 -184 -56h-507q-23 0 -45 40t-37 40q-6 0 -11.5 -10t-5.5 -18q0 -39 43 -58q33 -14 76 -14h16q12 0 32 1q-2 -17 -3.5 -29
t-1.5 -19q0 -55 42 -55q7 0 63 34q31 19 49.5 29.5t23.5 12.5q64 27 134 27q79 0 107 -16q41 -23 41 -94q0 -16 -19 -39q-22 55 -46 76q-32 27 -83 27q-143 0 -231 -139q-76 -119 -76 -271q0 -119 59 -208q67 -100 182 -100q54 0 110 30q6 3 30 18.5t66 43.5q30 0 50 -48
q10 -21 22 -73q9 -38 24 -80q5 -12 8 -21l5 -15l6 -54q5 -32 27.5 -55.5t54.5 -23.5zM601 169q0 -66 -41.5 -102.5t-108.5 -36.5q-100 0 -157 93q-49 79 -49 186q0 109 53 204q63 113 163 113q42 0 72 -25t30 -67q0 -32 -22 -60q-21 -28 -51 -28q-32 0 -32 26q0 6 3 14
q10 -5 19 -5q15 0 25.5 11.5t10.5 27.5q0 41 -55 41q-57 0 -57 -65q0 -35 24 -55t60 -20q63 0 113 93v-345zM425 817l18 -13l127 126q13 13 13 22t-17 21q-16 13 -26 13q-11 0 -18 -13z" />
    <glyph glyph-name="Ucircumflex" unicode="&#xdb;" horiz-adv-x="820" 
d="M798 -332q30 0 30 30q0 25 -46 61q-26 22 -41 35t-18 18q-17 32 -29 84q-10 47 -10 89v660q0 36 27 53q14 7 27 13t27 13q33 20 40 61h-28q-24 -56 -184 -56h-507q-23 0 -45 40t-37 40q-6 0 -11.5 -10t-5.5 -18q0 -39 43 -58q33 -14 76 -14h16q12 0 32 1q-2 -17 -3.5 -29
t-1.5 -19q0 -55 42 -55q7 0 63 34q31 19 49.5 29.5t23.5 12.5q64 27 134 27q79 0 107 -16q41 -23 41 -94q0 -16 -19 -39q-22 55 -46 76q-32 27 -83 27q-143 0 -231 -139q-76 -119 -76 -271q0 -119 59 -208q67 -100 182 -100q54 0 110 30q6 3 30 18.5t66 43.5q30 0 50 -48
q10 -21 22 -73q9 -38 24 -80q5 -12 8 -21l5 -15l6 -54q5 -32 27.5 -55.5t54.5 -23.5zM601 169q0 -66 -41.5 -102.5t-108.5 -36.5q-100 0 -157 93q-49 79 -49 186q0 109 53 204q63 113 163 113q42 0 72 -25t30 -67q0 -32 -22 -60q-21 -28 -51 -28q-32 0 -32 26q0 6 3 14
q10 -5 19 -5q15 0 25.5 11.5t10.5 27.5q0 41 -55 41q-57 0 -57 -65q0 -35 24 -55t60 -20q63 0 113 93v-345zM422 987q-41 -86 -90 -168l22 -15q26 34 46 60t34 46q16 -23 36 -50t43 -56l22 15q-26 43 -48 84.5t-41 83.5h-24z" />
    <glyph glyph-name="Udieresis" unicode="&#xdc;" horiz-adv-x="820" 
d="M798 -332q30 0 30 30q0 25 -46 61q-26 22 -41 35t-18 18q-17 32 -29 84q-10 47 -10 89v660q0 36 27 53q14 7 27 13t27 13q33 20 40 61h-28q-24 -56 -184 -56h-507q-23 0 -45 40t-37 40q-6 0 -11.5 -10t-5.5 -18q0 -39 43 -58q33 -14 76 -14h16q12 0 32 1q-2 -17 -3.5 -29
t-1.5 -19q0 -55 42 -55q7 0 63 34q31 19 49.5 29.5t23.5 12.5q64 27 134 27q79 0 107 -16q41 -23 41 -94q0 -16 -19 -39q-22 55 -46 76q-32 27 -83 27q-143 0 -231 -139q-76 -119 -76 -271q0 -119 59 -208q67 -100 182 -100q54 0 110 30q6 3 30 18.5t66 43.5q30 0 50 -48
q10 -21 22 -73q9 -38 24 -80q5 -12 8 -21l5 -15l6 -54q5 -32 27.5 -55.5t54.5 -23.5zM601 169q0 -66 -41.5 -102.5t-108.5 -36.5q-100 0 -157 93q-49 79 -49 186q0 109 53 204q63 113 163 113q42 0 72 -25t30 -67q0 -32 -22 -60q-21 -28 -51 -28q-32 0 -32 26q0 6 3 14
q10 -5 19 -5q15 0 25.5 11.5t10.5 27.5q0 41 -55 41q-57 0 -57 -65q0 -35 24 -55t60 -20q63 0 113 93v-345zM384 836q43 0 43 49q0 19 -13 34t-32 15t-31.5 -15.5t-12.5 -34.5q0 -20 13 -34t33 -14zM506 836q43 0 43 49q0 19 -13 34t-32 15t-31.5 -15.5t-12.5 -34.5
q0 -20 13 -34t33 -14z" />
    <glyph glyph-name="Yacute" unicode="&#xdd;" horiz-adv-x="641" 
d="M627 679q0 65 -73 65q-45 0 -67 -18q-17 -14 -43 -56v-26q29 26 38 26q24 0 38.5 -18.5t14.5 -43.5q0 -55 -109 -183q-17 3 -95 114q-77 112 -77 131q0 17 46 33t46 28q0 17 -15 17q-16 0 -27 -9t-12 -9h-2q-10 -5 -19 -5h-236q-5 11 -11.5 22.5t-20.5 11.5
q-16 0 -16 -22q0 -12 5 -20q23 -9 40.5 -14.5t30.5 -7.5q111 -43 215 -238q48 -92 48 -105v-254q0 -34 -38 -57q-4 -2 -21 -9t-48 -20q-38 -14 -38 -31q0 -11 26 -28q8 0 36 23t46 23h219q52 0 52 27q0 16 -21 18l6 -1h-25q-10 0 -26 -14t-21 -14q-19 0 -34 33
q-13 27 -13 50v254q0 20 100 156q101 139 101 171zM385 817l18 -13l127 126q13 13 13 22t-17 21q-16 13 -26 13q-11 0 -18 -13z" />
    <glyph glyph-name="Thorn" unicode="&#xde;" horiz-adv-x="774" 
d="M773 386q0 88 -97 161q-94 71 -194 71q-7 0 -22 -1t-22 -1q-55 0 -110 35q-8 5 -28.5 21t-52.5 44q-43 35 -67 35h-19q-17 0 -52 1t-56 1.5t-29 0.5q-18 0 -18 -17q0 -15 11 -26.5t26 -11.5q20 0 52 9q30 10 52 10q6 0 20 -15q8 -10 12.5 -14.5l5.5 -5.5v-582
q0 -60 -55 -72q-26 -1 -51 -2t-51 -3q-53 -5 -53 -50q8 1 19 4t27 10q31 12 44 12h95q58 0 135 -1q78 -1 135 -1h95q32 0 82 24q19 -1 19 26q0 18 -18 18q-17 0 -43 -20q-27 -22 -44 -25q-14 -3 -46 -3q-48 0 -78.5 1.5t-46.5 3.5q-83 15 -83 68v410q0 46 98 66
q61 12 142 12q76 0 127 -75q47 -68 47 -146q0 -77 -34 -123q-38 -51 -113 -51q-46 0 -84 23q-45 25 -45 69q0 28 27 60q27 31 56 31q8 0 16.5 -4.5t16 -12t13 -16t5.5 -16.5q-35 -9 -45 -15q-20 -14 -20 -40q0 -23 21 -23q30 0 48 21.5t18 51.5q0 64 -73 64q-39 0 -70 -31
q-31 -30 -31 -70q0 -58 46 -91q41 -29 101 -29q93 0 166 68q73 69 73 162z" />
    <glyph glyph-name="germandbls" unicode="&#xdf;" horiz-adv-x="323" 
d="M120 142v188q106 -1 106 -49q0 -18 -45 -70q-16 -17 -31 -34.5t-30 -34.5zM309 85q0 72 -83 125q4 8 43 57q30 39 30 59q0 33 -29 56q-29 24 -63 24q-48 0 -87 -41q1 71 -11 129q-17 77 -17 86q0 22 12 38.5t33 16.5q38 0 53 -60q54 45 54 68q0 18 -18 31t-36 13
q-80 0 -107 -59q-14 -33 -19 -129q-1 -18 -2.5 -38.5t-4.5 -43.5l-39 1l1 -18h38v-319q0 -22 -36 -80h125q-26 63 -26 71v57h21q85 1 85 -62q0 -43 -48 -100q-23 -26 -45 -51.5t-44 -51.5q-48 -66 -48 -128q0 -59 93 -59q48 0 113 17l-10 17v18h-51q-67 -35 -72 -35
q-22 0 -36.5 15.5t-14.5 37.5q0 55 64 118q29 26 59 53t59 53q64 61 64 114z" />
    <glyph glyph-name="agrave" unicode="&#xe0;" 
d="M140 -9q25 0 121 51q3 -24 12 -43h71q-27 48 -27 79v214q0 10 23 54q-71 26 -124 71q-62 0 -134 -94q-68 -91 -68 -155q0 -60 32 -115q38 -62 94 -62zM255 78q-66 -20 -104 -20q-28 0 -53 60q-21 52 -21 86q0 36 30 95q31 66 64 66q55 -42 84 -63v-224zM155 541l-97 156
q-7 13 -17 13q-11 0 -27 -13q-16 -12 -16 -21t12 -22l126 -126z" />
    <glyph glyph-name="aacute" unicode="&#xe1;" 
d="M140 -9q25 0 121 51q3 -24 12 -43h71q-27 48 -27 79v214q0 10 23 54q-71 26 -124 71q-62 0 -134 -94q-68 -91 -68 -155q0 -60 32 -115q38 -62 94 -62zM255 78q-66 -20 -104 -20q-28 0 -53 60q-21 52 -21 86q0 36 30 95q31 66 64 66q55 -42 84 -63v-224zM187 541l18 -13
l127 126q13 13 13 22t-17 21q-16 13 -26 13q-11 0 -18 -13z" />
    <glyph glyph-name="acircumflex" unicode="&#xe2;" 
d="M140 -9q25 0 121 51q3 -24 12 -43h71q-27 48 -27 79v214q0 10 23 54q-71 26 -124 71q-62 0 -134 -94q-68 -91 -68 -155q0 -60 32 -115q38 -62 94 -62zM255 78q-66 -20 -104 -20q-28 0 -53 60q-21 52 -21 86q0 36 30 95q31 66 64 66q55 -42 84 -63v-224zM188 711
q-41 -86 -90 -168l22 -15q26 34 46 60t34 46q16 -23 36 -50t43 -56l22 15q-26 43 -48 84.5t-41 83.5h-24z" />
    <glyph glyph-name="atilde" unicode="&#xe3;" 
d="M140 -9q25 0 121 51q3 -24 12 -43h71q-27 48 -27 79v214q0 10 23 54q-71 26 -124 71q-62 0 -134 -94q-68 -91 -68 -155q0 -60 32 -115q38 -62 94 -62zM255 78q-66 -20 -104 -20q-28 0 -53 60q-21 52 -21 86q0 36 30 95q31 66 64 66q55 -42 84 -63v-224zM139 613
q-47 0 -77 -77l19 -13q21 41 47 41q19 0 56 -17q39 -17 58 -17q53 0 77 77l-20 11q-20 -39 -46 -39q-18 0 -57 17t-57 17z" />
    <glyph glyph-name="adieresis" unicode="&#xe4;" 
d="M140 -9q25 0 121 51q3 -24 12 -43h71q-27 48 -27 79v214q0 10 23 54q-71 26 -124 71q-62 0 -134 -94q-68 -91 -68 -155q0 -60 32 -115q38 -62 94 -62zM255 78q-66 -20 -104 -20q-28 0 -53 60q-21 52 -21 86q0 36 30 95q31 66 64 66q55 -42 84 -63v-224zM136 528
q43 0 43 49q0 19 -13 34t-32 15t-31.5 -15.5t-12.5 -34.5q0 -20 13 -34t33 -14zM258 528q43 0 43 49q0 19 -13 34t-32 15t-31.5 -15.5t-12.5 -34.5q0 -20 13 -34t33 -14z" />
    <glyph glyph-name="aring" unicode="&#xe5;" 
d="M140 -9q25 0 121 51q3 -24 12 -43h71q-27 48 -27 79v214q0 10 23 54q-71 26 -124 71q-62 0 -134 -94q-68 -91 -68 -155q0 -60 32 -115q38 -62 94 -62zM255 78q-66 -20 -104 -20q-28 0 -53 60q-21 52 -21 86q0 36 30 95q31 66 64 66q55 -42 84 -63v-224zM197 651
q-32 0 -54.5 -20t-22.5 -52t22 -52.5t54 -20.5q31 0 53.5 21t22.5 52t-22 51.5t-53 20.5zM196 626q40 0 40 -46q0 -49 -39 -49q-40 0 -40 49q0 46 39 46z" />
    <glyph glyph-name="ae" unicode="&#xe6;" horiz-adv-x="585" 
d="M255 78q-66 -20 -104 -20q-28 0 -53 60q-21 52 -21 86q0 36 30 95q31 66 64 66q55 -42 84 -63v-224zM568 332q0 41 -48 71q-42 27 -86 27q-79 0 -128 -70q-50 22 -90 57q-62 0 -134 -94q-68 -91 -68 -155q0 -60 32 -115q38 -62 94 -62q25 0 121 51q3 -24 12 -43h71
l-15 31q42 -36 96 -36q75 0 134 57q-42 -7 -64.5 -10.5t-25.5 -3.5q-73 0 -132 107q1 10 116 90q115 79 115 98zM488 305q0 -20 -154 -123q-6 19 -6 48q0 173 70 173q32 0 61 -32t29 -66z" />
    <glyph glyph-name="ccedilla" unicode="&#xe7;" horiz-adv-x="282" 
d="M177 1q61 4 94 72q-32 -19 -64 -19q-68 0 -112 62q-39 55 -39 126q0 50 20 99q26 62 69 62q23 0 48 -19q8 -4 41 -34q35 33 35 53q0 45 -62 45q-82 0 -142 -86q-55 -77 -55 -164q0 -70 32 -125q38 -64 102 -71q-40 -55 -40 -68q0 -15 20 -38q21 -24 21 -40q0 -39 -58 -67
l13 -21q103 40 103 102q0 28 -24 57q-24 28 -24 37q0 8 22 37z" />
    <glyph glyph-name="egrave" unicode="&#xe8;" horiz-adv-x="345" 
d="M329 331q0 41 -48 71q-42 27 -86 27q-82 0 -133 -78q-45 -68 -45 -154q0 -78 45 -138q49 -66 124 -66t134 57q-42 -7 -64 -10.5t-26 -3.5q-73 0 -132 107q3 12 117 90q114 79 114 98zM249 304q0 -20 -154 -123q-6 19 -6 48q0 173 70 173q32 0 61 -32t29 -66zM155 541
l-97 156q-7 13 -17 13q-11 0 -27 -13q-16 -12 -16 -21t12 -22l126 -126z" />
    <glyph glyph-name="eacute" unicode="&#xe9;" horiz-adv-x="345" 
d="M329 331q0 41 -48 71q-42 27 -86 27q-82 0 -133 -78q-45 -68 -45 -154q0 -78 45 -138q49 -66 124 -66t134 57q-42 -7 -64 -10.5t-26 -3.5q-73 0 -132 107q3 12 117 90q114 79 114 98zM249 304q0 -20 -154 -123q-6 19 -6 48q0 173 70 173q32 0 61 -32t29 -66zM187 541
l18 -13l127 126q13 13 13 22t-17 21q-16 13 -26 13q-11 0 -18 -13z" />
    <glyph glyph-name="ecircumflex" unicode="&#xea;" horiz-adv-x="345" 
d="M329 331q0 41 -48 71q-42 27 -86 27q-82 0 -133 -78q-45 -68 -45 -154q0 -78 45 -138q49 -66 124 -66t134 57q-42 -7 -64 -10.5t-26 -3.5q-73 0 -132 107q3 12 117 90q114 79 114 98zM249 304q0 -20 -154 -123q-6 19 -6 48q0 173 70 173q32 0 61 -32t29 -66zM178 711
q-41 -86 -90 -168l22 -15q26 34 46 60t34 46q16 -23 36 -50t43 -56l22 15q-26 43 -48 84.5t-41 83.5h-24z" />
    <glyph glyph-name="edieresis" unicode="&#xeb;" horiz-adv-x="345" 
d="M329 331q0 41 -48 71q-42 27 -86 27q-82 0 -133 -78q-45 -68 -45 -154q0 -78 45 -138q49 -66 124 -66t134 57q-42 -7 -64 -10.5t-26 -3.5q-73 0 -132 107q3 12 117 90q114 79 114 98zM249 304q0 -20 -154 -123q-6 19 -6 48q0 173 70 173q32 0 61 -32t29 -66zM126 528
q43 0 43 49q0 19 -13 34t-32 15t-31.5 -15.5t-12.5 -34.5q0 -20 13 -34t33 -14zM248 528q43 0 43 49q0 19 -13 34t-32 15t-31.5 -15.5t-12.5 -34.5q0 -20 13 -34t33 -14z" />
    <glyph glyph-name="igrave" unicode="&#xec;" horiz-adv-x="193" 
d="M167 1l-31 18l4 396h-9l-88 -80q27 -44 27 -79v-99q0 -112 -44 -156h141zM60 541l-96 156q-7 13 -17 13q-11 0 -27 -13q-17 -12 -17 -21t13 -22l125 -126z" />
    <glyph glyph-name="iacute" unicode="&#xed;" horiz-adv-x="193" 
d="M167 1l-31 18l4 396h-9l-88 -80q27 -44 27 -79v-99q0 -112 -44 -156h141zM97 541l18 -13l127 126q13 13 13 22t-17 21q-16 13 -26 13q-11 0 -18 -13z" />
    <glyph glyph-name="icircumflex" unicode="&#xee;" horiz-adv-x="193" 
d="M167 1l-31 18l4 396h-9l-88 -80q27 -44 27 -79v-99q0 -112 -44 -156h141zM88 711q-20 -43 -42 -84.5t-47 -83.5l21 -15q26 34 46 60t34 46q16 -23 36 -50t43 -56l22 15q-26 43 -48 84.5t-41 83.5h-24z" />
    <glyph glyph-name="idieresis" unicode="&#xef;" horiz-adv-x="193" 
d="M167 1l-31 18l4 396h-9l-88 -80q27 -44 27 -79v-99q0 -112 -44 -156h141zM46 528q43 0 43 49q0 19 -13 34t-32 15t-31.5 -15.5t-12.5 -34.5q0 -20 13 -34t33 -14zM168 528q43 0 43 49q0 19 -13 34t-32 15t-31.5 -15.5t-12.5 -34.5q0 -20 13 -34t33 -14z" />
    <glyph glyph-name="eth" unicode="&#xf0;" horiz-adv-x="381" 
d="M262 205q0 -153 -80 -153q-51 0 -82 76q-25 59 -25 120q0 53 16 95q21 58 64 58q62 -33 86 -80q21 -42 21 -116zM24 631l41 -29l60 78q127 -97 135 -109l2 -135q-26 -9 -36 -9q-7 0 -21.5 4.5t-22.5 4.5q-80 0 -125 -84q-36 -69 -36 -157q0 -71 24 -128q31 -75 92 -75
q37 0 63 12q2 1 53 35l17 -39h99q-14 19 -24 318q-11 290 -37 309l-145 101l53 68l-41 29l-53 -68l-61 42q-12 1 -22.5 -7.5t-10.5 -20.5q0 -19 25 -37q21 -15 33 -24z" />
    <glyph glyph-name="ntilde" unicode="&#xf1;" horiz-adv-x="383" 
d="M325 274q0 9 2 26.5t2 26.5q0 20 -8.5 37t-23 29.5t-33 19.5t-38.5 7q-25 0 -53 -18q-38 -23 -48 -27v63q-60 -61 -100 -94q37 -52 37 -89q0 -187 -37 -254h119q-22 26 -26 54q-3 15 -3 61v43l-1 8v-1q0 209 76 209q52 0 67 -53q7 -24 7 -95q0 -176 -38 -226h136
q-11 8 -17.5 13.5t-8.5 9.5q-11 14 -11 32v218zM139 613q-47 0 -77 -77l19 -13q21 41 47 41q19 0 56 -17q39 -17 58 -17q53 0 77 77l-20 11q-20 -39 -46 -39q-18 0 -57 17t-57 17z" />
    <glyph glyph-name="ograve" unicode="&#xf2;" horiz-adv-x="367" 
d="M356 217q0 85 -41 153q-48 81 -127 81q-85 0 -134 -94q-43 -77 -43 -169q0 -79 39 -137q44 -65 120 -65q89 0 140 73q46 64 46 158zM300 151q0 -121 -84 -121q-67 0 -112 92q-37 75 -37 152q0 45 19 79q22 42 65 42q71 0 115 -90q34 -71 34 -154zM155 541l-97 156
q-7 13 -17 13q-11 0 -27 -13q-16 -12 -16 -21t12 -22l126 -126z" />
    <glyph glyph-name="oacute" unicode="&#xf3;" horiz-adv-x="367" 
d="M356 217q0 85 -41 153q-48 81 -127 81q-85 0 -134 -94q-43 -77 -43 -169q0 -79 39 -137q44 -65 120 -65q89 0 140 73q46 64 46 158zM300 151q0 -121 -84 -121q-67 0 -112 92q-37 75 -37 152q0 45 19 79q22 42 65 42q71 0 115 -90q34 -71 34 -154zM187 541l18 -13l127 126
q13 13 13 22t-17 21q-16 13 -26 13q-11 0 -18 -13z" />
    <glyph glyph-name="ocircumflex" unicode="&#xf4;" horiz-adv-x="367" 
d="M356 217q0 85 -41 153q-48 81 -127 81q-85 0 -134 -94q-43 -77 -43 -169q0 -79 39 -137q44 -65 120 -65q89 0 140 73q46 64 46 158zM300 151q0 -121 -84 -121q-67 0 -112 92q-37 75 -37 152q0 45 19 79q22 42 65 42q71 0 115 -90q34 -71 34 -154zM178 711
q-41 -86 -90 -168l22 -15q26 34 46 60t34 46q16 -23 36 -50t43 -56l22 15q-26 43 -48 84.5t-41 83.5h-24z" />
    <glyph glyph-name="otilde" unicode="&#xf5;" horiz-adv-x="367" 
d="M356 217q0 85 -41 153q-48 81 -127 81q-85 0 -134 -94q-43 -77 -43 -169q0 -79 39 -137q44 -65 120 -65q89 0 140 73q46 64 46 158zM300 151q0 -121 -84 -121q-67 0 -112 92q-37 75 -37 152q0 45 19 79q22 42 65 42q71 0 115 -90q34 -71 34 -154zM139 613q-47 0 -77 -77
l19 -13q21 41 47 41q19 0 56 -17q39 -17 58 -17q53 0 77 77l-20 11q-20 -39 -46 -39q-18 0 -57 17t-57 17z" />
    <glyph glyph-name="odieresis" unicode="&#xf6;" horiz-adv-x="367" 
d="M356 217q0 85 -41 153q-48 81 -127 81q-85 0 -134 -94q-43 -77 -43 -169q0 -79 39 -137q44 -65 120 -65q89 0 140 73q46 64 46 158zM300 151q0 -121 -84 -121q-67 0 -112 92q-37 75 -37 152q0 45 19 79q22 42 65 42q71 0 115 -90q34 -71 34 -154zM126 528q43 0 43 49
q0 19 -13 34t-32 15t-31.5 -15.5t-12.5 -34.5q0 -20 13 -34t33 -14zM248 528q43 0 43 49q0 19 -13 34t-32 15t-31.5 -15.5t-12.5 -34.5q0 -20 13 -34t33 -14z" />
    <glyph glyph-name="divide" unicode="&#xf7;" horiz-adv-x="619" 
d="M311 172q-22 0 -37 -14.5t-15 -35.5t15 -35.5t36 -14.5q20 0 35 15t15 35t-15 35t-34 15zM310 381q22 0 37 14.5t15 35.5t-15 35.5t-36 14.5q-20 0 -35 -15t-15 -35t15 -35t34 -15zM51 300v-47h517v47h-517z" />
    <glyph glyph-name="oslash" unicode="&#xf8;" horiz-adv-x="367" 
d="M356 217q0 85 -41 153q-48 81 -127 81q-85 0 -134 -94q-43 -77 -43 -169q0 -79 39 -137q44 -65 120 -65q89 0 140 73q46 64 46 158zM300 151q0 -121 -84 -121q-67 0 -112 92q-37 75 -37 152q0 45 19 79q22 42 65 42q71 0 115 -90q34 -71 34 -154z" />
    <glyph glyph-name="ugrave" unicode="&#xf9;" horiz-adv-x="371" 
d="M270 -3h63v410q-71 -47 -99 -63q20 -32 24 -49q5 -20 5 -53q0 -210 -93 -210q-68 0 -68 109q0 6 1 15t2.5 19t2.5 19t1 15v198q-18 -11 -40 -25.5t-48 -33.5q20 -38 20 -111q0 -8 -0.5 -20t-1.5 -29q-1 -16 -1 -28v-20q0 -161 88 -161q60 0 108 70l14 1q0 -27 22 -53z
M155 541l-97 156q-7 13 -17 13q-11 0 -27 -13q-16 -12 -16 -21t12 -22l126 -126z" />
    <glyph glyph-name="uacute" unicode="&#xfa;" horiz-adv-x="371" 
d="M270 -3h63v410q-71 -47 -99 -63q20 -32 24 -49q5 -20 5 -53q0 -210 -93 -210q-68 0 -68 109q0 6 1 15t2.5 19t2.5 19t1 15v198q-18 -11 -40 -25.5t-48 -33.5q20 -38 20 -111q0 -8 -0.5 -20t-1.5 -29q-1 -16 -1 -28v-20q0 -161 88 -161q60 0 108 70l14 1q0 -27 22 -53z
M187 541l18 -13l127 126q13 13 13 22t-17 21q-16 13 -26 13q-11 0 -18 -13z" />
    <glyph glyph-name="ucircumflex" unicode="&#xfb;" horiz-adv-x="371" 
d="M270 -3h63v410q-71 -47 -99 -63q20 -32 24 -49q5 -20 5 -53q0 -210 -93 -210q-68 0 -68 109q0 6 1 15t2.5 19t2.5 19t1 15v198q-18 -11 -40 -25.5t-48 -33.5q20 -38 20 -111q0 -8 -0.5 -20t-1.5 -29q-1 -16 -1 -28v-20q0 -161 88 -161q60 0 108 70l14 1q0 -27 22 -53z
M178 711q-41 -86 -90 -168l22 -15q26 34 46 60t34 46q16 -23 36 -50t43 -56l22 15q-26 43 -48 84.5t-41 83.5h-24z" />
    <glyph glyph-name="udieresis" unicode="&#xfc;" horiz-adv-x="371" 
d="M270 -3h63v410q-71 -47 -99 -63q20 -32 24 -49q5 -20 5 -53q0 -210 -93 -210q-68 0 -68 109q0 6 1 15t2.5 19t2.5 19t1 15v198q-18 -11 -40 -25.5t-48 -33.5q20 -38 20 -111q0 -8 -0.5 -20t-1.5 -29q-1 -16 -1 -28v-20q0 -161 88 -161q60 0 108 70l14 1q0 -27 22 -53z
M126 528q43 0 43 49q0 19 -13 34t-32 15t-31.5 -15.5t-12.5 -34.5q0 -20 13 -34t33 -14zM248 528q43 0 43 49q0 19 -13 34t-32 15t-31.5 -15.5t-12.5 -34.5q0 -20 13 -34t33 -14z" />
    <glyph glyph-name="yacute" unicode="&#xfd;" 
d="M345 335q-7 36 -17 50q-14 20 -46 20q-29 0 -51 -54q37 -13 49 -22q20 -17 20 -48q0 -20 -37 -97q-16 -35 -28.5 -59.5t-21.5 -39.5l-128 320q-69 -40 -70 -70q151 -254 151 -356q0 -22 -41 -106q-40 -81 -40 -117q0 -50 50 -50q80 0 85 -1q54 -3 80 -20v44
q-31 28 -57 37t-68 9q-7 0 -16 -0.5t-20 -1.5q-26 -3 -36 -3zM187 541l18 -13l127 126q13 13 13 22t-17 21q-16 13 -26 13q-11 0 -18 -13z" />
    <glyph glyph-name="thorn" unicode="&#xfe;" horiz-adv-x="363" 
d="M344 247q0 78 -23 136q-32 78 -98 78q-33 0 -64 -16q-25 -13 -39 -19.5t-18 -8.5v170q-60 -41 -74 -74v-629q0 -58 -32 -87q-12 -10 -62 -30q-33 -14 -33 -36q0 -21 20 -21q10 0 23 5q28 10 84 104q55 87 61 125q7 46 9 96q41 -37 69 -37q78 0 131 86q46 74 46 158z
M289 209q0 -61 -19 -106q-26 -63 -75 -63q-59 0 -80 49q-13 30 -13 101q0 206 84 206q51 0 80 -72q23 -57 23 -115z" />
    <glyph glyph-name="ydieresis" unicode="&#xff;" 
d="M345 335q-7 36 -17 50q-14 20 -46 20q-29 0 -51 -54q37 -13 49 -22q20 -17 20 -48q0 -20 -37 -97q-16 -35 -28.5 -59.5t-21.5 -39.5l-128 320q-69 -40 -70 -70q151 -254 151 -356q0 -22 -41 -106q-40 -81 -40 -117q0 -50 50 -50q80 0 85 -1q54 -3 80 -20v44
q-31 28 -57 37t-68 9q-7 0 -16 -0.5t-20 -1.5q-26 -3 -36 -3zM126 528q43 0 43 49q0 19 -13 34t-32 15t-31.5 -15.5t-12.5 -34.5q0 -20 13 -34t33 -14zM248 528q43 0 43 49q0 19 -13 34t-32 15t-31.5 -15.5t-12.5 -34.5q0 -20 13 -34t33 -14z" />
    <glyph glyph-name="minus" unicode="&#xe000;" horiz-adv-x="619" 
d="M50 300v-47h518v47h-518z" />
    <glyph glyph-name="apple" unicode="&#xe001;" horiz-adv-x="1453" 
d="M1390 562q0 -30 -21.5 -50.5t-51.5 -20.5h-146q-35 0 -35 -45v-302q0 -30 18 -42v-56q-71 17 -71 86v322q0 96 115 96q16 0 48 -3q17 -1 29 -1.5t20 -0.5q40 0 40 21q0 19 -41 19q-8 0 -20 -0.5t-28 -1.5t-27.5 -1.5t-19.5 -0.5q-116 0 -116 88v131h57v-131q0 -35 37 -35
h149q27 0 45.5 -22.5t18.5 -49.5zM1003 136q0 -40 -23.5 -64t-62.5 -24h-282q-31 0 -50.5 19.5t-19.5 50.5q0 30 17.5 51t47.5 21h280v-52h-271q-20 0 -20 -18q0 -21 22 -21h250q61 0 61 45v76q0 45 -45 45h-250q-42 0 -67 25t-25 67v89q0 45 26.5 73.5t71.5 28.5h247
q75 0 88 -76h-50q-19 22 -44 22h-243q-41 0 -41 -44v-95q0 -37 41 -37h246q96 0 96 -88v-94zM496 800l-1 -684q0 -30 -21.5 -52.5t-51.5 -22.5q-32 0 -52 22.5t-20 55.5q0 77 -0.5 119t-1.5 50q-2 9 -39 48q-7 7 -18.5 18t-27.5 27l-60 60q-50 47 -64 47q-10 0 -17 -6
q-8 -26 -8 -32v-310q0 -43 35 -43h81q15 8 25 21h54q-15 -72 -78 -72h-82q-88 0 -88 97v329q0 31 25 49.5t57 18.5q33 0 52 -19l179 -176q30 -29 30 -76v-151q0 -21 19 -21q6 0 12 7.5t6 13.5l-1 682h56zM12 -38h1403v838h-1403v-838z" />
    <glyph glyph-name="longs" unicode="&#xe002;" horiz-adv-x="177" 
d="M146 1q-26 63 -26 71v347q0 26 -14 80q-14 56 -14 81q0 22 12 38.5t33 16.5q38 0 53 -60q54 45 54 68q0 18 -18 31t-36 13q-80 0 -107 -59q-14 -33 -19 -129q-1 -18 -2.5 -38.5t-4.5 -43.5l-39 1l1 -18h38v-319q0 -22 -36 -80h125z" />
    </font>
</defs>
</svg>
