<?xml version="1.0" standalone="no"?>
<!DOCTYPE svg PUBLIC "-//W3C//DTD SVG 1.1//EN" "http://www.w3.org/Graphics/SVG/1.1/DTD/svg11.dtd" >
<svg xmlns="http://www.w3.org/2000/svg" xmlns:xlink="http://www.w3.org/1999/xlink" version="1.1">
<metadata>
Created by FontForge 20170910 at Mon Nov  7 14:18:29 2016
 By Jimmy Wärting
Copyright 2016 The Dancing Script Project Authors (impallari@gmail.com), with Reserved Font Name 'Dancing Script'.
</metadata>
<defs>
<font id="DancingScript-Regular" horiz-adv-x="0" >
  <font-face 
    font-family="Dancing Script"
    font-weight="400"
    font-stretch="normal"
    units-per-em="1000"
    panose-1="3 8 6 0 4 5 7 0 13 0"
    ascent="800"
    descent="-200"
    x-height="298"
    cap-height="718"
    bbox="-239 -284 1298 1095"
    underline-thickness="50"
    underline-position="-100"
    unicode-range="U+000D-FB02"
  />
<missing-glyph horiz-adv-x="428" 
d="M0 0v720h428v-720h-428zM80 70h268v580h-268v-580z" />
    <glyph glyph-name="b_r" unicode="br" horiz-adv-x="742" 
d="M16 -39.5q-26 33.5 -26 92.5q0 95 60 254t135.5 283t115.5 124q15 0 23.5 -19.5t8.5 -43.5q0 -47 -33 -125t-86 -150t-109 -106q-13 -24 -30.5 -90t-17.5 -121q0 -94 55 -94q29 0 60 23.5t50 60.5q-35 18 -54 53.5t-19 75.5q0 47 24.5 76.5t59.5 29.5q29 0 46 -24t17 -68
q0 -67 -33 -133q7 -2 21 -2q49 0 86.5 42t60 94t46.5 124q-10 10 -10 26t7.5 31.5t18 25t18.5 9.5q7 0 9.5 -8t2.5 -15q0 -6 -5.5 -20.5t-5.5 -19.5q0 -8 8.5 -16t24.5 -19q33 -24 51 -46t18 -57q0 -21 -7 -42t-21 -55q-8 -20 -15 -39.5t-7 -32.5q0 -29 30 -29t64.5 24
t63.5 59.5t42 65.5l13 -10q-31 -69 -90 -122t-119 -53q-34 0 -53.5 17.5t-19.5 48.5q0 19 7 40.5t21 54.5q2 5 10.5 26t12.5 37.5t4 28.5q0 24 -12 38.5t-26 24t-18 12.5q-24 -76 -47 -129.5t-64.5 -95.5t-101.5 -42q-14 0 -29 3q-30 -50 -70 -80.5t-89 -30.5
q-51 0 -77 33.5zM201.5 407.5q42.5 64.5 70 128t27.5 89.5q0 8 -4 8q-11 0 -46.5 -51t-73.5 -126.5t-59 -146.5q43 34 85.5 98.5zM255 170q0 34 -9.5 54.5t-23.5 20.5q-15 0 -26.5 -21t-11.5 -51t12 -59t36 -45q23 49 23 101z" />
    <glyph glyph-name="e_e" unicode="ee" horiz-adv-x="668" 
d="M351 -14.5q-31 34.5 -31 86.5v5q-43 -57 -99 -89t-113 -32q-59 0 -90.5 32.5t-31.5 83.5q0 59 39 127t98.5 114.5t116.5 46.5q62 0 62 -61q0 -49 -37 -91.5t-95 -69.5t-116 -33q-4 -17 -4 -36q0 -36 18 -60t61 -24q51 0 103 36t93 94q12 55 48.5 109t86.5 88t100 34
q62 0 62 -61q0 -49 -33.5 -88t-87.5 -62.5t-113 -29.5q-4 -17 -4 -36q0 -37 17.5 -63t59.5 -26q61 0 125 53t103 129l12 -9q-40 -90 -113 -146t-148 -56q-58 0 -89 34.5zM147 166q46 27 78.5 63.5t32.5 76.5q0 12 -4.5 17.5t-16.5 5.5q-31 0 -67.5 -31t-67 -79t-43.5 -95
q42 15 88 42zM523 191q57 41 57 98q0 26 -23 26q-31 0 -64 -27.5t-59.5 -71.5t-40.5 -92q73 26 130 67z" />
    <glyph glyph-name="fi" unicode="fi" horiz-adv-x="555" 
d="M-51 -260.5q-17 19.5 -17 68.5q0 105 75 330.5t175.5 403.5t177.5 178q19 0 26.5 -11.5t7.5 -31.5q0 -55 -39 -125t-101 -137t-127 -113q-11 -25 -17 -44q16 -6 23 -25q26 -85 90 -85q30 0 63 18t62 47q23 55 50.5 90.5t53.5 35.5q9 0 15.5 -6t6.5 -16q0 -14 -32 -67
q-33 -55 -52.5 -98.5t-19.5 -82.5q0 -35 11.5 -47.5t37.5 -12.5q78 0 154 153l9 -10q-28 -84 -82.5 -131t-114.5 -47q-37 0 -57 23.5t-20 60.5q0 44 24 114q-29 -24 -61.5 -37t-64.5 -13q-34 0 -69 16q4 -28 4 -64q0 -83 -22.5 -165.5t-58.5 -135.5t-73 -53q-21 0 -38 19.5z
M252.5 460q48.5 61 75.5 109.5t27 69.5q0 14 -14 14q-37 0 -90 -86.5t-108 -223.5q61 56 109.5 117zM475.5 440.5q-11.5 8.5 -11.5 24.5q0 20 24 36t49 16q33 0 33 -31q0 -19 -20.5 -36.5t-44.5 -17.5q-18 0 -29.5 8.5zM56 -181.5q24 50.5 41.5 123.5t17.5 135q0 38 -5 66.5
t-25 44.5q-41 -118 -66 -219.5t-25 -152.5q0 -23 5 -35.5t14 -12.5q19 0 43 50.5z" />
    <glyph glyph-name="fl" unicode="fl" horiz-adv-x="549" 
d="M-51 -260.5q-17 19.5 -17 68.5q0 105 75 330.5t175.5 403.5t177.5 178q19 0 26.5 -11.5t7.5 -31.5q0 -55 -39 -125t-101 -137t-127 -113q-11 -25 -17 -44q9 -3 15 -11.5t8 -19.5q6 -53 31 -77t61 -24q46 0 102 33q23 103 83.5 236t124 229t92.5 96q14 0 23.5 -24.5
t9.5 -49.5q0 -46 -37.5 -135.5t-98.5 -181.5t-130 -149q-13 -58 -13 -101q0 -77 44 -77q37 0 75 46.5t68 113.5l16 -8q-86 -184 -188 -184q-41 0 -60.5 28t-19.5 75q0 27 6 60q-56 -31 -111 -31q-38 0 -72 19q2 -32 2 -47q0 -83 -22.5 -165.5t-58.5 -135.5t-73 -53
q-21 0 -38 19.5zM252.5 460q48.5 61 75.5 109.5t27 69.5q0 14 -14 14q-37 0 -90 -86.5t-108 -223.5q61 56 109.5 117zM510.5 352.5q52.5 83.5 85.5 160t33 110.5q0 16 -7 16q-14 0 -57.5 -68.5t-89.5 -167.5t-72 -189q55 55 107.5 138.5zM56 -181.5q24 50.5 41.5 122.5
t17.5 131q0 79 -31 112q-40 -118 -65 -218t-25 -150q0 -23 5 -35.5t14 -12.5q19 0 43 50.5z" />
    <glyph glyph-name="l_l" unicode="ll" horiz-adv-x="473" 
d="M22.5 -2q-19.5 28 -19.5 75q0 90 62 244.5t138.5 278.5t110.5 124q14 0 23.5 -24.5t9.5 -49.5q0 -46 -37.5 -135.5t-98.5 -181.5t-130 -149q-13 -58 -13 -101q0 -77 44 -77q34 0 70 40.5t65 100.5q19 99 74 226.5t115 219t90 91.5q14 0 23.5 -24.5t9.5 -49.5
q0 -47 -31 -126t-86 -161t-124 -139q-13 -58 -13 -101q0 -77 44 -77q37 0 75.5 47t68.5 113l15 -8q-86 -184 -188 -184q-41 0 -60.5 28t-19.5 75q0 15 1 23q-75 -126 -158 -126q-41 0 -60.5 28zM197.5 352.5q52.5 83.5 85.5 160t33 110.5q0 16 -7 16q-14 0 -57.5 -68.5
t-89.5 -167.5t-72 -189q55 55 107.5 138.5zM428 342.5q46 73.5 73 140t27 100.5q0 16 -7 16q-14 0 -51 -58t-77 -147.5t-66 -179.5q55 55 101 128.5z" />
    <glyph glyph-name="o_r" unicode="or" horiz-adv-x="753" 
d="M9 -8q-21 24 -21 63q0 54 36.5 125t93 121.5t112.5 50.5q33 0 43 -21q2 1 7 1q17 0 25.5 -13.5t8.5 -25.5q0 -11 -14 -41q-12 -26 -18.5 -45.5t-6.5 -39.5q0 -28 14 -41.5t45 -13.5q25 0 56 32t58 80.5t39 92.5q-10 10 -10 24q0 18 7.5 34t18 25t16.5 9q14 0 14 -24
q0 -4 -5 -18t-6 -19q0 -10 8.5 -18.5t27.5 -21.5q31 -22 48.5 -43.5t17.5 -55.5q0 -22 -7 -43.5t-21 -56.5q-22 -48 -22 -69q0 -30 30 -30t64.5 24t63.5 59.5t42 65.5l13 -10q-31 -69 -90 -122t-119 -53q-34 0 -53.5 18t-19.5 47q0 34 29 98q13 33 19.5 52.5t6.5 36.5
q0 25 -11.5 39.5t-25.5 24t-19 12.5q-27 -81 -75.5 -147.5t-100.5 -66.5q-29 0 -51 11.5t-34 34.5q-33 -76 -78.5 -121t-96.5 -45q-38 0 -59 24zM165 55.5q41 44.5 68 109.5q-6 24 -6 57q0 62 19 91q-52 0 -96.5 -44.5t-71 -105t-26.5 -101.5q0 -23 10 -37t28 -14
q34 0 75 44.5z" />
    <glyph glyph-name="t_h" unicode="th" horiz-adv-x="762" 
d="M-4 53q0 42 18 111.5t45 142.5q-8 1 -19 6.5t-17 7.5v18q7 -1 20 -5t24 -5q44 113 91.5 190.5t77.5 77.5q8 0 14.5 -6t6.5 -16q0 -13 -12.5 -38t-42.5 -77q-5 -10 -31 -55.5t-47 -91.5q55 -10 97 -10q52 0 129 16q35 96 81 187.5t89 149.5t71 58q16 0 24.5 -19.5
t8.5 -43.5q0 -47 -30.5 -115.5t-81 -132t-106.5 -97.5q-18 -43 -33.5 -117.5t-15.5 -115.5q0 -16 2 -34q40 116 90.5 187.5t112.5 71.5q38 0 57 -26.5t19 -63.5q0 -22 -5.5 -42t-17.5 -52q-10 -27 -15 -43t-5 -31q0 -19 8 -28.5t22 -9.5q34 0 80 47.5t76 112.5l13 -12
q-33 -76 -84.5 -125t-107.5 -49q-33 0 -51 17.5t-18 45.5q0 22 15 71q16 54 16 80q0 25 -10.5 36.5t-27.5 11.5q-37 0 -64.5 -43.5t-59.5 -122.5q-24 -58 -38 -84t-31 -26q-18 0 -29.5 31t-11.5 73q0 19 3 41q-39 -69 -95 -111t-115 -42q-89 0 -89 99zM501.5 436
q39.5 56 64 109.5t24.5 79.5q0 8 -4 8q-11 0 -42.5 -40.5t-66.5 -106.5t-58 -141q43 35 82.5 91zM215 36.5q50 45.5 89 125.5q14 68 35 130q-59 -14 -123 -14q-42 0 -103 11q-55 -126 -55 -218q0 -43 13 -61.5t43 -18.5q51 0 101 45.5z" />
    <glyph glyph-name="v_r" unicode="vr" horiz-adv-x="756" 
d="M22.5 -10.5q-12.5 28.5 -12.5 81.5q0 19 6 131q2 30 7 38.5t25 8.5q17 0 21.5 -6.5t4.5 -25.5q0 -20 -4 -74q-5 -48 -5 -87q0 -30 5 -43t18 -13q33 0 80 67.5t85 151.5q2 63 13.5 88t32.5 25q17 0 26.5 -12.5t9.5 -25.5q-1 -4 -15 -43t-14 -79q0 -56 46 -56
q45 0 76.5 57.5t61.5 143.5q-10 10 -10 24q0 18 7.5 34t18 25t16.5 9q14 0 14 -24q0 -4 -5 -18t-6 -19q0 -10 8.5 -18.5t27.5 -21.5q31 -22 48.5 -43.5t17.5 -55.5q0 -22 -7 -43.5t-21 -56.5q-22 -48 -22 -69q0 -30 30 -30t64.5 24t63.5 59.5t42 65.5l13 -10
q-31 -69 -90 -122t-119 -53q-34 0 -53.5 18t-19.5 47q0 34 29 98q13 33 19.5 52.5t6.5 36.5q0 25 -11.5 39.5t-25.5 24t-19 12.5q-22 -62 -41.5 -104t-50.5 -74t-72 -32q-33 0 -57.5 19.5t-29.5 49.5q-41 -82 -93.5 -141t-97.5 -59q-30 0 -42.5 28.5z" />
    <glyph glyph-name="w_r" unicode="wr" horiz-adv-x="966" 
d="M228 58q0 36 7 90q-40 -80 -79.5 -129t-80.5 -49q-32 0 -53.5 29.5t-21.5 71.5q0 37 15.5 91.5t37 95t35.5 40.5q8 0 22.5 -6t14.5 -14q-21 -32 -44 -94.5t-23 -106.5q0 -23 7 -45t28 -22q31 0 69 53.5t81 137.5q8 42 13.5 60.5t11 24t15.5 5.5q13 0 21 -5.5t8 -16.5
q0 -3 -2 -11q-11 -37 -19.5 -98t-8.5 -111q0 -49 22 -49q28 0 76 71t87 154q0 49 5 72t13.5 29t23.5 6q17 0 26.5 -12.5t9.5 -25.5q-3 -8 -10.5 -26t-12.5 -39t-5 -46q0 -56 50 -56q42 0 74 55.5t59 134.5q-10 10 -10 24q0 18 7.5 34t18 25t16.5 9q14 0 14 -24q0 -4 -5 -18
t-6 -19q0 -10 8.5 -18.5t27.5 -21.5q31 -22 48.5 -43.5t17.5 -55.5q0 -22 -7 -43.5t-21 -56.5q-22 -48 -22 -69q0 -30 30 -30t64.5 24t63.5 59.5t42 65.5l13 -10q-31 -69 -90 -122t-119 -53q-34 0 -53.5 18t-19.5 47q0 34 29 98q13 33 19.5 52.5t6.5 36.5q0 25 -11.5 39.5
t-25.5 24t-19 12.5q-68 -202 -159 -202q-31 0 -52.5 18t-31.5 50q-44 -82 -97 -144.5t-95 -62.5q-54 0 -54 97z" />
    <glyph glyph-name=".notdef" horiz-adv-x="428" 
d="M0 0v720h428v-720h-428zM80 70h268v580h-268v-580z" />
    <glyph glyph-name="NULL" 
 />
    <glyph glyph-name="NULL" 
 />
    <glyph glyph-name="nonmarkingreturn" unicode="&#xd;" horiz-adv-x="260" 
 />
    <glyph glyph-name="space" unicode=" " horiz-adv-x="260" 
 />
    <glyph glyph-name="A" unicode="A" horiz-adv-x="592" 
d="M-17 -35q0 39 41.5 122t110.5 191q-61 5 -108 5h-35q19 52 104 52q27 0 72 -7q77 116 156.5 218.5t125.5 145.5q29 28 48 28q21 0 53 -32q-20 -16 -58 -129.5t-68 -248t-30 -216.5q0 -40 8.5 -60t28.5 -20q55 0 131 148l10 -10q-31 -82 -77.5 -132t-95.5 -50
q-40 0 -59 35.5t-19 98.5q0 64 17 149q-64 10 -148 20q-98 -180 -174 -360q-34 19 -34 52zM400 483q33 101 66 174q-45 -28 -110.5 -118t-138.5 -220q40 -8 84 -20l45 -11q21 94 54 195z" />
    <glyph glyph-name="Aacute" unicode="&#xc1;" horiz-adv-x="592" 
d="M-17 -35q0 39 41.5 122t110.5 191q-61 5 -108 5h-35q19 52 104 52q27 0 72 -7q77 116 156.5 218.5t125.5 145.5q29 28 48 28q21 0 53 -32q-20 -16 -58 -129.5t-68 -248t-30 -216.5q0 -40 8.5 -60t28.5 -20q55 0 131 148l10 -10q-31 -82 -77.5 -132t-95.5 -50
q-40 0 -59 35.5t-19 98.5q0 64 17 149q-64 10 -148 20q-98 -180 -174 -360q-34 19 -34 52zM400 483q33 101 66 174q-45 -28 -110.5 -118t-138.5 -220q40 -8 84 -20l45 -11q21 94 54 195zM524.5 759.5q-3.5 8.5 -3.5 14.5q0 12 18.5 42.5t43 54.5t42.5 24q19 0 22 -31
q-74 -64 -112 -116q-7 3 -10.5 11.5z" />
    <glyph glyph-name="Abreve" unicode="&#x102;" horiz-adv-x="592" 
d="M-17 -35q0 39 41.5 122t110.5 191q-61 5 -108 5h-35q19 52 104 52q27 0 72 -7q77 116 156.5 218.5t125.5 145.5q29 28 48 28q21 0 53 -32q-20 -16 -58 -129.5t-68 -248t-30 -216.5q0 -40 8.5 -60t28.5 -20q55 0 131 148l10 -10q-31 -82 -77.5 -132t-95.5 -50
q-40 0 -59 35.5t-19 98.5q0 64 17 149q-64 10 -148 20q-98 -180 -174 -360q-34 19 -34 52zM400 483q33 101 66 174q-45 -28 -110.5 -118t-138.5 -220q40 -8 84 -20l45 -11q21 94 54 195zM506.5 772.5q-23.5 14.5 -34 36t-10.5 41.5q0 33 24 49q3 -38 23 -64.5t58 -26.5
q62 0 96 60q10 -10 10 -30q0 -33 -32.5 -56.5t-75.5 -23.5q-35 0 -58.5 14.5z" />
    <glyph glyph-name="uni1EAE" unicode="&#x1eae;" horiz-adv-x="592" 
d="M-17 -35q0 39 41.5 122t110.5 191q-61 5 -108 5h-35q19 52 104 52q27 0 72 -7q77 116 156.5 218.5t125.5 145.5q29 28 48 28q21 0 53 -32q-20 -16 -58 -129.5t-68 -248t-30 -216.5q0 -40 8.5 -60t28.5 -20q55 0 131 148l10 -10q-31 -82 -77.5 -132t-95.5 -50
q-40 0 -59 35.5t-19 98.5q0 64 17 149q-64 10 -148 20q-98 -180 -174 -360q-34 19 -34 52zM400 483q33 101 66 174q-45 -28 -110.5 -118t-138.5 -220q40 -8 84 -20l45 -11q21 94 54 195zM561 876q-5 8 -5 17q0 13 15.5 37t37 42.5t37.5 18.5q19 0 22 -31q-61 -55 -92 -96
q-10 4 -15 12zM506.5 772.5q-23.5 14.5 -34 36t-10.5 41.5q0 33 24 49q3 -38 23 -64.5t58 -26.5q62 0 96 60q10 -10 10 -30q0 -33 -32.5 -56.5t-75.5 -23.5q-35 0 -58.5 14.5z" />
    <glyph glyph-name="uni1EB6" unicode="&#x1eb6;" horiz-adv-x="592" 
d="M-17 -35q0 39 41.5 122t110.5 191q-61 5 -108 5h-35q19 52 104 52q27 0 72 -7q77 116 156.5 218.5t125.5 145.5q29 28 48 28q21 0 53 -32q-20 -16 -58 -129.5t-68 -248t-30 -216.5q0 -40 8.5 -60t28.5 -20q55 0 131 148l10 -10q-31 -82 -77.5 -132t-95.5 -50
q-40 0 -59 35.5t-19 98.5q0 64 17 149q-64 10 -148 20q-98 -180 -174 -360q-34 19 -34 52zM400 483q33 101 66 174q-45 -28 -110.5 -118t-138.5 -220q40 -8 84 -20l45 -11q21 94 54 195zM506.5 772.5q-23.5 14.5 -34 36t-10.5 41.5q0 33 24 49q3 -38 23 -64.5t58 -26.5
q62 0 96 60q10 -10 10 -30q0 -33 -32.5 -56.5t-75.5 -23.5q-35 0 -58.5 14.5zM145 -179.5q-11 8.5 -11 24.5q0 21 21 35t44 14q35 0 35 -33q0 -19 -19 -34t-41 -15q-18 0 -29 8.5z" />
    <glyph glyph-name="uni1EB0" unicode="&#x1eb0;" horiz-adv-x="592" 
d="M-17 -35q0 39 41.5 122t110.5 191q-61 5 -108 5h-35q19 52 104 52q27 0 72 -7q77 116 156.5 218.5t125.5 145.5q29 28 48 28q21 0 53 -32q-20 -16 -58 -129.5t-68 -248t-30 -216.5q0 -40 8.5 -60t28.5 -20q55 0 131 148l10 -10q-31 -82 -77.5 -132t-95.5 -50
q-40 0 -59 35.5t-19 98.5q0 64 17 149q-64 10 -148 20q-98 -180 -174 -360q-34 19 -34 52zM400 483q33 101 66 174q-45 -28 -110.5 -118t-138.5 -220q40 -8 84 -20l45 -11q21 94 54 195zM495 957q3 31 22 31q16 0 37.5 -18.5t37 -42.5t15.5 -37q0 -9 -5 -17t-15 -12
q-31 41 -92 96zM506.5 772.5q-23.5 14.5 -34 36t-10.5 41.5q0 33 24 49q3 -38 23 -64.5t58 -26.5q62 0 96 60q10 -10 10 -30q0 -33 -32.5 -56.5t-75.5 -23.5q-35 0 -58.5 14.5z" />
    <glyph glyph-name="uni1EB2" unicode="&#x1eb2;" horiz-adv-x="592" 
d="M-17 -35q0 39 41.5 122t110.5 191q-61 5 -108 5h-35q19 52 104 52q27 0 72 -7q77 116 156.5 218.5t125.5 145.5q29 28 48 28q21 0 53 -32q-20 -16 -58 -129.5t-68 -248t-30 -216.5q0 -40 8.5 -60t28.5 -20q55 0 131 148l10 -10q-31 -82 -77.5 -132t-95.5 -50
q-40 0 -59 35.5t-19 98.5q0 64 17 149q-64 10 -148 20q-98 -180 -174 -360q-34 19 -34 52zM400 483q33 101 66 174q-45 -28 -110.5 -118t-138.5 -220q40 -8 84 -20l45 -11q21 94 54 195zM506.5 772.5q-23.5 14.5 -34 36t-10.5 41.5q0 33 24 49q3 -38 23 -64.5t58 -26.5
q62 0 96 60q10 -10 10 -30q0 -33 -32.5 -56.5t-75.5 -23.5q-35 0 -58.5 14.5zM549 863q30 2 49.5 13.5t19.5 34.5t-23 33t-70 10q0 19 13 32.5t35 13.5q34 0 56 -22t22 -55q0 -31 -19 -51t-49 -20q-21 0 -34 11z" />
    <glyph glyph-name="uni1EB4" unicode="&#x1eb4;" horiz-adv-x="592" 
d="M-17 -35q0 39 41.5 122t110.5 191q-61 5 -108 5h-35q19 52 104 52q27 0 72 -7q77 116 156.5 218.5t125.5 145.5q29 28 48 28q21 0 53 -32q-20 -16 -58 -129.5t-68 -248t-30 -216.5q0 -40 8.5 -60t28.5 -20q55 0 131 148l10 -10q-31 -82 -77.5 -132t-95.5 -50
q-40 0 -59 35.5t-19 98.5q0 64 17 149q-64 10 -148 20q-98 -180 -174 -360q-34 19 -34 52zM400 483q33 101 66 174q-45 -28 -110.5 -118t-138.5 -220q40 -8 84 -20l45 -11q21 94 54 195zM506.5 772.5q-23.5 14.5 -34 36t-10.5 41.5q0 33 24 49q3 -38 23 -64.5t58 -26.5
q62 0 96 60q10 -10 10 -30q0 -33 -32.5 -56.5t-75.5 -23.5q-35 0 -58.5 14.5zM632.5 895.5q-18.5 5.5 -46.5 16.5q-29 12 -50 18t-42 6q-31 0 -54 -15q36 50 87 50q18 0 37 -5.5t45 -16.5q39 -14 61 -20t47 -6q16 0 34 8q-33 -41 -82 -41q-18 0 -36.5 5.5z" />
    <glyph glyph-name="Acircumflex" unicode="&#xc2;" horiz-adv-x="592" 
d="M-17 -35q0 39 41.5 122t110.5 191q-61 5 -108 5h-35q19 52 104 52q27 0 72 -7q77 116 156.5 218.5t125.5 145.5q29 28 48 28q21 0 53 -32q-20 -16 -58 -129.5t-68 -248t-30 -216.5q0 -40 8.5 -60t28.5 -20q55 0 131 148l10 -10q-31 -82 -77.5 -132t-95.5 -50
q-40 0 -59 35.5t-19 98.5q0 64 17 149q-64 10 -148 20q-98 -180 -174 -360q-34 19 -34 52zM400 483q33 101 66 174q-45 -28 -110.5 -118t-138.5 -220q40 -8 84 -20l45 -11q21 94 54 195zM597 790q-17 20 -44 46q-34 -12 -58 -25t-45 -32q-10 6 -10 19q0 18 22 38.5t50 35
t42 14.5q16 0 37.5 -19t37 -45t15.5 -47q0 -22 -17 -31q-13 26 -30 46z" />
    <glyph glyph-name="uni1EA4" unicode="&#x1ea4;" horiz-adv-x="592" 
d="M-17 -35q0 39 41.5 122t110.5 191q-61 5 -108 5h-35q19 52 104 52q27 0 72 -7q77 116 156.5 218.5t125.5 145.5q29 28 48 28q21 0 53 -32q-20 -16 -58 -129.5t-68 -248t-30 -216.5q0 -40 8.5 -60t28.5 -20q55 0 131 148l10 -10q-31 -82 -77.5 -132t-95.5 -50
q-40 0 -59 35.5t-19 98.5q0 64 17 149q-64 10 -148 20q-98 -180 -174 -360q-34 19 -34 52zM400 483q33 101 66 174q-45 -28 -110.5 -118t-138.5 -220q40 -8 84 -20l45 -11q21 94 54 195zM646 851q-5 8 -5 17q0 13 15.5 37t37 42.5t37.5 18.5q19 0 22 -31q-61 -55 -92 -96
q-10 4 -15 12zM597 790q-17 20 -44 46q-34 -12 -58 -25t-45 -32q-10 6 -10 19q0 18 22 38.5t50 35t42 14.5q16 0 37.5 -19t37 -45t15.5 -47q0 -22 -17 -31q-13 26 -30 46z" />
    <glyph glyph-name="uni1EAC" unicode="&#x1eac;" horiz-adv-x="592" 
d="M-17 -35q0 39 41.5 122t110.5 191q-61 5 -108 5h-35q19 52 104 52q27 0 72 -7q77 116 156.5 218.5t125.5 145.5q29 28 48 28q21 0 53 -32q-20 -16 -58 -129.5t-68 -248t-30 -216.5q0 -40 8.5 -60t28.5 -20q55 0 131 148l10 -10q-31 -82 -77.5 -132t-95.5 -50
q-40 0 -59 35.5t-19 98.5q0 64 17 149q-64 10 -148 20q-98 -180 -174 -360q-34 19 -34 52zM400 483q33 101 66 174q-45 -28 -110.5 -118t-138.5 -220q40 -8 84 -20l45 -11q21 94 54 195zM597 790q-17 20 -44 46q-34 -12 -58 -25t-45 -32q-10 6 -10 19q0 18 22 38.5t50 35
t42 14.5q16 0 37.5 -19t37 -45t15.5 -47q0 -22 -17 -31q-13 26 -30 46zM145 -179.5q-11 8.5 -11 24.5q0 21 21 35t44 14q35 0 35 -33q0 -19 -19 -34t-41 -15q-18 0 -29 8.5z" />
    <glyph glyph-name="uni1EA6" unicode="&#x1ea6;" horiz-adv-x="592" 
d="M-17 -35q0 39 41.5 122t110.5 191q-61 5 -108 5h-35q19 52 104 52q27 0 72 -7q77 116 156.5 218.5t125.5 145.5q29 28 48 28q21 0 53 -32q-20 -16 -58 -129.5t-68 -248t-30 -216.5q0 -40 8.5 -60t28.5 -20q55 0 131 148l10 -10q-31 -82 -77.5 -132t-95.5 -50
q-40 0 -59 35.5t-19 98.5q0 64 17 149q-64 10 -148 20q-98 -180 -174 -360q-34 19 -34 52zM400 483q33 101 66 174q-45 -28 -110.5 -118t-138.5 -220q40 -8 84 -20l45 -11q21 94 54 195zM599 943q4 28 25 28q15 0 32.5 -19t30 -44.5t12.5 -40.5q0 -22 -21 -30
q-24 43 -79 106zM597 790q-17 20 -44 46q-34 -12 -58 -25t-45 -32q-10 6 -10 19q0 18 22 38.5t50 35t42 14.5q16 0 37.5 -19t37 -45t15.5 -47q0 -22 -17 -31q-13 26 -30 46z" />
    <glyph glyph-name="uni1EA8" unicode="&#x1ea8;" horiz-adv-x="592" 
d="M-17 -35q0 39 41.5 122t110.5 191q-61 5 -108 5h-35q19 52 104 52q27 0 72 -7q77 116 156.5 218.5t125.5 145.5q29 28 48 28q21 0 53 -32q-20 -16 -58 -129.5t-68 -248t-30 -216.5q0 -40 8.5 -60t28.5 -20q55 0 131 148l10 -10q-31 -82 -77.5 -132t-95.5 -50
q-40 0 -59 35.5t-19 98.5q0 64 17 149q-64 10 -148 20q-98 -180 -174 -360q-34 19 -34 52zM400 483q33 101 66 174q-45 -28 -110.5 -118t-138.5 -220q40 -8 84 -20l45 -11q21 94 54 195zM657 840q23 2 40 13t17 31q0 45 -93 45q0 19 13 32.5t35 13.5q34 0 56 -24t22 -60
q0 -28 -16.5 -45t-42.5 -17q-20 0 -31 11zM597 790q-17 20 -44 46q-34 -12 -58 -25t-45 -32q-10 6 -10 19q0 18 22 38.5t50 35t42 14.5q16 0 37.5 -19t37 -45t15.5 -47q0 -22 -17 -31q-13 26 -30 46z" />
    <glyph glyph-name="uni1EAA" unicode="&#x1eaa;" horiz-adv-x="592" 
d="M-17 -35q0 39 41.5 122t110.5 191q-61 5 -108 5h-35q19 52 104 52q27 0 72 -7q77 116 156.5 218.5t125.5 145.5q29 28 48 28q21 0 53 -32q-20 -16 -58 -129.5t-68 -248t-30 -216.5q0 -40 8.5 -60t28.5 -20q55 0 131 148l10 -10q-31 -82 -77.5 -132t-95.5 -50
q-40 0 -59 35.5t-19 98.5q0 64 17 149q-64 10 -148 20q-98 -180 -174 -360q-34 19 -34 52zM400 483q33 101 66 174q-45 -28 -110.5 -118t-138.5 -220q40 -8 84 -20l45 -11q21 94 54 195zM506.5 772.5q-23.5 14.5 -34 36t-10.5 41.5q0 33 24 49q3 -38 23 -64.5t58 -26.5
q62 0 96 60q10 -10 10 -30q0 -33 -32.5 -56.5t-75.5 -23.5q-35 0 -58.5 14.5zM632.5 895.5q-18.5 5.5 -46.5 16.5q-29 12 -50 18t-42 6q-31 0 -54 -15q36 50 87 50q18 0 37 -5.5t45 -16.5q39 -14 61 -20t47 -6q16 0 34 8q-33 -41 -82 -41q-18 0 -36.5 5.5z" />
    <glyph glyph-name="uni0200" unicode="&#x200;" horiz-adv-x="592" 
d="M-17 -35q0 39 41.5 122t110.5 191q-61 5 -108 5h-35q19 52 104 52q27 0 72 -7q77 116 156.5 218.5t125.5 145.5q29 28 48 28q21 0 53 -32q-20 -16 -58 -129.5t-68 -248t-30 -216.5q0 -40 8.5 -60t28.5 -20q55 0 131 148l10 -10q-31 -82 -77.5 -132t-95.5 -50
q-40 0 -59 35.5t-19 98.5q0 64 17 149q-64 10 -148 20q-98 -180 -174 -360q-34 19 -34 52zM400 483q33 101 66 174q-45 -28 -110.5 -118t-138.5 -220q40 -8 84 -20l45 -11q21 94 54 195zM505 865q10 25 26 25t31.5 -20t25 -46t9.5 -42q0 -26 -20 -30q-32 61 -72 113z
M415 871q15 17 29 17q16 0 34 -22.5t31 -51.5t13 -44t-11 -23q-45 63 -96 124z" />
    <glyph glyph-name="Adieresis" unicode="&#xc4;" horiz-adv-x="592" 
d="M-17 -35q0 39 41.5 122t110.5 191q-61 5 -108 5h-35q19 52 104 52q27 0 72 -7q77 116 156.5 218.5t125.5 145.5q29 28 48 28q21 0 53 -32q-20 -16 -58 -129.5t-68 -248t-30 -216.5q0 -40 8.5 -60t28.5 -20q55 0 131 148l10 -10q-31 -82 -77.5 -132t-95.5 -50
q-40 0 -59 35.5t-19 98.5q0 64 17 149q-64 10 -148 20q-98 -180 -174 -360q-34 19 -34 52zM400 483q33 101 66 174q-45 -28 -110.5 -118t-138.5 -220q40 -8 84 -20l45 -11q21 94 54 195zM438.5 781.5q-10.5 7.5 -10.5 22.5q0 18 21.5 32.5t44.5 14.5q30 0 30 -28
q0 -17 -18.5 -33t-40.5 -16q-16 0 -26.5 7.5zM582.5 760.5q-10.5 7.5 -10.5 22.5q0 18 21.5 32.5t44.5 14.5q30 0 30 -28q0 -17 -18.5 -33t-40.5 -16q-16 0 -26.5 7.5z" />
    <glyph glyph-name="uni1EA0" unicode="&#x1ea0;" horiz-adv-x="592" 
d="M-17 -35q0 39 41.5 122t110.5 191q-61 5 -108 5h-35q19 52 104 52q27 0 72 -7q77 116 156.5 218.5t125.5 145.5q29 28 48 28q21 0 53 -32q-20 -16 -58 -129.5t-68 -248t-30 -216.5q0 -40 8.5 -60t28.5 -20q55 0 131 148l10 -10q-31 -82 -77.5 -132t-95.5 -50
q-40 0 -59 35.5t-19 98.5q0 64 17 149q-64 10 -148 20q-98 -180 -174 -360q-34 19 -34 52zM400 483q33 101 66 174q-45 -28 -110.5 -118t-138.5 -220q40 -8 84 -20l45 -11q21 94 54 195zM145 -179.5q-11 8.5 -11 24.5q0 21 21 35t44 14q35 0 35 -33q0 -19 -19 -34t-41 -15
q-18 0 -29 8.5z" />
    <glyph glyph-name="Agrave" unicode="&#xc0;" horiz-adv-x="592" 
d="M-17 -35q0 39 41.5 122t110.5 191q-61 5 -108 5h-35q19 52 104 52q27 0 72 -7q77 116 156.5 218.5t125.5 145.5q29 28 48 28q21 0 53 -32q-20 -16 -58 -129.5t-68 -248t-30 -216.5q0 -40 8.5 -60t28.5 -20q55 0 131 148l10 -10q-31 -82 -77.5 -132t-95.5 -50
q-40 0 -59 35.5t-19 98.5q0 64 17 149q-64 10 -148 20q-98 -180 -174 -360q-34 19 -34 52zM400 483q33 101 66 174q-45 -28 -110.5 -118t-138.5 -220q40 -8 84 -20l45 -11q21 94 54 195zM421 864q3 31 22 31q18 0 42.5 -24t43 -54.5t18.5 -42.5q0 -6 -3.5 -14.5t-10.5 -11.5
q-38 52 -112 116z" />
    <glyph glyph-name="uni1EA2" unicode="&#x1ea2;" horiz-adv-x="592" 
d="M-17 -35q0 39 41.5 122t110.5 191q-61 5 -108 5h-35q19 52 104 52q27 0 72 -7q77 116 156.5 218.5t125.5 145.5q29 28 48 28q21 0 53 -32q-20 -16 -58 -129.5t-68 -248t-30 -216.5q0 -40 8.5 -60t28.5 -20q55 0 131 148l10 -10q-31 -82 -77.5 -132t-95.5 -50
q-40 0 -59 35.5t-19 98.5q0 64 17 149q-64 10 -148 20q-98 -180 -174 -360q-34 19 -34 52zM400 483q33 101 66 174q-45 -28 -110.5 -118t-138.5 -220q40 -8 84 -20l45 -11q21 94 54 195zM529 761q30 2 49.5 13.5t19.5 34.5t-23 33t-70 10q0 19 13 32.5t35 13.5q34 0 56 -22
t22 -55q0 -31 -19 -51t-49 -20q-21 0 -34 11z" />
    <glyph glyph-name="uni0202" unicode="&#x202;" horiz-adv-x="592" 
d="M-17 -35q0 39 41.5 122t110.5 191q-61 5 -108 5h-35q19 52 104 52q27 0 72 -7q77 116 156.5 218.5t125.5 145.5q29 28 48 28q21 0 53 -32q-20 -16 -58 -129.5t-68 -248t-30 -216.5q0 -40 8.5 -60t28.5 -20q55 0 131 148l10 -10q-31 -82 -77.5 -132t-95.5 -50
q-40 0 -59 35.5t-19 98.5q0 64 17 149q-64 10 -148 20q-98 -180 -174 -360q-34 19 -34 52zM400 483q33 101 66 174q-45 -28 -110.5 -118t-138.5 -220q40 -8 84 -20l45 -11q21 94 54 195zM611.5 793q-21.5 26 -64.5 26q-56 0 -88 -60q-10 11 -10 30q0 34 31 57t76 23
q34 0 57.5 -14t35 -34t11.5 -39q0 -36 -24 -54q-3 39 -24.5 65z" />
    <glyph glyph-name="Amacron" unicode="&#x100;" horiz-adv-x="592" 
d="M-17 -35q0 39 41.5 122t110.5 191q-61 5 -108 5h-35q19 52 104 52q27 0 72 -7q77 116 156.5 218.5t125.5 145.5q29 28 48 28q21 0 53 -32q-20 -16 -58 -129.5t-68 -248t-30 -216.5q0 -40 8.5 -60t28.5 -20q55 0 131 148l10 -10q-31 -82 -77.5 -132t-95.5 -50
q-40 0 -59 35.5t-19 98.5q0 64 17 149q-64 10 -148 20q-98 -180 -174 -360q-34 19 -34 52zM400 483q33 101 66 174q-45 -28 -110.5 -118t-138.5 -220q40 -8 84 -20l45 -11q21 94 54 195zM578 763q-42 7 -83 16q-79 16 -101 18q10 26 46 26q82 0 241 -47q-14 -20 -38 -20
q-23 0 -65 7z" />
    <glyph glyph-name="Aogonek" unicode="&#x104;" horiz-adv-x="592" 
d="M437 -100.5q13 -12.5 36 -12.5q27 0 50 17q-1 -28 -19 -44t-47 -16q-31 0 -50 19t-19 49q0 37 28 60q-10 -2 -16 -2q-40 0 -59 35.5t-19 98.5q0 64 17 149q-64 10 -148 20q-98 -180 -174 -360q-34 19 -34 52q0 39 41.5 122t110.5 191q-61 5 -108 5h-35q19 52 104 52
q27 0 72 -7q77 116 156.5 218.5t125.5 145.5q29 28 48 28q21 0 53 -32q-20 -16 -58 -129.5t-68 -248t-30 -216.5q0 -40 8.5 -60t28.5 -20q55 0 131 148l10 -10q-21 -57 -51.5 -100t-64.5 -64q-33 -25 -33 -57q0 -19 13 -31.5zM400 483q33 101 66 174q-45 -28 -110.5 -118
t-138.5 -220q40 -8 84 -20l45 -11q21 94 54 195z" />
    <glyph glyph-name="Aring" unicode="&#xc5;" horiz-adv-x="592" 
d="M-17 -35q0 39 41.5 122t110.5 191q-61 5 -108 5h-35q19 52 104 52q27 0 72 -7q77 116 156.5 218.5t125.5 145.5q29 28 48 28q21 0 53 -32q-20 -16 -58 -129.5t-68 -248t-30 -216.5q0 -40 8.5 -60t28.5 -20q55 0 131 148l10 -10q-31 -82 -77.5 -132t-95.5 -50
q-40 0 -59 35.5t-19 98.5q0 64 17 149q-64 10 -148 20q-98 -180 -174 -360q-34 19 -34 52zM400 483q33 101 66 174q-45 -28 -110.5 -118t-138.5 -220q40 -8 84 -20l45 -11q21 94 54 195zM479.5 769q-17.5 15 -17.5 39t16.5 50.5t45 44t60.5 17.5q39 0 57.5 -15t18.5 -39
t-17.5 -50.5t-47 -44t-61.5 -17.5q-37 0 -54.5 15zM580.5 788q18.5 14 30.5 34.5t12 37.5q0 15 -11.5 26t-32.5 11q-19 0 -37 -13t-29.5 -32t-11.5 -37q0 -15 11 -28t31 -13q19 0 37.5 14z" />
    <glyph glyph-name="Aringacute" unicode="&#x1fa;" horiz-adv-x="592" 
d="M-17 -35q0 39 41.5 122t110.5 191q-61 5 -108 5h-35q19 52 104 52q27 0 72 -7q77 116 156.5 218.5t125.5 145.5q29 28 48 28q21 0 53 -32q-20 -16 -58 -129.5t-68 -248t-30 -216.5q0 -40 8.5 -60t28.5 -20q55 0 131 148l10 -10q-31 -82 -77.5 -132t-95.5 -50
q-40 0 -59 35.5t-19 98.5q0 64 17 149q-64 10 -148 20q-98 -180 -174 -360q-34 19 -34 52zM400 483q33 101 66 174q-45 -28 -110.5 -118t-138.5 -220q40 -8 84 -20l45 -11q21 94 54 195zM479.5 769q-17.5 15 -17.5 39t16.5 50.5t45 44t60.5 17.5q39 0 57.5 -15t18.5 -39
t-17.5 -50.5t-47 -44t-61.5 -17.5q-37 0 -54.5 15zM580.5 788q18.5 14 30.5 34.5t12 37.5q0 15 -11.5 26t-32.5 11q-19 0 -37 -13t-29.5 -32t-11.5 -37q0 -15 11 -28t31 -13q19 0 37.5 14zM614.5 959.5q-3.5 8.5 -3.5 14.5q0 12 18.5 42.5t43 54.5t42.5 24q19 0 22 -31
q-74 -64 -112 -116q-7 3 -10.5 11.5z" />
    <glyph glyph-name="Atilde" unicode="&#xc3;" horiz-adv-x="592" 
d="M-17 -35q0 39 41.5 122t110.5 191q-61 5 -108 5h-35q19 52 104 52q27 0 72 -7q77 116 156.5 218.5t125.5 145.5q29 28 48 28q21 0 53 -32q-20 -16 -58 -129.5t-68 -248t-30 -216.5q0 -40 8.5 -60t28.5 -20q55 0 131 148l10 -10q-31 -82 -77.5 -132t-95.5 -50
q-40 0 -59 35.5t-19 98.5q0 64 17 149q-64 10 -148 20q-98 -180 -174 -360q-34 19 -34 52zM400 483q33 101 66 174q-45 -28 -110.5 -118t-138.5 -220q40 -8 84 -20l45 -11q21 94 54 195zM584.5 766.5q-18.5 5.5 -46.5 16.5q-29 12 -50 18t-42 6q-31 0 -54 -15q36 50 87 50
q18 0 37 -5.5t45 -16.5q39 -14 61 -20t47 -6q16 0 34 8q-33 -41 -82 -41q-18 0 -36.5 5.5z" />
    <glyph glyph-name="AE" unicode="&#xc6;" horiz-adv-x="747" 
d="M-17 -35q0 39 41.5 122t110.5 191q-61 5 -108 5h-35q19 52 104 52q27 0 72 -7q108 162 203 277t127 115q72 0 163.5 -7.5t145.5 -15.5q-8 -21 -53.5 -28.5t-116.5 -7.5q-41 0 -103 2q-17 -34 -40 -101.5t-44 -146.5q73 -2 173 -18l35 -5q-8 -21 -53.5 -28.5t-116.5 -7.5
q-39 0 -53 1q-40 -170 -40 -263q0 -24 3 -41q50 -7 142 -15q10 -1 59.5 -5.5t70.5 -9.5q-8 -21 -53.5 -28.5t-116.5 -7.5q-111 0 -149 4q-15 15 -22 44.5t-7 68.5q0 64 17 149q-64 10 -148 20q-98 -180 -174 -360q-34 19 -34 52zM400 483q33 101 66 174q-45 -28 -110.5 -118
t-138.5 -220q40 -8 84 -20l45 -11q21 94 54 195z" />
    <glyph glyph-name="AEacute" unicode="&#x1fc;" horiz-adv-x="747" 
d="M-17 -35q0 39 41.5 122t110.5 191q-61 5 -108 5h-35q19 52 104 52q27 0 72 -7q108 162 203 277t127 115q72 0 163.5 -7.5t145.5 -15.5q-8 -21 -53.5 -28.5t-116.5 -7.5q-41 0 -103 2q-17 -34 -40 -101.5t-44 -146.5q73 -2 173 -18l35 -5q-8 -21 -53.5 -28.5t-116.5 -7.5
q-39 0 -53 1q-40 -170 -40 -263q0 -24 3 -41q50 -7 142 -15q10 -1 59.5 -5.5t70.5 -9.5q-8 -21 -53.5 -28.5t-116.5 -7.5q-111 0 -149 4q-15 15 -22 44.5t-7 68.5q0 64 17 149q-64 10 -148 20q-98 -180 -174 -360q-34 19 -34 52zM400 483q33 101 66 174q-45 -28 -110.5 -118
t-138.5 -220q40 -8 84 -20l45 -11q21 94 54 195zM566.5 759.5q-3.5 8.5 -3.5 14.5q0 12 18.5 42.5t43 54.5t42.5 24q19 0 22 -31q-74 -64 -112 -116q-7 3 -10.5 11.5z" />
    <glyph glyph-name="B" unicode="B" horiz-adv-x="608" 
d="M46.5 -68q-27.5 19 -27.5 61q0 3 5 3q4 0 24 -5t70 -5q111 0 202.5 33.5t143.5 88.5t52 115q0 73 -72 99.5t-180 26.5l-75 -1q-15 -51 -43 -153q-21 -78 -47 -169q-25 0 -42 14t-17 34q0 13 6 32t8 25q31 104 93.5 277.5t118.5 283.5q-59 -10 -116 -44q-18 -10 -22 -10
q-8 0 -20 10t-12 17q66 27 116.5 41t120.5 14q92 0 161.5 -33.5t69.5 -125.5q0 -89 -66.5 -134t-162.5 -61q228 -14 228 -161q0 -90 -73 -156.5t-175.5 -101t-184.5 -34.5q-56 0 -83.5 19zM414 422q90 47 90 147q0 130 -169 130q-13 0 -19 -1q-59 -115 -121 -327
q129 4 219 51z" />
    <glyph glyph-name="C" unicode="C" horiz-adv-x="534" 
d="M107.5 -53q-44.5 34 -65 89.5t-20.5 120.5q0 128 63 259.5t159 217t189 85.5q43 0 67.5 -21t24.5 -65q0 -39 -18 -90t-45 -87t-53 -36q-20 0 -31 23q37 42 72 102t35 99q0 21 -12 33t-37 12q-69 0 -148 -89.5t-132.5 -219.5t-53.5 -240q0 -82 35 -137.5t106 -55.5
q51 0 104 29.5t97 78.5t71 107l14 -10q-54 -106 -134.5 -172.5t-175.5 -66.5q-67 0 -111.5 34z" />
    <glyph glyph-name="Cacute" unicode="&#x106;" horiz-adv-x="534" 
d="M107.5 -53q-44.5 34 -65 89.5t-20.5 120.5q0 128 63 259.5t159 217t189 85.5q43 0 67.5 -21t24.5 -65q0 -39 -18 -90t-45 -87t-53 -36q-20 0 -31 23q37 42 72 102t35 99q0 21 -12 33t-37 12q-69 0 -148 -89.5t-132.5 -219.5t-53.5 -240q0 -82 35 -137.5t106 -55.5
q51 0 104 29.5t97 78.5t71 107l14 -10q-54 -106 -134.5 -172.5t-175.5 -66.5q-67 0 -111.5 34zM475.5 758.5q-3.5 8.5 -3.5 14.5q0 12 18.5 42.5t43 54.5t42.5 24q19 0 22 -31q-74 -64 -112 -116q-7 3 -10.5 11.5z" />
    <glyph glyph-name="Ccaron" unicode="&#x10c;" horiz-adv-x="534" 
d="M107.5 -53q-44.5 34 -65 89.5t-20.5 120.5q0 128 63 259.5t159 217t189 85.5q43 0 67.5 -21t24.5 -65q0 -39 -18 -90t-45 -87t-53 -36q-20 0 -31 23q37 42 72 102t35 99q0 21 -12 33t-37 12q-69 0 -148 -89.5t-132.5 -219.5t-53.5 -240q0 -82 35 -137.5t106 -55.5
q51 0 104 29.5t97 78.5t71 107l14 -10q-54 -106 -134.5 -172.5t-175.5 -66.5q-67 0 -111.5 34zM445.5 772q-21.5 19 -37 45t-15.5 47q0 23 17 31q13 -26 30 -46t44 -46q34 12 58 25t45 32q10 -6 10 -19q0 -18 -22 -38.5t-50 -35t-42 -14.5q-16 0 -37.5 19z" />
    <glyph glyph-name="Ccedilla" unicode="&#xc7;" horiz-adv-x="534" 
d="M477 -99q0 -28 -16.5 -54t-43.5 -42t-57 -16q-28 0 -44.5 10.5t-16.5 25.5q0 17 22 33q5 -23 16.5 -34t25.5 -11q18 0 37.5 14t32.5 35t13 38q0 9 -4 17t-13 8q-11 0 -24 -7t-34 -20q-4 -2 -13.5 -8t-13.5 -6q-6 0 -10 6t-4 12q0 2 14 21.5t30 40.5q-75 -51 -155 -51
q-67 0 -111.5 34t-65 89.5t-20.5 120.5q0 128 63 259.5t159 217t189 85.5q43 0 67.5 -21t24.5 -65q0 -39 -18 -90t-45 -87t-53 -36q-20 0 -31 23q37 42 72 102t35 99q0 21 -12 33t-37 12q-69 0 -148 -89.5t-132.5 -219.5t-53.5 -240q0 -82 35 -137.5t106 -55.5
q51 0 104 29.5t97 78.5t71 107l14 -10q-47 -92 -111 -152l-53 -81q15 11 30.5 17.5t36.5 6.5q45 0 45 -42z" />
    <glyph glyph-name="Ccircumflex" unicode="&#x108;" horiz-adv-x="534" 
d="M107.5 -53q-44.5 34 -65 89.5t-20.5 120.5q0 128 63 259.5t159 217t189 85.5q43 0 67.5 -21t24.5 -65q0 -39 -18 -90t-45 -87t-53 -36q-20 0 -31 23q37 42 72 102t35 99q0 21 -12 33t-37 12q-69 0 -148 -89.5t-132.5 -219.5t-53.5 -240q0 -82 35 -137.5t106 -55.5
q51 0 104 29.5t97 78.5t71 107l14 -10q-54 -106 -134.5 -172.5t-175.5 -66.5q-67 0 -111.5 34zM548 789q-17 20 -44 46q-34 -12 -58 -25t-45 -32q-10 6 -10 19q0 18 22 38.5t50 35t42 14.5q16 0 37.5 -19t37 -45t15.5 -47q0 -22 -17 -31q-13 26 -30 46z" />
    <glyph glyph-name="Cdotaccent" unicode="&#x10a;" horiz-adv-x="534" 
d="M107.5 -53q-44.5 34 -65 89.5t-20.5 120.5q0 128 63 259.5t159 217t189 85.5q43 0 67.5 -21t24.5 -65q0 -39 -18 -90t-45 -87t-53 -36q-20 0 -31 23q37 42 72 102t35 99q0 21 -12 33t-37 12q-69 0 -148 -89.5t-132.5 -219.5t-53.5 -240q0 -82 35 -137.5t106 -55.5
q51 0 104 29.5t97 78.5t71 107l14 -10q-54 -106 -134.5 -172.5t-175.5 -66.5q-67 0 -111.5 34zM462 778.5q-11 8.5 -11 24.5q0 21 21 35t44 14q35 0 35 -33q0 -19 -19 -34t-41 -15q-18 0 -29 8.5z" />
    <glyph glyph-name="D" unicode="D" horiz-adv-x="653" 
d="M100.5 -77.5q-26.5 9.5 -44.5 35.5q26 125 83.5 310.5t89.5 269.5q12 32 32 63t46 31q14 0 28 -10q-60 -139 -121.5 -334t-94.5 -345q24 -4 43 -4q103 0 197 77t152 197.5t58 243.5q0 117 -55 176.5t-150 59.5q-64 0 -116.5 -25.5t-82.5 -70.5t-30 -99q0 -22 5 -37
q-31 0 -45.5 15.5t-14.5 40.5q0 47 43 94t115.5 78t155.5 31q127 0 188 -75t61 -199q0 -140 -70.5 -263t-182 -196.5t-227.5 -73.5q-36 0 -62.5 9.5z" />
    <glyph glyph-name="uni01C4" unicode="&#x1c4;" horiz-adv-x="1269" 
d="M100.5 -77.5q-26.5 9.5 -44.5 35.5q26 125 83.5 310.5t89.5 269.5q12 32 32 63t46 31q14 0 28 -10q-60 -139 -121.5 -334t-94.5 -345q24 -4 43 -4q103 0 197 77t152 197.5t58 243.5q0 117 -55 176.5t-150 59.5q-64 0 -116.5 -25.5t-82.5 -70.5t-30 -99q0 -22 5 -37
q-31 0 -45.5 15.5t-14.5 40.5q0 47 43 94t115.5 78t155.5 31q127 0 188 -75t61 -199q0 -140 -70.5 -263t-182 -196.5t-227.5 -73.5q-36 0 -62.5 9.5zM994 -68.5q-50 18.5 -128 55.5l-33 15q-72 -56 -128 -56q-41 0 -66.5 25t-25.5 55q0 23 18.5 37.5t58.5 14.5q48 0 136 -26
q88 93 195 269q-60 -1 -130 -11l-34 -5q2 39 41.5 54.5t107.5 15.5q15 0 45 -2q82 146 117 237q-25 6 -83 29q-63 25 -109.5 39t-85.5 14q-113 0 -113 -144q0 -22 4 -35q-28 5 -41 23t-13 49q0 66 51 100.5t142 34.5q50 0 94.5 -9t103.5 -26q50 -15 82.5 -22t65.5 -7
q22 0 32 2q-27 -23 -50 -35q-48 -115 -130 -256l29 -3q56 -6 77 -6q-11 -16 -24 -23t-35 -9t-73 -3q-112 -183 -218 -285q89 -28 144.5 -42t100.5 -14q40 0 71 16q-16 -45 -42 -65t-63 -20q-41 0 -91 18.5zM792 20q-78 32 -116 32q-37 0 -37 -24q0 -19 17.5 -37t43.5 -18
q37 0 92 47zM1038.5 773q-21.5 19 -37 45t-15.5 47q0 23 17 31q13 -26 30 -46t44 -46q34 12 58 25t45 32q10 -6 10 -19q0 -18 -22 -38.5t-50 -35t-42 -14.5q-16 0 -37.5 19z" />
    <glyph glyph-name="Eth" unicode="&#xd0;" horiz-adv-x="654" 
d="M101.5 -77.5q-26.5 9.5 -44.5 35.5q25 122 88 326q-47 0 -113 -10q15 40 125 47q41 130 73 217q12 32 32 63t46 31q14 0 28 -10q-55 -127 -111 -299q77 0 164 -9q-40 -29 -103 -29h-73q-60 -188 -93 -342q24 -4 43 -4q103 0 197 77t152 197.5t58 243.5q0 117 -55 176.5
t-150 59.5q-64 0 -116.5 -25.5t-82.5 -70.5t-30 -99q0 -22 5 -37q-31 0 -45.5 15.5t-14.5 40.5q0 47 43 94t115.5 78t155.5 31q127 0 188 -75t61 -199q0 -140 -70.5 -263t-182 -196.5t-227.5 -73.5q-36 0 -62.5 9.5z" />
    <glyph glyph-name="Dcaron" unicode="&#x10e;" horiz-adv-x="653" 
d="M100.5 -77.5q-26.5 9.5 -44.5 35.5q26 125 83.5 310.5t89.5 269.5q12 32 32 63t46 31q14 0 28 -10q-60 -139 -121.5 -334t-94.5 -345q24 -4 43 -4q103 0 197 77t152 197.5t58 243.5q0 117 -55 176.5t-150 59.5q-64 0 -116.5 -25.5t-82.5 -70.5t-30 -99q0 -22 5 -37
q-31 0 -45.5 15.5t-14.5 40.5q0 47 43 94t115.5 78t155.5 31q127 0 188 -75t61 -199q0 -140 -70.5 -263t-182 -196.5t-227.5 -73.5q-36 0 -62.5 9.5zM447.5 773q-21.5 19 -37 45t-15.5 47q0 23 17 31q13 -26 30 -46t44 -46q34 12 58 25t45 32q10 -6 10 -19q0 -18 -22 -38.5
t-50 -35t-42 -14.5q-16 0 -37.5 19z" />
    <glyph glyph-name="Dcroat" unicode="&#x110;" horiz-adv-x="654" 
d="M101.5 -77.5q-26.5 9.5 -44.5 35.5q25 122 88 326q-47 0 -113 -10q15 40 125 47q41 130 73 217q12 32 32 63t46 31q14 0 28 -10q-55 -127 -111 -299q77 0 164 -9q-40 -29 -103 -29h-73q-60 -188 -93 -342q24 -4 43 -4q103 0 197 77t152 197.5t58 243.5q0 117 -55 176.5
t-150 59.5q-64 0 -116.5 -25.5t-82.5 -70.5t-30 -99q0 -22 5 -37q-31 0 -45.5 15.5t-14.5 40.5q0 47 43 94t115.5 78t155.5 31q127 0 188 -75t61 -199q0 -140 -70.5 -263t-182 -196.5t-227.5 -73.5q-36 0 -62.5 9.5z" />
    <glyph glyph-name="uni01C5" unicode="&#x1c5;" horiz-adv-x="950" 
d="M100.5 -77.5q-26.5 9.5 -44.5 35.5q26 125 83.5 310.5t89.5 269.5q12 32 32 63t46 31q14 0 28 -10q-60 -139 -121.5 -334t-94.5 -345q24 -4 43 -4q103 0 197 77t152 197.5t58 243.5q0 117 -55 176.5t-150 59.5q-64 0 -116.5 -25.5t-82.5 -70.5t-30 -99q0 -22 5 -37
q-31 0 -45.5 15.5t-14.5 40.5q0 47 43 94t115.5 78t155.5 31q127 0 188 -75t61 -199q0 -140 -70.5 -263t-182 -196.5t-227.5 -73.5q-36 0 -62.5 9.5zM562 -229q0 31 22 59t55 51.5t91 58.5q42 24 77 48q0 37 -15.5 67t-53.5 60q33 9 58 34t38 55.5t13 57.5q0 23 -10 38
t-29 15q-31 0 -56.5 -23t-45.5 -58.5t-50 -99.5l-12 10q26 69 49 113t54.5 70t74.5 26q35 0 59 -22.5t24 -59.5q0 -51 -34 -93t-84 -67q52 -40 70 -90q86 65 111 141l11 -12q-25 -79 -116 -148q4 -13 4 -33q0 -59 -34.5 -117.5t-90 -95t-114.5 -36.5q-66 0 -66 51zM690 -224
q42 27 76 76t40 113q-44 -28 -66 -40q-54 -32 -82.5 -52t-48 -43t-19.5 -48q0 -17 8.5 -25t22.5 -8q27 0 69 27zM834.5 444q-21.5 19 -37 45t-15.5 47q0 23 17 31q13 -26 30 -46t44 -46q34 12 58 25t45 32q10 -6 10 -19q0 -18 -22 -38.5t-50 -35t-42 -14.5q-16 0 -37.5 19z
" />
    <glyph glyph-name="E" unicode="E" horiz-adv-x="498" 
d="M77.5 -62.5q-44.5 24.5 -68.5 66t-24 91.5q0 61 35 118t94.5 95.5t129.5 45.5q-38 31 -57 72.5t-19 85.5q0 53 27 101t74 77t105 29q55 0 84.5 -28t29.5 -80q0 -36 -13 -71t-32 -57.5t-35 -22.5q-11 0 -21 9t-16 23q84 73 84 139q0 31 -18 48t-53 17q-67 0 -105 -57.5
t-38 -143.5q0 -101 58 -151q-64 -11 -114.5 -50t-78.5 -93.5t-28 -108.5q0 -57 31.5 -101t96.5 -44q51 0 104 29.5t97 78.5t71 107l14 -10q-56 -108 -136 -173.5t-176 -65.5q-58 0 -102.5 24.5z" />
    <glyph glyph-name="Eacute" unicode="&#xc9;" horiz-adv-x="498" 
d="M77.5 -62.5q-44.5 24.5 -68.5 66t-24 91.5q0 61 35 118t94.5 95.5t129.5 45.5q-38 31 -57 72.5t-19 85.5q0 53 27 101t74 77t105 29q55 0 84.5 -28t29.5 -80q0 -36 -13 -71t-32 -57.5t-35 -22.5q-11 0 -21 9t-16 23q84 73 84 139q0 31 -18 48t-53 17q-67 0 -105 -57.5
t-38 -143.5q0 -101 58 -151q-64 -11 -114.5 -50t-78.5 -93.5t-28 -108.5q0 -57 31.5 -101t96.5 -44q51 0 104 29.5t97 78.5t71 107l14 -10q-56 -108 -136 -173.5t-176 -65.5q-58 0 -102.5 24.5zM411.5 759.5q-3.5 8.5 -3.5 14.5q0 12 18.5 42.5t43 54.5t42.5 24q19 0 22 -31
q-74 -64 -112 -116q-7 3 -10.5 11.5z" />
    <glyph glyph-name="Ebreve" unicode="&#x114;" horiz-adv-x="498" 
d="M77.5 -62.5q-44.5 24.5 -68.5 66t-24 91.5q0 61 35 118t94.5 95.5t129.5 45.5q-38 31 -57 72.5t-19 85.5q0 53 27 101t74 77t105 29q55 0 84.5 -28t29.5 -80q0 -36 -13 -71t-32 -57.5t-35 -22.5q-11 0 -21 9t-16 23q84 73 84 139q0 31 -18 48t-53 17q-67 0 -105 -57.5
t-38 -143.5q0 -101 58 -151q-64 -11 -114.5 -50t-78.5 -93.5t-28 -108.5q0 -57 31.5 -101t96.5 -44q51 0 104 29.5t97 78.5t71 107l14 -10q-56 -108 -136 -173.5t-176 -65.5q-58 0 -102.5 24.5zM393.5 772.5q-23.5 14.5 -34 36t-10.5 41.5q0 33 24 49q3 -38 23 -64.5
t58 -26.5q62 0 96 60q10 -10 10 -30q0 -33 -32.5 -56.5t-75.5 -23.5q-35 0 -58.5 14.5z" />
    <glyph glyph-name="Ecaron" unicode="&#x11a;" horiz-adv-x="498" 
d="M77.5 -62.5q-44.5 24.5 -68.5 66t-24 91.5q0 61 35 118t94.5 95.5t129.5 45.5q-38 31 -57 72.5t-19 85.5q0 53 27 101t74 77t105 29q55 0 84.5 -28t29.5 -80q0 -36 -13 -71t-32 -57.5t-35 -22.5q-11 0 -21 9t-16 23q84 73 84 139q0 31 -18 48t-53 17q-67 0 -105 -57.5
t-38 -143.5q0 -101 58 -151q-64 -11 -114.5 -50t-78.5 -93.5t-28 -108.5q0 -57 31.5 -101t96.5 -44q51 0 104 29.5t97 78.5t71 107l14 -10q-56 -108 -136 -173.5t-176 -65.5q-58 0 -102.5 24.5zM381.5 773q-21.5 19 -37 45t-15.5 47q0 23 17 31q13 -26 30 -46t44 -46
q34 12 58 25t45 32q10 -6 10 -19q0 -18 -22 -38.5t-50 -35t-42 -14.5q-16 0 -37.5 19z" />
    <glyph glyph-name="Ecircumflex" unicode="&#xca;" horiz-adv-x="498" 
d="M77.5 -62.5q-44.5 24.5 -68.5 66t-24 91.5q0 61 35 118t94.5 95.5t129.5 45.5q-38 31 -57 72.5t-19 85.5q0 53 27 101t74 77t105 29q55 0 84.5 -28t29.5 -80q0 -36 -13 -71t-32 -57.5t-35 -22.5q-11 0 -21 9t-16 23q84 73 84 139q0 31 -18 48t-53 17q-67 0 -105 -57.5
t-38 -143.5q0 -101 58 -151q-64 -11 -114.5 -50t-78.5 -93.5t-28 -108.5q0 -57 31.5 -101t96.5 -44q51 0 104 29.5t97 78.5t71 107l14 -10q-56 -108 -136 -173.5t-176 -65.5q-58 0 -102.5 24.5zM484 790q-17 20 -44 46q-34 -12 -58 -25t-45 -32q-10 6 -10 19q0 18 22 38.5
t50 35t42 14.5q16 0 37.5 -19t37 -45t15.5 -47q0 -22 -17 -31q-13 26 -30 46z" />
    <glyph glyph-name="uni1EBE" unicode="&#x1ebe;" horiz-adv-x="498" 
d="M77.5 -62.5q-44.5 24.5 -68.5 66t-24 91.5q0 61 35 118t94.5 95.5t129.5 45.5q-38 31 -57 72.5t-19 85.5q0 53 27 101t74 77t105 29q55 0 84.5 -28t29.5 -80q0 -36 -13 -71t-32 -57.5t-35 -22.5q-11 0 -21 9t-16 23q84 73 84 139q0 31 -18 48t-53 17q-67 0 -105 -57.5
t-38 -143.5q0 -101 58 -151q-64 -11 -114.5 -50t-78.5 -93.5t-28 -108.5q0 -57 31.5 -101t96.5 -44q51 0 104 29.5t97 78.5t71 107l14 -10q-56 -108 -136 -173.5t-176 -65.5q-58 0 -102.5 24.5zM533 851q-5 8 -5 17q0 13 15.5 37t37 42.5t37.5 18.5q19 0 22 -31
q-61 -55 -92 -96q-10 4 -15 12zM484 790q-17 20 -44 46q-34 -12 -58 -25t-45 -32q-10 6 -10 19q0 18 22 38.5t50 35t42 14.5q16 0 37.5 -19t37 -45t15.5 -47q0 -22 -17 -31q-13 26 -30 46z" />
    <glyph glyph-name="uni1EC6" unicode="&#x1ec6;" horiz-adv-x="498" 
d="M77.5 -62.5q-44.5 24.5 -68.5 66t-24 91.5q0 61 35 118t94.5 95.5t129.5 45.5q-38 31 -57 72.5t-19 85.5q0 53 27 101t74 77t105 29q55 0 84.5 -28t29.5 -80q0 -36 -13 -71t-32 -57.5t-35 -22.5q-11 0 -21 9t-16 23q84 73 84 139q0 31 -18 48t-53 17q-67 0 -105 -57.5
t-38 -143.5q0 -101 58 -151q-64 -11 -114.5 -50t-78.5 -93.5t-28 -108.5q0 -57 31.5 -101t96.5 -44q51 0 104 29.5t97 78.5t71 107l14 -10q-56 -108 -136 -173.5t-176 -65.5q-58 0 -102.5 24.5zM484 790q-17 20 -44 46q-34 -12 -58 -25t-45 -32q-10 6 -10 19q0 18 22 38.5
t50 35t42 14.5q16 0 37.5 -19t37 -45t15.5 -47q0 -22 -17 -31q-13 26 -30 46zM114 -252.5q-11 8.5 -11 24.5q0 21 21 35t44 14q35 0 35 -33q0 -19 -19 -34t-41 -15q-18 0 -29 8.5z" />
    <glyph glyph-name="uni1EC0" unicode="&#x1ec0;" horiz-adv-x="498" 
d="M77.5 -62.5q-44.5 24.5 -68.5 66t-24 91.5q0 61 35 118t94.5 95.5t129.5 45.5q-38 31 -57 72.5t-19 85.5q0 53 27 101t74 77t105 29q55 0 84.5 -28t29.5 -80q0 -36 -13 -71t-32 -57.5t-35 -22.5q-11 0 -21 9t-16 23q84 73 84 139q0 31 -18 48t-53 17q-67 0 -105 -57.5
t-38 -143.5q0 -101 58 -151q-64 -11 -114.5 -50t-78.5 -93.5t-28 -108.5q0 -57 31.5 -101t96.5 -44q51 0 104 29.5t97 78.5t71 107l14 -10q-56 -108 -136 -173.5t-176 -65.5q-58 0 -102.5 24.5zM486 943q4 28 25 28q15 0 32.5 -19t30 -44.5t12.5 -40.5q0 -22 -21 -30
q-24 43 -79 106zM484 790q-17 20 -44 46q-34 -12 -58 -25t-45 -32q-10 6 -10 19q0 18 22 38.5t50 35t42 14.5q16 0 37.5 -19t37 -45t15.5 -47q0 -22 -17 -31q-13 26 -30 46z" />
    <glyph glyph-name="uni1EC2" unicode="&#x1ec2;" horiz-adv-x="498" 
d="M77.5 -62.5q-44.5 24.5 -68.5 66t-24 91.5q0 61 35 118t94.5 95.5t129.5 45.5q-38 31 -57 72.5t-19 85.5q0 53 27 101t74 77t105 29q55 0 84.5 -28t29.5 -80q0 -36 -13 -71t-32 -57.5t-35 -22.5q-11 0 -21 9t-16 23q84 73 84 139q0 31 -18 48t-53 17q-67 0 -105 -57.5
t-38 -143.5q0 -101 58 -151q-64 -11 -114.5 -50t-78.5 -93.5t-28 -108.5q0 -57 31.5 -101t96.5 -44q51 0 104 29.5t97 78.5t71 107l14 -10q-56 -108 -136 -173.5t-176 -65.5q-58 0 -102.5 24.5zM544 840q23 2 40 13t17 31q0 45 -93 45q0 19 13 32.5t35 13.5q34 0 56 -24
t22 -60q0 -28 -16.5 -45t-42.5 -17q-20 0 -31 11zM484 790q-17 20 -44 46q-34 -12 -58 -25t-45 -32q-10 6 -10 19q0 18 22 38.5t50 35t42 14.5q16 0 37.5 -19t37 -45t15.5 -47q0 -22 -17 -31q-13 26 -30 46z" />
    <glyph glyph-name="uni1EC4" unicode="&#x1ec4;" horiz-adv-x="498" 
d="M77.5 -62.5q-44.5 24.5 -68.5 66t-24 91.5q0 61 35 118t94.5 95.5t129.5 45.5q-38 31 -57 72.5t-19 85.5q0 53 27 101t74 77t105 29q55 0 84.5 -28t29.5 -80q0 -36 -13 -71t-32 -57.5t-35 -22.5q-11 0 -21 9t-16 23q84 73 84 139q0 31 -18 48t-53 17q-67 0 -105 -57.5
t-38 -143.5q0 -101 58 -151q-64 -11 -114.5 -50t-78.5 -93.5t-28 -108.5q0 -57 31.5 -101t96.5 -44q51 0 104 29.5t97 78.5t71 107l14 -10q-56 -108 -136 -173.5t-176 -65.5q-58 0 -102.5 24.5zM393.5 772.5q-23.5 14.5 -34 36t-10.5 41.5q0 33 24 49q3 -38 23 -64.5
t58 -26.5q62 0 96 60q10 -10 10 -30q0 -33 -32.5 -56.5t-75.5 -23.5q-35 0 -58.5 14.5zM519.5 895.5q-18.5 5.5 -46.5 16.5q-29 12 -50 18t-42 6q-31 0 -54 -15q36 50 87 50q18 0 37 -5.5t45 -16.5q39 -14 61 -20t47 -6q16 0 34 8q-33 -41 -82 -41q-18 0 -36.5 5.5z" />
    <glyph glyph-name="uni0204" unicode="&#x204;" horiz-adv-x="498" 
d="M77.5 -62.5q-44.5 24.5 -68.5 66t-24 91.5q0 61 35 118t94.5 95.5t129.5 45.5q-38 31 -57 72.5t-19 85.5q0 53 27 101t74 77t105 29q55 0 84.5 -28t29.5 -80q0 -36 -13 -71t-32 -57.5t-35 -22.5q-11 0 -21 9t-16 23q84 73 84 139q0 31 -18 48t-53 17q-67 0 -105 -57.5
t-38 -143.5q0 -101 58 -151q-64 -11 -114.5 -50t-78.5 -93.5t-28 -108.5q0 -57 31.5 -101t96.5 -44q51 0 104 29.5t97 78.5t71 107l14 -10q-56 -108 -136 -173.5t-176 -65.5q-58 0 -102.5 24.5zM392 865q10 25 26 25t31.5 -20t25 -46t9.5 -42q0 -26 -20 -30q-32 61 -72 113z
M302 871q15 17 29 17q16 0 34 -22.5t31 -51.5t13 -44t-11 -23q-45 63 -96 124z" />
    <glyph glyph-name="Edieresis" unicode="&#xcb;" horiz-adv-x="498" 
d="M77.5 -62.5q-44.5 24.5 -68.5 66t-24 91.5q0 61 35 118t94.5 95.5t129.5 45.5q-38 31 -57 72.5t-19 85.5q0 53 27 101t74 77t105 29q55 0 84.5 -28t29.5 -80q0 -36 -13 -71t-32 -57.5t-35 -22.5q-11 0 -21 9t-16 23q84 73 84 139q0 31 -18 48t-53 17q-67 0 -105 -57.5
t-38 -143.5q0 -101 58 -151q-64 -11 -114.5 -50t-78.5 -93.5t-28 -108.5q0 -57 31.5 -101t96.5 -44q51 0 104 29.5t97 78.5t71 107l14 -10q-56 -108 -136 -173.5t-176 -65.5q-58 0 -102.5 24.5zM325.5 781.5q-10.5 7.5 -10.5 22.5q0 18 21.5 32.5t44.5 14.5q30 0 30 -28
q0 -17 -18.5 -33t-40.5 -16q-16 0 -26.5 7.5zM469.5 760.5q-10.5 7.5 -10.5 22.5q0 18 21.5 32.5t44.5 14.5q30 0 30 -28q0 -17 -18.5 -33t-40.5 -16q-16 0 -26.5 7.5z" />
    <glyph glyph-name="Edotaccent" unicode="&#x116;" horiz-adv-x="498" 
d="M77.5 -62.5q-44.5 24.5 -68.5 66t-24 91.5q0 61 35 118t94.5 95.5t129.5 45.5q-38 31 -57 72.5t-19 85.5q0 53 27 101t74 77t105 29q55 0 84.5 -28t29.5 -80q0 -36 -13 -71t-32 -57.5t-35 -22.5q-11 0 -21 9t-16 23q84 73 84 139q0 31 -18 48t-53 17q-67 0 -105 -57.5
t-38 -143.5q0 -101 58 -151q-64 -11 -114.5 -50t-78.5 -93.5t-28 -108.5q0 -57 31.5 -101t96.5 -44q51 0 104 29.5t97 78.5t71 107l14 -10q-56 -108 -136 -173.5t-176 -65.5q-58 0 -102.5 24.5zM398 779.5q-11 8.5 -11 24.5q0 21 21 35t44 14q35 0 35 -33q0 -19 -19 -34
t-41 -15q-18 0 -29 8.5z" />
    <glyph glyph-name="uni1EB8" unicode="&#x1eb8;" horiz-adv-x="498" 
d="M77.5 -62.5q-44.5 24.5 -68.5 66t-24 91.5q0 61 35 118t94.5 95.5t129.5 45.5q-38 31 -57 72.5t-19 85.5q0 53 27 101t74 77t105 29q55 0 84.5 -28t29.5 -80q0 -36 -13 -71t-32 -57.5t-35 -22.5q-11 0 -21 9t-16 23q84 73 84 139q0 31 -18 48t-53 17q-67 0 -105 -57.5
t-38 -143.5q0 -101 58 -151q-64 -11 -114.5 -50t-78.5 -93.5t-28 -108.5q0 -57 31.5 -101t96.5 -44q51 0 104 29.5t97 78.5t71 107l14 -10q-56 -108 -136 -173.5t-176 -65.5q-58 0 -102.5 24.5zM114 -252.5q-11 8.5 -11 24.5q0 21 21 35t44 14q35 0 35 -33q0 -19 -19 -34
t-41 -15q-18 0 -29 8.5z" />
    <glyph glyph-name="Egrave" unicode="&#xc8;" horiz-adv-x="498" 
d="M77.5 -62.5q-44.5 24.5 -68.5 66t-24 91.5q0 61 35 118t94.5 95.5t129.5 45.5q-38 31 -57 72.5t-19 85.5q0 53 27 101t74 77t105 29q55 0 84.5 -28t29.5 -80q0 -36 -13 -71t-32 -57.5t-35 -22.5q-11 0 -21 9t-16 23q84 73 84 139q0 31 -18 48t-53 17q-67 0 -105 -57.5
t-38 -143.5q0 -101 58 -151q-64 -11 -114.5 -50t-78.5 -93.5t-28 -108.5q0 -57 31.5 -101t96.5 -44q51 0 104 29.5t97 78.5t71 107l14 -10q-56 -108 -136 -173.5t-176 -65.5q-58 0 -102.5 24.5zM308 864q3 31 22 31q18 0 42.5 -24t43 -54.5t18.5 -42.5q0 -6 -3.5 -14.5
t-10.5 -11.5q-38 52 -112 116z" />
    <glyph glyph-name="uni1EBA" unicode="&#x1eba;" horiz-adv-x="498" 
d="M77.5 -62.5q-44.5 24.5 -68.5 66t-24 91.5q0 61 35 118t94.5 95.5t129.5 45.5q-38 31 -57 72.5t-19 85.5q0 53 27 101t74 77t105 29q55 0 84.5 -28t29.5 -80q0 -36 -13 -71t-32 -57.5t-35 -22.5q-11 0 -21 9t-16 23q84 73 84 139q0 31 -18 48t-53 17q-67 0 -105 -57.5
t-38 -143.5q0 -101 58 -151q-64 -11 -114.5 -50t-78.5 -93.5t-28 -108.5q0 -57 31.5 -101t96.5 -44q51 0 104 29.5t97 78.5t71 107l14 -10q-56 -108 -136 -173.5t-176 -65.5q-58 0 -102.5 24.5zM416 761q30 2 49.5 13.5t19.5 34.5t-23 33t-70 10q0 19 13 32.5t35 13.5
q34 0 56 -22t22 -55q0 -31 -19 -51t-49 -20q-21 0 -34 11z" />
    <glyph glyph-name="uni0206" unicode="&#x206;" horiz-adv-x="498" 
d="M77.5 -62.5q-44.5 24.5 -68.5 66t-24 91.5q0 61 35 118t94.5 95.5t129.5 45.5q-38 31 -57 72.5t-19 85.5q0 53 27 101t74 77t105 29q55 0 84.5 -28t29.5 -80q0 -36 -13 -71t-32 -57.5t-35 -22.5q-11 0 -21 9t-16 23q84 73 84 139q0 31 -18 48t-53 17q-67 0 -105 -57.5
t-38 -143.5q0 -101 58 -151q-64 -11 -114.5 -50t-78.5 -93.5t-28 -108.5q0 -57 31.5 -101t96.5 -44q51 0 104 29.5t97 78.5t71 107l14 -10q-56 -108 -136 -173.5t-176 -65.5q-58 0 -102.5 24.5zM498.5 793q-21.5 26 -64.5 26q-56 0 -88 -60q-10 11 -10 30q0 34 31 57t76 23
q34 0 57.5 -14t35 -34t11.5 -39q0 -36 -24 -54q-3 39 -24.5 65z" />
    <glyph glyph-name="Emacron" unicode="&#x112;" horiz-adv-x="498" 
d="M77.5 -62.5q-44.5 24.5 -68.5 66t-24 91.5q0 61 35 118t94.5 95.5t129.5 45.5q-38 31 -57 72.5t-19 85.5q0 53 27 101t74 77t105 29q55 0 84.5 -28t29.5 -80q0 -36 -13 -71t-32 -57.5t-35 -22.5q-11 0 -21 9t-16 23q84 73 84 139q0 31 -18 48t-53 17q-67 0 -105 -57.5
t-38 -143.5q0 -101 58 -151q-64 -11 -114.5 -50t-78.5 -93.5t-28 -108.5q0 -57 31.5 -101t96.5 -44q51 0 104 29.5t97 78.5t71 107l14 -10q-56 -108 -136 -173.5t-176 -65.5q-58 0 -102.5 24.5zM465 763q-42 7 -83 16q-79 16 -101 18q10 26 46 26q82 0 241 -47
q-14 -20 -38 -20q-23 0 -65 7z" />
    <glyph glyph-name="Eogonek" unicode="&#x118;" horiz-adv-x="498" 
d="M325 -118.5q13 -12.5 36 -12.5q27 0 50 17q-1 -28 -19 -44t-47 -16q-31 0 -50 19t-19 49q0 23 13 43q-54 -24 -109 -24q-58 0 -102.5 24.5t-68.5 66t-24 91.5q0 61 35 118t94.5 95.5t129.5 45.5q-38 31 -57 72.5t-19 85.5q0 53 27 101t74 77t105 29q55 0 84.5 -28
t29.5 -80q0 -36 -13 -71t-32 -57.5t-35 -22.5q-11 0 -21 9t-16 23q84 73 84 139q0 31 -18 48t-53 17q-67 0 -105 -57.5t-38 -143.5q0 -101 58 -151q-64 -11 -114.5 -50t-78.5 -93.5t-28 -108.5q0 -57 31.5 -101t96.5 -44q51 0 104 29.5t97 78.5t71 107l14 -10
q-62 -119 -144 -180q-36 -25 -36 -59q0 -19 13 -31.5z" />
    <glyph glyph-name="uni1EBC" unicode="&#x1ebc;" horiz-adv-x="498" 
d="M77.5 -62.5q-44.5 24.5 -68.5 66t-24 91.5q0 61 35 118t94.5 95.5t129.5 45.5q-38 31 -57 72.5t-19 85.5q0 53 27 101t74 77t105 29q55 0 84.5 -28t29.5 -80q0 -36 -13 -71t-32 -57.5t-35 -22.5q-11 0 -21 9t-16 23q84 73 84 139q0 31 -18 48t-53 17q-67 0 -105 -57.5
t-38 -143.5q0 -101 58 -151q-64 -11 -114.5 -50t-78.5 -93.5t-28 -108.5q0 -57 31.5 -101t96.5 -44q51 0 104 29.5t97 78.5t71 107l14 -10q-56 -108 -136 -173.5t-176 -65.5q-58 0 -102.5 24.5zM471.5 766.5q-18.5 5.5 -46.5 16.5q-29 12 -50 18t-42 6q-31 0 -54 -15
q36 50 87 50q18 0 37 -5.5t45 -16.5q39 -14 61 -20t47 -6q16 0 34 8q-33 -41 -82 -41q-18 0 -36.5 5.5z" />
    <glyph glyph-name="F" unicode="F" horiz-adv-x="482" 
d="M97 -65q-13 19 -13 57q0 42 20 106t62 179q6 14 16 42q-25 -2 -77 -9l-34 -5q4 66 131 70q65 179 116 285q-26 2 -39 2q-64 0 -98.5 -13t-48 -39t-13.5 -70q0 -41 13 -79q-66 11 -66 78q0 51 36.5 91t99.5 62.5t139 22.5q37 0 105 -8l40 -4t54 -3q40 0 74 10
q-35 -40 -60 -55t-53 -15q-19 0 -68 7q-25 5 -74 10q-28 -68 -96 -283q48 -3 90 -9q63 -6 85 -7q-11 -16 -26.5 -22.5t-48 -8.5t-115.5 -4l-44 -149q-50 -168 -52 -261q-42 3 -55 22z" />
    <glyph glyph-name="G" unicode="G" horiz-adv-x="554" 
d="M113.5 -57.5q-42.5 29.5 -67 86t-24.5 132.5q0 125 63 256t159.5 216.5t188.5 85.5q53 0 78.5 -32t25.5 -81q0 -35 -12 -69t-32.5 -55.5t-43.5 -21.5q-20 0 -31 23q15 10 33.5 37t31.5 59t13 57q0 24 -14.5 38.5t-45.5 14.5q-69 0 -148 -90t-132.5 -220t-53.5 -238
q0 -89 37.5 -141.5t96.5 -52.5q50 0 94 47t72.5 118t33.5 138q-58 13 -103 13l-61 -1q12 52 68 52q24 0 48.5 -7t67.5 -22q25 -11 53 -18l-7 -32q-35 -92 -48 -147.5t-13 -96.5q0 -16 2 -46q2 -20 2 -32q-54 21 -54 72q0 22 7 46q-85 -118 -189 -118q-53 0 -95.5 29.5z" />
    <glyph glyph-name="Gbreve" unicode="&#x11e;" horiz-adv-x="554" 
d="M113.5 -57.5q-42.5 29.5 -67 86t-24.5 132.5q0 125 63 256t159.5 216.5t188.5 85.5q53 0 78.5 -32t25.5 -81q0 -35 -12 -69t-32.5 -55.5t-43.5 -21.5q-20 0 -31 23q15 10 33.5 37t31.5 59t13 57q0 24 -14.5 38.5t-45.5 14.5q-69 0 -148 -90t-132.5 -220t-53.5 -238
q0 -89 37.5 -141.5t96.5 -52.5q50 0 94 47t72.5 118t33.5 138q-58 13 -103 13l-61 -1q12 52 68 52q24 0 48.5 -7t67.5 -22q25 -11 53 -18l-7 -32q-35 -92 -48 -147.5t-13 -96.5q0 -16 2 -46q2 -20 2 -32q-54 21 -54 72q0 22 7 46q-85 -118 -189 -118q-53 0 -95.5 29.5z
M464.5 772.5q-23.5 14.5 -34 36t-10.5 41.5q0 33 24 49q3 -38 23 -64.5t58 -26.5q62 0 96 60q10 -10 10 -30q0 -33 -32.5 -56.5t-75.5 -23.5q-35 0 -58.5 14.5z" />
    <glyph glyph-name="Gcaron" unicode="&#x1e6;" horiz-adv-x="554" 
d="M113.5 -57.5q-42.5 29.5 -67 86t-24.5 132.5q0 125 63 256t159.5 216.5t188.5 85.5q53 0 78.5 -32t25.5 -81q0 -35 -12 -69t-32.5 -55.5t-43.5 -21.5q-20 0 -31 23q15 10 33.5 37t31.5 59t13 57q0 24 -14.5 38.5t-45.5 14.5q-69 0 -148 -90t-132.5 -220t-53.5 -238
q0 -89 37.5 -141.5t96.5 -52.5q50 0 94 47t72.5 118t33.5 138q-58 13 -103 13l-61 -1q12 52 68 52q24 0 48.5 -7t67.5 -22q25 -11 53 -18l-7 -32q-35 -92 -48 -147.5t-13 -96.5q0 -16 2 -46q2 -20 2 -32q-54 21 -54 72q0 22 7 46q-85 -118 -189 -118q-53 0 -95.5 29.5z
M452.5 773q-21.5 19 -37 45t-15.5 47q0 23 17 31q13 -26 30 -46t44 -46q34 12 58 25t45 32q10 -6 10 -19q0 -18 -22 -38.5t-50 -35t-42 -14.5q-16 0 -37.5 19z" />
    <glyph glyph-name="Gcircumflex" unicode="&#x11c;" horiz-adv-x="554" 
d="M113.5 -57.5q-42.5 29.5 -67 86t-24.5 132.5q0 125 63 256t159.5 216.5t188.5 85.5q53 0 78.5 -32t25.5 -81q0 -35 -12 -69t-32.5 -55.5t-43.5 -21.5q-20 0 -31 23q15 10 33.5 37t31.5 59t13 57q0 24 -14.5 38.5t-45.5 14.5q-69 0 -148 -90t-132.5 -220t-53.5 -238
q0 -89 37.5 -141.5t96.5 -52.5q50 0 94 47t72.5 118t33.5 138q-58 13 -103 13l-61 -1q12 52 68 52q24 0 48.5 -7t67.5 -22q25 -11 53 -18l-7 -32q-35 -92 -48 -147.5t-13 -96.5q0 -16 2 -46q2 -20 2 -32q-54 21 -54 72q0 22 7 46q-85 -118 -189 -118q-53 0 -95.5 29.5z
M555 790q-17 20 -44 46q-34 -12 -58 -25t-45 -32q-10 6 -10 19q0 18 22 38.5t50 35t42 14.5q16 0 37.5 -19t37 -45t15.5 -47q0 -22 -17 -31q-13 26 -30 46z" />
    <glyph glyph-name="Gcommaaccent" unicode="&#x122;" horiz-adv-x="554" 
d="M113.5 -57.5q-42.5 29.5 -67 86t-24.5 132.5q0 125 63 256t159.5 216.5t188.5 85.5q53 0 78.5 -32t25.5 -81q0 -35 -12 -69t-32.5 -55.5t-43.5 -21.5q-20 0 -31 23q15 10 33.5 37t31.5 59t13 57q0 24 -14.5 38.5t-45.5 14.5q-69 0 -148 -90t-132.5 -220t-53.5 -238
q0 -89 37.5 -141.5t96.5 -52.5q50 0 94 47t72.5 118t33.5 138q-58 13 -103 13l-61 -1q12 52 68 52q24 0 48.5 -7t67.5 -22q25 -11 53 -18l-7 -32q-35 -92 -48 -147.5t-13 -96.5q0 -16 2 -46q2 -20 2 -32q-54 21 -54 72q0 22 7 46q-85 -118 -189 -118q-53 0 -95.5 29.5z
M152 -236q0 33 20 70t41 37q10 0 17.5 -8.5t7.5 -19.5q-21 -22 -34 -44.5t-22 -43t-13 -28.5q-17 10 -17 37z" />
    <glyph glyph-name="Gdotaccent" unicode="&#x120;" horiz-adv-x="554" 
d="M113.5 -57.5q-42.5 29.5 -67 86t-24.5 132.5q0 125 63 256t159.5 216.5t188.5 85.5q53 0 78.5 -32t25.5 -81q0 -35 -12 -69t-32.5 -55.5t-43.5 -21.5q-20 0 -31 23q15 10 33.5 37t31.5 59t13 57q0 24 -14.5 38.5t-45.5 14.5q-69 0 -148 -90t-132.5 -220t-53.5 -238
q0 -89 37.5 -141.5t96.5 -52.5q50 0 94 47t72.5 118t33.5 138q-58 13 -103 13l-61 -1q12 52 68 52q24 0 48.5 -7t67.5 -22q25 -11 53 -18l-7 -32q-35 -92 -48 -147.5t-13 -96.5q0 -16 2 -46q2 -20 2 -32q-54 21 -54 72q0 22 7 46q-85 -118 -189 -118q-53 0 -95.5 29.5z
M469 779.5q-11 8.5 -11 24.5q0 21 21 35t44 14q35 0 35 -33q0 -19 -19 -34t-41 -15q-18 0 -29 8.5z" />
    <glyph glyph-name="H" unicode="H" horiz-adv-x="617" 
d="M91 72q23 86 74 242l-66 -7q1 44 83 61q37 113 85 251q1 3 7.5 22t6.5 37q0 8 -2.5 11t-11.5 3q-31 0 -59.5 -32t-46.5 -77t-18 -79q0 -19 5 -34q-31 0 -45.5 15.5t-14.5 41.5q0 43 33.5 88.5t81.5 75t85 29.5q25 0 35.5 -13.5t10.5 -34.5q0 -17 -8 -43l-78 -254
q36 2 58 2q78 0 170 -9q31 103 59.5 188t41.5 112q24 52 55 52q-20 -53 -48.5 -151t-56.5 -205q10 0 32 -2q30 -2 43 -2q-20 -21 -39 -26.5t-45 -5.5q-21 -86 -31 -137q-33 -157 -33 -242q0 -18 2 -36q-38 4 -53.5 21.5t-15.5 56.5q0 58 24 151q16 66 53 185
q-80 0 -135.5 -1.5t-97.5 -5.5q-86 -271 -107 -343q-10 -32 -30 -48t-39 -16q13 73 36 159z" />
    <glyph glyph-name="Hbar" unicode="&#x126;" horiz-adv-x="618" 
d="M616 447.5q-23 -8.5 -70 -12.5l-7 -27q-11 -37 -17 -64q10 0 32 -2q30 -2 44 -2q-20 -21 -39 -26.5t-46 -5.5q-16 -68 -26 -117q-33 -157 -33 -242q0 -18 2 -36q-38 4 -53.5 21.5t-15.5 56.5q0 58 24 151q17 67 47 165q-80 0 -135.5 -1.5t-97.5 -5.5l-101 -323
q-10 -32 -30 -48t-39 -16q12 71 34 153t70 228l-64 -7q1 44 80 61q5 12 13 38l14 40q-54 -5 -86 -14q3 40 100 58q18 55 51 149q1 3 7.5 22t6.5 37q0 14 -14 14q-23 0 -46 -20t-37.5 -50.5t-14.5 -59.5q0 -20 3 -32q-30 0 -44 12.5t-14 32.5q0 39 25 72.5t63.5 53t74.5 19.5
q31 0 44 -13.5t13 -34.5q0 -17 -8 -43l-47 -151q63 5 127 5q39 0 105 -2q48 151 66 187q24 52 55 52q-30 -80 -74 -241q55 -4 85 -7q-4 -16 -27 -24.5zM496 433q-41 -2 -153 -2q-55 0 -78 -1l-24 -75q38 2 61 2q78 0 168 -9z" />
    <glyph glyph-name="Hcircumflex" unicode="&#x124;" horiz-adv-x="617" 
d="M91 72q23 86 74 242l-66 -7q1 44 83 61q37 113 85 251q1 3 7.5 22t6.5 37q0 8 -2.5 11t-11.5 3q-31 0 -59.5 -32t-46.5 -77t-18 -79q0 -19 5 -34q-31 0 -45.5 15.5t-14.5 41.5q0 43 33.5 88.5t81.5 75t85 29.5q25 0 35.5 -13.5t10.5 -34.5q0 -17 -8 -43l-78 -254
q36 2 58 2q78 0 170 -9q31 103 59.5 188t41.5 112q24 52 55 52q-20 -53 -48.5 -151t-56.5 -205q10 0 32 -2q30 -2 43 -2q-20 -21 -39 -26.5t-45 -5.5q-21 -86 -31 -137q-33 -157 -33 -242q0 -18 2 -36q-38 4 -53.5 21.5t-15.5 56.5q0 58 24 151q16 66 53 185
q-80 0 -135.5 -1.5t-97.5 -5.5q-86 -271 -107 -343q-10 -32 -30 -48t-39 -16q13 73 36 159zM528 790q-17 20 -44 46q-34 -12 -58 -25t-45 -32q-10 6 -10 19q0 18 22 38.5t50 35t42 14.5q16 0 37.5 -19t37 -45t15.5 -47q0 -22 -17 -31q-13 26 -30 46z" />
    <glyph glyph-name="I" unicode="I" horiz-adv-x="459" 
d="M8 -23q41 15 117 15q30 64 58 170t66 272q5 22 24.5 105.5t33.5 121.5q-79 -2 -124.5 -6t-100.5 -14q7 39 55.5 58t148.5 19q65 0 138.5 -7t123.5 -14q-21 -21 -45.5 -28t-51.5 -7q-78 0 -109 -1l-7 -36q-62 -344 -92 -463q-17 -68 -37 -110.5t-47 -60.5q47 -3 97 -9
q73 -9 120 -10q-43 -43 -113 -43h-49q-92 -1 -145 -3.5t-107 -13.5q5 50 46 65z" />
    <glyph glyph-name="IJ" unicode="&#x132;" horiz-adv-x="870" 
d="M8 -23q41 15 117 15q30 64 58 170t66 272q5 22 24.5 105.5t33.5 121.5q-79 -2 -124.5 -6t-100.5 -14q7 39 55.5 58t148.5 19q65 0 138.5 -7t123.5 -14q-21 -21 -45.5 -28t-51.5 -7q-78 0 -109 -1l-7 -36q-62 -344 -92 -463q-17 -68 -37 -110.5t-47 -60.5q47 -3 97 -9
q73 -9 120 -10q-43 -43 -113 -43h-49q-92 -1 -145 -3.5t-107 -13.5q5 50 46 65zM428 44q0 63 21.5 115.5t54.5 52.5q12 0 28 -8q-36 -91 -36 -160q0 -45 16 -70t47 -25q27 0 47 23t42 82q35 97 80.5 289t70.5 324q-74 -1 -114.5 -5t-87.5 -15q11 71 163 71q52 0 111 -7
t98 -14q-10 -17 -32.5 -23t-44.5 -6l-71 -1q10 -8 15.5 -21.5t5.5 -25.5q0 -26 -20.5 -132.5t-53 -226.5t-68.5 -200q-37 -84 -76 -115.5t-88 -31.5q-108 0 -108 130z" />
    <glyph glyph-name="Iacute" unicode="&#xcd;" horiz-adv-x="459" 
d="M8 -23q41 15 117 15q30 64 58 170t66 272q5 22 24.5 105.5t33.5 121.5q-79 -2 -124.5 -6t-100.5 -14q7 39 55.5 58t148.5 19q65 0 138.5 -7t123.5 -14q-21 -21 -45.5 -28t-51.5 -7q-78 0 -109 -1l-7 -36q-62 -344 -92 -463q-17 -68 -37 -110.5t-47 -60.5q47 -3 97 -9
q73 -9 120 -10q-43 -43 -113 -43h-49q-92 -1 -145 -3.5t-107 -13.5q5 50 46 65zM337.5 759.5q-3.5 8.5 -3.5 14.5q0 12 18.5 42.5t43 54.5t42.5 24q19 0 22 -31q-74 -64 -112 -116q-7 3 -10.5 11.5z" />
    <glyph glyph-name="Ibreve" unicode="&#x12c;" horiz-adv-x="459" 
d="M8 -23q41 15 117 15q30 64 58 170t66 272q5 22 24.5 105.5t33.5 121.5q-79 -2 -124.5 -6t-100.5 -14q7 39 55.5 58t148.5 19q65 0 138.5 -7t123.5 -14q-21 -21 -45.5 -28t-51.5 -7q-78 0 -109 -1l-7 -36q-62 -344 -92 -463q-17 -68 -37 -110.5t-47 -60.5q47 -3 97 -9
q73 -9 120 -10q-43 -43 -113 -43h-49q-92 -1 -145 -3.5t-107 -13.5q5 50 46 65zM319.5 772.5q-23.5 14.5 -34 36t-10.5 41.5q0 33 24 49q3 -38 23 -64.5t58 -26.5q62 0 96 60q10 -10 10 -30q0 -33 -32.5 -56.5t-75.5 -23.5q-35 0 -58.5 14.5z" />
    <glyph glyph-name="Icircumflex" unicode="&#xce;" horiz-adv-x="459" 
d="M8 -23q41 15 117 15q30 64 58 170t66 272q5 22 24.5 105.5t33.5 121.5q-79 -2 -124.5 -6t-100.5 -14q7 39 55.5 58t148.5 19q65 0 138.5 -7t123.5 -14q-21 -21 -45.5 -28t-51.5 -7q-78 0 -109 -1l-7 -36q-62 -344 -92 -463q-17 -68 -37 -110.5t-47 -60.5q47 -3 97 -9
q73 -9 120 -10q-43 -43 -113 -43h-49q-92 -1 -145 -3.5t-107 -13.5q5 50 46 65zM410 790q-17 20 -44 46q-34 -12 -58 -25t-45 -32q-10 6 -10 19q0 18 22 38.5t50 35t42 14.5q16 0 37.5 -19t37 -45t15.5 -47q0 -22 -17 -31q-13 26 -30 46z" />
    <glyph glyph-name="uni0208" unicode="&#x208;" horiz-adv-x="459" 
d="M8 -23q41 15 117 15q30 64 58 170t66 272q5 22 24.5 105.5t33.5 121.5q-79 -2 -124.5 -6t-100.5 -14q7 39 55.5 58t148.5 19q65 0 138.5 -7t123.5 -14q-21 -21 -45.5 -28t-51.5 -7q-78 0 -109 -1l-7 -36q-62 -344 -92 -463q-17 -68 -37 -110.5t-47 -60.5q47 -3 97 -9
q73 -9 120 -10q-43 -43 -113 -43h-49q-92 -1 -145 -3.5t-107 -13.5q5 50 46 65zM318 865q10 25 26 25t31.5 -20t25 -46t9.5 -42q0 -26 -20 -30q-32 61 -72 113zM228 871q15 17 29 17q16 0 34 -22.5t31 -51.5t13 -44t-11 -23q-45 63 -96 124z" />
    <glyph glyph-name="Idieresis" unicode="&#xcf;" horiz-adv-x="459" 
d="M8 -23q41 15 117 15q30 64 58 170t66 272q5 22 24.5 105.5t33.5 121.5q-79 -2 -124.5 -6t-100.5 -14q7 39 55.5 58t148.5 19q65 0 138.5 -7t123.5 -14q-21 -21 -45.5 -28t-51.5 -7q-78 0 -109 -1l-7 -36q-62 -344 -92 -463q-17 -68 -37 -110.5t-47 -60.5q47 -3 97 -9
q73 -9 120 -10q-43 -43 -113 -43h-49q-92 -1 -145 -3.5t-107 -13.5q5 50 46 65zM251.5 781.5q-10.5 7.5 -10.5 22.5q0 18 21.5 32.5t44.5 14.5q30 0 30 -28q0 -17 -18.5 -33t-40.5 -16q-16 0 -26.5 7.5zM395.5 760.5q-10.5 7.5 -10.5 22.5q0 18 21.5 32.5t44.5 14.5
q30 0 30 -28q0 -17 -18.5 -33t-40.5 -16q-16 0 -26.5 7.5z" />
    <glyph glyph-name="Idotaccent" unicode="&#x130;" horiz-adv-x="459" 
d="M8 -23q41 15 117 15q30 64 58 170t66 272q5 22 24.5 105.5t33.5 121.5q-79 -2 -124.5 -6t-100.5 -14q7 39 55.5 58t148.5 19q65 0 138.5 -7t123.5 -14q-21 -21 -45.5 -28t-51.5 -7q-78 0 -109 -1l-7 -36q-62 -344 -92 -463q-17 -68 -37 -110.5t-47 -60.5q47 -3 97 -9
q73 -9 120 -10q-43 -43 -113 -43h-49q-92 -1 -145 -3.5t-107 -13.5q5 50 46 65zM324 779.5q-11 8.5 -11 24.5q0 21 21 35t44 14q35 0 35 -33q0 -19 -19 -34t-41 -15q-18 0 -29 8.5z" />
    <glyph glyph-name="uni1ECA" unicode="&#x1eca;" horiz-adv-x="459" 
d="M8 -23q41 15 117 15q30 64 58 170t66 272q5 22 24.5 105.5t33.5 121.5q-79 -2 -124.5 -6t-100.5 -14q7 39 55.5 58t148.5 19q65 0 138.5 -7t123.5 -14q-21 -21 -45.5 -28t-51.5 -7q-78 0 -109 -1l-7 -36q-62 -344 -92 -463q-17 -68 -37 -110.5t-47 -60.5q47 -3 97 -9
q73 -9 120 -10q-43 -43 -113 -43h-49q-92 -1 -145 -3.5t-107 -13.5q5 50 46 65zM58 -221.5q-11 8.5 -11 24.5q0 21 21 35t44 14q35 0 35 -33q0 -19 -19 -34t-41 -15q-18 0 -29 8.5z" />
    <glyph glyph-name="Igrave" unicode="&#xcc;" horiz-adv-x="459" 
d="M8 -23q41 15 117 15q30 64 58 170t66 272q5 22 24.5 105.5t33.5 121.5q-79 -2 -124.5 -6t-100.5 -14q7 39 55.5 58t148.5 19q65 0 138.5 -7t123.5 -14q-21 -21 -45.5 -28t-51.5 -7q-78 0 -109 -1l-7 -36q-62 -344 -92 -463q-17 -68 -37 -110.5t-47 -60.5q47 -3 97 -9
q73 -9 120 -10q-43 -43 -113 -43h-49q-92 -1 -145 -3.5t-107 -13.5q5 50 46 65zM234 864q3 31 22 31q18 0 42.5 -24t43 -54.5t18.5 -42.5q0 -6 -3.5 -14.5t-10.5 -11.5q-38 52 -112 116z" />
    <glyph glyph-name="uni1EC8" unicode="&#x1ec8;" horiz-adv-x="459" 
d="M8 -23q41 15 117 15q30 64 58 170t66 272q5 22 24.5 105.5t33.5 121.5q-79 -2 -124.5 -6t-100.5 -14q7 39 55.5 58t148.5 19q65 0 138.5 -7t123.5 -14q-21 -21 -45.5 -28t-51.5 -7q-78 0 -109 -1l-7 -36q-62 -344 -92 -463q-17 -68 -37 -110.5t-47 -60.5q47 -3 97 -9
q73 -9 120 -10q-43 -43 -113 -43h-49q-92 -1 -145 -3.5t-107 -13.5q5 50 46 65zM342 761q30 2 49.5 13.5t19.5 34.5t-23 33t-70 10q0 19 13 32.5t35 13.5q34 0 56 -22t22 -55q0 -31 -19 -51t-49 -20q-21 0 -34 11z" />
    <glyph glyph-name="uni020A" unicode="&#x20a;" horiz-adv-x="459" 
d="M8 -23q41 15 117 15q30 64 58 170t66 272q5 22 24.5 105.5t33.5 121.5q-79 -2 -124.5 -6t-100.5 -14q7 39 55.5 58t148.5 19q65 0 138.5 -7t123.5 -14q-21 -21 -45.5 -28t-51.5 -7q-78 0 -109 -1l-7 -36q-62 -344 -92 -463q-17 -68 -37 -110.5t-47 -60.5q47 -3 97 -9
q73 -9 120 -10q-43 -43 -113 -43h-49q-92 -1 -145 -3.5t-107 -13.5q5 50 46 65zM424.5 793q-21.5 26 -64.5 26q-56 0 -88 -60q-10 11 -10 30q0 34 31 57t76 23q34 0 57.5 -14t35 -34t11.5 -39q0 -36 -24 -54q-3 39 -24.5 65z" />
    <glyph glyph-name="Imacron" unicode="&#x12a;" horiz-adv-x="459" 
d="M8 -23q41 15 117 15q30 64 58 170t66 272q5 22 24.5 105.5t33.5 121.5q-79 -2 -124.5 -6t-100.5 -14q7 39 55.5 58t148.5 19q65 0 138.5 -7t123.5 -14q-21 -21 -45.5 -28t-51.5 -7q-78 0 -109 -1l-7 -36q-62 -344 -92 -463q-17 -68 -37 -110.5t-47 -60.5q47 -3 97 -9
q73 -9 120 -10q-43 -43 -113 -43h-49q-92 -1 -145 -3.5t-107 -13.5q5 50 46 65zM391 763q-42 7 -83 16q-79 16 -101 18q10 26 46 26q82 0 241 -47q-14 -20 -38 -20q-23 0 -65 7z" />
    <glyph glyph-name="Iogonek" unicode="&#x12e;" horiz-adv-x="459" 
d="M206 51.5q-20 -42.5 -47 -60.5q47 -3 97 -9q73 -9 120 -10q-43 -43 -113 -43q-83 0 -123 -1q-17 -19 -17 -43q0 -19 13 -31.5t36 -12.5q27 0 50 17q-1 -28 -19 -44t-47 -16q-31 0 -50 19t-19 49q0 39 31 62q-91 -3 -156 -16q5 50 46 65t117 15q30 64 58 170t66 272
q5 22 24.5 105.5t33.5 121.5q-79 -2 -124.5 -6t-100.5 -14q7 39 55.5 58t148.5 19q65 0 138.5 -7t123.5 -14q-21 -21 -45.5 -28t-51.5 -7q-78 0 -109 -1l-7 -36q-62 -344 -92 -463q-17 -68 -37 -110.5z" />
    <glyph glyph-name="Itilde" unicode="&#x128;" horiz-adv-x="459" 
d="M8 -23q41 15 117 15q30 64 58 170t66 272q5 22 24.5 105.5t33.5 121.5q-79 -2 -124.5 -6t-100.5 -14q7 39 55.5 58t148.5 19q65 0 138.5 -7t123.5 -14q-21 -21 -45.5 -28t-51.5 -7q-78 0 -109 -1l-7 -36q-62 -344 -92 -463q-17 -68 -37 -110.5t-47 -60.5q47 -3 97 -9
q73 -9 120 -10q-43 -43 -113 -43h-49q-92 -1 -145 -3.5t-107 -13.5q5 50 46 65zM397.5 766.5q-18.5 5.5 -46.5 16.5q-29 12 -50 18t-42 6q-31 0 -54 -15q36 50 87 50q18 0 37 -5.5t45 -16.5q39 -14 61 -20t47 -6q16 0 34 8q-33 -41 -82 -41q-18 0 -36.5 5.5z" />
    <glyph glyph-name="J" unicode="J" horiz-adv-x="411" 
d="M-31 44q0 63 21.5 115.5t54.5 52.5q12 0 28 -8q-36 -91 -36 -160q0 -45 16 -70t47 -25q27 0 47 23t42 82q35 97 80.5 289t70.5 324q-74 -1 -114.5 -5t-87.5 -15q11 71 163 71q52 0 111 -7t98 -14q-10 -17 -32.5 -23t-44.5 -6l-71 -1q10 -8 15.5 -21.5t5.5 -25.5
q0 -26 -20.5 -132.5t-53 -226.5t-68.5 -200q-37 -84 -76 -115.5t-88 -31.5q-108 0 -108 130z" />
    <glyph glyph-name="Jcircumflex" unicode="&#x134;" horiz-adv-x="411" 
d="M-31 44q0 63 21.5 115.5t54.5 52.5q12 0 28 -8q-36 -91 -36 -160q0 -45 16 -70t47 -25q27 0 47 23t42 82q35 97 80.5 289t70.5 324q-74 -1 -114.5 -5t-87.5 -15q11 71 163 71q52 0 111 -7t98 -14q-10 -17 -32.5 -23t-44.5 -6l-71 -1q10 -8 15.5 -21.5t5.5 -25.5
q0 -26 -20.5 -132.5t-53 -226.5t-68.5 -200q-37 -84 -76 -115.5t-88 -31.5q-108 0 -108 130zM431 790q-17 20 -44 46q-34 -12 -58 -25t-45 -32q-10 6 -10 19q0 18 22 38.5t50 35t42 14.5q16 0 37.5 -19t37 -45t15.5 -47q0 -22 -17 -31q-13 26 -30 46z" />
    <glyph glyph-name="K" unicode="K" horiz-adv-x="590" 
d="M408 -23.5q-53 63.5 -106 153t-86 161.5l-97 -314q-9 -30 -31.5 -38t-57.5 -8q23 52 54 138.5t104 300.5l85 249q1 2 7 18.5t6 30.5q0 24 -24 24q-31 0 -59.5 -32t-46.5 -77t-18 -79q0 -19 5 -34q-31 0 -45.5 15.5t-14.5 41.5q0 43 33.5 88.5t81.5 75t85 29.5
q25 0 35.5 -13.5t10.5 -34.5q0 -17 -8 -43l-84 -272q10 13 27 28t36 30l23 18q75 60 152.5 139t120.5 148q4 -5 6.5 -19.5t2.5 -24.5q0 -109 -364 -354q54 -91 87.5 -142t86.5 -109.5t134 -124.5q-7 -14 -22 -23.5t-32 -9.5q-34 0 -87 63.5z" />
    <glyph glyph-name="Kcommaaccent" unicode="&#x136;" horiz-adv-x="590" 
d="M408 -23.5q-53 63.5 -106 153t-86 161.5l-97 -314q-9 -30 -31.5 -38t-57.5 -8q23 52 54 138.5t104 300.5l85 249q1 2 7 18.5t6 30.5q0 24 -24 24q-31 0 -59.5 -32t-46.5 -77t-18 -79q0 -19 5 -34q-31 0 -45.5 15.5t-14.5 41.5q0 43 33.5 88.5t81.5 75t85 29.5
q25 0 35.5 -13.5t10.5 -34.5q0 -17 -8 -43l-84 -272q10 13 27 28t36 30l23 18q75 60 152.5 139t120.5 148q4 -5 6.5 -19.5t2.5 -24.5q0 -109 -364 -354q54 -91 87.5 -142t86.5 -109.5t134 -124.5q-7 -14 -22 -23.5t-32 -9.5q-34 0 -87 63.5zM189 -219q0 33 20 70t41 37
q10 0 17.5 -8.5t7.5 -19.5q-21 -22 -34 -44.5t-22 -43t-13 -28.5q-17 10 -17 37z" />
    <glyph glyph-name="L" unicode="L" horiz-adv-x="570" 
d="M311.5 -70q-46.5 17 -122.5 52l-52 24q-53 -59 -111 -59q-30 0 -53 14t-35 34.5t-12 38.5q0 20 17.5 32t55.5 12q44 0 123 -21q25 44 47 104.5t54 162.5l24 76q-46 15 -72.5 44t-26.5 63q0 29 17.5 54t44.5 25q-7 -9 -10 -27t-3 -35q0 -37 15.5 -63t41.5 -40
q46 141 96 220t119 79q37 0 67 -24t30 -78q0 -50 -27 -103.5t-81.5 -90t-131.5 -36.5h-16q-41 -124 -73 -205t-71 -139q8 -3 17 -5.5t18 -5.5q85 -26 136 -38.5t94 -12.5q40 0 71 16q-16 -45 -42 -65t-63 -20q-39 0 -85.5 17zM417 448q45 41 70 97.5t25 99.5q0 27 -10 38.5
t-26 11.5q-42 0 -77 -71.5t-83 -216.5q56 0 101 41zM99 22q-74 30 -114 30q-33 0 -33 -19t20.5 -38t49.5 -19q42 0 77 46z" />
    <glyph glyph-name="uni01C7" unicode="&#x1c7;" horiz-adv-x="981" 
d="M311.5 -70q-46.5 17 -122.5 52l-52 24q-53 -59 -111 -59q-30 0 -53 14t-35 34.5t-12 38.5q0 20 17.5 32t55.5 12q44 0 123 -21q25 44 47 104.5t54 162.5l24 76q-46 15 -72.5 44t-26.5 63q0 29 17.5 54t44.5 25q-7 -9 -10 -27t-3 -35q0 -37 15.5 -63t41.5 -40
q46 141 96 220t119 79q37 0 67 -24t30 -78q0 -50 -27 -103.5t-81.5 -90t-131.5 -36.5h-16q-41 -124 -73 -205t-71 -139q8 -3 17 -5.5t18 -5.5q85 -26 136 -38.5t94 -12.5q40 0 71 16q-16 -45 -42 -65t-63 -20q-39 0 -85.5 17zM417 448q45 41 70 97.5t25 99.5q0 27 -10 38.5
t-26 11.5q-42 0 -77 -71.5t-83 -216.5q56 0 101 41zM99 22q-74 30 -114 30q-33 0 -33 -19t20.5 -38t49.5 -19q42 0 77 46zM539 44q0 63 21.5 115.5t54.5 52.5q12 0 28 -8q-36 -91 -36 -160q0 -45 16 -70t47 -25q27 0 47 23t42 82q35 97 80.5 289t70.5 324q-74 -1 -114.5 -5
t-87.5 -15q11 71 163 71q52 0 111 -7t98 -14q-10 -17 -32.5 -23t-44.5 -6l-71 -1q10 -8 15.5 -21.5t5.5 -25.5q0 -26 -20.5 -132.5t-53 -226.5t-68.5 -200q-37 -84 -76 -115.5t-88 -31.5q-108 0 -108 130z" />
    <glyph glyph-name="Lacute" unicode="&#x139;" horiz-adv-x="570" 
d="M311.5 -70q-46.5 17 -122.5 52l-52 24q-53 -59 -111 -59q-30 0 -53 14t-35 34.5t-12 38.5q0 20 17.5 32t55.5 12q44 0 123 -21q25 44 47 104.5t54 162.5l24 76q-46 15 -72.5 44t-26.5 63q0 29 17.5 54t44.5 25q-7 -9 -10 -27t-3 -35q0 -37 15.5 -63t41.5 -40
q46 141 96 220t119 79q37 0 67 -24t30 -78q0 -50 -27 -103.5t-81.5 -90t-131.5 -36.5h-16q-41 -124 -73 -205t-71 -139q8 -3 17 -5.5t18 -5.5q85 -26 136 -38.5t94 -12.5q40 0 71 16q-16 -45 -42 -65t-63 -20q-39 0 -85.5 17zM417 448q45 41 70 97.5t25 99.5q0 27 -10 38.5
t-26 11.5q-42 0 -77 -71.5t-83 -216.5q56 0 101 41zM99 22q-74 30 -114 30q-33 0 -33 -19t20.5 -38t49.5 -19q42 0 77 46zM491.5 759.5q-3.5 8.5 -3.5 14.5q0 12 18.5 42.5t43 54.5t42.5 24q19 0 22 -31q-74 -64 -112 -116q-7 3 -10.5 11.5z" />
    <glyph glyph-name="Lcaron" unicode="&#x13d;" horiz-adv-x="570" 
d="M311.5 -70q-46.5 17 -122.5 52l-52 24q-53 -59 -111 -59q-30 0 -53 14t-35 34.5t-12 38.5q0 20 17.5 32t55.5 12q44 0 123 -21q25 44 47 104.5t54 162.5l24 76q-46 15 -72.5 44t-26.5 63q0 29 17.5 54t44.5 25q-7 -9 -10 -27t-3 -35q0 -37 15.5 -63t41.5 -40
q46 141 96 220t119 79q37 0 67 -24t30 -78q0 -50 -27 -103.5t-81.5 -90t-131.5 -36.5h-16q-41 -124 -73 -205t-71 -139q8 -3 17 -5.5t18 -5.5q85 -26 136 -38.5t94 -12.5q40 0 71 16q-16 -45 -42 -65t-63 -20q-39 0 -85.5 17zM417 448q45 41 70 97.5t25 99.5q0 27 -10 38.5
t-26 11.5q-42 0 -77 -71.5t-83 -216.5q56 0 101 41zM99 22q-74 30 -114 30q-33 0 -33 -19t20.5 -38t49.5 -19q42 0 77 46zM605.5 564q-7.5 7 -7.5 19q0 18 14.5 42.5t35.5 42.5t39 18q9 0 14 -4q-19 -25 -35.5 -57.5t-26.5 -62.5q-7 -5 -16 -5q-10 0 -17.5 7z" />
    <glyph glyph-name="Lcommaaccent" unicode="&#x13b;" horiz-adv-x="570" 
d="M311.5 -70q-46.5 17 -122.5 52l-52 24q-53 -59 -111 -59q-30 0 -53 14t-35 34.5t-12 38.5q0 20 17.5 32t55.5 12q44 0 123 -21q25 44 47 104.5t54 162.5l24 76q-46 15 -72.5 44t-26.5 63q0 29 17.5 54t44.5 25q-7 -9 -10 -27t-3 -35q0 -37 15.5 -63t41.5 -40
q46 141 96 220t119 79q37 0 67 -24t30 -78q0 -50 -27 -103.5t-81.5 -90t-131.5 -36.5h-16q-41 -124 -73 -205t-71 -139q8 -3 17 -5.5t18 -5.5q85 -26 136 -38.5t94 -12.5q40 0 71 16q-16 -45 -42 -65t-63 -20q-39 0 -85.5 17zM417 448q45 41 70 97.5t25 99.5q0 27 -10 38.5
t-26 11.5q-42 0 -77 -71.5t-83 -216.5q56 0 101 41zM99 22q-74 30 -114 30q-33 0 -33 -19t20.5 -38t49.5 -19q42 0 77 46zM112 -197q0 33 20 70t41 37q10 0 17.5 -8.5t7.5 -19.5q-21 -22 -34 -44.5t-22 -43t-13 -28.5q-17 10 -17 37z" />
    <glyph glyph-name="Ldot" unicode="&#x13f;" horiz-adv-x="570" 
d="M311.5 -70q-46.5 17 -122.5 52l-52 24q-53 -59 -111 -59q-30 0 -53 14t-35 34.5t-12 38.5q0 20 17.5 32t55.5 12q44 0 123 -21q25 44 47 104.5t54 162.5l24 76q-46 15 -72.5 44t-26.5 63q0 29 17.5 54t44.5 25q-7 -9 -10 -27t-3 -35q0 -37 15.5 -63t41.5 -40
q46 141 96 220t119 79q37 0 67 -24t30 -78q0 -50 -27 -103.5t-81.5 -90t-131.5 -36.5h-16q-41 -124 -73 -205t-71 -139q8 -3 17 -5.5t18 -5.5q85 -26 136 -38.5t94 -12.5q40 0 71 16q-16 -45 -42 -65t-63 -20q-39 0 -85.5 17zM417 448q45 41 70 97.5t25 99.5q0 27 -10 38.5
t-26 11.5q-42 0 -77 -71.5t-83 -216.5q56 0 101 41zM99 22q-74 30 -114 30q-33 0 -33 -19t20.5 -38t49.5 -19q42 0 77 46zM420 245q-9 7 -9 20q0 16 19 28.5t39 12.5q26 0 26 -24q0 -15 -16.5 -29.5t-35.5 -14.5q-14 0 -23 7z" />
    <glyph glyph-name="uni01C8" unicode="&#x1c8;" horiz-adv-x="788" 
d="M311.5 -70q-46.5 17 -122.5 52l-52 24q-53 -59 -111 -59q-30 0 -53 14t-35 34.5t-12 38.5q0 20 17.5 32t55.5 12q44 0 123 -21q25 44 47 104.5t54 162.5l24 76q-46 15 -72.5 44t-26.5 63q0 29 17.5 54t44.5 25q-7 -9 -10 -27t-3 -35q0 -37 15.5 -63t41.5 -40
q46 141 96 220t119 79q37 0 67 -24t30 -78q0 -50 -27 -103.5t-81.5 -90t-131.5 -36.5h-16q-41 -124 -73 -205t-71 -139q8 -3 17 -5.5t18 -5.5q85 -26 136 -38.5t94 -12.5q40 0 71 16q-16 -45 -42 -65t-63 -20q-39 0 -85.5 17zM417 448q45 41 70 97.5t25 99.5q0 27 -10 38.5
t-26 11.5q-42 0 -77 -71.5t-83 -216.5q56 0 101 41zM99 22q-74 30 -114 30q-33 0 -33 -19t20.5 -38t49.5 -19q42 0 77 46zM676.5 445.5q-11.5 8.5 -11.5 23.5q0 21 23.5 37t49.5 16q15 0 24 -7t9 -21q0 -22 -20.5 -39.5t-45.5 -17.5q-17 0 -28.5 8.5zM391.5 -266
q-13.5 14 -13.5 37q0 37 35.5 81t90.5 75q15 9 39 20q15 6 25 12q43 107 67 246q-6 -11 -33 -56q-10 -15 -14 -23l-9 15q18 34 43 99q22 56 36 81.5t31 25.5q11 0 17.5 -8.5t6.5 -21.5q0 -27 -23.5 -127t-56.5 -198l18 11q53 30 87.5 60.5t68.5 93.5l13 -7
q-29 -67 -69.5 -102.5t-99.5 -67.5l-28 -16q-39 -106 -88 -175t-105 -69q-25 0 -38.5 14zM481 -200q38 46 74 127q-73 -36 -112 -76t-39 -73q0 -24 17 -24q22 0 60 46z" />
    <glyph glyph-name="Lslash" unicode="&#x141;" horiz-adv-x="571" 
d="M502 -2q-16 -45 -42 -65t-63 -20q-39 0 -85.5 17t-122.5 52l-52 24q-53 -59 -111 -59q-30 0 -53 14t-35 34.5t-12 38.5q0 20 17.5 32t55.5 12q44 0 123 -21q20 34 38.5 85.5t50.5 149.5l21 66q-51 -7 -120 -21q12 53 136 71q49 145 101 228.5t120 83.5
q-33 -42 -73.5 -121.5t-76.5 -182.5q48 3 104 3q46 0 76 -4q0 -16 -10 -24t-32 -11t-78 -8l-32 -3l-45 -4q-46 -136 -75 -204t-61 -117q8 -3 17 -5.5t18 -5.5q85 -26 136 -38.5t94 -12.5q40 0 71 16zM99 22q-74 30 -114 30q-33 0 -33 -19t20.5 -38t49.5 -19q42 0 77 46z" />
    <glyph glyph-name="M" unicode="M" horiz-adv-x="763" 
d="M15 -16q19 41 104 228t181 404q10 23 10 41q0 13 -7 19.5t-27 6.5q-40 0 -68 -27.5t-42 -69.5t-14 -85q0 -13 2 -31q-26 0 -39.5 26t-13.5 56q0 42 30 81t75.5 63t89.5 24q35 0 56.5 -19t33 -68t11.5 -137q0 -81 -12 -243q-6 -77 -9 -151q34 131 126.5 299t158.5 265
q16 24 25.5 32.5t24.5 8.5q14 0 32 -7q-25 -60 -45 -140q-34 -132 -62.5 -303.5t-28.5 -261.5q0 -24 2 -36t7 -26l6 -20q-34 0 -51.5 11t-24 34t-6.5 67q0 107 25 228t75 311q-44 -57 -98 -163.5t-100.5 -217.5t-69.5 -180q-11 -4 -15 -4q-25 0 -34.5 29.5t-9.5 92.5
q0 56 8 216q8 158 8 209q0 28 -2 56q-72 -167 -124 -296q-69 -166 -103 -241t-62 -113.5t-55 -38.5z" />
    <glyph glyph-name="N" unicode="N" horiz-adv-x="640" 
d="M120 163q61 197 138 456q7 25 7 41q0 23 -15 23q-31 0 -57.5 -30t-42.5 -72t-16 -76q0 -20 5 -35q-31 0 -45.5 15.5t-14.5 41.5q0 43 33.5 88.5t81 75t85.5 29.5q37 0 59.5 -41.5t33.5 -104t23 -166.5q21 -187 44 -336q13 85 46.5 215t69 245.5t45.5 138.5q7 16 25 32.5
t38 16.5q-36 -95 -83 -260t-81 -319.5t-35 -227.5q-32 0 -51 18.5t-27 62.5q-13 70 -42.5 266.5t-48.5 328.5q-93 -335 -130 -457t-62.5 -170.5t-56.5 -48.5q17 63 74 250z" />
    <glyph glyph-name="uni01CA" unicode="&#x1ca;" horiz-adv-x="1046" 
d="M120 163q61 197 138 456q7 25 7 41q0 23 -15 23q-31 0 -57.5 -30t-42.5 -72t-16 -76q0 -20 5 -35q-31 0 -45.5 15.5t-14.5 41.5q0 43 33.5 88.5t81 75t85.5 29.5q37 0 59.5 -41.5t33.5 -104t23 -166.5q21 -187 44 -336q13 85 46.5 215t69 245.5t45.5 138.5q7 16 25 32.5
t38 16.5q-36 -95 -83 -260t-81 -319.5t-35 -227.5q-32 0 -51 18.5t-27 62.5q-13 70 -42.5 266.5t-48.5 328.5q-93 -335 -130 -457t-62.5 -170.5t-56.5 -48.5q17 63 74 250zM604 44q0 63 21.5 115.5t54.5 52.5q12 0 28 -8q-36 -91 -36 -160q0 -45 16 -70t47 -25q27 0 47 23
t42 82q35 97 80.5 289t70.5 324q-74 -1 -114.5 -5t-87.5 -15q11 71 163 71q52 0 111 -7t98 -14q-10 -17 -32.5 -23t-44.5 -6l-71 -1q10 -8 15.5 -21.5t5.5 -25.5q0 -26 -20.5 -132.5t-53 -226.5t-68.5 -200q-37 -84 -76 -115.5t-88 -31.5q-108 0 -108 130z" />
    <glyph glyph-name="Nacute" unicode="&#x143;" horiz-adv-x="640" 
d="M120 163q61 197 138 456q7 25 7 41q0 23 -15 23q-31 0 -57.5 -30t-42.5 -72t-16 -76q0 -20 5 -35q-31 0 -45.5 15.5t-14.5 41.5q0 43 33.5 88.5t81 75t85.5 29.5q37 0 59.5 -41.5t33.5 -104t23 -166.5q21 -187 44 -336q13 85 46.5 215t69 245.5t45.5 138.5q7 16 25 32.5
t38 16.5q-36 -95 -83 -260t-81 -319.5t-35 -227.5q-32 0 -51 18.5t-27 62.5q-13 70 -42.5 266.5t-48.5 328.5q-93 -335 -130 -457t-62.5 -170.5t-56.5 -48.5q17 63 74 250zM466.5 759.5q-3.5 8.5 -3.5 14.5q0 12 18.5 42.5t43 54.5t42.5 24q19 0 22 -31q-74 -64 -112 -116
q-7 3 -10.5 11.5z" />
    <glyph glyph-name="Ncaron" unicode="&#x147;" horiz-adv-x="640" 
d="M120 163q61 197 138 456q7 25 7 41q0 23 -15 23q-31 0 -57.5 -30t-42.5 -72t-16 -76q0 -20 5 -35q-31 0 -45.5 15.5t-14.5 41.5q0 43 33.5 88.5t81 75t85.5 29.5q37 0 59.5 -41.5t33.5 -104t23 -166.5q21 -187 44 -336q13 85 46.5 215t69 245.5t45.5 138.5q7 16 25 32.5
t38 16.5q-36 -95 -83 -260t-81 -319.5t-35 -227.5q-32 0 -51 18.5t-27 62.5q-13 70 -42.5 266.5t-48.5 328.5q-93 -335 -130 -457t-62.5 -170.5t-56.5 -48.5q17 63 74 250zM436.5 773q-21.5 19 -37 45t-15.5 47q0 23 17 31q13 -26 30 -46t44 -46q34 12 58 25t45 32
q10 -6 10 -19q0 -18 -22 -38.5t-50 -35t-42 -14.5q-16 0 -37.5 19z" />
    <glyph glyph-name="Ncommaaccent" unicode="&#x145;" horiz-adv-x="640" 
d="M120 163q61 197 138 456q7 25 7 41q0 23 -15 23q-31 0 -57.5 -30t-42.5 -72t-16 -76q0 -20 5 -35q-31 0 -45.5 15.5t-14.5 41.5q0 43 33.5 88.5t81 75t85.5 29.5q37 0 59.5 -41.5t33.5 -104t23 -166.5q21 -187 44 -336q13 85 46.5 215t69 245.5t45.5 138.5q7 16 25 32.5
t38 16.5q-36 -95 -83 -260t-81 -319.5t-35 -227.5q-32 0 -51 18.5t-27 62.5q-13 70 -42.5 266.5t-48.5 328.5q-93 -335 -130 -457t-62.5 -170.5t-56.5 -48.5q17 63 74 250zM194 -195q0 33 20 70t41 37q10 0 17.5 -8.5t7.5 -19.5q-21 -22 -34 -44.5t-22 -43t-13 -28.5
q-17 10 -17 37z" />
    <glyph glyph-name="Eng" unicode="&#x14a;" horiz-adv-x="660" 
d="M606 670q34 -38 34 -98q0 -73 -30 -213.5t-62 -251.5q-47 -159 -119 -251t-187 -92q-28 0 -45.5 5t-17.5 12q0 9 18 9q99 0 165 81t116 241q29 92 59 229t30 215q0 50 -20.5 81t-63.5 31q-74 0 -127.5 -84t-79.5 -187q-2 -8 -59 -233q-45 -170 -66 -263q-26 0 -46.5 12
t-20.5 35q0 31 22.5 114.5t73.5 260.5q18 59 35 120l8 28q19 66 30 114t11 87q0 20 -17 20q-26 0 -52 -32t-43 -77t-17 -79q0 -19 5 -34q-31 0 -45.5 15.5t-14.5 41.5q0 44 31 89t76.5 74.5t86.5 29.5q50 0 50 -48q0 -30 -11 -80l-12 -54q83 170 209 170q62 0 96 -38z" />
    <glyph glyph-name="uni01CB" unicode="&#x1cb;" horiz-adv-x="842" 
d="M120 163q61 197 138 456q7 25 7 41q0 23 -15 23q-31 0 -57.5 -30t-42.5 -72t-16 -76q0 -20 5 -35q-31 0 -45.5 15.5t-14.5 41.5q0 43 33.5 88.5t81 75t85.5 29.5q37 0 59.5 -41.5t33.5 -104t23 -166.5q21 -187 44 -336q13 85 46.5 215t69 245.5t45.5 138.5q7 16 25 32.5
t38 16.5q-36 -95 -83 -260t-81 -319.5t-35 -227.5q-32 0 -51 18.5t-27 62.5q-13 70 -42.5 266.5t-48.5 328.5q-93 -335 -130 -457t-62.5 -170.5t-56.5 -48.5q17 63 74 250zM730.5 445.5q-11.5 8.5 -11.5 23.5q0 21 23.5 37t49.5 16q15 0 24 -7t9 -21q0 -22 -20.5 -39.5
t-45.5 -17.5q-17 0 -28.5 8.5zM445.5 -266q-13.5 14 -13.5 37q0 37 35.5 81t90.5 75q15 9 39 20q15 6 25 12q43 107 67 246q-6 -11 -33 -56q-10 -15 -14 -23l-9 15q18 34 43 99q22 56 36 81.5t31 25.5q11 0 17.5 -8.5t6.5 -21.5q0 -27 -23.5 -127t-56.5 -198l18 11
q53 30 87.5 60.5t68.5 93.5l13 -7q-29 -67 -69.5 -102.5t-99.5 -67.5l-28 -16q-39 -106 -88 -175t-105 -69q-25 0 -38.5 14zM535 -200q38 46 74 127q-73 -36 -112 -76t-39 -73q0 -24 17 -24q22 0 60 46z" />
    <glyph glyph-name="Ntilde" unicode="&#xd1;" horiz-adv-x="640" 
d="M120 163q61 197 138 456q7 25 7 41q0 23 -15 23q-31 0 -57.5 -30t-42.5 -72t-16 -76q0 -20 5 -35q-31 0 -45.5 15.5t-14.5 41.5q0 43 33.5 88.5t81 75t85.5 29.5q37 0 59.5 -41.5t33.5 -104t23 -166.5q21 -187 44 -336q13 85 46.5 215t69 245.5t45.5 138.5q7 16 25 32.5
t38 16.5q-36 -95 -83 -260t-81 -319.5t-35 -227.5q-32 0 -51 18.5t-27 62.5q-13 70 -42.5 266.5t-48.5 328.5q-93 -335 -130 -457t-62.5 -170.5t-56.5 -48.5q17 63 74 250zM526.5 766.5q-18.5 5.5 -46.5 16.5q-29 12 -50 18t-42 6q-31 0 -54 -15q36 50 87 50q18 0 37 -5.5
t45 -16.5q39 -14 61 -20t47 -6q16 0 34 8q-33 -41 -82 -41q-18 0 -36.5 5.5z" />
    <glyph glyph-name="O" unicode="O" horiz-adv-x="623" 
d="M112.5 -56.5q-43.5 30.5 -67.5 87t-24 130.5q0 125 63.5 256t160.5 216.5t190 85.5q38 0 60 -12h-11q-83 0 -171 -88.5t-146 -220.5t-58 -251q0 -87 33.5 -143.5t100.5 -56.5q89 0 162.5 87.5t116 218.5t42.5 252q0 51 -11 94.5t-34 43.5t-51.5 -36.5t-52 -87.5
t-31.5 -90q-24 6 -36 19t-12 30q0 34 31.5 80t74.5 79t75 33q46 0 65.5 -59t19.5 -134q0 -171 -61 -299.5t-152 -196.5t-176 -68q-57 0 -100.5 30.5z" />
    <glyph glyph-name="Oacute" unicode="&#xd3;" horiz-adv-x="623" 
d="M112.5 -56.5q-43.5 30.5 -67.5 87t-24 130.5q0 125 63.5 256t160.5 216.5t190 85.5q38 0 60 -12h-11q-83 0 -171 -88.5t-146 -220.5t-58 -251q0 -87 33.5 -143.5t100.5 -56.5q89 0 162.5 87.5t116 218.5t42.5 252q0 51 -11 94.5t-34 43.5t-51.5 -36.5t-52 -87.5
t-31.5 -90q-24 6 -36 19t-12 30q0 34 31.5 80t74.5 79t75 33q46 0 65.5 -59t19.5 -134q0 -171 -61 -299.5t-152 -196.5t-176 -68q-57 0 -100.5 30.5zM503.5 759.5q-3.5 8.5 -3.5 14.5q0 12 18.5 42.5t43 54.5t42.5 24q19 0 22 -31q-74 -64 -112 -116q-7 3 -10.5 11.5z" />
    <glyph glyph-name="Obreve" unicode="&#x14e;" horiz-adv-x="623" 
d="M112.5 -56.5q-43.5 30.5 -67.5 87t-24 130.5q0 125 63.5 256t160.5 216.5t190 85.5q38 0 60 -12h-11q-83 0 -171 -88.5t-146 -220.5t-58 -251q0 -87 33.5 -143.5t100.5 -56.5q89 0 162.5 87.5t116 218.5t42.5 252q0 51 -11 94.5t-34 43.5t-51.5 -36.5t-52 -87.5
t-31.5 -90q-24 6 -36 19t-12 30q0 34 31.5 80t74.5 79t75 33q46 0 65.5 -59t19.5 -134q0 -171 -61 -299.5t-152 -196.5t-176 -68q-57 0 -100.5 30.5zM485.5 772.5q-23.5 14.5 -34 36t-10.5 41.5q0 33 24 49q3 -38 23 -64.5t58 -26.5q62 0 96 60q10 -10 10 -30
q0 -33 -32.5 -56.5t-75.5 -23.5q-35 0 -58.5 14.5z" />
    <glyph glyph-name="Ocircumflex" unicode="&#xd4;" horiz-adv-x="623" 
d="M112.5 -56.5q-43.5 30.5 -67.5 87t-24 130.5q0 125 63.5 256t160.5 216.5t190 85.5q38 0 60 -12h-11q-83 0 -171 -88.5t-146 -220.5t-58 -251q0 -87 33.5 -143.5t100.5 -56.5q89 0 162.5 87.5t116 218.5t42.5 252q0 51 -11 94.5t-34 43.5t-51.5 -36.5t-52 -87.5
t-31.5 -90q-24 6 -36 19t-12 30q0 34 31.5 80t74.5 79t75 33q46 0 65.5 -59t19.5 -134q0 -171 -61 -299.5t-152 -196.5t-176 -68q-57 0 -100.5 30.5zM576 790q-17 20 -44 46q-34 -12 -58 -25t-45 -32q-10 6 -10 19q0 18 22 38.5t50 35t42 14.5q16 0 37.5 -19t37 -45
t15.5 -47q0 -22 -17 -31q-13 26 -30 46z" />
    <glyph glyph-name="uni1ED0" unicode="&#x1ed0;" horiz-adv-x="623" 
d="M112.5 -56.5q-43.5 30.5 -67.5 87t-24 130.5q0 125 63.5 256t160.5 216.5t190 85.5q38 0 60 -12h-11q-83 0 -171 -88.5t-146 -220.5t-58 -251q0 -87 33.5 -143.5t100.5 -56.5q89 0 162.5 87.5t116 218.5t42.5 252q0 51 -11 94.5t-34 43.5t-51.5 -36.5t-52 -87.5
t-31.5 -90q-24 6 -36 19t-12 30q0 34 31.5 80t74.5 79t75 33q46 0 65.5 -59t19.5 -134q0 -171 -61 -299.5t-152 -196.5t-176 -68q-57 0 -100.5 30.5zM625 851q-5 8 -5 17q0 13 15.5 37t37 42.5t37.5 18.5q19 0 22 -31q-61 -55 -92 -96q-10 4 -15 12zM576 790q-17 20 -44 46
q-34 -12 -58 -25t-45 -32q-10 6 -10 19q0 18 22 38.5t50 35t42 14.5q16 0 37.5 -19t37 -45t15.5 -47q0 -22 -17 -31q-13 26 -30 46z" />
    <glyph glyph-name="uni1ED8" unicode="&#x1ed8;" horiz-adv-x="623" 
d="M112.5 -56.5q-43.5 30.5 -67.5 87t-24 130.5q0 125 63.5 256t160.5 216.5t190 85.5q38 0 60 -12h-11q-83 0 -171 -88.5t-146 -220.5t-58 -251q0 -87 33.5 -143.5t100.5 -56.5q89 0 162.5 87.5t116 218.5t42.5 252q0 51 -11 94.5t-34 43.5t-51.5 -36.5t-52 -87.5
t-31.5 -90q-24 6 -36 19t-12 30q0 34 31.5 80t74.5 79t75 33q46 0 65.5 -59t19.5 -134q0 -171 -61 -299.5t-152 -196.5t-176 -68q-57 0 -100.5 30.5zM576 790q-17 20 -44 46q-34 -12 -58 -25t-45 -32q-10 6 -10 19q0 18 22 38.5t50 35t42 14.5q16 0 37.5 -19t37 -45
t15.5 -47q0 -22 -17 -31q-13 26 -30 46zM139 -249.5q-11 8.5 -11 24.5q0 21 21 35t44 14q35 0 35 -33q0 -19 -19 -34t-41 -15q-18 0 -29 8.5z" />
    <glyph glyph-name="uni1ED2" unicode="&#x1ed2;" horiz-adv-x="623" 
d="M112.5 -56.5q-43.5 30.5 -67.5 87t-24 130.5q0 125 63.5 256t160.5 216.5t190 85.5q38 0 60 -12h-11q-83 0 -171 -88.5t-146 -220.5t-58 -251q0 -87 33.5 -143.5t100.5 -56.5q89 0 162.5 87.5t116 218.5t42.5 252q0 51 -11 94.5t-34 43.5t-51.5 -36.5t-52 -87.5
t-31.5 -90q-24 6 -36 19t-12 30q0 34 31.5 80t74.5 79t75 33q46 0 65.5 -59t19.5 -134q0 -171 -61 -299.5t-152 -196.5t-176 -68q-57 0 -100.5 30.5zM578 943q4 28 25 28q15 0 32.5 -19t30 -44.5t12.5 -40.5q0 -22 -21 -30q-24 43 -79 106zM576 790q-17 20 -44 46
q-34 -12 -58 -25t-45 -32q-10 6 -10 19q0 18 22 38.5t50 35t42 14.5q16 0 37.5 -19t37 -45t15.5 -47q0 -22 -17 -31q-13 26 -30 46z" />
    <glyph glyph-name="uni1ED4" unicode="&#x1ed4;" horiz-adv-x="623" 
d="M112.5 -56.5q-43.5 30.5 -67.5 87t-24 130.5q0 125 63.5 256t160.5 216.5t190 85.5q38 0 60 -12h-11q-83 0 -171 -88.5t-146 -220.5t-58 -251q0 -87 33.5 -143.5t100.5 -56.5q89 0 162.5 87.5t116 218.5t42.5 252q0 51 -11 94.5t-34 43.5t-51.5 -36.5t-52 -87.5
t-31.5 -90q-24 6 -36 19t-12 30q0 34 31.5 80t74.5 79t75 33q46 0 65.5 -59t19.5 -134q0 -171 -61 -299.5t-152 -196.5t-176 -68q-57 0 -100.5 30.5zM636 840q23 2 40 13t17 31q0 45 -93 45q0 19 13 32.5t35 13.5q34 0 56 -24t22 -60q0 -28 -16.5 -45t-42.5 -17
q-20 0 -31 11zM576 790q-17 20 -44 46q-34 -12 -58 -25t-45 -32q-10 6 -10 19q0 18 22 38.5t50 35t42 14.5q16 0 37.5 -19t37 -45t15.5 -47q0 -22 -17 -31q-13 26 -30 46z" />
    <glyph glyph-name="uni1ED6" unicode="&#x1ed6;" horiz-adv-x="623" 
d="M112.5 -56.5q-43.5 30.5 -67.5 87t-24 130.5q0 125 63.5 256t160.5 216.5t190 85.5q38 0 60 -12h-11q-83 0 -171 -88.5t-146 -220.5t-58 -251q0 -87 33.5 -143.5t100.5 -56.5q89 0 162.5 87.5t116 218.5t42.5 252q0 51 -11 94.5t-34 43.5t-51.5 -36.5t-52 -87.5
t-31.5 -90q-24 6 -36 19t-12 30q0 34 31.5 80t74.5 79t75 33q46 0 65.5 -59t19.5 -134q0 -171 -61 -299.5t-152 -196.5t-176 -68q-57 0 -100.5 30.5zM485.5 772.5q-23.5 14.5 -34 36t-10.5 41.5q0 33 24 49q3 -38 23 -64.5t58 -26.5q62 0 96 60q10 -10 10 -30
q0 -33 -32.5 -56.5t-75.5 -23.5q-35 0 -58.5 14.5zM611.5 895.5q-18.5 5.5 -46.5 16.5q-29 12 -50 18t-42 6q-31 0 -54 -15q36 50 87 50q18 0 37 -5.5t45 -16.5q39 -14 61 -20t47 -6q16 0 34 8q-33 -41 -82 -41q-18 0 -36.5 5.5z" />
    <glyph glyph-name="uni020C" unicode="&#x20c;" horiz-adv-x="623" 
d="M112.5 -56.5q-43.5 30.5 -67.5 87t-24 130.5q0 125 63.5 256t160.5 216.5t190 85.5q38 0 60 -12h-11q-83 0 -171 -88.5t-146 -220.5t-58 -251q0 -87 33.5 -143.5t100.5 -56.5q89 0 162.5 87.5t116 218.5t42.5 252q0 51 -11 94.5t-34 43.5t-51.5 -36.5t-52 -87.5
t-31.5 -90q-24 6 -36 19t-12 30q0 34 31.5 80t74.5 79t75 33q46 0 65.5 -59t19.5 -134q0 -171 -61 -299.5t-152 -196.5t-176 -68q-57 0 -100.5 30.5zM484 865q10 25 26 25t31.5 -20t25 -46t9.5 -42q0 -26 -20 -30q-32 61 -72 113zM394 871q15 17 29 17q16 0 34 -22.5
t31 -51.5t13 -44t-11 -23q-45 63 -96 124z" />
    <glyph glyph-name="Odieresis" unicode="&#xd6;" horiz-adv-x="623" 
d="M112.5 -56.5q-43.5 30.5 -67.5 87t-24 130.5q0 125 63.5 256t160.5 216.5t190 85.5q38 0 60 -12h-11q-83 0 -171 -88.5t-146 -220.5t-58 -251q0 -87 33.5 -143.5t100.5 -56.5q89 0 162.5 87.5t116 218.5t42.5 252q0 51 -11 94.5t-34 43.5t-51.5 -36.5t-52 -87.5
t-31.5 -90q-24 6 -36 19t-12 30q0 34 31.5 80t74.5 79t75 33q46 0 65.5 -59t19.5 -134q0 -171 -61 -299.5t-152 -196.5t-176 -68q-57 0 -100.5 30.5zM417.5 781.5q-10.5 7.5 -10.5 22.5q0 18 21.5 32.5t44.5 14.5q30 0 30 -28q0 -17 -18.5 -33t-40.5 -16q-16 0 -26.5 7.5z
M561.5 760.5q-10.5 7.5 -10.5 22.5q0 18 21.5 32.5t44.5 14.5q30 0 30 -28q0 -17 -18.5 -33t-40.5 -16q-16 0 -26.5 7.5z" />
    <glyph glyph-name="uni022A" unicode="&#x22a;" horiz-adv-x="623" 
d="M112.5 -56.5q-43.5 30.5 -67.5 87t-24 130.5q0 125 63.5 256t160.5 216.5t190 85.5q38 0 60 -12h-11q-83 0 -171 -88.5t-146 -220.5t-58 -251q0 -87 33.5 -143.5t100.5 -56.5q89 0 162.5 87.5t116 218.5t42.5 252q0 51 -11 94.5t-34 43.5t-51.5 -36.5t-52 -87.5
t-31.5 -90q-24 6 -36 19t-12 30q0 34 31.5 80t74.5 79t75 33q46 0 65.5 -59t19.5 -134q0 -171 -61 -299.5t-152 -196.5t-176 -68q-57 0 -100.5 30.5zM417.5 781.5q-10.5 7.5 -10.5 22.5q0 18 21.5 32.5t44.5 14.5q30 0 30 -28q0 -17 -18.5 -33t-40.5 -16q-16 0 -26.5 7.5z
M561.5 760.5q-10.5 7.5 -10.5 22.5q0 18 21.5 32.5t44.5 14.5q30 0 30 -28q0 -17 -18.5 -33t-40.5 -16q-16 0 -26.5 7.5zM625 901q-42 7 -83 16q-79 16 -101 18q10 26 46 26q82 0 241 -47q-14 -20 -38 -20q-23 0 -65 7z" />
    <glyph glyph-name="uni0230" unicode="&#x230;" horiz-adv-x="623" 
d="M112.5 -56.5q-43.5 30.5 -67.5 87t-24 130.5q0 125 63.5 256t160.5 216.5t190 85.5q38 0 60 -12h-11q-83 0 -171 -88.5t-146 -220.5t-58 -251q0 -87 33.5 -143.5t100.5 -56.5q89 0 162.5 87.5t116 218.5t42.5 252q0 51 -11 94.5t-34 43.5t-51.5 -36.5t-52 -87.5
t-31.5 -90q-24 6 -36 19t-12 30q0 34 31.5 80t74.5 79t75 33q46 0 65.5 -59t19.5 -134q0 -171 -61 -299.5t-152 -196.5t-176 -68q-57 0 -100.5 30.5zM490 779.5q-11 8.5 -11 24.5q0 21 21 35t44 14q35 0 35 -33q0 -19 -19 -34t-41 -15q-18 0 -29 8.5zM619 894q-42 7 -83 16
q-79 16 -101 18q10 26 46 26q82 0 241 -47q-14 -20 -38 -20q-23 0 -65 7z" />
    <glyph glyph-name="uni1ECC" unicode="&#x1ecc;" horiz-adv-x="623" 
d="M112.5 -56.5q-43.5 30.5 -67.5 87t-24 130.5q0 125 63.5 256t160.5 216.5t190 85.5q38 0 60 -12h-11q-83 0 -171 -88.5t-146 -220.5t-58 -251q0 -87 33.5 -143.5t100.5 -56.5q89 0 162.5 87.5t116 218.5t42.5 252q0 51 -11 94.5t-34 43.5t-51.5 -36.5t-52 -87.5
t-31.5 -90q-24 6 -36 19t-12 30q0 34 31.5 80t74.5 79t75 33q46 0 65.5 -59t19.5 -134q0 -171 -61 -299.5t-152 -196.5t-176 -68q-57 0 -100.5 30.5zM139 -249.5q-11 8.5 -11 24.5q0 21 21 35t44 14q35 0 35 -33q0 -19 -19 -34t-41 -15q-18 0 -29 8.5z" />
    <glyph glyph-name="Ograve" unicode="&#xd2;" horiz-adv-x="623" 
d="M112.5 -56.5q-43.5 30.5 -67.5 87t-24 130.5q0 125 63.5 256t160.5 216.5t190 85.5q38 0 60 -12h-11q-83 0 -171 -88.5t-146 -220.5t-58 -251q0 -87 33.5 -143.5t100.5 -56.5q89 0 162.5 87.5t116 218.5t42.5 252q0 51 -11 94.5t-34 43.5t-51.5 -36.5t-52 -87.5
t-31.5 -90q-24 6 -36 19t-12 30q0 34 31.5 80t74.5 79t75 33q46 0 65.5 -59t19.5 -134q0 -171 -61 -299.5t-152 -196.5t-176 -68q-57 0 -100.5 30.5zM400 864q3 31 22 31q18 0 42.5 -24t43 -54.5t18.5 -42.5q0 -6 -3.5 -14.5t-10.5 -11.5q-38 52 -112 116z" />
    <glyph glyph-name="uni1ECE" unicode="&#x1ece;" horiz-adv-x="623" 
d="M112.5 -56.5q-43.5 30.5 -67.5 87t-24 130.5q0 125 63.5 256t160.5 216.5t190 85.5q38 0 60 -12h-11q-83 0 -171 -88.5t-146 -220.5t-58 -251q0 -87 33.5 -143.5t100.5 -56.5q89 0 162.5 87.5t116 218.5t42.5 252q0 51 -11 94.5t-34 43.5t-51.5 -36.5t-52 -87.5
t-31.5 -90q-24 6 -36 19t-12 30q0 34 31.5 80t74.5 79t75 33q46 0 65.5 -59t19.5 -134q0 -171 -61 -299.5t-152 -196.5t-176 -68q-57 0 -100.5 30.5zM508 761q30 2 49.5 13.5t19.5 34.5t-23 33t-70 10q0 19 13 32.5t35 13.5q34 0 56 -22t22 -55q0 -31 -19 -51t-49 -20
q-21 0 -34 11z" />
    <glyph glyph-name="Ohorn" unicode="&#x1a0;" horiz-adv-x="623" 
d="M673.5 729q13.5 -18 13.5 -46q0 -29 -18 -49t-47 -20q-22 0 -47 14q27 -53 27 -151q0 -171 -61 -299.5t-152 -196.5t-176 -68q-57 0 -100.5 30.5t-67.5 87t-24 130.5q0 125 63.5 256t160.5 216.5t190 85.5q38 0 60 -12h-11q-83 0 -171 -88.5t-146 -220.5t-58 -251
q0 -87 33.5 -143.5t100.5 -56.5q89 0 162.5 87.5t116 218.5t42.5 252q0 51 -11 94.5t-34 43.5t-51.5 -36.5t-52 -87.5t-31.5 -90q-24 6 -36 19t-12 30q0 34 31.5 80t74.5 79t75 33q16 0 26 -3.5t22 -9.5q18 -11 39 -11q15 0 23 7.5t8 19.5q0 18 -10 30t-27 24q18 20 42 20
q20 0 33.5 -18z" />
    <glyph glyph-name="uni1EDA" unicode="&#x1eda;" horiz-adv-x="623" 
d="M673.5 729q13.5 -18 13.5 -46q0 -29 -18 -49t-47 -20q-22 0 -47 14q27 -53 27 -151q0 -171 -61 -299.5t-152 -196.5t-176 -68q-57 0 -100.5 30.5t-67.5 87t-24 130.5q0 125 63.5 256t160.5 216.5t190 85.5q38 0 60 -12h-11q-83 0 -171 -88.5t-146 -220.5t-58 -251
q0 -87 33.5 -143.5t100.5 -56.5q89 0 162.5 87.5t116 218.5t42.5 252q0 51 -11 94.5t-34 43.5t-51.5 -36.5t-52 -87.5t-31.5 -90q-24 6 -36 19t-12 30q0 34 31.5 80t74.5 79t75 33q16 0 26 -3.5t22 -9.5q18 -11 39 -11q15 0 23 7.5t8 19.5q0 18 -10 30t-27 24q18 20 42 20
q20 0 33.5 -18zM503.5 759.5q-3.5 8.5 -3.5 14.5q0 12 18.5 42.5t43 54.5t42.5 24q19 0 22 -31q-74 -64 -112 -116q-7 3 -10.5 11.5z" />
    <glyph glyph-name="uni1EE2" unicode="&#x1ee2;" horiz-adv-x="623" 
d="M673.5 729q13.5 -18 13.5 -46q0 -29 -18 -49t-47 -20q-22 0 -47 14q27 -53 27 -151q0 -171 -61 -299.5t-152 -196.5t-176 -68q-57 0 -100.5 30.5t-67.5 87t-24 130.5q0 125 63.5 256t160.5 216.5t190 85.5q38 0 60 -12h-11q-83 0 -171 -88.5t-146 -220.5t-58 -251
q0 -87 33.5 -143.5t100.5 -56.5q89 0 162.5 87.5t116 218.5t42.5 252q0 51 -11 94.5t-34 43.5t-51.5 -36.5t-52 -87.5t-31.5 -90q-24 6 -36 19t-12 30q0 34 31.5 80t74.5 79t75 33q16 0 26 -3.5t22 -9.5q18 -11 39 -11q15 0 23 7.5t8 19.5q0 18 -10 30t-27 24q18 20 42 20
q20 0 33.5 -18zM139 -249.5q-11 8.5 -11 24.5q0 21 21 35t44 14q35 0 35 -33q0 -19 -19 -34t-41 -15q-18 0 -29 8.5z" />
    <glyph glyph-name="uni1EDC" unicode="&#x1edc;" horiz-adv-x="623" 
d="M673.5 729q13.5 -18 13.5 -46q0 -29 -18 -49t-47 -20q-22 0 -47 14q27 -53 27 -151q0 -171 -61 -299.5t-152 -196.5t-176 -68q-57 0 -100.5 30.5t-67.5 87t-24 130.5q0 125 63.5 256t160.5 216.5t190 85.5q38 0 60 -12h-11q-83 0 -171 -88.5t-146 -220.5t-58 -251
q0 -87 33.5 -143.5t100.5 -56.5q89 0 162.5 87.5t116 218.5t42.5 252q0 51 -11 94.5t-34 43.5t-51.5 -36.5t-52 -87.5t-31.5 -90q-24 6 -36 19t-12 30q0 34 31.5 80t74.5 79t75 33q16 0 26 -3.5t22 -9.5q18 -11 39 -11q15 0 23 7.5t8 19.5q0 18 -10 30t-27 24q18 20 42 20
q20 0 33.5 -18zM400 864q3 31 22 31q18 0 42.5 -24t43 -54.5t18.5 -42.5q0 -6 -3.5 -14.5t-10.5 -11.5q-38 52 -112 116z" />
    <glyph glyph-name="uni1EDE" unicode="&#x1ede;" horiz-adv-x="623" 
d="M673.5 729q13.5 -18 13.5 -46q0 -29 -18 -49t-47 -20q-22 0 -47 14q27 -53 27 -151q0 -171 -61 -299.5t-152 -196.5t-176 -68q-57 0 -100.5 30.5t-67.5 87t-24 130.5q0 125 63.5 256t160.5 216.5t190 85.5q38 0 60 -12h-11q-83 0 -171 -88.5t-146 -220.5t-58 -251
q0 -87 33.5 -143.5t100.5 -56.5q89 0 162.5 87.5t116 218.5t42.5 252q0 51 -11 94.5t-34 43.5t-51.5 -36.5t-52 -87.5t-31.5 -90q-24 6 -36 19t-12 30q0 34 31.5 80t74.5 79t75 33q16 0 26 -3.5t22 -9.5q18 -11 39 -11q15 0 23 7.5t8 19.5q0 18 -10 30t-27 24q18 20 42 20
q20 0 33.5 -18zM508 761q30 2 49.5 13.5t19.5 34.5t-23 33t-70 10q0 19 13 32.5t35 13.5q34 0 56 -22t22 -55q0 -31 -19 -51t-49 -20q-21 0 -34 11z" />
    <glyph glyph-name="uni1EE0" unicode="&#x1ee0;" horiz-adv-x="623" 
d="M673.5 729q13.5 -18 13.5 -46q0 -29 -18 -49t-47 -20q-22 0 -47 14q27 -53 27 -151q0 -171 -61 -299.5t-152 -196.5t-176 -68q-57 0 -100.5 30.5t-67.5 87t-24 130.5q0 125 63.5 256t160.5 216.5t190 85.5q38 0 60 -12h-11q-83 0 -171 -88.5t-146 -220.5t-58 -251
q0 -87 33.5 -143.5t100.5 -56.5q89 0 162.5 87.5t116 218.5t42.5 252q0 51 -11 94.5t-34 43.5t-51.5 -36.5t-52 -87.5t-31.5 -90q-24 6 -36 19t-12 30q0 34 31.5 80t74.5 79t75 33q16 0 26 -3.5t22 -9.5q18 -11 39 -11q15 0 23 7.5t8 19.5q0 18 -10 30t-27 24q18 20 42 20
q20 0 33.5 -18zM563.5 766.5q-18.5 5.5 -46.5 16.5q-29 12 -50 18t-42 6q-31 0 -54 -15q36 50 87 50q18 0 37 -5.5t45 -16.5q39 -14 61 -20t47 -6q16 0 34 8q-33 -41 -82 -41q-18 0 -36.5 5.5z" />
    <glyph glyph-name="Ohungarumlaut" unicode="&#x150;" horiz-adv-x="623" 
d="M112.5 -56.5q-43.5 30.5 -67.5 87t-24 130.5q0 125 63.5 256t160.5 216.5t190 85.5q38 0 60 -12h-11q-83 0 -171 -88.5t-146 -220.5t-58 -251q0 -87 33.5 -143.5t100.5 -56.5q89 0 162.5 87.5t116 218.5t42.5 252q0 51 -11 94.5t-34 43.5t-51.5 -36.5t-52 -87.5
t-31.5 -90q-24 6 -36 19t-12 30q0 34 31.5 80t74.5 79t75 33q46 0 65.5 -59t19.5 -134q0 -171 -61 -299.5t-152 -196.5t-176 -68q-57 0 -100.5 30.5zM455 796q0 18 13 48t31.5 53t35.5 23q15 0 23 -27q-58 -71 -85 -124q-18 5 -18 27zM531 772q0 13 16 43.5t36.5 55
t36.5 24.5q9 0 15 -5t13 -14q-56 -61 -107 -128q-10 7 -10 24z" />
    <glyph glyph-name="uni020E" unicode="&#x20e;" horiz-adv-x="623" 
d="M112.5 -56.5q-43.5 30.5 -67.5 87t-24 130.5q0 125 63.5 256t160.5 216.5t190 85.5q38 0 60 -12h-11q-83 0 -171 -88.5t-146 -220.5t-58 -251q0 -87 33.5 -143.5t100.5 -56.5q89 0 162.5 87.5t116 218.5t42.5 252q0 51 -11 94.5t-34 43.5t-51.5 -36.5t-52 -87.5
t-31.5 -90q-24 6 -36 19t-12 30q0 34 31.5 80t74.5 79t75 33q46 0 65.5 -59t19.5 -134q0 -171 -61 -299.5t-152 -196.5t-176 -68q-57 0 -100.5 30.5zM590.5 793q-21.5 26 -64.5 26q-56 0 -88 -60q-10 11 -10 30q0 34 31 57t76 23q34 0 57.5 -14t35 -34t11.5 -39
q0 -36 -24 -54q-3 39 -24.5 65z" />
    <glyph glyph-name="Omacron" unicode="&#x14c;" horiz-adv-x="623" 
d="M112.5 -56.5q-43.5 30.5 -67.5 87t-24 130.5q0 125 63.5 256t160.5 216.5t190 85.5q38 0 60 -12h-11q-83 0 -171 -88.5t-146 -220.5t-58 -251q0 -87 33.5 -143.5t100.5 -56.5q89 0 162.5 87.5t116 218.5t42.5 252q0 51 -11 94.5t-34 43.5t-51.5 -36.5t-52 -87.5
t-31.5 -90q-24 6 -36 19t-12 30q0 34 31.5 80t74.5 79t75 33q46 0 65.5 -59t19.5 -134q0 -171 -61 -299.5t-152 -196.5t-176 -68q-57 0 -100.5 30.5zM557 763q-42 7 -83 16q-79 16 -101 18q10 26 46 26q82 0 241 -47q-14 -20 -38 -20q-23 0 -65 7z" />
    <glyph glyph-name="uni01EA" unicode="&#x1ea;" horiz-adv-x="623" 
d="M265 -128q0 -19 13 -31.5t36 -12.5q27 0 50 17q-1 -28 -19 -44t-47 -16q-31 0 -50 19t-19 49q0 23 11 40.5t30 27.5q-32 -8 -57 -8q-57 0 -100.5 30.5t-67.5 87t-24 130.5q0 125 63.5 256t160.5 216.5t190 85.5q38 0 60 -12h-11q-83 0 -171 -88.5t-146 -220.5t-58 -251
q0 -87 33.5 -143.5t100.5 -56.5q89 0 162.5 87.5t116 218.5t42.5 252q0 51 -11 94.5t-34 43.5t-51.5 -36.5t-52 -87.5t-31.5 -90q-24 6 -36 19t-12 30q0 34 31.5 80t74.5 79t75 33q46 0 65.5 -59t19.5 -134q0 -143 -43.5 -257t-112.5 -187t-146 -103q-35 -23 -35 -58z" />
    <glyph glyph-name="Oslash" unicode="&#xd8;" horiz-adv-x="623" 
d="M30 -99q22 15 62 60q-34 32 -52.5 83.5t-18.5 116.5q0 125 63.5 256t160.5 216.5t190 85.5q38 0 60 -12h-11q-83 0 -171 -88.5t-146 -220.5t-58 -251q0 -85 28 -135q86 107 191.5 262t221.5 334q-12 35 -31 35q-23 0 -51.5 -36.5t-52 -87.5t-31.5 -90q-24 6 -36 19
t-12 30q0 34 31.5 80t74.5 79t75 33t52 -32l4 5q7 11 30 19.5t45 8.5q11 0 16 -1l-14 -21l-56 -83q8 -40 8 -89q0 -171 -61 -299.5t-152 -196.5t-176 -68q-43 0 -81 19q-46 -33 -86 -33q-6 0 -16 2zM405.5 34.5q73.5 87.5 116 218.5t42.5 252v16q-217 -321 -325 -475
q-35 -49 -65 -78q31 -21 69 -21q89 0 162.5 87.5z" />
    <glyph glyph-name="Oslashacute" unicode="&#x1fe;" horiz-adv-x="623" 
d="M30 -99q22 15 62 60q-34 32 -52.5 83.5t-18.5 116.5q0 125 63.5 256t160.5 216.5t190 85.5q38 0 60 -12h-11q-83 0 -171 -88.5t-146 -220.5t-58 -251q0 -85 28 -135q86 107 191.5 262t221.5 334q-12 35 -31 35q-23 0 -51.5 -36.5t-52 -87.5t-31.5 -90q-24 6 -36 19
t-12 30q0 34 31.5 80t74.5 79t75 33t52 -32l4 5q7 11 30 19.5t45 8.5q11 0 16 -1l-14 -21l-56 -83q8 -40 8 -89q0 -171 -61 -299.5t-152 -196.5t-176 -68q-43 0 -81 19q-46 -33 -86 -33q-6 0 -16 2zM405.5 34.5q73.5 87.5 116 218.5t42.5 252v16q-217 -321 -325 -475
q-35 -49 -65 -78q31 -21 69 -21q89 0 162.5 87.5zM503.5 759.5q-3.5 8.5 -3.5 14.5q0 12 18.5 42.5t43 54.5t42.5 24q19 0 22 -31q-74 -64 -112 -116q-7 3 -10.5 11.5z" />
    <glyph glyph-name="Otilde" unicode="&#xd5;" horiz-adv-x="623" 
d="M112.5 -56.5q-43.5 30.5 -67.5 87t-24 130.5q0 125 63.5 256t160.5 216.5t190 85.5q38 0 60 -12h-11q-83 0 -171 -88.5t-146 -220.5t-58 -251q0 -87 33.5 -143.5t100.5 -56.5q89 0 162.5 87.5t116 218.5t42.5 252q0 51 -11 94.5t-34 43.5t-51.5 -36.5t-52 -87.5
t-31.5 -90q-24 6 -36 19t-12 30q0 34 31.5 80t74.5 79t75 33q46 0 65.5 -59t19.5 -134q0 -171 -61 -299.5t-152 -196.5t-176 -68q-57 0 -100.5 30.5zM563.5 766.5q-18.5 5.5 -46.5 16.5q-29 12 -50 18t-42 6q-31 0 -54 -15q36 50 87 50q18 0 37 -5.5t45 -16.5q39 -14 61 -20
t47 -6q16 0 34 8q-33 -41 -82 -41q-18 0 -36.5 5.5z" />
    <glyph glyph-name="uni022C" unicode="&#x22c;" horiz-adv-x="623" 
d="M112.5 -56.5q-43.5 30.5 -67.5 87t-24 130.5q0 125 63.5 256t160.5 216.5t190 85.5q38 0 60 -12h-11q-83 0 -171 -88.5t-146 -220.5t-58 -251q0 -87 33.5 -143.5t100.5 -56.5q89 0 162.5 87.5t116 218.5t42.5 252q0 51 -11 94.5t-34 43.5t-51.5 -36.5t-52 -87.5
t-31.5 -90q-24 6 -36 19t-12 30q0 34 31.5 80t74.5 79t75 33q46 0 65.5 -59t19.5 -134q0 -171 -61 -299.5t-152 -196.5t-176 -68q-57 0 -100.5 30.5zM563.5 766.5q-18.5 5.5 -46.5 16.5q-29 12 -50 18t-42 6q-31 0 -54 -15q36 50 87 50q18 0 37 -5.5t45 -16.5q39 -14 61 -20
t47 -6q16 0 34 8q-33 -41 -82 -41q-18 0 -36.5 5.5zM627 887q-42 7 -83 16q-79 16 -101 18q10 26 46 26q82 0 241 -47q-14 -20 -38 -20q-23 0 -65 7z" />
    <glyph glyph-name="OE" unicode="&#x152;" horiz-adv-x="799" 
d="M236 -87q-99 0 -157 62.5t-58 185.5q0 125 63.5 256t160.5 216.5t190 85.5q38 0 60 -12h-11q-83 0 -171 -88.5t-146 -220.5t-58 -251q0 -87 33.5 -143.5t100.5 -56.5q77 0 143.5 87.5t106.5 219t40 251.5q0 127 -30 127q-37 0 -119 -203q-24 6 -36 19t-12 30
q0 34 31.5 80t75 79t76.5 33q66 4 114 4q143 0 194 -17q-8 -21 -53.5 -28.5t-116.5 -7.5q-17 0 -43 2l-37 1q4 -11 7.5 -35t3.5 -43q0 -43 -4.5 -98t-8.5 -83q136 0 203 -10q-8 -23 -43.5 -36t-95.5 -13q-36 0 -74 2q-23 -105 -41.5 -165.5t-47.5 -108t-75 -76.5
q52 -2 167 -2l53 2q46 2 66 2q16 0 20 -1q-9 -23 -99.5 -35t-198.5 -12z" />
    <glyph glyph-name="P" unicode="P" horiz-adv-x="527" 
d="M39 -72.5q-21 14.5 -21 35.5q0 15 14 55q76 236 126 376t120 299q-55 -11 -116 -45q-20 -10 -23 -10q-7 0 -19 10t-12 17q128 55 221 55q62 0 121.5 -22.5t97.5 -66t38 -104.5q0 -94 -74 -145.5t-161 -68.5t-146 -17h-10q-5 -17 -60 -214q-35 -127 -48 -169
q-27 0 -48 14.5zM351 343q73 27 120.5 78t47.5 123q0 76 -52 115t-129 40q-61 -121 -139 -387q79 4 152 31z" />
    <glyph glyph-name="Thorn" unicode="&#xde;" horiz-adv-x="508" 
d="M52 -72.5q-21 14.5 -21 35.5q0 13 6.5 32.5l7.5 22.5q54 168 96 292t91 245q-37 -6 -64 -17t-63 -29q-17 -11 -23 -11q-7 0 -19 10t-12 17q110 47 190 53l12 30q19 52 36 80t41 28q13 0 26 -8q-28 -55 -56 -129q58 -5 110.5 -29t85.5 -65.5t33 -97.5q0 -88 -65 -138.5
t-146 -70t-150 -22.5l-30 -106q-17 -64 -38 -137q-27 0 -48 14.5zM313.5 211.5q65.5 27.5 107 76.5t41.5 116q0 74 -48.5 112.5t-121.5 41.5q-48 -131 -119 -383q75 9 140.5 36.5z" />
    <glyph glyph-name="Q" unicode="Q" horiz-adv-x="693" 
d="M439 -98q-36 21 -83 61q-52 -26 -100 -26q-42 0 -66.5 16t-34 36.5t-9.5 35.5q0 20 18.5 36t54.5 16q37 0 71 -15.5t88 -48.5q56 51 98.5 139.5t65 185.5t22.5 171q0 86 -32.5 135t-99.5 49q-91 0 -166.5 -86.5t-118.5 -215.5t-43 -247q0 -47 8 -84q-77 0 -77 139
q0 124 54.5 245.5t145.5 198.5t196 77q95 0 149 -65t54 -178q0 -83 -29.5 -176t-81 -174.5t-115.5 -130.5q39 -22 74.5 -34t73.5 -12q22 0 37 5l21 7q-24 -81 -98 -81q-41 0 -77 21zM334 -17q-38 33 -66.5 50.5t-58.5 17.5q-21 0 -29 -8t-8 -19q0 -20 19.5 -41t64.5 -21
q39 0 78 21z" />
    <glyph glyph-name="R" unicode="R" horiz-adv-x="577" 
d="M376 -54.5q-53 66.5 -105.5 160t-85.5 171.5q-23 -77 -54 -190q-17 -64 -49 -174q-26 0 -46 14.5t-20 35.5q0 15 14 55q67 208 123 358.5t130 318.5q-38 -6 -65.5 -17.5t-59.5 -28.5q-19 -11 -24 -11q-7 0 -19 10t-12 17q128 55 225 55q62 0 120 -20t95.5 -62t37.5 -105
q0 -89 -71.5 -137.5t-156 -64t-145.5 -15.5q10 -18 18.5 -33t15.5 -27q43 -77 75.5 -127t81 -105.5t116.5 -111.5q-6 -13 -21.5 -23t-29.5 -10q-35 0 -88 66.5zM351 362q71 25 117 73t46 119q0 76 -51.5 110.5t-127.5 34.5q-60 -120 -134 -367q79 5 150 30z" />
    <glyph glyph-name="Racute" unicode="&#x154;" horiz-adv-x="577" 
d="M376 -54.5q-53 66.5 -105.5 160t-85.5 171.5q-23 -77 -54 -190q-17 -64 -49 -174q-26 0 -46 14.5t-20 35.5q0 15 14 55q67 208 123 358.5t130 318.5q-38 -6 -65.5 -17.5t-59.5 -28.5q-19 -11 -24 -11q-7 0 -19 10t-12 17q128 55 225 55q62 0 120 -20t95.5 -62t37.5 -105
q0 -89 -71.5 -137.5t-156 -64t-145.5 -15.5q10 -18 18.5 -33t15.5 -27q43 -77 75.5 -127t81 -105.5t116.5 -111.5q-6 -13 -21.5 -23t-29.5 -10q-35 0 -88 66.5zM351 362q71 25 117 73t46 119q0 76 -51.5 110.5t-127.5 34.5q-60 -120 -134 -367q79 5 150 30zM441.5 759.5
q-3.5 8.5 -3.5 14.5q0 12 18.5 42.5t43 54.5t42.5 24q19 0 22 -31q-74 -64 -112 -116q-7 3 -10.5 11.5z" />
    <glyph glyph-name="Rcaron" unicode="&#x158;" horiz-adv-x="577" 
d="M376 -54.5q-53 66.5 -105.5 160t-85.5 171.5q-23 -77 -54 -190q-17 -64 -49 -174q-26 0 -46 14.5t-20 35.5q0 15 14 55q67 208 123 358.5t130 318.5q-38 -6 -65.5 -17.5t-59.5 -28.5q-19 -11 -24 -11q-7 0 -19 10t-12 17q128 55 225 55q62 0 120 -20t95.5 -62t37.5 -105
q0 -89 -71.5 -137.5t-156 -64t-145.5 -15.5q10 -18 18.5 -33t15.5 -27q43 -77 75.5 -127t81 -105.5t116.5 -111.5q-6 -13 -21.5 -23t-29.5 -10q-35 0 -88 66.5zM351 362q71 25 117 73t46 119q0 76 -51.5 110.5t-127.5 34.5q-60 -120 -134 -367q79 5 150 30zM411.5 773
q-21.5 19 -37 45t-15.5 47q0 23 17 31q13 -26 30 -46t44 -46q34 12 58 25t45 32q10 -6 10 -19q0 -18 -22 -38.5t-50 -35t-42 -14.5q-16 0 -37.5 19z" />
    <glyph glyph-name="Rcommaaccent" unicode="&#x156;" horiz-adv-x="577" 
d="M376 -54.5q-53 66.5 -105.5 160t-85.5 171.5q-23 -77 -54 -190q-17 -64 -49 -174q-26 0 -46 14.5t-20 35.5q0 15 14 55q67 208 123 358.5t130 318.5q-38 -6 -65.5 -17.5t-59.5 -28.5q-19 -11 -24 -11q-7 0 -19 10t-12 17q128 55 225 55q62 0 120 -20t95.5 -62t37.5 -105
q0 -89 -71.5 -137.5t-156 -64t-145.5 -15.5q10 -18 18.5 -33t15.5 -27q43 -77 75.5 -127t81 -105.5t116.5 -111.5q-6 -13 -21.5 -23t-29.5 -10q-35 0 -88 66.5zM351 362q71 25 117 73t46 119q0 76 -51.5 110.5t-127.5 34.5q-60 -120 -134 -367q79 5 150 30zM167 -219
q0 33 20 70t41 37q10 0 17.5 -8.5t7.5 -19.5q-21 -22 -34 -44.5t-22 -43t-13 -28.5q-17 10 -17 37z" />
    <glyph glyph-name="uni0210" unicode="&#x210;" horiz-adv-x="577" 
d="M376 -54.5q-53 66.5 -105.5 160t-85.5 171.5q-23 -77 -54 -190q-17 -64 -49 -174q-26 0 -46 14.5t-20 35.5q0 15 14 55q67 208 123 358.5t130 318.5q-38 -6 -65.5 -17.5t-59.5 -28.5q-19 -11 -24 -11q-7 0 -19 10t-12 17q128 55 225 55q62 0 120 -20t95.5 -62t37.5 -105
q0 -89 -71.5 -137.5t-156 -64t-145.5 -15.5q10 -18 18.5 -33t15.5 -27q43 -77 75.5 -127t81 -105.5t116.5 -111.5q-6 -13 -21.5 -23t-29.5 -10q-35 0 -88 66.5zM351 362q71 25 117 73t46 119q0 76 -51.5 110.5t-127.5 34.5q-60 -120 -134 -367q79 5 150 30zM422 865
q10 25 26 25t31.5 -20t25 -46t9.5 -42q0 -26 -20 -30q-32 61 -72 113zM332 871q15 17 29 17q16 0 34 -22.5t31 -51.5t13 -44t-11 -23q-45 63 -96 124z" />
    <glyph glyph-name="uni0212" unicode="&#x212;" horiz-adv-x="577" 
d="M376 -54.5q-53 66.5 -105.5 160t-85.5 171.5q-23 -77 -54 -190q-17 -64 -49 -174q-26 0 -46 14.5t-20 35.5q0 15 14 55q67 208 123 358.5t130 318.5q-38 -6 -65.5 -17.5t-59.5 -28.5q-19 -11 -24 -11q-7 0 -19 10t-12 17q128 55 225 55q62 0 120 -20t95.5 -62t37.5 -105
q0 -89 -71.5 -137.5t-156 -64t-145.5 -15.5q10 -18 18.5 -33t15.5 -27q43 -77 75.5 -127t81 -105.5t116.5 -111.5q-6 -13 -21.5 -23t-29.5 -10q-35 0 -88 66.5zM351 362q71 25 117 73t46 119q0 76 -51.5 110.5t-127.5 34.5q-60 -120 -134 -367q79 5 150 30zM528.5 793
q-21.5 26 -64.5 26q-56 0 -88 -60q-10 11 -10 30q0 34 31 57t76 23q34 0 57.5 -14t35 -34t11.5 -39q0 -36 -24 -54q-3 39 -24.5 65z" />
    <glyph glyph-name="S" unicode="S" horiz-adv-x="536" 
d="M99 -67q-48 20 -76.5 60.5t-28.5 98.5q0 71 39 102.5t89 31.5q-27 -29 -41 -64t-14 -70q0 -60 39.5 -100t113.5 -40q47 0 89.5 17t69.5 50t27 79q0 40 -20 70.5t-50 52t-80 51.5q-51 30 -81.5 52.5t-51.5 54.5t-21 74q0 58 36 120.5t101.5 104.5t147.5 42q55 0 80 -27
t25 -73q0 -50 -24 -112t-53 -108q-33 7 -33 43q0 19 7.5 43t21.5 60q15 39 22.5 63.5t7.5 43.5q0 21 -12.5 32t-43.5 11q-59 0 -109.5 -36.5t-80.5 -88.5t-30 -95q0 -32 17.5 -57t43.5 -43.5t71 -43.5q54 -31 87 -55.5t56.5 -62t23.5 -88.5q0 -66 -38.5 -114t-98.5 -73.5
t-124 -25.5q-56 0 -104 20z" />
    <glyph glyph-name="Sacute" unicode="&#x15a;" horiz-adv-x="536" 
d="M99 -67q-48 20 -76.5 60.5t-28.5 98.5q0 71 39 102.5t89 31.5q-27 -29 -41 -64t-14 -70q0 -60 39.5 -100t113.5 -40q47 0 89.5 17t69.5 50t27 79q0 40 -20 70.5t-50 52t-80 51.5q-51 30 -81.5 52.5t-51.5 54.5t-21 74q0 58 36 120.5t101.5 104.5t147.5 42q55 0 80 -27
t25 -73q0 -50 -24 -112t-53 -108q-33 7 -33 43q0 19 7.5 43t21.5 60q15 39 22.5 63.5t7.5 43.5q0 21 -12.5 32t-43.5 11q-59 0 -109.5 -36.5t-80.5 -88.5t-30 -95q0 -32 17.5 -57t43.5 -43.5t71 -43.5q54 -31 87 -55.5t56.5 -62t23.5 -88.5q0 -66 -38.5 -114t-98.5 -73.5
t-124 -25.5q-56 0 -104 20zM418.5 749.5q-3.5 8.5 -3.5 14.5q0 12 18.5 42.5t43 54.5t42.5 24q19 0 22 -31q-74 -64 -112 -116q-7 3 -10.5 11.5z" />
    <glyph glyph-name="Scaron" unicode="&#x160;" horiz-adv-x="536" 
d="M99 -67q-48 20 -76.5 60.5t-28.5 98.5q0 71 39 102.5t89 31.5q-27 -29 -41 -64t-14 -70q0 -60 39.5 -100t113.5 -40q47 0 89.5 17t69.5 50t27 79q0 40 -20 70.5t-50 52t-80 51.5q-51 30 -81.5 52.5t-51.5 54.5t-21 74q0 58 36 120.5t101.5 104.5t147.5 42q55 0 80 -27
t25 -73q0 -50 -24 -112t-53 -108q-33 7 -33 43q0 19 7.5 43t21.5 60q15 39 22.5 63.5t7.5 43.5q0 21 -12.5 32t-43.5 11q-59 0 -109.5 -36.5t-80.5 -88.5t-30 -95q0 -32 17.5 -57t43.5 -43.5t71 -43.5q54 -31 87 -55.5t56.5 -62t23.5 -88.5q0 -66 -38.5 -114t-98.5 -73.5
t-124 -25.5q-56 0 -104 20zM388.5 763q-21.5 19 -37 45t-15.5 47q0 23 17 31q13 -26 30 -46t44 -46q34 12 58 25t45 32q10 -6 10 -19q0 -18 -22 -38.5t-50 -35t-42 -14.5q-16 0 -37.5 19z" />
    <glyph glyph-name="Scedilla" unicode="&#x15e;" horiz-adv-x="536" 
d="M182.5 419q17.5 -25 43.5 -43.5t71 -43.5q54 -31 87 -55.5t56.5 -62t23.5 -88.5q0 -66 -38.5 -114t-98.5 -73.5t-124 -25.5h-2l-44 -67q15 11 30.5 17.5t36.5 6.5q45 0 45 -42q0 -28 -16.5 -54t-43.5 -42t-57 -16q-28 0 -44.5 10.5t-16.5 25.5q0 17 22 33q5 -23 16.5 -34
t25.5 -11q18 0 37.5 14t32.5 35t13 38q0 9 -4 17t-13 8q-11 0 -24 -7t-34 -20q-4 -2 -13.5 -8t-13.5 -6q-6 0 -10 6t-4 12q0 3 22.5 34t39.5 51q-81 5 -135.5 51t-54.5 127q0 71 39 102.5t89 31.5q-27 -29 -41 -64t-14 -70q0 -60 39.5 -100t113.5 -40q47 0 89.5 17t69.5 50
t27 79q0 40 -20 70.5t-50 52t-80 51.5q-51 30 -81.5 52.5t-51.5 54.5t-21 74q0 58 36 120.5t101.5 104.5t147.5 42q55 0 80 -27t25 -73q0 -50 -24 -112t-53 -108q-33 7 -33 43q0 19 7.5 43t21.5 60q15 39 22.5 63.5t7.5 43.5q0 21 -12.5 32t-43.5 11q-59 0 -109.5 -36.5
t-80.5 -88.5t-30 -95q0 -32 17.5 -57z" />
    <glyph glyph-name="Scircumflex" unicode="&#x15c;" horiz-adv-x="536" 
d="M99 -67q-48 20 -76.5 60.5t-28.5 98.5q0 71 39 102.5t89 31.5q-27 -29 -41 -64t-14 -70q0 -60 39.5 -100t113.5 -40q47 0 89.5 17t69.5 50t27 79q0 40 -20 70.5t-50 52t-80 51.5q-51 30 -81.5 52.5t-51.5 54.5t-21 74q0 58 36 120.5t101.5 104.5t147.5 42q55 0 80 -27
t25 -73q0 -50 -24 -112t-53 -108q-33 7 -33 43q0 19 7.5 43t21.5 60q15 39 22.5 63.5t7.5 43.5q0 21 -12.5 32t-43.5 11q-59 0 -109.5 -36.5t-80.5 -88.5t-30 -95q0 -32 17.5 -57t43.5 -43.5t71 -43.5q54 -31 87 -55.5t56.5 -62t23.5 -88.5q0 -66 -38.5 -114t-98.5 -73.5
t-124 -25.5q-56 0 -104 20zM491 780q-17 20 -44 46q-34 -12 -58 -25t-45 -32q-10 6 -10 19q0 18 22 38.5t50 35t42 14.5q16 0 37.5 -19t37 -45t15.5 -47q0 -22 -17 -31q-13 26 -30 46z" />
    <glyph glyph-name="Scommaaccent" unicode="&#x218;" horiz-adv-x="536" 
d="M99 -67q-48 20 -76.5 60.5t-28.5 98.5q0 71 39 102.5t89 31.5q-27 -29 -41 -64t-14 -70q0 -60 39.5 -100t113.5 -40q47 0 89.5 17t69.5 50t27 79q0 40 -20 70.5t-50 52t-80 51.5q-51 30 -81.5 52.5t-51.5 54.5t-21 74q0 58 36 120.5t101.5 104.5t147.5 42q55 0 80 -27
t25 -73q0 -50 -24 -112t-53 -108q-33 7 -33 43q0 19 7.5 43t21.5 60q15 39 22.5 63.5t7.5 43.5q0 21 -12.5 32t-43.5 11q-59 0 -109.5 -36.5t-80.5 -88.5t-30 -95q0 -32 17.5 -57t43.5 -43.5t71 -43.5q54 -31 87 -55.5t56.5 -62t23.5 -88.5q0 -66 -38.5 -114t-98.5 -73.5
t-124 -25.5q-56 0 -104 20zM143 -236q0 33 20 70t41 37q10 0 17.5 -8.5t7.5 -19.5q-21 -22 -34 -44.5t-22 -43t-13 -28.5q-17 10 -17 37z" />
    <glyph glyph-name="uni1E9E" unicode="&#x1e9e;" horiz-adv-x="609" 
d="M46.5 -68q-27.5 19 -27.5 61q0 3 5 3q4 0 24 -5t70 -5q111 0 202.5 33.5t143.5 88.5t52 115q0 72 -51 99t-131 27q-32 0 -32 20q0 11 14 23q55 45 101 93t77 92q26 37 26 64q0 24 -31.5 38t-75.5 14q-58 0 -92 -24t-58 -92q-35 -98 -72 -223l-44 -158l-48 -170
q-25 0 -42 14t-17 34q0 13 6 32t8 25q17 56 60.5 182.5t87.5 237.5q38 96 91 132.5t132 36.5q66 0 105.5 -23.5t39.5 -65.5q0 -36 -34 -79q-79 -98 -201 -186q228 -9 228 -161q0 -90 -73 -156.5t-175.5 -101t-184.5 -34.5q-56 0 -83.5 19z" />
    <glyph glyph-name="uni018F" unicode="&#x18f;" horiz-adv-x="593" 
d="M495 685.5q47 -34.5 69.5 -90t22.5 -120.5q0 -128 -63 -259.5t-159 -217t-189 -85.5q-63 0 -97.5 37t-34.5 97q0 87 63.5 166.5t169 136.5t226.5 80q4 29 4 62q0 86 -31 139.5t-99 53.5q-60 0 -110.5 -34.5t-85.5 -92t-49 -125.5q-22 0 -36.5 9.5t-14.5 30.5
q0 46 39.5 105t107.5 100.5t149 41.5q71 0 118 -34.5zM305 13q68 70 121.5 178t72.5 213q-165 -68 -270 -170t-105 -217q0 -35 14 -54.5t39 -19.5q60 0 128 70z" />
    <glyph glyph-name="T" unicode="T" horiz-adv-x="490" 
d="M126 -68.5q-18 18.5 -18 52.5q0 26 9.5 60.5t27.5 85.5q42 121 99 270t105 252q-108 -2 -162 -5.5t-118 -14.5q4 47 68 67.5t176 20.5q81 0 193 -12q33 -4 67 -7t62 -3q-32 -28 -73 -37.5t-98 -9.5l-71 1q-82 -205 -157 -477l-9 -33q-23 -84 -32 -125.5t-9 -81.5
q0 -15 1 -22q-43 0 -61 18.5z" />
    <glyph glyph-name="Tbar" unicode="&#x166;" horiz-adv-x="491" 
d="M314 433q111 0 192 -11q-6 -24 -51.5 -32t-157.5 -9q-36 -113 -61 -206l-9 -33q-23 -84 -32 -125.5t-9 -81.5q0 -15 1 -22q-43 0 -61 18.5t-18 52.5q0 26 9.5 60.5t27.5 85.5q39 115 91 251q-65 0 -105 -4.5t-72 -14.5q2 32 54.5 49t142.5 21q48 122 93 220
q-108 -2 -162 -5.5t-118 -14.5q4 47 68 67.5t176 20.5q81 0 193 -12q33 -4 67 -7t62 -3q-32 -28 -73 -37.5t-98 -9.5l-71 1q-37 -92 -79 -219z" />
    <glyph glyph-name="Tcaron" unicode="&#x164;" horiz-adv-x="490" 
d="M126 -68.5q-18 18.5 -18 52.5q0 26 9.5 60.5t27.5 85.5q42 121 99 270t105 252q-108 -2 -162 -5.5t-118 -14.5q4 47 68 67.5t176 20.5q81 0 193 -12q33 -4 67 -7t62 -3q-32 -28 -73 -37.5t-98 -9.5l-71 1q-82 -205 -157 -477l-9 -33q-23 -84 -32 -125.5t-9 -81.5
q0 -15 1 -22q-43 0 -61 18.5zM373.5 773q-21.5 19 -37 45t-15.5 47q0 23 17 31q13 -26 30 -46t44 -46q34 12 58 25t45 32q10 -6 10 -19q0 -18 -22 -38.5t-50 -35t-42 -14.5q-16 0 -37.5 19z" />
    <glyph glyph-name="uni0162" unicode="&#x162;" horiz-adv-x="490" 
d="M506 708q33 -4 67 -7t62 -3q-32 -28 -73 -37.5t-98 -9.5l-71 1q-82 -205 -157 -477l-9 -33q-23 -84 -32 -125.5t-9 -81.5q0 -15 1 -22q-25 0 -40 6l-48 -73q15 11 30.5 17.5t36.5 6.5q45 0 45 -42q0 -28 -16.5 -54t-43.5 -42t-57 -16q-28 0 -44.5 10.5t-16.5 25.5
q0 17 22 33q5 -23 16.5 -34t25.5 -11q18 0 37.5 14t32.5 35t13 38q0 9 -4 17t-13 8q-11 0 -24 -7t-34 -20q-4 -2 -13.5 -8t-13.5 -6q-6 0 -10 6t-4 12q0 4 28 41.5t44 53.5q-28 17 -28 60q0 26 9.5 60.5t27.5 85.5q42 121 99 270t105 252q-108 -2 -162 -5.5t-118 -14.5
q4 47 68 67.5t176 20.5q81 0 193 -12z" />
    <glyph glyph-name="uni021A" unicode="&#x21a;" horiz-adv-x="490" 
d="M126 -68.5q-18 18.5 -18 52.5q0 26 9.5 60.5t27.5 85.5q42 121 99 270t105 252q-108 -2 -162 -5.5t-118 -14.5q4 47 68 67.5t176 20.5q81 0 193 -12q33 -4 67 -7t62 -3q-32 -28 -73 -37.5t-98 -9.5l-71 1q-82 -205 -157 -477l-9 -33q-23 -84 -32 -125.5t-9 -81.5
q0 -15 1 -22q-43 0 -61 18.5zM85 -236q0 33 20 70t41 37q10 0 17.5 -8.5t7.5 -19.5q-21 -22 -34 -44.5t-22 -43t-13 -28.5q-17 10 -17 37z" />
    <glyph glyph-name="U" unicode="U" horiz-adv-x="706" 
d="M482.5 -68q-22.5 31 -22.5 75q0 31 9 91q-85 -185 -216 -185q-62 0 -96 38t-34 98q0 41 14.5 99.5t44.5 158.5q33 111 49.5 178t16.5 119q0 88 -56 88q-34 0 -58 -28t-36 -68.5t-12 -76.5q0 -30 8 -49q-36 0 -52.5 19t-16.5 50q0 42 26.5 84t70.5 69.5t94 27.5
q53 0 78 -32t25 -89q0 -50 -15.5 -111t-47.5 -163q-30 -97 -45 -155.5t-15 -104.5q0 -50 20.5 -81t63.5 -31q51 0 93 42.5t70.5 104.5t43.5 124q54 222 96.5 359t77.5 137q8 0 22 -8.5t28 -23.5q-18 -12 -64 -138.5t-83 -273.5t-37 -234q0 -67 18 -92t62 -25
q-35 -24 -66 -24q-36 0 -58.5 31z" />
    <glyph glyph-name="Uacute" unicode="&#xda;" horiz-adv-x="706" 
d="M482.5 -68q-22.5 31 -22.5 75q0 31 9 91q-85 -185 -216 -185q-62 0 -96 38t-34 98q0 41 14.5 99.5t44.5 158.5q33 111 49.5 178t16.5 119q0 88 -56 88q-34 0 -58 -28t-36 -68.5t-12 -76.5q0 -30 8 -49q-36 0 -52.5 19t-16.5 50q0 42 26.5 84t70.5 69.5t94 27.5
q53 0 78 -32t25 -89q0 -50 -15.5 -111t-47.5 -163q-30 -97 -45 -155.5t-15 -104.5q0 -50 20.5 -81t63.5 -31q51 0 93 42.5t70.5 104.5t43.5 124q54 222 96.5 359t77.5 137q8 0 22 -8.5t28 -23.5q-18 -12 -64 -138.5t-83 -273.5t-37 -234q0 -67 18 -92t62 -25
q-35 -24 -66 -24q-36 0 -58.5 31zM468.5 759.5q-3.5 8.5 -3.5 14.5q0 12 18.5 42.5t43 54.5t42.5 24q19 0 22 -31q-74 -64 -112 -116q-7 3 -10.5 11.5z" />
    <glyph glyph-name="Ubreve" unicode="&#x16c;" horiz-adv-x="706" 
d="M482.5 -68q-22.5 31 -22.5 75q0 31 9 91q-85 -185 -216 -185q-62 0 -96 38t-34 98q0 41 14.5 99.5t44.5 158.5q33 111 49.5 178t16.5 119q0 88 -56 88q-34 0 -58 -28t-36 -68.5t-12 -76.5q0 -30 8 -49q-36 0 -52.5 19t-16.5 50q0 42 26.5 84t70.5 69.5t94 27.5
q53 0 78 -32t25 -89q0 -50 -15.5 -111t-47.5 -163q-30 -97 -45 -155.5t-15 -104.5q0 -50 20.5 -81t63.5 -31q51 0 93 42.5t70.5 104.5t43.5 124q54 222 96.5 359t77.5 137q8 0 22 -8.5t28 -23.5q-18 -12 -64 -138.5t-83 -273.5t-37 -234q0 -67 18 -92t62 -25
q-35 -24 -66 -24q-36 0 -58.5 31zM450.5 772.5q-23.5 14.5 -34 36t-10.5 41.5q0 33 24 49q3 -38 23 -64.5t58 -26.5q62 0 96 60q10 -10 10 -30q0 -33 -32.5 -56.5t-75.5 -23.5q-35 0 -58.5 14.5z" />
    <glyph glyph-name="Ucircumflex" unicode="&#xdb;" horiz-adv-x="706" 
d="M482.5 -68q-22.5 31 -22.5 75q0 31 9 91q-85 -185 -216 -185q-62 0 -96 38t-34 98q0 41 14.5 99.5t44.5 158.5q33 111 49.5 178t16.5 119q0 88 -56 88q-34 0 -58 -28t-36 -68.5t-12 -76.5q0 -30 8 -49q-36 0 -52.5 19t-16.5 50q0 42 26.5 84t70.5 69.5t94 27.5
q53 0 78 -32t25 -89q0 -50 -15.5 -111t-47.5 -163q-30 -97 -45 -155.5t-15 -104.5q0 -50 20.5 -81t63.5 -31q51 0 93 42.5t70.5 104.5t43.5 124q54 222 96.5 359t77.5 137q8 0 22 -8.5t28 -23.5q-18 -12 -64 -138.5t-83 -273.5t-37 -234q0 -67 18 -92t62 -25
q-35 -24 -66 -24q-36 0 -58.5 31zM541 790q-17 20 -44 46q-34 -12 -58 -25t-45 -32q-10 6 -10 19q0 18 22 38.5t50 35t42 14.5q16 0 37.5 -19t37 -45t15.5 -47q0 -22 -17 -31q-13 26 -30 46z" />
    <glyph glyph-name="uni0214" unicode="&#x214;" horiz-adv-x="706" 
d="M482.5 -68q-22.5 31 -22.5 75q0 31 9 91q-85 -185 -216 -185q-62 0 -96 38t-34 98q0 41 14.5 99.5t44.5 158.5q33 111 49.5 178t16.5 119q0 88 -56 88q-34 0 -58 -28t-36 -68.5t-12 -76.5q0 -30 8 -49q-36 0 -52.5 19t-16.5 50q0 42 26.5 84t70.5 69.5t94 27.5
q53 0 78 -32t25 -89q0 -50 -15.5 -111t-47.5 -163q-30 -97 -45 -155.5t-15 -104.5q0 -50 20.5 -81t63.5 -31q51 0 93 42.5t70.5 104.5t43.5 124q54 222 96.5 359t77.5 137q8 0 22 -8.5t28 -23.5q-18 -12 -64 -138.5t-83 -273.5t-37 -234q0 -67 18 -92t62 -25
q-35 -24 -66 -24q-36 0 -58.5 31zM449 865q10 25 26 25t31.5 -20t25 -46t9.5 -42q0 -26 -20 -30q-32 61 -72 113zM359 871q15 17 29 17q16 0 34 -22.5t31 -51.5t13 -44t-11 -23q-45 63 -96 124z" />
    <glyph glyph-name="Udieresis" unicode="&#xdc;" horiz-adv-x="706" 
d="M482.5 -68q-22.5 31 -22.5 75q0 31 9 91q-85 -185 -216 -185q-62 0 -96 38t-34 98q0 41 14.5 99.5t44.5 158.5q33 111 49.5 178t16.5 119q0 88 -56 88q-34 0 -58 -28t-36 -68.5t-12 -76.5q0 -30 8 -49q-36 0 -52.5 19t-16.5 50q0 42 26.5 84t70.5 69.5t94 27.5
q53 0 78 -32t25 -89q0 -50 -15.5 -111t-47.5 -163q-30 -97 -45 -155.5t-15 -104.5q0 -50 20.5 -81t63.5 -31q51 0 93 42.5t70.5 104.5t43.5 124q54 222 96.5 359t77.5 137q8 0 22 -8.5t28 -23.5q-18 -12 -64 -138.5t-83 -273.5t-37 -234q0 -67 18 -92t62 -25
q-35 -24 -66 -24q-36 0 -58.5 31zM382.5 781.5q-10.5 7.5 -10.5 22.5q0 18 21.5 32.5t44.5 14.5q30 0 30 -28q0 -17 -18.5 -33t-40.5 -16q-16 0 -26.5 7.5zM526.5 760.5q-10.5 7.5 -10.5 22.5q0 18 21.5 32.5t44.5 14.5q30 0 30 -28q0 -17 -18.5 -33t-40.5 -16
q-16 0 -26.5 7.5z" />
    <glyph glyph-name="uni1EE4" unicode="&#x1ee4;" horiz-adv-x="706" 
d="M482.5 -68q-22.5 31 -22.5 75q0 31 9 91q-85 -185 -216 -185q-62 0 -96 38t-34 98q0 41 14.5 99.5t44.5 158.5q33 111 49.5 178t16.5 119q0 88 -56 88q-34 0 -58 -28t-36 -68.5t-12 -76.5q0 -30 8 -49q-36 0 -52.5 19t-16.5 50q0 42 26.5 84t70.5 69.5t94 27.5
q53 0 78 -32t25 -89q0 -50 -15.5 -111t-47.5 -163q-30 -97 -45 -155.5t-15 -104.5q0 -50 20.5 -81t63.5 -31q51 0 93 42.5t70.5 104.5t43.5 124q54 222 96.5 359t77.5 137q8 0 22 -8.5t28 -23.5q-18 -12 -64 -138.5t-83 -273.5t-37 -234q0 -67 18 -92t62 -25
q-35 -24 -66 -24q-36 0 -58.5 31zM199 -243.5q-11 8.5 -11 24.5q0 21 21 35t44 14q35 0 35 -33q0 -19 -19 -34t-41 -15q-18 0 -29 8.5z" />
    <glyph glyph-name="Ugrave" unicode="&#xd9;" horiz-adv-x="706" 
d="M482.5 -68q-22.5 31 -22.5 75q0 31 9 91q-85 -185 -216 -185q-62 0 -96 38t-34 98q0 41 14.5 99.5t44.5 158.5q33 111 49.5 178t16.5 119q0 88 -56 88q-34 0 -58 -28t-36 -68.5t-12 -76.5q0 -30 8 -49q-36 0 -52.5 19t-16.5 50q0 42 26.5 84t70.5 69.5t94 27.5
q53 0 78 -32t25 -89q0 -50 -15.5 -111t-47.5 -163q-30 -97 -45 -155.5t-15 -104.5q0 -50 20.5 -81t63.5 -31q51 0 93 42.5t70.5 104.5t43.5 124q54 222 96.5 359t77.5 137q8 0 22 -8.5t28 -23.5q-18 -12 -64 -138.5t-83 -273.5t-37 -234q0 -67 18 -92t62 -25
q-35 -24 -66 -24q-36 0 -58.5 31zM365 864q3 31 22 31q18 0 42.5 -24t43 -54.5t18.5 -42.5q0 -6 -3.5 -14.5t-10.5 -11.5q-38 52 -112 116z" />
    <glyph glyph-name="uni1EE6" unicode="&#x1ee6;" horiz-adv-x="706" 
d="M482.5 -68q-22.5 31 -22.5 75q0 31 9 91q-85 -185 -216 -185q-62 0 -96 38t-34 98q0 41 14.5 99.5t44.5 158.5q33 111 49.5 178t16.5 119q0 88 -56 88q-34 0 -58 -28t-36 -68.5t-12 -76.5q0 -30 8 -49q-36 0 -52.5 19t-16.5 50q0 42 26.5 84t70.5 69.5t94 27.5
q53 0 78 -32t25 -89q0 -50 -15.5 -111t-47.5 -163q-30 -97 -45 -155.5t-15 -104.5q0 -50 20.5 -81t63.5 -31q51 0 93 42.5t70.5 104.5t43.5 124q54 222 96.5 359t77.5 137q8 0 22 -8.5t28 -23.5q-18 -12 -64 -138.5t-83 -273.5t-37 -234q0 -67 18 -92t62 -25
q-35 -24 -66 -24q-36 0 -58.5 31zM473 761q30 2 49.5 13.5t19.5 34.5t-23 33t-70 10q0 19 13 32.5t35 13.5q34 0 56 -22t22 -55q0 -31 -19 -51t-49 -20q-21 0 -34 11z" />
    <glyph glyph-name="Uhorn" unicode="&#x1af;" horiz-adv-x="706" 
d="M808.5 773q13.5 -18 13.5 -46q0 -29 -18 -49t-47 -20q-25 0 -55 19q-24 -39 -67 -162.5t-75.5 -257.5t-32.5 -215q0 -67 18 -92t62 -25q-35 -24 -66 -24q-36 0 -58.5 31t-22.5 75q0 31 9 91q-85 -185 -216 -185q-62 0 -96 38t-34 98q0 41 14.5 99.5t44.5 158.5
q33 111 49.5 178t16.5 119q0 88 -56 88q-34 0 -58 -28t-36 -68.5t-12 -76.5q0 -30 8 -49q-36 0 -52.5 19t-16.5 50q0 42 26.5 84t70.5 69.5t94 27.5q53 0 78 -32t25 -89q0 -50 -15.5 -111t-47.5 -163q-30 -97 -45 -155.5t-15 -104.5q0 -50 20.5 -81t63.5 -31q51 0 93 42.5
t70.5 104.5t43.5 124q54 222 96.5 359t77.5 137q11 0 30 -14q4 -2 12 -6.5t16.5 -7t19.5 -2.5q15 0 23 7.5t8 19.5q0 18 -10 30t-27 24q18 20 42 20q20 0 33.5 -18z" />
    <glyph glyph-name="uni1EE8" unicode="&#x1ee8;" horiz-adv-x="706" 
d="M808.5 773q13.5 -18 13.5 -46q0 -29 -18 -49t-47 -20q-25 0 -55 19q-24 -39 -67 -162.5t-75.5 -257.5t-32.5 -215q0 -67 18 -92t62 -25q-35 -24 -66 -24q-36 0 -58.5 31t-22.5 75q0 31 9 91q-85 -185 -216 -185q-62 0 -96 38t-34 98q0 41 14.5 99.5t44.5 158.5
q33 111 49.5 178t16.5 119q0 88 -56 88q-34 0 -58 -28t-36 -68.5t-12 -76.5q0 -30 8 -49q-36 0 -52.5 19t-16.5 50q0 42 26.5 84t70.5 69.5t94 27.5q53 0 78 -32t25 -89q0 -50 -15.5 -111t-47.5 -163q-30 -97 -45 -155.5t-15 -104.5q0 -50 20.5 -81t63.5 -31q51 0 93 42.5
t70.5 104.5t43.5 124q54 222 96.5 359t77.5 137q11 0 30 -14q4 -2 12 -6.5t16.5 -7t19.5 -2.5q15 0 23 7.5t8 19.5q0 18 -10 30t-27 24q18 20 42 20q20 0 33.5 -18zM468.5 759.5q-3.5 8.5 -3.5 14.5q0 12 18.5 42.5t43 54.5t42.5 24q19 0 22 -31q-74 -64 -112 -116
q-7 3 -10.5 11.5z" />
    <glyph glyph-name="uni1EF0" unicode="&#x1ef0;" horiz-adv-x="706" 
d="M808.5 773q13.5 -18 13.5 -46q0 -29 -18 -49t-47 -20q-25 0 -55 19q-24 -39 -67 -162.5t-75.5 -257.5t-32.5 -215q0 -67 18 -92t62 -25q-35 -24 -66 -24q-36 0 -58.5 31t-22.5 75q0 31 9 91q-85 -185 -216 -185q-62 0 -96 38t-34 98q0 41 14.5 99.5t44.5 158.5
q33 111 49.5 178t16.5 119q0 88 -56 88q-34 0 -58 -28t-36 -68.5t-12 -76.5q0 -30 8 -49q-36 0 -52.5 19t-16.5 50q0 42 26.5 84t70.5 69.5t94 27.5q53 0 78 -32t25 -89q0 -50 -15.5 -111t-47.5 -163q-30 -97 -45 -155.5t-15 -104.5q0 -50 20.5 -81t63.5 -31q51 0 93 42.5
t70.5 104.5t43.5 124q54 222 96.5 359t77.5 137q11 0 30 -14q4 -2 12 -6.5t16.5 -7t19.5 -2.5q15 0 23 7.5t8 19.5q0 18 -10 30t-27 24q18 20 42 20q20 0 33.5 -18zM199 -243.5q-11 8.5 -11 24.5q0 21 21 35t44 14q35 0 35 -33q0 -19 -19 -34t-41 -15q-18 0 -29 8.5z" />
    <glyph glyph-name="uni1EEA" unicode="&#x1eea;" horiz-adv-x="706" 
d="M808.5 773q13.5 -18 13.5 -46q0 -29 -18 -49t-47 -20q-25 0 -55 19q-24 -39 -67 -162.5t-75.5 -257.5t-32.5 -215q0 -67 18 -92t62 -25q-35 -24 -66 -24q-36 0 -58.5 31t-22.5 75q0 31 9 91q-85 -185 -216 -185q-62 0 -96 38t-34 98q0 41 14.5 99.5t44.5 158.5
q33 111 49.5 178t16.5 119q0 88 -56 88q-34 0 -58 -28t-36 -68.5t-12 -76.5q0 -30 8 -49q-36 0 -52.5 19t-16.5 50q0 42 26.5 84t70.5 69.5t94 27.5q53 0 78 -32t25 -89q0 -50 -15.5 -111t-47.5 -163q-30 -97 -45 -155.5t-15 -104.5q0 -50 20.5 -81t63.5 -31q51 0 93 42.5
t70.5 104.5t43.5 124q54 222 96.5 359t77.5 137q11 0 30 -14q4 -2 12 -6.5t16.5 -7t19.5 -2.5q15 0 23 7.5t8 19.5q0 18 -10 30t-27 24q18 20 42 20q20 0 33.5 -18zM365 864q3 31 22 31q18 0 42.5 -24t43 -54.5t18.5 -42.5q0 -6 -3.5 -14.5t-10.5 -11.5q-38 52 -112 116z
" />
    <glyph glyph-name="uni1EEC" unicode="&#x1eec;" horiz-adv-x="706" 
d="M808.5 773q13.5 -18 13.5 -46q0 -29 -18 -49t-47 -20q-25 0 -55 19q-24 -39 -67 -162.5t-75.5 -257.5t-32.5 -215q0 -67 18 -92t62 -25q-35 -24 -66 -24q-36 0 -58.5 31t-22.5 75q0 31 9 91q-85 -185 -216 -185q-62 0 -96 38t-34 98q0 41 14.5 99.5t44.5 158.5
q33 111 49.5 178t16.5 119q0 88 -56 88q-34 0 -58 -28t-36 -68.5t-12 -76.5q0 -30 8 -49q-36 0 -52.5 19t-16.5 50q0 42 26.5 84t70.5 69.5t94 27.5q53 0 78 -32t25 -89q0 -50 -15.5 -111t-47.5 -163q-30 -97 -45 -155.5t-15 -104.5q0 -50 20.5 -81t63.5 -31q51 0 93 42.5
t70.5 104.5t43.5 124q54 222 96.5 359t77.5 137q11 0 30 -14q4 -2 12 -6.5t16.5 -7t19.5 -2.5q15 0 23 7.5t8 19.5q0 18 -10 30t-27 24q18 20 42 20q20 0 33.5 -18zM473 761q30 2 49.5 13.5t19.5 34.5t-23 33t-70 10q0 19 13 32.5t35 13.5q34 0 56 -22t22 -55q0 -31 -19 -51
t-49 -20q-21 0 -34 11z" />
    <glyph glyph-name="uni1EEE" unicode="&#x1eee;" horiz-adv-x="706" 
d="M808.5 773q13.5 -18 13.5 -46q0 -29 -18 -49t-47 -20q-25 0 -55 19q-24 -39 -67 -162.5t-75.5 -257.5t-32.5 -215q0 -67 18 -92t62 -25q-35 -24 -66 -24q-36 0 -58.5 31t-22.5 75q0 31 9 91q-85 -185 -216 -185q-62 0 -96 38t-34 98q0 41 14.5 99.5t44.5 158.5
q33 111 49.5 178t16.5 119q0 88 -56 88q-34 0 -58 -28t-36 -68.5t-12 -76.5q0 -30 8 -49q-36 0 -52.5 19t-16.5 50q0 42 26.5 84t70.5 69.5t94 27.5q53 0 78 -32t25 -89q0 -50 -15.5 -111t-47.5 -163q-30 -97 -45 -155.5t-15 -104.5q0 -50 20.5 -81t63.5 -31q51 0 93 42.5
t70.5 104.5t43.5 124q54 222 96.5 359t77.5 137q11 0 30 -14q4 -2 12 -6.5t16.5 -7t19.5 -2.5q15 0 23 7.5t8 19.5q0 18 -10 30t-27 24q18 20 42 20q20 0 33.5 -18zM528.5 766.5q-18.5 5.5 -46.5 16.5q-29 12 -50 18t-42 6q-31 0 -54 -15q36 50 87 50q18 0 37 -5.5t45 -16.5
q39 -14 61 -20t47 -6q16 0 34 8q-33 -41 -82 -41q-18 0 -36.5 5.5z" />
    <glyph glyph-name="Uhungarumlaut" unicode="&#x170;" horiz-adv-x="706" 
d="M482.5 -68q-22.5 31 -22.5 75q0 31 9 91q-85 -185 -216 -185q-62 0 -96 38t-34 98q0 41 14.5 99.5t44.5 158.5q33 111 49.5 178t16.5 119q0 88 -56 88q-34 0 -58 -28t-36 -68.5t-12 -76.5q0 -30 8 -49q-36 0 -52.5 19t-16.5 50q0 42 26.5 84t70.5 69.5t94 27.5
q53 0 78 -32t25 -89q0 -50 -15.5 -111t-47.5 -163q-30 -97 -45 -155.5t-15 -104.5q0 -50 20.5 -81t63.5 -31q51 0 93 42.5t70.5 104.5t43.5 124q54 222 96.5 359t77.5 137q8 0 22 -8.5t28 -23.5q-18 -12 -64 -138.5t-83 -273.5t-37 -234q0 -67 18 -92t62 -25
q-35 -24 -66 -24q-36 0 -58.5 31zM420 796q0 18 13 48t31.5 53t35.5 23q15 0 23 -27q-58 -71 -85 -124q-18 5 -18 27zM496 772q0 13 16 43.5t36.5 55t36.5 24.5q9 0 15 -5t13 -14q-56 -61 -107 -128q-10 7 -10 24z" />
    <glyph glyph-name="uni0216" unicode="&#x216;" horiz-adv-x="706" 
d="M482.5 -68q-22.5 31 -22.5 75q0 31 9 91q-85 -185 -216 -185q-62 0 -96 38t-34 98q0 41 14.5 99.5t44.5 158.5q33 111 49.5 178t16.5 119q0 88 -56 88q-34 0 -58 -28t-36 -68.5t-12 -76.5q0 -30 8 -49q-36 0 -52.5 19t-16.5 50q0 42 26.5 84t70.5 69.5t94 27.5
q53 0 78 -32t25 -89q0 -50 -15.5 -111t-47.5 -163q-30 -97 -45 -155.5t-15 -104.5q0 -50 20.5 -81t63.5 -31q51 0 93 42.5t70.5 104.5t43.5 124q54 222 96.5 359t77.5 137q8 0 22 -8.5t28 -23.5q-18 -12 -64 -138.5t-83 -273.5t-37 -234q0 -67 18 -92t62 -25
q-35 -24 -66 -24q-36 0 -58.5 31zM555.5 793q-21.5 26 -64.5 26q-56 0 -88 -60q-10 11 -10 30q0 34 31 57t76 23q34 0 57.5 -14t35 -34t11.5 -39q0 -36 -24 -54q-3 39 -24.5 65z" />
    <glyph glyph-name="Umacron" unicode="&#x16a;" horiz-adv-x="706" 
d="M482.5 -68q-22.5 31 -22.5 75q0 31 9 91q-85 -185 -216 -185q-62 0 -96 38t-34 98q0 41 14.5 99.5t44.5 158.5q33 111 49.5 178t16.5 119q0 88 -56 88q-34 0 -58 -28t-36 -68.5t-12 -76.5q0 -30 8 -49q-36 0 -52.5 19t-16.5 50q0 42 26.5 84t70.5 69.5t94 27.5
q53 0 78 -32t25 -89q0 -50 -15.5 -111t-47.5 -163q-30 -97 -45 -155.5t-15 -104.5q0 -50 20.5 -81t63.5 -31q51 0 93 42.5t70.5 104.5t43.5 124q54 222 96.5 359t77.5 137q8 0 22 -8.5t28 -23.5q-18 -12 -64 -138.5t-83 -273.5t-37 -234q0 -67 18 -92t62 -25
q-35 -24 -66 -24q-36 0 -58.5 31zM522 763q-42 7 -83 16q-79 16 -101 18q10 26 46 26q82 0 241 -47q-14 -20 -38 -20q-23 0 -65 7z" />
    <glyph glyph-name="Uogonek" unicode="&#x172;" horiz-adv-x="706" 
d="M647 549.5q-46 -126.5 -83 -273.5t-37 -234q0 -67 18 -92t62 -25q-35 -24 -66 -24q-36 0 -58.5 31t-22.5 75q0 31 9 91q-53 -115 -123 -158q-30 -23 -30 -55q0 -19 13 -31.5t36 -12.5q27 0 50 17q-1 -28 -19 -44t-47 -16q-31 0 -50 19t-19 49q0 32 22 54q-21 -7 -49 -7
q-62 0 -96 38t-34 98q0 41 14.5 99.5t44.5 158.5q33 111 49.5 178t16.5 119q0 88 -56 88q-34 0 -58 -28t-36 -68.5t-12 -76.5q0 -30 8 -49q-36 0 -52.5 19t-16.5 50q0 42 26.5 84t70.5 69.5t94 27.5q53 0 78 -32t25 -89q0 -50 -15.5 -111t-47.5 -163q-30 -97 -45 -155.5
t-15 -104.5q0 -50 20.5 -81t63.5 -31q51 0 93 42.5t70.5 104.5t43.5 124q54 222 96.5 359t77.5 137q8 0 22 -8.5t28 -23.5q-18 -12 -64 -138.5z" />
    <glyph glyph-name="Uring" unicode="&#x16e;" horiz-adv-x="706" 
d="M482.5 -68q-22.5 31 -22.5 75q0 31 9 91q-85 -185 -216 -185q-62 0 -96 38t-34 98q0 41 14.5 99.5t44.5 158.5q33 111 49.5 178t16.5 119q0 88 -56 88q-34 0 -58 -28t-36 -68.5t-12 -76.5q0 -30 8 -49q-36 0 -52.5 19t-16.5 50q0 42 26.5 84t70.5 69.5t94 27.5
q53 0 78 -32t25 -89q0 -50 -15.5 -111t-47.5 -163q-30 -97 -45 -155.5t-15 -104.5q0 -50 20.5 -81t63.5 -31q51 0 93 42.5t70.5 104.5t43.5 124q54 222 96.5 359t77.5 137q8 0 22 -8.5t28 -23.5q-18 -12 -64 -138.5t-83 -273.5t-37 -234q0 -67 18 -92t62 -25
q-35 -24 -66 -24q-36 0 -58.5 31zM423.5 769q-17.5 15 -17.5 39t16.5 50.5t45 44t60.5 17.5q39 0 57.5 -15t18.5 -39t-17.5 -50.5t-47 -44t-61.5 -17.5q-37 0 -54.5 15zM524.5 788q18.5 14 30.5 34.5t12 37.5q0 15 -11.5 26t-32.5 11q-19 0 -37 -13t-29.5 -32t-11.5 -37
q0 -15 11 -28t31 -13q19 0 37.5 14z" />
    <glyph glyph-name="Utilde" unicode="&#x168;" horiz-adv-x="706" 
d="M482.5 -68q-22.5 31 -22.5 75q0 31 9 91q-85 -185 -216 -185q-62 0 -96 38t-34 98q0 41 14.5 99.5t44.5 158.5q33 111 49.5 178t16.5 119q0 88 -56 88q-34 0 -58 -28t-36 -68.5t-12 -76.5q0 -30 8 -49q-36 0 -52.5 19t-16.5 50q0 42 26.5 84t70.5 69.5t94 27.5
q53 0 78 -32t25 -89q0 -50 -15.5 -111t-47.5 -163q-30 -97 -45 -155.5t-15 -104.5q0 -50 20.5 -81t63.5 -31q51 0 93 42.5t70.5 104.5t43.5 124q54 222 96.5 359t77.5 137q8 0 22 -8.5t28 -23.5q-18 -12 -64 -138.5t-83 -273.5t-37 -234q0 -67 18 -92t62 -25
q-35 -24 -66 -24q-36 0 -58.5 31zM528.5 766.5q-18.5 5.5 -46.5 16.5q-29 12 -50 18t-42 6q-31 0 -54 -15q36 50 87 50q18 0 37 -5.5t45 -16.5q39 -14 61 -20t47 -6q16 0 34 8q-33 -41 -82 -41q-18 0 -36.5 5.5z" />
    <glyph glyph-name="V" unicode="V" horiz-adv-x="632" 
d="M151.5 -69q-27.5 18 -27.5 62q0 27 11 69.5t35 118.5q39 124 59.5 208.5t20.5 162.5q0 47 -3 75t-16 46.5t-41 18.5q-34 0 -57.5 -26.5t-34.5 -65.5t-11 -76q0 -33 9 -54q-37 0 -54 20t-17 52q0 41 25.5 82.5t68 68.5t89.5 27q61 0 92 -47.5t31 -130.5q0 -73 -20 -154
t-57 -195q-26 -79 -39 -128t-13 -82q0 -19 6 -29t22 -10q55 0 140 105t148.5 248t63.5 247q0 47 -14.5 71.5t-40.5 32.5q14 23 29 34.5t29 11.5q24 0 42.5 -29t18.5 -82q0 -107 -75 -268.5t-178.5 -281.5t-182.5 -120q-31 0 -58.5 18z" />
    <glyph glyph-name="W" unicode="W" horiz-adv-x="906" 
d="M151.5 -69q-27.5 18 -27.5 62q0 27 11 69.5t35 118.5q39 124 59.5 208.5t20.5 162.5q0 47 -3 75t-16 46.5t-41 18.5q-34 0 -57.5 -26.5t-34.5 -65.5t-11 -76q0 -33 9 -54q-37 0 -54 20t-17 52q0 41 25.5 82.5t68 68.5t89.5 27q61 0 92 -47.5t31 -130.5q0 -73 -20 -153.5
t-57 -194.5q-26 -79 -39 -128t-13 -83q0 -20 6.5 -29.5t23.5 -9.5q47 0 113 82.5t119 192t62 176.5q30 0 45 -15.5t15 -33.5q0 -13 -8 -35t-29 -72q-36 -84 -55 -142t-19 -111q0 -21 5.5 -31.5t22.5 -10.5q55 0 140 105t148.5 248t63.5 247q0 47 -14.5 71.5t-40.5 32.5
q14 23 29 34.5t29 11.5q24 0 42.5 -29t18.5 -82q0 -107 -75 -268.5t-178.5 -281.5t-182.5 -120q-33 0 -59.5 19.5t-26.5 55.5q0 27 20 90q-54 -76 -107 -120.5t-100 -44.5q-31 0 -58.5 18z" />
    <glyph glyph-name="Wacute" unicode="&#x1e82;" horiz-adv-x="906" 
d="M151.5 -69q-27.5 18 -27.5 62q0 27 11 69.5t35 118.5q39 124 59.5 208.5t20.5 162.5q0 47 -3 75t-16 46.5t-41 18.5q-34 0 -57.5 -26.5t-34.5 -65.5t-11 -76q0 -33 9 -54q-37 0 -54 20t-17 52q0 41 25.5 82.5t68 68.5t89.5 27q61 0 92 -47.5t31 -130.5q0 -73 -20 -153.5
t-57 -194.5q-26 -79 -39 -128t-13 -83q0 -20 6.5 -29.5t23.5 -9.5q47 0 113 82.5t119 192t62 176.5q30 0 45 -15.5t15 -33.5q0 -13 -8 -35t-29 -72q-36 -84 -55 -142t-19 -111q0 -21 5.5 -31.5t22.5 -10.5q55 0 140 105t148.5 248t63.5 247q0 47 -14.5 71.5t-40.5 32.5
q14 23 29 34.5t29 11.5q24 0 42.5 -29t18.5 -82q0 -107 -75 -268.5t-178.5 -281.5t-182.5 -120q-33 0 -59.5 19.5t-26.5 55.5q0 27 20 90q-54 -76 -107 -120.5t-100 -44.5q-31 0 -58.5 18zM579.5 759.5q-3.5 8.5 -3.5 14.5q0 12 18.5 42.5t43 54.5t42.5 24q19 0 22 -31
q-74 -64 -112 -116q-7 3 -10.5 11.5z" />
    <glyph glyph-name="Wcircumflex" unicode="&#x174;" horiz-adv-x="906" 
d="M151.5 -69q-27.5 18 -27.5 62q0 27 11 69.5t35 118.5q39 124 59.5 208.5t20.5 162.5q0 47 -3 75t-16 46.5t-41 18.5q-34 0 -57.5 -26.5t-34.5 -65.5t-11 -76q0 -33 9 -54q-37 0 -54 20t-17 52q0 41 25.5 82.5t68 68.5t89.5 27q61 0 92 -47.5t31 -130.5q0 -73 -20 -153.5
t-57 -194.5q-26 -79 -39 -128t-13 -83q0 -20 6.5 -29.5t23.5 -9.5q47 0 113 82.5t119 192t62 176.5q30 0 45 -15.5t15 -33.5q0 -13 -8 -35t-29 -72q-36 -84 -55 -142t-19 -111q0 -21 5.5 -31.5t22.5 -10.5q55 0 140 105t148.5 248t63.5 247q0 47 -14.5 71.5t-40.5 32.5
q14 23 29 34.5t29 11.5q24 0 42.5 -29t18.5 -82q0 -107 -75 -268.5t-178.5 -281.5t-182.5 -120q-33 0 -59.5 19.5t-26.5 55.5q0 27 20 90q-54 -76 -107 -120.5t-100 -44.5q-31 0 -58.5 18zM652 790q-17 20 -44 46q-34 -12 -58 -25t-45 -32q-10 6 -10 19q0 18 22 38.5t50 35
t42 14.5q16 0 37.5 -19t37 -45t15.5 -47q0 -22 -17 -31q-13 26 -30 46z" />
    <glyph glyph-name="Wdieresis" unicode="&#x1e84;" horiz-adv-x="906" 
d="M151.5 -69q-27.5 18 -27.5 62q0 27 11 69.5t35 118.5q39 124 59.5 208.5t20.5 162.5q0 47 -3 75t-16 46.5t-41 18.5q-34 0 -57.5 -26.5t-34.5 -65.5t-11 -76q0 -33 9 -54q-37 0 -54 20t-17 52q0 41 25.5 82.5t68 68.5t89.5 27q61 0 92 -47.5t31 -130.5q0 -73 -20 -153.5
t-57 -194.5q-26 -79 -39 -128t-13 -83q0 -20 6.5 -29.5t23.5 -9.5q47 0 113 82.5t119 192t62 176.5q30 0 45 -15.5t15 -33.5q0 -13 -8 -35t-29 -72q-36 -84 -55 -142t-19 -111q0 -21 5.5 -31.5t22.5 -10.5q55 0 140 105t148.5 248t63.5 247q0 47 -14.5 71.5t-40.5 32.5
q14 23 29 34.5t29 11.5q24 0 42.5 -29t18.5 -82q0 -107 -75 -268.5t-178.5 -281.5t-182.5 -120q-33 0 -59.5 19.5t-26.5 55.5q0 27 20 90q-54 -76 -107 -120.5t-100 -44.5q-31 0 -58.5 18zM493.5 781.5q-10.5 7.5 -10.5 22.5q0 18 21.5 32.5t44.5 14.5q30 0 30 -28
q0 -17 -18.5 -33t-40.5 -16q-16 0 -26.5 7.5zM637.5 760.5q-10.5 7.5 -10.5 22.5q0 18 21.5 32.5t44.5 14.5q30 0 30 -28q0 -17 -18.5 -33t-40.5 -16q-16 0 -26.5 7.5z" />
    <glyph glyph-name="Wgrave" unicode="&#x1e80;" horiz-adv-x="906" 
d="M151.5 -69q-27.5 18 -27.5 62q0 27 11 69.5t35 118.5q39 124 59.5 208.5t20.5 162.5q0 47 -3 75t-16 46.5t-41 18.5q-34 0 -57.5 -26.5t-34.5 -65.5t-11 -76q0 -33 9 -54q-37 0 -54 20t-17 52q0 41 25.5 82.5t68 68.5t89.5 27q61 0 92 -47.5t31 -130.5q0 -73 -20 -153.5
t-57 -194.5q-26 -79 -39 -128t-13 -83q0 -20 6.5 -29.5t23.5 -9.5q47 0 113 82.5t119 192t62 176.5q30 0 45 -15.5t15 -33.5q0 -13 -8 -35t-29 -72q-36 -84 -55 -142t-19 -111q0 -21 5.5 -31.5t22.5 -10.5q55 0 140 105t148.5 248t63.5 247q0 47 -14.5 71.5t-40.5 32.5
q14 23 29 34.5t29 11.5q24 0 42.5 -29t18.5 -82q0 -107 -75 -268.5t-178.5 -281.5t-182.5 -120q-33 0 -59.5 19.5t-26.5 55.5q0 27 20 90q-54 -76 -107 -120.5t-100 -44.5q-31 0 -58.5 18zM476 864q3 31 22 31q18 0 42.5 -24t43 -54.5t18.5 -42.5q0 -6 -3.5 -14.5
t-10.5 -11.5q-38 52 -112 116z" />
    <glyph glyph-name="X" unicode="X" horiz-adv-x="662" 
d="M38 -65q10 17 36 44q113 122 227 267l-3 40q-5 64 -7 182q-1 93 -4.5 135.5t-15.5 65.5t-39 23q-31 0 -55 -27.5t-36.5 -68t-12.5 -77.5q0 -30 8 -49q-36 0 -52.5 19t-16.5 50q0 41 26.5 83.5t70 70t91.5 27.5q55 0 80.5 -39.5t31.5 -101t7 -173.5q1 -20 1 -62
q158 219 222 378q8 -6 15.5 -20.5t7.5 -27.5q0 -38 -68.5 -143t-175.5 -242q10 -339 94 -339q28 0 69.5 54t100.5 158l12 -10q-62 -127 -107.5 -183t-101.5 -56q-74 0 -102.5 80.5t-36.5 204.5q-87 -107 -166 -195t-113 -115q3 30 13 47z" />
    <glyph glyph-name="Y" unicode="Y" horiz-adv-x="666" 
d="M156 -162q-39 25 -39 69q0 55 60 75q-8 -27 -8 -54q0 -42 22 -66t65 -24q88 0 136.5 86.5t72.5 196.5q3 13 16 79q5 25 11.5 56.5t14.5 69.5q-43 -83 -96 -129t-121 -46q-57 0 -83 31.5t-26 87.5q0 36 9 79t27 105q17 61 24.5 96t7.5 64q0 35 -13.5 56.5t-43.5 21.5
q-34 0 -58.5 -28t-37 -68.5t-12.5 -76.5q0 -30 8 -49q-36 0 -52.5 19t-16.5 50q0 42 26.5 84t70.5 69.5t94 27.5q53 0 78.5 -30t25.5 -71q0 -23 -7 -53.5t-22 -84.5q-19 -68 -28.5 -112t-9.5 -82q0 -96 70 -96q63 0 117 72t95 177q31 127 60.5 203.5t59.5 76.5q10 0 26 -9
t30 -23q-36 -57 -56.5 -106t-42 -127t-66.5 -261q-29 -116 -58 -193t-85.5 -132.5t-145.5 -55.5q-60 0 -99 25z" />
    <glyph glyph-name="Yacute" unicode="&#xdd;" horiz-adv-x="666" 
d="M156 -162q-39 25 -39 69q0 55 60 75q-8 -27 -8 -54q0 -42 22 -66t65 -24q88 0 136.5 86.5t72.5 196.5q3 13 16 79q5 25 11.5 56.5t14.5 69.5q-43 -83 -96 -129t-121 -46q-57 0 -83 31.5t-26 87.5q0 36 9 79t27 105q17 61 24.5 96t7.5 64q0 35 -13.5 56.5t-43.5 21.5
q-34 0 -58.5 -28t-37 -68.5t-12.5 -76.5q0 -30 8 -49q-36 0 -52.5 19t-16.5 50q0 42 26.5 84t70.5 69.5t94 27.5q53 0 78.5 -30t25.5 -71q0 -23 -7 -53.5t-22 -84.5q-19 -68 -28.5 -112t-9.5 -82q0 -96 70 -96q63 0 117 72t95 177q31 127 60.5 203.5t59.5 76.5q10 0 26 -9
t30 -23q-36 -57 -56.5 -106t-42 -127t-66.5 -261q-29 -116 -58 -193t-85.5 -132.5t-145.5 -55.5q-60 0 -99 25zM455.5 759.5q-3.5 8.5 -3.5 14.5q0 12 18.5 42.5t43 54.5t42.5 24q19 0 22 -31q-74 -64 -112 -116q-7 3 -10.5 11.5z" />
    <glyph glyph-name="Ycircumflex" unicode="&#x176;" horiz-adv-x="666" 
d="M156 -162q-39 25 -39 69q0 55 60 75q-8 -27 -8 -54q0 -42 22 -66t65 -24q88 0 136.5 86.5t72.5 196.5q3 13 16 79q5 25 11.5 56.5t14.5 69.5q-43 -83 -96 -129t-121 -46q-57 0 -83 31.5t-26 87.5q0 36 9 79t27 105q17 61 24.5 96t7.5 64q0 35 -13.5 56.5t-43.5 21.5
q-34 0 -58.5 -28t-37 -68.5t-12.5 -76.5q0 -30 8 -49q-36 0 -52.5 19t-16.5 50q0 42 26.5 84t70.5 69.5t94 27.5q53 0 78.5 -30t25.5 -71q0 -23 -7 -53.5t-22 -84.5q-19 -68 -28.5 -112t-9.5 -82q0 -96 70 -96q63 0 117 72t95 177q31 127 60.5 203.5t59.5 76.5q10 0 26 -9
t30 -23q-36 -57 -56.5 -106t-42 -127t-66.5 -261q-29 -116 -58 -193t-85.5 -132.5t-145.5 -55.5q-60 0 -99 25zM528 790q-17 20 -44 46q-34 -12 -58 -25t-45 -32q-10 6 -10 19q0 18 22 38.5t50 35t42 14.5q16 0 37.5 -19t37 -45t15.5 -47q0 -22 -17 -31q-13 26 -30 46z" />
    <glyph glyph-name="Ydieresis" unicode="&#x178;" horiz-adv-x="666" 
d="M156 -162q-39 25 -39 69q0 55 60 75q-8 -27 -8 -54q0 -42 22 -66t65 -24q88 0 136.5 86.5t72.5 196.5q3 13 16 79q5 25 11.5 56.5t14.5 69.5q-43 -83 -96 -129t-121 -46q-57 0 -83 31.5t-26 87.5q0 36 9 79t27 105q17 61 24.5 96t7.5 64q0 35 -13.5 56.5t-43.5 21.5
q-34 0 -58.5 -28t-37 -68.5t-12.5 -76.5q0 -30 8 -49q-36 0 -52.5 19t-16.5 50q0 42 26.5 84t70.5 69.5t94 27.5q53 0 78.5 -30t25.5 -71q0 -23 -7 -53.5t-22 -84.5q-19 -68 -28.5 -112t-9.5 -82q0 -96 70 -96q63 0 117 72t95 177q31 127 60.5 203.5t59.5 76.5q10 0 26 -9
t30 -23q-36 -57 -56.5 -106t-42 -127t-66.5 -261q-29 -116 -58 -193t-85.5 -132.5t-145.5 -55.5q-60 0 -99 25zM369.5 781.5q-10.5 7.5 -10.5 22.5q0 18 21.5 32.5t44.5 14.5q30 0 30 -28q0 -17 -18.5 -33t-40.5 -16q-16 0 -26.5 7.5zM513.5 760.5q-10.5 7.5 -10.5 22.5
q0 18 21.5 32.5t44.5 14.5q30 0 30 -28q0 -17 -18.5 -33t-40.5 -16q-16 0 -26.5 7.5z" />
    <glyph glyph-name="uni1EF4" unicode="&#x1ef4;" horiz-adv-x="666" 
d="M156 -162q-39 25 -39 69q0 55 60 75q-8 -27 -8 -54q0 -42 22 -66t65 -24q88 0 136.5 86.5t72.5 196.5q3 13 16 79q5 25 11.5 56.5t14.5 69.5q-43 -83 -96 -129t-121 -46q-57 0 -83 31.5t-26 87.5q0 36 9 79t27 105q17 61 24.5 96t7.5 64q0 35 -13.5 56.5t-43.5 21.5
q-34 0 -58.5 -28t-37 -68.5t-12.5 -76.5q0 -30 8 -49q-36 0 -52.5 19t-16.5 50q0 42 26.5 84t70.5 69.5t94 27.5q53 0 78.5 -30t25.5 -71q0 -23 -7 -53.5t-22 -84.5q-19 -68 -28.5 -112t-9.5 -82q0 -96 70 -96q63 0 117 72t95 177q31 127 60.5 203.5t59.5 76.5q10 0 26 -9
t30 -23q-36 -57 -56.5 -106t-42 -127t-66.5 -261q-29 -116 -58 -193t-85.5 -132.5t-145.5 -55.5q-60 0 -99 25zM482 -179.5q-11 8.5 -11 24.5q0 21 21 35t44 14q35 0 35 -33q0 -19 -19 -34t-41 -15q-18 0 -29 8.5z" />
    <glyph glyph-name="Ygrave" unicode="&#x1ef2;" horiz-adv-x="666" 
d="M156 -162q-39 25 -39 69q0 55 60 75q-8 -27 -8 -54q0 -42 22 -66t65 -24q88 0 136.5 86.5t72.5 196.5q3 13 16 79q5 25 11.5 56.5t14.5 69.5q-43 -83 -96 -129t-121 -46q-57 0 -83 31.5t-26 87.5q0 36 9 79t27 105q17 61 24.5 96t7.5 64q0 35 -13.5 56.5t-43.5 21.5
q-34 0 -58.5 -28t-37 -68.5t-12.5 -76.5q0 -30 8 -49q-36 0 -52.5 19t-16.5 50q0 42 26.5 84t70.5 69.5t94 27.5q53 0 78.5 -30t25.5 -71q0 -23 -7 -53.5t-22 -84.5q-19 -68 -28.5 -112t-9.5 -82q0 -96 70 -96q63 0 117 72t95 177q31 127 60.5 203.5t59.5 76.5q10 0 26 -9
t30 -23q-36 -57 -56.5 -106t-42 -127t-66.5 -261q-29 -116 -58 -193t-85.5 -132.5t-145.5 -55.5q-60 0 -99 25zM352 864q3 31 22 31q18 0 42.5 -24t43 -54.5t18.5 -42.5q0 -6 -3.5 -14.5t-10.5 -11.5q-38 52 -112 116z" />
    <glyph glyph-name="uni1EF6" unicode="&#x1ef6;" horiz-adv-x="666" 
d="M156 -162q-39 25 -39 69q0 55 60 75q-8 -27 -8 -54q0 -42 22 -66t65 -24q88 0 136.5 86.5t72.5 196.5q3 13 16 79q5 25 11.5 56.5t14.5 69.5q-43 -83 -96 -129t-121 -46q-57 0 -83 31.5t-26 87.5q0 36 9 79t27 105q17 61 24.5 96t7.5 64q0 35 -13.5 56.5t-43.5 21.5
q-34 0 -58.5 -28t-37 -68.5t-12.5 -76.5q0 -30 8 -49q-36 0 -52.5 19t-16.5 50q0 42 26.5 84t70.5 69.5t94 27.5q53 0 78.5 -30t25.5 -71q0 -23 -7 -53.5t-22 -84.5q-19 -68 -28.5 -112t-9.5 -82q0 -96 70 -96q63 0 117 72t95 177q31 127 60.5 203.5t59.5 76.5q10 0 26 -9
t30 -23q-36 -57 -56.5 -106t-42 -127t-66.5 -261q-29 -116 -58 -193t-85.5 -132.5t-145.5 -55.5q-60 0 -99 25zM460 761q30 2 49.5 13.5t19.5 34.5t-23 33t-70 10q0 19 13 32.5t35 13.5q34 0 56 -22t22 -55q0 -31 -19 -51t-49 -20q-21 0 -34 11z" />
    <glyph glyph-name="uni0232" unicode="&#x232;" horiz-adv-x="666" 
d="M156 -162q-39 25 -39 69q0 55 60 75q-8 -27 -8 -54q0 -42 22 -66t65 -24q88 0 136.5 86.5t72.5 196.5q3 13 16 79q5 25 11.5 56.5t14.5 69.5q-43 -83 -96 -129t-121 -46q-57 0 -83 31.5t-26 87.5q0 36 9 79t27 105q17 61 24.5 96t7.5 64q0 35 -13.5 56.5t-43.5 21.5
q-34 0 -58.5 -28t-37 -68.5t-12.5 -76.5q0 -30 8 -49q-36 0 -52.5 19t-16.5 50q0 42 26.5 84t70.5 69.5t94 27.5q53 0 78.5 -30t25.5 -71q0 -23 -7 -53.5t-22 -84.5q-19 -68 -28.5 -112t-9.5 -82q0 -96 70 -96q63 0 117 72t95 177q31 127 60.5 203.5t59.5 76.5q10 0 26 -9
t30 -23q-36 -57 -56.5 -106t-42 -127t-66.5 -261q-29 -116 -58 -193t-85.5 -132.5t-145.5 -55.5q-60 0 -99 25zM509 763q-42 7 -83 16q-79 16 -101 18q10 26 46 26q82 0 241 -47q-14 -20 -38 -20q-23 0 -65 7z" />
    <glyph glyph-name="uni1EF8" unicode="&#x1ef8;" horiz-adv-x="666" 
d="M156 -162q-39 25 -39 69q0 55 60 75q-8 -27 -8 -54q0 -42 22 -66t65 -24q88 0 136.5 86.5t72.5 196.5q3 13 16 79q5 25 11.5 56.5t14.5 69.5q-43 -83 -96 -129t-121 -46q-57 0 -83 31.5t-26 87.5q0 36 9 79t27 105q17 61 24.5 96t7.5 64q0 35 -13.5 56.5t-43.5 21.5
q-34 0 -58.5 -28t-37 -68.5t-12.5 -76.5q0 -30 8 -49q-36 0 -52.5 19t-16.5 50q0 42 26.5 84t70.5 69.5t94 27.5q53 0 78.5 -30t25.5 -71q0 -23 -7 -53.5t-22 -84.5q-19 -68 -28.5 -112t-9.5 -82q0 -96 70 -96q63 0 117 72t95 177q31 127 60.5 203.5t59.5 76.5q10 0 26 -9
t30 -23q-36 -57 -56.5 -106t-42 -127t-66.5 -261q-29 -116 -58 -193t-85.5 -132.5t-145.5 -55.5q-60 0 -99 25zM515.5 766.5q-18.5 5.5 -46.5 16.5q-29 12 -50 18t-42 6q-31 0 -54 -15q36 50 87 50q18 0 37 -5.5t45 -16.5q39 -14 61 -20t47 -6q16 0 34 8q-33 -41 -82 -41
q-18 0 -36.5 5.5z" />
    <glyph glyph-name="Z" unicode="Z" horiz-adv-x="631" 
d="M356 -68.5q-50 18.5 -128 55.5l-33 15q-72 -56 -128 -56q-41 0 -66.5 25t-25.5 55q0 23 18.5 37.5t58.5 14.5q48 0 136 -26q88 93 195 269q-60 -1 -130 -11l-34 -5q2 39 41.5 54.5t107.5 15.5q15 0 45 -2q82 146 117 237q-25 6 -83 29q-63 25 -109.5 39t-85.5 14
q-113 0 -113 -144q0 -22 4 -35q-28 5 -41 23t-13 49q0 66 51 100.5t142 34.5q50 0 94.5 -9t103.5 -26q50 -15 82.5 -22t65.5 -7q22 0 32 2q-27 -23 -50 -35q-48 -115 -130 -256l29 -3q56 -6 77 -6q-11 -16 -24 -23t-35 -9t-73 -3q-112 -183 -218 -285q89 -28 144.5 -42
t100.5 -14q40 0 71 16q-16 -45 -42 -65t-63 -20q-41 0 -91 18.5zM154 20q-78 32 -116 32q-37 0 -37 -24q0 -19 17.5 -37t43.5 -18q37 0 92 47z" />
    <glyph glyph-name="Zacute" unicode="&#x179;" horiz-adv-x="631" 
d="M356 -68.5q-50 18.5 -128 55.5l-33 15q-72 -56 -128 -56q-41 0 -66.5 25t-25.5 55q0 23 18.5 37.5t58.5 14.5q48 0 136 -26q88 93 195 269q-60 -1 -130 -11l-34 -5q2 39 41.5 54.5t107.5 15.5q15 0 45 -2q82 146 117 237q-25 6 -83 29q-63 25 -109.5 39t-85.5 14
q-113 0 -113 -144q0 -22 4 -35q-28 5 -41 23t-13 49q0 66 51 100.5t142 34.5q50 0 94.5 -9t103.5 -26q50 -15 82.5 -22t65.5 -7q22 0 32 2q-27 -23 -50 -35q-48 -115 -130 -256l29 -3q56 -6 77 -6q-11 -16 -24 -23t-35 -9t-73 -3q-112 -183 -218 -285q89 -28 144.5 -42
t100.5 -14q40 0 71 16q-16 -45 -42 -65t-63 -20q-41 0 -91 18.5zM154 20q-78 32 -116 32q-37 0 -37 -24q0 -19 17.5 -37t43.5 -18q37 0 92 47zM430.5 759.5q-3.5 8.5 -3.5 14.5q0 12 18.5 42.5t43 54.5t42.5 24q19 0 22 -31q-74 -64 -112 -116q-7 3 -10.5 11.5z" />
    <glyph glyph-name="Zcaron" unicode="&#x17d;" horiz-adv-x="631" 
d="M356 -68.5q-50 18.5 -128 55.5l-33 15q-72 -56 -128 -56q-41 0 -66.5 25t-25.5 55q0 23 18.5 37.5t58.5 14.5q48 0 136 -26q88 93 195 269q-60 -1 -130 -11l-34 -5q2 39 41.5 54.5t107.5 15.5q15 0 45 -2q82 146 117 237q-25 6 -83 29q-63 25 -109.5 39t-85.5 14
q-113 0 -113 -144q0 -22 4 -35q-28 5 -41 23t-13 49q0 66 51 100.5t142 34.5q50 0 94.5 -9t103.5 -26q50 -15 82.5 -22t65.5 -7q22 0 32 2q-27 -23 -50 -35q-48 -115 -130 -256l29 -3q56 -6 77 -6q-11 -16 -24 -23t-35 -9t-73 -3q-112 -183 -218 -285q89 -28 144.5 -42
t100.5 -14q40 0 71 16q-16 -45 -42 -65t-63 -20q-41 0 -91 18.5zM154 20q-78 32 -116 32q-37 0 -37 -24q0 -19 17.5 -37t43.5 -18q37 0 92 47zM400.5 773q-21.5 19 -37 45t-15.5 47q0 23 17 31q13 -26 30 -46t44 -46q34 12 58 25t45 32q10 -6 10 -19q0 -18 -22 -38.5
t-50 -35t-42 -14.5q-16 0 -37.5 19z" />
    <glyph glyph-name="Zdotaccent" unicode="&#x17b;" horiz-adv-x="631" 
d="M356 -68.5q-50 18.5 -128 55.5l-33 15q-72 -56 -128 -56q-41 0 -66.5 25t-25.5 55q0 23 18.5 37.5t58.5 14.5q48 0 136 -26q88 93 195 269q-60 -1 -130 -11l-34 -5q2 39 41.5 54.5t107.5 15.5q15 0 45 -2q82 146 117 237q-25 6 -83 29q-63 25 -109.5 39t-85.5 14
q-113 0 -113 -144q0 -22 4 -35q-28 5 -41 23t-13 49q0 66 51 100.5t142 34.5q50 0 94.5 -9t103.5 -26q50 -15 82.5 -22t65.5 -7q22 0 32 2q-27 -23 -50 -35q-48 -115 -130 -256l29 -3q56 -6 77 -6q-11 -16 -24 -23t-35 -9t-73 -3q-112 -183 -218 -285q89 -28 144.5 -42
t100.5 -14q40 0 71 16q-16 -45 -42 -65t-63 -20q-41 0 -91 18.5zM154 20q-78 32 -116 32q-37 0 -37 -24q0 -19 17.5 -37t43.5 -18q37 0 92 47zM417 779.5q-11 8.5 -11 24.5q0 21 21 35t44 14q35 0 35 -33q0 -19 -19 -34t-41 -15q-18 0 -29 8.5z" />
    <glyph glyph-name="F.salt" horiz-adv-x="453" 
d="M62.5 -63q-18.5 20 -18.5 55q0 40 19.5 100.5t60.5 169.5q8 19 22 57q-26 -2 -106 -14q3 65 127 70q68 179 119 284q-50 -1 -87 -5t-83 -13q7 39 56 59t148 20q108 0 262 -23q-21 -21 -45.5 -28t-51.5 -7l-152 -1q-38 -96 -97 -288q35 -2 86 -8q63 -6 85 -7
q-11 -16 -26.5 -22.5t-47 -8.5t-112.5 -4q-57 -198 -76.5 -284t-19.5 -126q-44 4 -62.5 24z" />
    <glyph glyph-name="M.salt" horiz-adv-x="943" 
d="M-80 -82q-23 21 -23 51q0 22 11 36q33 -51 92 -51q52 0 94.5 35t84.5 96q43 63 89.5 153.5t78 181t31.5 150.5q0 55 -26 91.5t-63 36.5q-40 0 -62 -43.5t-22 -98.5q0 -42 13 -65q-33 11 -49.5 36t-16.5 57q0 33 17 64.5t48.5 51.5t72.5 20q83 0 127 -87.5t44 -251.5
q0 -57 -4.5 -130.5t-10.5 -109.5q39 82 118.5 210t158.5 223.5t120 95.5q12 0 20 -8.5t10 -20.5q-47 -43 -101.5 -145t-92 -221.5t-37.5 -214.5q0 -50 12.5 -75.5t42.5 -25.5t68 25.5t74.5 71.5t62.5 106l11 -10q-26 -65 -64.5 -115t-81 -77.5t-80.5 -27.5q-47 0 -80 42
t-33 117q0 79 35 188t80 206q-90 -130 -133.5 -200.5t-67.5 -121.5t-60 -144q-3 -9 -10.5 -20.5t-10.5 -11.5t-9.5 5t-12.5 15.5t-6 27.5q0 18 6 57q18 144 18 254q0 79 -8 143q-20 -81 -84.5 -224t-152.5 -255.5t-177 -112.5q-38 0 -61 21z" />
    <glyph glyph-name="U.salt" horiz-adv-x="734" 
d="M157 -49q-34 38 -34 98q0 41 14.5 99.5t44.5 158.5q33 111 49.5 178t16.5 119q0 88 -56 88q-34 0 -58 -28t-36 -68.5t-12 -76.5q0 -30 8 -49q-36 0 -52.5 19t-16.5 50q0 42 26.5 84t70.5 69.5t94 27.5q53 0 78 -32t25 -89q0 -50 -15.5 -111t-47.5 -163
q-30 -97 -45 -155.5t-15 -104.5q0 -50 20.5 -81t63.5 -31q51 0 93 42.5t70.5 104.5t43.5 124q54 222 96.5 359t77.5 137q8 0 22 -8.5t28 -23.5q-18 -12 -64 -138.5t-83 -273.5t-37 -234q0 -38 8 -60t23 -22q24 0 62.5 54t84.5 143l13 -10q-40 -93 -92 -163.5t-104 -70.5
q-33 0 -47.5 29t-14.5 65q0 31 9 91q-85 -185 -216 -185q-62 0 -96 38z" />
    <glyph glyph-name="Uacute.salt" horiz-adv-x="734" 
d="M157 -49q-34 38 -34 98q0 41 14.5 99.5t44.5 158.5q33 111 49.5 178t16.5 119q0 88 -56 88q-34 0 -58 -28t-36 -68.5t-12 -76.5q0 -30 8 -49q-36 0 -52.5 19t-16.5 50q0 42 26.5 84t70.5 69.5t94 27.5q53 0 78 -32t25 -89q0 -50 -15.5 -111t-47.5 -163
q-30 -97 -45 -155.5t-15 -104.5q0 -50 20.5 -81t63.5 -31q51 0 93 42.5t70.5 104.5t43.5 124q54 222 96.5 359t77.5 137q8 0 22 -8.5t28 -23.5q-18 -12 -64 -138.5t-83 -273.5t-37 -234q0 -38 8 -60t23 -22q24 0 62.5 54t84.5 143l13 -10q-40 -93 -92 -163.5t-104 -70.5
q-33 0 -47.5 29t-14.5 65q0 31 9 91q-85 -185 -216 -185q-62 0 -96 38zM448.5 759.5q-3.5 8.5 -3.5 14.5q0 12 18.5 42.5t43 54.5t42.5 24q19 0 22 -31q-74 -64 -112 -116q-7 3 -10.5 11.5z" />
    <glyph glyph-name="Ubreve.salt" horiz-adv-x="734" 
d="M157 -49q-34 38 -34 98q0 41 14.5 99.5t44.5 158.5q33 111 49.5 178t16.5 119q0 88 -56 88q-34 0 -58 -28t-36 -68.5t-12 -76.5q0 -30 8 -49q-36 0 -52.5 19t-16.5 50q0 42 26.5 84t70.5 69.5t94 27.5q53 0 78 -32t25 -89q0 -50 -15.5 -111t-47.5 -163
q-30 -97 -45 -155.5t-15 -104.5q0 -50 20.5 -81t63.5 -31q51 0 93 42.5t70.5 104.5t43.5 124q54 222 96.5 359t77.5 137q8 0 22 -8.5t28 -23.5q-18 -12 -64 -138.5t-83 -273.5t-37 -234q0 -38 8 -60t23 -22q24 0 62.5 54t84.5 143l13 -10q-40 -93 -92 -163.5t-104 -70.5
q-33 0 -47.5 29t-14.5 65q0 31 9 91q-85 -185 -216 -185q-62 0 -96 38zM430.5 772.5q-23.5 14.5 -34 36t-10.5 41.5q0 33 24 49q3 -38 23 -64.5t58 -26.5q62 0 96 60q10 -10 10 -30q0 -33 -32.5 -56.5t-75.5 -23.5q-35 0 -58.5 14.5z" />
    <glyph glyph-name="Ucircumflex.salt" horiz-adv-x="734" 
d="M157 -49q-34 38 -34 98q0 41 14.5 99.5t44.5 158.5q33 111 49.5 178t16.5 119q0 88 -56 88q-34 0 -58 -28t-36 -68.5t-12 -76.5q0 -30 8 -49q-36 0 -52.5 19t-16.5 50q0 42 26.5 84t70.5 69.5t94 27.5q53 0 78 -32t25 -89q0 -50 -15.5 -111t-47.5 -163
q-30 -97 -45 -155.5t-15 -104.5q0 -50 20.5 -81t63.5 -31q51 0 93 42.5t70.5 104.5t43.5 124q54 222 96.5 359t77.5 137q8 0 22 -8.5t28 -23.5q-18 -12 -64 -138.5t-83 -273.5t-37 -234q0 -38 8 -60t23 -22q24 0 62.5 54t84.5 143l13 -10q-40 -93 -92 -163.5t-104 -70.5
q-33 0 -47.5 29t-14.5 65q0 31 9 91q-85 -185 -216 -185q-62 0 -96 38zM521 790q-17 20 -44 46q-34 -12 -58 -25t-45 -32q-10 6 -10 19q0 18 22 38.5t50 35t42 14.5q16 0 37.5 -19t37 -45t15.5 -47q0 -22 -17 -31q-13 26 -30 46z" />
    <glyph glyph-name="uni0214.salt" horiz-adv-x="734" 
d="M157 -49q-34 38 -34 98q0 41 14.5 99.5t44.5 158.5q33 111 49.5 178t16.5 119q0 88 -56 88q-34 0 -58 -28t-36 -68.5t-12 -76.5q0 -30 8 -49q-36 0 -52.5 19t-16.5 50q0 42 26.5 84t70.5 69.5t94 27.5q53 0 78 -32t25 -89q0 -50 -15.5 -111t-47.5 -163
q-30 -97 -45 -155.5t-15 -104.5q0 -50 20.5 -81t63.5 -31q51 0 93 42.5t70.5 104.5t43.5 124q54 222 96.5 359t77.5 137q8 0 22 -8.5t28 -23.5q-18 -12 -64 -138.5t-83 -273.5t-37 -234q0 -38 8 -60t23 -22q24 0 62.5 54t84.5 143l13 -10q-40 -93 -92 -163.5t-104 -70.5
q-33 0 -47.5 29t-14.5 65q0 31 9 91q-85 -185 -216 -185q-62 0 -96 38zM429 865q10 25 26 25t31.5 -20t25 -46t9.5 -42q0 -26 -20 -30q-32 61 -72 113zM339 871q15 17 29 17q16 0 34 -22.5t31 -51.5t13 -44t-11 -23q-45 63 -96 124z" />
    <glyph glyph-name="Udieresis.salt" horiz-adv-x="734" 
d="M157 -49q-34 38 -34 98q0 41 14.5 99.5t44.5 158.5q33 111 49.5 178t16.5 119q0 88 -56 88q-34 0 -58 -28t-36 -68.5t-12 -76.5q0 -30 8 -49q-36 0 -52.5 19t-16.5 50q0 42 26.5 84t70.5 69.5t94 27.5q53 0 78 -32t25 -89q0 -50 -15.5 -111t-47.5 -163
q-30 -97 -45 -155.5t-15 -104.5q0 -50 20.5 -81t63.5 -31q51 0 93 42.5t70.5 104.5t43.5 124q54 222 96.5 359t77.5 137q8 0 22 -8.5t28 -23.5q-18 -12 -64 -138.5t-83 -273.5t-37 -234q0 -38 8 -60t23 -22q24 0 62.5 54t84.5 143l13 -10q-40 -93 -92 -163.5t-104 -70.5
q-33 0 -47.5 29t-14.5 65q0 31 9 91q-85 -185 -216 -185q-62 0 -96 38zM362.5 781.5q-10.5 7.5 -10.5 22.5q0 18 21.5 32.5t44.5 14.5q30 0 30 -28q0 -17 -18.5 -33t-40.5 -16q-16 0 -26.5 7.5zM506.5 760.5q-10.5 7.5 -10.5 22.5q0 18 21.5 32.5t44.5 14.5q30 0 30 -28
q0 -17 -18.5 -33t-40.5 -16q-16 0 -26.5 7.5z" />
    <glyph glyph-name="uni1EE4.salt" horiz-adv-x="734" 
d="M157 -49q-34 38 -34 98q0 41 14.5 99.5t44.5 158.5q33 111 49.5 178t16.5 119q0 88 -56 88q-34 0 -58 -28t-36 -68.5t-12 -76.5q0 -30 8 -49q-36 0 -52.5 19t-16.5 50q0 42 26.5 84t70.5 69.5t94 27.5q53 0 78 -32t25 -89q0 -50 -15.5 -111t-47.5 -163
q-30 -97 -45 -155.5t-15 -104.5q0 -50 20.5 -81t63.5 -31q51 0 93 42.5t70.5 104.5t43.5 124q54 222 96.5 359t77.5 137q8 0 22 -8.5t28 -23.5q-18 -12 -64 -138.5t-83 -273.5t-37 -234q0 -38 8 -60t23 -22q24 0 62.5 54t84.5 143l13 -10q-40 -93 -92 -163.5t-104 -70.5
q-33 0 -47.5 29t-14.5 65q0 31 9 91q-85 -185 -216 -185q-62 0 -96 38zM199 -243.5q-11 8.5 -11 24.5q0 21 21 35t44 14q35 0 35 -33q0 -19 -19 -34t-41 -15q-18 0 -29 8.5z" />
    <glyph glyph-name="Ugrave.salt" horiz-adv-x="734" 
d="M157 -49q-34 38 -34 98q0 41 14.5 99.5t44.5 158.5q33 111 49.5 178t16.5 119q0 88 -56 88q-34 0 -58 -28t-36 -68.5t-12 -76.5q0 -30 8 -49q-36 0 -52.5 19t-16.5 50q0 42 26.5 84t70.5 69.5t94 27.5q53 0 78 -32t25 -89q0 -50 -15.5 -111t-47.5 -163
q-30 -97 -45 -155.5t-15 -104.5q0 -50 20.5 -81t63.5 -31q51 0 93 42.5t70.5 104.5t43.5 124q54 222 96.5 359t77.5 137q8 0 22 -8.5t28 -23.5q-18 -12 -64 -138.5t-83 -273.5t-37 -234q0 -38 8 -60t23 -22q24 0 62.5 54t84.5 143l13 -10q-40 -93 -92 -163.5t-104 -70.5
q-33 0 -47.5 29t-14.5 65q0 31 9 91q-85 -185 -216 -185q-62 0 -96 38zM345 864q3 31 22 31q18 0 42.5 -24t43 -54.5t18.5 -42.5q0 -6 -3.5 -14.5t-10.5 -11.5q-38 52 -112 116z" />
    <glyph glyph-name="uni1EE6.salt" horiz-adv-x="734" 
d="M157 -49q-34 38 -34 98q0 41 14.5 99.5t44.5 158.5q33 111 49.5 178t16.5 119q0 88 -56 88q-34 0 -58 -28t-36 -68.5t-12 -76.5q0 -30 8 -49q-36 0 -52.5 19t-16.5 50q0 42 26.5 84t70.5 69.5t94 27.5q53 0 78 -32t25 -89q0 -50 -15.5 -111t-47.5 -163
q-30 -97 -45 -155.5t-15 -104.5q0 -50 20.5 -81t63.5 -31q51 0 93 42.5t70.5 104.5t43.5 124q54 222 96.5 359t77.5 137q8 0 22 -8.5t28 -23.5q-18 -12 -64 -138.5t-83 -273.5t-37 -234q0 -38 8 -60t23 -22q24 0 62.5 54t84.5 143l13 -10q-40 -93 -92 -163.5t-104 -70.5
q-33 0 -47.5 29t-14.5 65q0 31 9 91q-85 -185 -216 -185q-62 0 -96 38zM453 761q30 2 49.5 13.5t19.5 34.5t-23 33t-70 10q0 19 13 32.5t35 13.5q34 0 56 -22t22 -55q0 -31 -19 -51t-49 -20q-21 0 -34 11z" />
    <glyph glyph-name="Uhorn.salt" horiz-adv-x="734" 
d="M808.5 773q13.5 -18 13.5 -46q0 -29 -18 -49t-47 -20q-25 0 -55 19q-24 -39 -67 -162.5t-75.5 -257.5t-32.5 -215q0 -38 8 -60t23 -22q24 0 62.5 54t84.5 143l13 -10q-40 -93 -92 -163.5t-104 -70.5q-33 0 -47.5 29t-14.5 65q0 31 9 91q-85 -185 -216 -185q-62 0 -96 38
t-34 98q0 41 14.5 99.5t44.5 158.5q33 111 49.5 178t16.5 119q0 88 -56 88q-34 0 -58 -28t-36 -68.5t-12 -76.5q0 -30 8 -49q-36 0 -52.5 19t-16.5 50q0 42 26.5 84t70.5 69.5t94 27.5q53 0 78 -32t25 -89q0 -50 -15.5 -111t-47.5 -163q-30 -97 -45 -155.5t-15 -104.5
q0 -50 20.5 -81t63.5 -31q51 0 93 42.5t70.5 104.5t43.5 124q54 222 96.5 359t77.5 137q11 0 30 -14q4 -2 12 -6.5t16.5 -7t19.5 -2.5q15 0 23 7.5t8 19.5q0 18 -10 30t-27 24q18 20 42 20q20 0 33.5 -18z" />
    <glyph glyph-name="uni1EE8.salt" horiz-adv-x="706" 
d="M808.5 773q13.5 -18 13.5 -46q0 -29 -18 -49t-47 -20q-25 0 -55 19q-24 -39 -67 -162.5t-75.5 -257.5t-32.5 -215q0 -67 18 -92t62 -25q-35 -24 -66 -24q-36 0 -58.5 31t-22.5 75q0 31 9 91q-85 -185 -216 -185q-62 0 -96 38t-34 98q0 41 14.5 99.5t44.5 158.5
q33 111 49.5 178t16.5 119q0 88 -56 88q-34 0 -58 -28t-36 -68.5t-12 -76.5q0 -30 8 -49q-36 0 -52.5 19t-16.5 50q0 42 26.5 84t70.5 69.5t94 27.5q53 0 78 -32t25 -89q0 -50 -15.5 -111t-47.5 -163q-30 -97 -45 -155.5t-15 -104.5q0 -50 20.5 -81t63.5 -31q51 0 93 42.5
t70.5 104.5t43.5 124q54 222 96.5 359t77.5 137q11 0 30 -14q4 -2 12 -6.5t16.5 -7t19.5 -2.5q15 0 23 7.5t8 19.5q0 18 -10 30t-27 24q18 20 42 20q20 0 33.5 -18zM468.5 759.5q-3.5 8.5 -3.5 14.5q0 12 18.5 42.5t43 54.5t42.5 24q19 0 22 -31q-74 -64 -112 -116
q-7 3 -10.5 11.5z" />
    <glyph glyph-name="uni1EF0.salt" horiz-adv-x="706" 
d="M808.5 773q13.5 -18 13.5 -46q0 -29 -18 -49t-47 -20q-25 0 -55 19q-24 -39 -67 -162.5t-75.5 -257.5t-32.5 -215q0 -67 18 -92t62 -25q-35 -24 -66 -24q-36 0 -58.5 31t-22.5 75q0 31 9 91q-85 -185 -216 -185q-62 0 -96 38t-34 98q0 41 14.5 99.5t44.5 158.5
q33 111 49.5 178t16.5 119q0 88 -56 88q-34 0 -58 -28t-36 -68.5t-12 -76.5q0 -30 8 -49q-36 0 -52.5 19t-16.5 50q0 42 26.5 84t70.5 69.5t94 27.5q53 0 78 -32t25 -89q0 -50 -15.5 -111t-47.5 -163q-30 -97 -45 -155.5t-15 -104.5q0 -50 20.5 -81t63.5 -31q51 0 93 42.5
t70.5 104.5t43.5 124q54 222 96.5 359t77.5 137q11 0 30 -14q4 -2 12 -6.5t16.5 -7t19.5 -2.5q15 0 23 7.5t8 19.5q0 18 -10 30t-27 24q18 20 42 20q20 0 33.5 -18zM199 -243.5q-11 8.5 -11 24.5q0 21 21 35t44 14q35 0 35 -33q0 -19 -19 -34t-41 -15q-18 0 -29 8.5z" />
    <glyph glyph-name="uni1EEA.salt" horiz-adv-x="706" 
d="M808.5 773q13.5 -18 13.5 -46q0 -29 -18 -49t-47 -20q-25 0 -55 19q-24 -39 -67 -162.5t-75.5 -257.5t-32.5 -215q0 -67 18 -92t62 -25q-35 -24 -66 -24q-36 0 -58.5 31t-22.5 75q0 31 9 91q-85 -185 -216 -185q-62 0 -96 38t-34 98q0 41 14.5 99.5t44.5 158.5
q33 111 49.5 178t16.5 119q0 88 -56 88q-34 0 -58 -28t-36 -68.5t-12 -76.5q0 -30 8 -49q-36 0 -52.5 19t-16.5 50q0 42 26.5 84t70.5 69.5t94 27.5q53 0 78 -32t25 -89q0 -50 -15.5 -111t-47.5 -163q-30 -97 -45 -155.5t-15 -104.5q0 -50 20.5 -81t63.5 -31q51 0 93 42.5
t70.5 104.5t43.5 124q54 222 96.5 359t77.5 137q11 0 30 -14q4 -2 12 -6.5t16.5 -7t19.5 -2.5q15 0 23 7.5t8 19.5q0 18 -10 30t-27 24q18 20 42 20q20 0 33.5 -18zM365 864q3 31 22 31q18 0 42.5 -24t43 -54.5t18.5 -42.5q0 -6 -3.5 -14.5t-10.5 -11.5q-38 52 -112 116z
" />
    <glyph glyph-name="uni1EEC.salt" horiz-adv-x="706" 
d="M808.5 773q13.5 -18 13.5 -46q0 -29 -18 -49t-47 -20q-25 0 -55 19q-24 -39 -67 -162.5t-75.5 -257.5t-32.5 -215q0 -67 18 -92t62 -25q-35 -24 -66 -24q-36 0 -58.5 31t-22.5 75q0 31 9 91q-85 -185 -216 -185q-62 0 -96 38t-34 98q0 41 14.5 99.5t44.5 158.5
q33 111 49.5 178t16.5 119q0 88 -56 88q-34 0 -58 -28t-36 -68.5t-12 -76.5q0 -30 8 -49q-36 0 -52.5 19t-16.5 50q0 42 26.5 84t70.5 69.5t94 27.5q53 0 78 -32t25 -89q0 -50 -15.5 -111t-47.5 -163q-30 -97 -45 -155.5t-15 -104.5q0 -50 20.5 -81t63.5 -31q51 0 93 42.5
t70.5 104.5t43.5 124q54 222 96.5 359t77.5 137q11 0 30 -14q4 -2 12 -6.5t16.5 -7t19.5 -2.5q15 0 23 7.5t8 19.5q0 18 -10 30t-27 24q18 20 42 20q20 0 33.5 -18zM473 761q30 2 49.5 13.5t19.5 34.5t-23 33t-70 10q0 19 13 32.5t35 13.5q34 0 56 -22t22 -55q0 -31 -19 -51
t-49 -20q-21 0 -34 11z" />
    <glyph glyph-name="uni1EEE.salt" horiz-adv-x="706" 
d="M808.5 773q13.5 -18 13.5 -46q0 -29 -18 -49t-47 -20q-25 0 -55 19q-24 -39 -67 -162.5t-75.5 -257.5t-32.5 -215q0 -67 18 -92t62 -25q-35 -24 -66 -24q-36 0 -58.5 31t-22.5 75q0 31 9 91q-85 -185 -216 -185q-62 0 -96 38t-34 98q0 41 14.5 99.5t44.5 158.5
q33 111 49.5 178t16.5 119q0 88 -56 88q-34 0 -58 -28t-36 -68.5t-12 -76.5q0 -30 8 -49q-36 0 -52.5 19t-16.5 50q0 42 26.5 84t70.5 69.5t94 27.5q53 0 78 -32t25 -89q0 -50 -15.5 -111t-47.5 -163q-30 -97 -45 -155.5t-15 -104.5q0 -50 20.5 -81t63.5 -31q51 0 93 42.5
t70.5 104.5t43.5 124q54 222 96.5 359t77.5 137q11 0 30 -14q4 -2 12 -6.5t16.5 -7t19.5 -2.5q15 0 23 7.5t8 19.5q0 18 -10 30t-27 24q18 20 42 20q20 0 33.5 -18zM528.5 766.5q-18.5 5.5 -46.5 16.5q-29 12 -50 18t-42 6q-31 0 -54 -15q36 50 87 50q18 0 37 -5.5t45 -16.5
q39 -14 61 -20t47 -6q16 0 34 8q-33 -41 -82 -41q-18 0 -36.5 5.5z" />
    <glyph glyph-name="Uhungarumlaut.salt" horiz-adv-x="734" 
d="M157 -49q-34 38 -34 98q0 41 14.5 99.5t44.5 158.5q33 111 49.5 178t16.5 119q0 88 -56 88q-34 0 -58 -28t-36 -68.5t-12 -76.5q0 -30 8 -49q-36 0 -52.5 19t-16.5 50q0 42 26.5 84t70.5 69.5t94 27.5q53 0 78 -32t25 -89q0 -50 -15.5 -111t-47.5 -163
q-30 -97 -45 -155.5t-15 -104.5q0 -50 20.5 -81t63.5 -31q51 0 93 42.5t70.5 104.5t43.5 124q54 222 96.5 359t77.5 137q8 0 22 -8.5t28 -23.5q-18 -12 -64 -138.5t-83 -273.5t-37 -234q0 -38 8 -60t23 -22q24 0 62.5 54t84.5 143l13 -10q-40 -93 -92 -163.5t-104 -70.5
q-33 0 -47.5 29t-14.5 65q0 31 9 91q-85 -185 -216 -185q-62 0 -96 38zM400 796q0 18 13 48t31.5 53t35.5 23q15 0 23 -27q-58 -71 -85 -124q-18 5 -18 27zM476 772q0 13 16 43.5t36.5 55t36.5 24.5q9 0 15 -5t13 -14q-56 -61 -107 -128q-10 7 -10 24z" />
    <glyph glyph-name="uni0216.salt" horiz-adv-x="734" 
d="M157 -49q-34 38 -34 98q0 41 14.5 99.5t44.5 158.5q33 111 49.5 178t16.5 119q0 88 -56 88q-34 0 -58 -28t-36 -68.5t-12 -76.5q0 -30 8 -49q-36 0 -52.5 19t-16.5 50q0 42 26.5 84t70.5 69.5t94 27.5q53 0 78 -32t25 -89q0 -50 -15.5 -111t-47.5 -163
q-30 -97 -45 -155.5t-15 -104.5q0 -50 20.5 -81t63.5 -31q51 0 93 42.5t70.5 104.5t43.5 124q54 222 96.5 359t77.5 137q8 0 22 -8.5t28 -23.5q-18 -12 -64 -138.5t-83 -273.5t-37 -234q0 -38 8 -60t23 -22q24 0 62.5 54t84.5 143l13 -10q-40 -93 -92 -163.5t-104 -70.5
q-33 0 -47.5 29t-14.5 65q0 31 9 91q-85 -185 -216 -185q-62 0 -96 38zM535.5 793q-21.5 26 -64.5 26q-56 0 -88 -60q-10 11 -10 30q0 34 31 57t76 23q34 0 57.5 -14t35 -34t11.5 -39q0 -36 -24 -54q-3 39 -24.5 65z" />
    <glyph glyph-name="Umacron.salt" horiz-adv-x="734" 
d="M157 -49q-34 38 -34 98q0 41 14.5 99.5t44.5 158.5q33 111 49.5 178t16.5 119q0 88 -56 88q-34 0 -58 -28t-36 -68.5t-12 -76.5q0 -30 8 -49q-36 0 -52.5 19t-16.5 50q0 42 26.5 84t70.5 69.5t94 27.5q53 0 78 -32t25 -89q0 -50 -15.5 -111t-47.5 -163
q-30 -97 -45 -155.5t-15 -104.5q0 -50 20.5 -81t63.5 -31q51 0 93 42.5t70.5 104.5t43.5 124q54 222 96.5 359t77.5 137q8 0 22 -8.5t28 -23.5q-18 -12 -64 -138.5t-83 -273.5t-37 -234q0 -38 8 -60t23 -22q24 0 62.5 54t84.5 143l13 -10q-40 -93 -92 -163.5t-104 -70.5
q-33 0 -47.5 29t-14.5 65q0 31 9 91q-85 -185 -216 -185q-62 0 -96 38zM502 763q-42 7 -83 16q-79 16 -101 18q10 26 46 26q82 0 241 -47q-14 -20 -38 -20q-23 0 -65 7z" />
    <glyph glyph-name="Uogonek.salt" horiz-adv-x="734" 
d="M718 147q-40 -93 -92 -163.5t-104 -70.5q-33 0 -47.5 29t-14.5 65q0 31 9 91q-53 -115 -123 -158q-30 -23 -30 -55q0 -19 13 -31.5t36 -12.5q27 0 50 17q-1 -28 -19 -44t-47 -16q-31 0 -50 19t-19 49q0 32 22 54q-21 -7 -49 -7q-62 0 -96 38t-34 98q0 41 14.5 99.5
t44.5 158.5q33 111 49.5 178t16.5 119q0 88 -56 88q-34 0 -58 -28t-36 -68.5t-12 -76.5q0 -30 8 -49q-36 0 -52.5 19t-16.5 50q0 42 26.5 84t70.5 69.5t94 27.5q53 0 78 -32t25 -89q0 -50 -15.5 -111t-47.5 -163q-30 -97 -45 -155.5t-15 -104.5q0 -50 20.5 -81t63.5 -31
q51 0 93 42.5t70.5 104.5t43.5 124q54 222 96.5 359t77.5 137q8 0 22 -8.5t28 -23.5q-18 -12 -64 -138.5t-83 -273.5t-37 -234q0 -38 8 -60t23 -22q24 0 62.5 54t84.5 143z" />
    <glyph glyph-name="Uring.salt" horiz-adv-x="734" 
d="M157 -49q-34 38 -34 98q0 41 14.5 99.5t44.5 158.5q33 111 49.5 178t16.5 119q0 88 -56 88q-34 0 -58 -28t-36 -68.5t-12 -76.5q0 -30 8 -49q-36 0 -52.5 19t-16.5 50q0 42 26.5 84t70.5 69.5t94 27.5q53 0 78 -32t25 -89q0 -50 -15.5 -111t-47.5 -163
q-30 -97 -45 -155.5t-15 -104.5q0 -50 20.5 -81t63.5 -31q51 0 93 42.5t70.5 104.5t43.5 124q54 222 96.5 359t77.5 137q8 0 22 -8.5t28 -23.5q-18 -12 -64 -138.5t-83 -273.5t-37 -234q0 -38 8 -60t23 -22q24 0 62.5 54t84.5 143l13 -10q-40 -93 -92 -163.5t-104 -70.5
q-33 0 -47.5 29t-14.5 65q0 31 9 91q-85 -185 -216 -185q-62 0 -96 38zM403.5 769q-17.5 15 -17.5 39t16.5 50.5t45 44t60.5 17.5q39 0 57.5 -15t18.5 -39t-17.5 -50.5t-47 -44t-61.5 -17.5q-37 0 -54.5 15zM504.5 788q18.5 14 30.5 34.5t12 37.5q0 15 -11.5 26t-32.5 11
q-19 0 -37 -13t-29.5 -32t-11.5 -37q0 -15 11 -28t31 -13q19 0 37.5 14z" />
    <glyph glyph-name="Utilde.salt" horiz-adv-x="734" 
d="M157 -49q-34 38 -34 98q0 41 14.5 99.5t44.5 158.5q33 111 49.5 178t16.5 119q0 88 -56 88q-34 0 -58 -28t-36 -68.5t-12 -76.5q0 -30 8 -49q-36 0 -52.5 19t-16.5 50q0 42 26.5 84t70.5 69.5t94 27.5q53 0 78 -32t25 -89q0 -50 -15.5 -111t-47.5 -163
q-30 -97 -45 -155.5t-15 -104.5q0 -50 20.5 -81t63.5 -31q51 0 93 42.5t70.5 104.5t43.5 124q54 222 96.5 359t77.5 137q8 0 22 -8.5t28 -23.5q-18 -12 -64 -138.5t-83 -273.5t-37 -234q0 -38 8 -60t23 -22q24 0 62.5 54t84.5 143l13 -10q-40 -93 -92 -163.5t-104 -70.5
q-33 0 -47.5 29t-14.5 65q0 31 9 91q-85 -185 -216 -185q-62 0 -96 38zM508.5 766.5q-18.5 5.5 -46.5 16.5q-29 12 -50 18t-42 6q-31 0 -54 -15q36 50 87 50q18 0 37 -5.5t45 -16.5q39 -14 61 -20t47 -6q16 0 34 8q-33 -41 -82 -41q-18 0 -36.5 5.5z" />
    <glyph glyph-name="a" unicode="a" horiz-adv-x="436" 
d="M-5.5 -25.5q-20.5 21.5 -20.5 61.5q0 59 42.5 132t107.5 124t127 51q39 0 65 -21t26 -54q0 -23 -13 -33t-36 -10q5 18 5 35q0 25 -12 40.5t-37 15.5q-44 0 -92.5 -49t-81 -117t-32.5 -117q0 -39 27 -39q40 0 94 63.5t116 154.5q13 -2 26.5 -8.5t13.5 -16.5
q0 -8 -9.5 -25.5t-11.5 -20.5q-17 -29 -27 -51.5t-10 -41.5q0 -17 8.5 -30.5t25.5 -13.5q29 0 73 41.5t87 116.5l10 -10q-21 -53 -54 -94.5t-71 -64.5t-73 -23t-53.5 20.5t-18.5 49.5q0 13 3 29q-45 -60 -80.5 -88t-70.5 -28q-33 0 -53.5 21.5z" />
    <glyph glyph-name="aacute" unicode="&#xe1;" horiz-adv-x="436" 
d="M-5.5 -25.5q-20.5 21.5 -20.5 61.5q0 59 42.5 132t107.5 124t127 51q39 0 65 -21t26 -54q0 -23 -13 -33t-36 -10q5 18 5 35q0 25 -12 40.5t-37 15.5q-44 0 -92.5 -49t-81 -117t-32.5 -117q0 -39 27 -39q40 0 94 63.5t116 154.5q13 -2 26.5 -8.5t13.5 -16.5
q0 -8 -9.5 -25.5t-11.5 -20.5q-17 -29 -27 -51.5t-10 -41.5q0 -17 8.5 -30.5t25.5 -13.5q29 0 73 41.5t87 116.5l10 -10q-21 -53 -54 -94.5t-71 -64.5t-73 -23t-53.5 20.5t-18.5 49.5q0 13 3 29q-45 -60 -80.5 -88t-70.5 -28q-33 0 -53.5 21.5zM283.5 421.5
q-3.5 8.5 -3.5 14.5q0 12 18.5 42.5t43 54.5t42.5 24q19 0 22 -31q-74 -64 -112 -116q-7 3 -10.5 11.5z" />
    <glyph glyph-name="abreve" unicode="&#x103;" horiz-adv-x="436" 
d="M-5.5 -25.5q-20.5 21.5 -20.5 61.5q0 59 42.5 132t107.5 124t127 51q39 0 65 -21t26 -54q0 -23 -13 -33t-36 -10q5 18 5 35q0 25 -12 40.5t-37 15.5q-44 0 -92.5 -49t-81 -117t-32.5 -117q0 -39 27 -39q40 0 94 63.5t116 154.5q13 -2 26.5 -8.5t13.5 -16.5
q0 -8 -9.5 -25.5t-11.5 -20.5q-17 -29 -27 -51.5t-10 -41.5q0 -17 8.5 -30.5t25.5 -13.5q29 0 73 41.5t87 116.5l10 -10q-21 -53 -54 -94.5t-71 -64.5t-73 -23t-53.5 20.5t-18.5 49.5q0 13 3 29q-45 -60 -80.5 -88t-70.5 -28q-33 0 -53.5 21.5zM255.5 424.5
q-23.5 14.5 -34 36t-10.5 41.5q0 33 24 49q3 -38 23 -64.5t58 -26.5q62 0 96 60q10 -10 10 -30q0 -33 -32.5 -56.5t-75.5 -23.5q-35 0 -58.5 14.5z" />
    <glyph glyph-name="uni1EAF" unicode="&#x1eaf;" horiz-adv-x="436" 
d="M-5.5 -25.5q-20.5 21.5 -20.5 61.5q0 59 42.5 132t107.5 124t127 51q39 0 65 -21t26 -54q0 -23 -13 -33t-36 -10q5 18 5 35q0 25 -12 40.5t-37 15.5q-44 0 -92.5 -49t-81 -117t-32.5 -117q0 -39 27 -39q40 0 94 63.5t116 154.5q13 -2 26.5 -8.5t13.5 -16.5
q0 -8 -9.5 -25.5t-11.5 -20.5q-17 -29 -27 -51.5t-10 -41.5q0 -17 8.5 -30.5t25.5 -13.5q29 0 73 41.5t87 116.5l10 -10q-21 -53 -54 -94.5t-71 -64.5t-73 -23t-53.5 20.5t-18.5 49.5q0 13 3 29q-45 -60 -80.5 -88t-70.5 -28q-33 0 -53.5 21.5zM310 494q-5 8 -5 17
q0 13 15.5 37t37 42.5t37.5 18.5q19 0 22 -31q-61 -55 -92 -96q-10 4 -15 12zM255.5 390.5q-23.5 14.5 -34 36t-10.5 41.5q0 33 24 49q3 -38 23 -64.5t58 -26.5q62 0 96 60q10 -10 10 -30q0 -33 -32.5 -56.5t-75.5 -23.5q-35 0 -58.5 14.5z" />
    <glyph glyph-name="uni1EB7" unicode="&#x1eb7;" horiz-adv-x="436" 
d="M-5.5 -25.5q-20.5 21.5 -20.5 61.5q0 59 42.5 132t107.5 124t127 51q39 0 65 -21t26 -54q0 -23 -13 -33t-36 -10q5 18 5 35q0 25 -12 40.5t-37 15.5q-44 0 -92.5 -49t-81 -117t-32.5 -117q0 -39 27 -39q40 0 94 63.5t116 154.5q13 -2 26.5 -8.5t13.5 -16.5
q0 -8 -9.5 -25.5t-11.5 -20.5q-17 -29 -27 -51.5t-10 -41.5q0 -17 8.5 -30.5t25.5 -13.5q29 0 73 41.5t87 116.5l10 -10q-21 -53 -54 -94.5t-71 -64.5t-73 -23t-53.5 20.5t-18.5 49.5q0 13 3 29q-45 -60 -80.5 -88t-70.5 -28q-33 0 -53.5 21.5zM255.5 424.5
q-23.5 14.5 -34 36t-10.5 41.5q0 33 24 49q3 -38 23 -64.5t58 -26.5q62 0 96 60q10 -10 10 -30q0 -33 -32.5 -56.5t-75.5 -23.5q-35 0 -58.5 14.5zM62 -200.5q-11 8.5 -11 24.5q0 21 21 35t44 14q35 0 35 -33q0 -19 -19 -34t-41 -15q-18 0 -29 8.5z" />
    <glyph glyph-name="uni1EB1" unicode="&#x1eb1;" horiz-adv-x="436" 
d="M-5.5 -25.5q-20.5 21.5 -20.5 61.5q0 59 42.5 132t107.5 124t127 51q39 0 65 -21t26 -54q0 -23 -13 -33t-36 -10q5 18 5 35q0 25 -12 40.5t-37 15.5q-44 0 -92.5 -49t-81 -117t-32.5 -117q0 -39 27 -39q40 0 94 63.5t116 154.5q13 -2 26.5 -8.5t13.5 -16.5
q0 -8 -9.5 -25.5t-11.5 -20.5q-17 -29 -27 -51.5t-10 -41.5q0 -17 8.5 -30.5t25.5 -13.5q29 0 73 41.5t87 116.5l10 -10q-21 -53 -54 -94.5t-71 -64.5t-73 -23t-53.5 20.5t-18.5 49.5q0 13 3 29q-45 -60 -80.5 -88t-70.5 -28q-33 0 -53.5 21.5zM244 575q3 31 22 31
q16 0 37.5 -18.5t37 -42.5t15.5 -37q0 -9 -5 -17t-15 -12q-31 41 -92 96zM255.5 390.5q-23.5 14.5 -34 36t-10.5 41.5q0 33 24 49q3 -38 23 -64.5t58 -26.5q62 0 96 60q10 -10 10 -30q0 -33 -32.5 -56.5t-75.5 -23.5q-35 0 -58.5 14.5z" />
    <glyph glyph-name="uni1EB3" unicode="&#x1eb3;" horiz-adv-x="436" 
d="M-5.5 -25.5q-20.5 21.5 -20.5 61.5q0 59 42.5 132t107.5 124t127 51q39 0 65 -21t26 -54q0 -23 -13 -33t-36 -10q5 18 5 35q0 25 -12 40.5t-37 15.5q-44 0 -92.5 -49t-81 -117t-32.5 -117q0 -39 27 -39q40 0 94 63.5t116 154.5q13 -2 26.5 -8.5t13.5 -16.5
q0 -8 -9.5 -25.5t-11.5 -20.5q-17 -29 -27 -51.5t-10 -41.5q0 -17 8.5 -30.5t25.5 -13.5q29 0 73 41.5t87 116.5l10 -10q-21 -53 -54 -94.5t-71 -64.5t-73 -23t-53.5 20.5t-18.5 49.5q0 13 3 29q-45 -60 -80.5 -88t-70.5 -28q-33 0 -53.5 21.5zM255.5 390.5
q-23.5 14.5 -34 36t-10.5 41.5q0 33 24 49q3 -38 23 -64.5t58 -26.5q62 0 96 60q10 -10 10 -30q0 -33 -32.5 -56.5t-75.5 -23.5q-35 0 -58.5 14.5zM298 481q30 2 49.5 13.5t19.5 34.5t-23 33t-70 10q0 19 13 32.5t35 13.5q34 0 56 -22t22 -55q0 -31 -19 -51t-49 -20
q-21 0 -34 11z" />
    <glyph glyph-name="uni1EB5" unicode="&#x1eb5;" horiz-adv-x="436" 
d="M-5.5 -25.5q-20.5 21.5 -20.5 61.5q0 59 42.5 132t107.5 124t127 51q39 0 65 -21t26 -54q0 -23 -13 -33t-36 -10q5 18 5 35q0 25 -12 40.5t-37 15.5q-44 0 -92.5 -49t-81 -117t-32.5 -117q0 -39 27 -39q40 0 94 63.5t116 154.5q13 -2 26.5 -8.5t13.5 -16.5
q0 -8 -9.5 -25.5t-11.5 -20.5q-17 -29 -27 -51.5t-10 -41.5q0 -17 8.5 -30.5t25.5 -13.5q29 0 73 41.5t87 116.5l10 -10q-21 -53 -54 -94.5t-71 -64.5t-73 -23t-53.5 20.5t-18.5 49.5q0 13 3 29q-45 -60 -80.5 -88t-70.5 -28q-33 0 -53.5 21.5zM255.5 390.5
q-23.5 14.5 -34 36t-10.5 41.5q0 33 24 49q3 -38 23 -64.5t58 -26.5q62 0 96 60q10 -10 10 -30q0 -33 -32.5 -56.5t-75.5 -23.5q-35 0 -58.5 14.5zM381.5 513.5q-18.5 5.5 -46.5 16.5q-29 12 -50 18t-42 6q-31 0 -54 -15q36 50 87 50q18 0 37 -5.5t45 -16.5q39 -14 61 -20
t47 -6q16 0 34 8q-33 -41 -82 -41q-18 0 -36.5 5.5z" />
    <glyph glyph-name="acircumflex" unicode="&#xe2;" horiz-adv-x="436" 
d="M-5.5 -25.5q-20.5 21.5 -20.5 61.5q0 59 42.5 132t107.5 124t127 51q39 0 65 -21t26 -54q0 -23 -13 -33t-36 -10q5 18 5 35q0 25 -12 40.5t-37 15.5q-44 0 -92.5 -49t-81 -117t-32.5 -117q0 -39 27 -39q40 0 94 63.5t116 154.5q13 -2 26.5 -8.5t13.5 -16.5
q0 -8 -9.5 -25.5t-11.5 -20.5q-17 -29 -27 -51.5t-10 -41.5q0 -17 8.5 -30.5t25.5 -13.5q29 0 73 41.5t87 116.5l10 -10q-21 -53 -54 -94.5t-71 -64.5t-73 -23t-53.5 20.5t-18.5 49.5q0 13 3 29q-45 -60 -80.5 -88t-70.5 -28q-33 0 -53.5 21.5zM361 448q-17 20 -44 46
q-34 -12 -58 -25t-45 -32q-10 6 -10 19q0 18 22 38.5t50 35t42 14.5q16 0 37.5 -19t37 -45t15.5 -47q0 -22 -17 -31q-13 26 -30 46z" />
    <glyph glyph-name="uni1EA5" unicode="&#x1ea5;" horiz-adv-x="436" 
d="M-5.5 -25.5q-20.5 21.5 -20.5 61.5q0 59 42.5 132t107.5 124t127 51q39 0 65 -21t26 -54q0 -23 -13 -33t-36 -10q5 18 5 35q0 25 -12 40.5t-37 15.5q-44 0 -92.5 -49t-81 -117t-32.5 -117q0 -39 27 -39q40 0 94 63.5t116 154.5q13 -2 26.5 -8.5t13.5 -16.5
q0 -8 -9.5 -25.5t-11.5 -20.5q-17 -29 -27 -51.5t-10 -41.5q0 -17 8.5 -30.5t25.5 -13.5q29 0 73 41.5t87 116.5l10 -10q-21 -53 -54 -94.5t-71 -64.5t-73 -23t-53.5 20.5t-18.5 49.5q0 13 3 29q-45 -60 -80.5 -88t-70.5 -28q-33 0 -53.5 21.5zM395 469q-5 8 -5 17
q0 13 15.5 37t37 42.5t37.5 18.5q19 0 22 -31q-61 -55 -92 -96q-10 4 -15 12zM346 408q-17 20 -44 46q-34 -12 -58 -25t-45 -32q-10 6 -10 19q0 18 22 38.5t50 35t42 14.5q16 0 37.5 -19t37 -45t15.5 -47q0 -22 -17 -31q-13 26 -30 46z" />
    <glyph glyph-name="uni1EAD" unicode="&#x1ead;" horiz-adv-x="436" 
d="M-5.5 -25.5q-20.5 21.5 -20.5 61.5q0 59 42.5 132t107.5 124t127 51q39 0 65 -21t26 -54q0 -23 -13 -33t-36 -10q5 18 5 35q0 25 -12 40.5t-37 15.5q-44 0 -92.5 -49t-81 -117t-32.5 -117q0 -39 27 -39q40 0 94 63.5t116 154.5q13 -2 26.5 -8.5t13.5 -16.5
q0 -8 -9.5 -25.5t-11.5 -20.5q-17 -29 -27 -51.5t-10 -41.5q0 -17 8.5 -30.5t25.5 -13.5q29 0 73 41.5t87 116.5l10 -10q-21 -53 -54 -94.5t-71 -64.5t-73 -23t-53.5 20.5t-18.5 49.5q0 13 3 29q-45 -60 -80.5 -88t-70.5 -28q-33 0 -53.5 21.5zM361 448q-17 20 -44 46
q-34 -12 -58 -25t-45 -32q-10 6 -10 19q0 18 22 38.5t50 35t42 14.5q16 0 37.5 -19t37 -45t15.5 -47q0 -22 -17 -31q-13 26 -30 46zM62 -200.5q-11 8.5 -11 24.5q0 21 21 35t44 14q35 0 35 -33q0 -19 -19 -34t-41 -15q-18 0 -29 8.5z" />
    <glyph glyph-name="uni1EA7" unicode="&#x1ea7;" horiz-adv-x="436" 
d="M-5.5 -25.5q-20.5 21.5 -20.5 61.5q0 59 42.5 132t107.5 124t127 51q39 0 65 -21t26 -54q0 -23 -13 -33t-36 -10q5 18 5 35q0 25 -12 40.5t-37 15.5q-44 0 -92.5 -49t-81 -117t-32.5 -117q0 -39 27 -39q40 0 94 63.5t116 154.5q13 -2 26.5 -8.5t13.5 -16.5
q0 -8 -9.5 -25.5t-11.5 -20.5q-17 -29 -27 -51.5t-10 -41.5q0 -17 8.5 -30.5t25.5 -13.5q29 0 73 41.5t87 116.5l10 -10q-21 -53 -54 -94.5t-71 -64.5t-73 -23t-53.5 20.5t-18.5 49.5q0 13 3 29q-45 -60 -80.5 -88t-70.5 -28q-33 0 -53.5 21.5zM348 561q4 28 25 28
q15 0 32.5 -19t30 -44.5t12.5 -40.5q0 -22 -21 -30q-24 43 -79 106zM346 408q-17 20 -44 46q-34 -12 -58 -25t-45 -32q-10 6 -10 19q0 18 22 38.5t50 35t42 14.5q16 0 37.5 -19t37 -45t15.5 -47q0 -22 -17 -31q-13 26 -30 46z" />
    <glyph glyph-name="uni1EA9" unicode="&#x1ea9;" horiz-adv-x="436" 
d="M-5.5 -25.5q-20.5 21.5 -20.5 61.5q0 59 42.5 132t107.5 124t127 51q39 0 65 -21t26 -54q0 -23 -13 -33t-36 -10q5 18 5 35q0 25 -12 40.5t-37 15.5q-44 0 -92.5 -49t-81 -117t-32.5 -117q0 -39 27 -39q40 0 94 63.5t116 154.5q13 -2 26.5 -8.5t13.5 -16.5
q0 -8 -9.5 -25.5t-11.5 -20.5q-17 -29 -27 -51.5t-10 -41.5q0 -17 8.5 -30.5t25.5 -13.5q29 0 73 41.5t87 116.5l10 -10q-21 -53 -54 -94.5t-71 -64.5t-73 -23t-53.5 20.5t-18.5 49.5q0 13 3 29q-45 -60 -80.5 -88t-70.5 -28q-33 0 -53.5 21.5zM406 458q23 2 40 13t17 31
q0 45 -93 45q0 19 13 32.5t35 13.5q34 0 56 -24t22 -60q0 -28 -16.5 -45t-42.5 -17q-20 0 -31 11zM346 408q-17 20 -44 46q-34 -12 -58 -25t-45 -32q-10 6 -10 19q0 18 22 38.5t50 35t42 14.5q16 0 37.5 -19t37 -45t15.5 -47q0 -22 -17 -31q-13 26 -30 46z" />
    <glyph glyph-name="uni1EAB" unicode="&#x1eab;" horiz-adv-x="436" 
d="M-5.5 -25.5q-20.5 21.5 -20.5 61.5q0 59 42.5 132t107.5 124t127 51q39 0 65 -21t26 -54q0 -23 -13 -33t-36 -10q5 18 5 35q0 25 -12 40.5t-37 15.5q-44 0 -92.5 -49t-81 -117t-32.5 -117q0 -39 27 -39q40 0 94 63.5t116 154.5q13 -2 26.5 -8.5t13.5 -16.5
q0 -8 -9.5 -25.5t-11.5 -20.5q-17 -29 -27 -51.5t-10 -41.5q0 -17 8.5 -30.5t25.5 -13.5q29 0 73 41.5t87 116.5l10 -10q-21 -53 -54 -94.5t-71 -64.5t-73 -23t-53.5 20.5t-18.5 49.5q0 13 3 29q-45 -60 -80.5 -88t-70.5 -28q-33 0 -53.5 21.5zM361 520.5q-16 5.5 -43 16.5
q-27 12 -45 18t-37 6q-25 0 -49 -13q33 56 78 56q16 0 33 -5.5t40 -16.5q34 -14 54 -20t42 -6q15 0 33 8q-30 -49 -74 -49q-16 0 -32 5.5zM346 408q-17 20 -44 46q-34 -12 -58 -25t-45 -32q-10 6 -10 19q0 18 22 38.5t50 35t42 14.5q16 0 37.5 -19t37 -45t15.5 -47
q0 -22 -17 -31q-13 26 -30 46z" />
    <glyph glyph-name="uni0201" unicode="&#x201;" horiz-adv-x="436" 
d="M-5.5 -25.5q-20.5 21.5 -20.5 61.5q0 59 42.5 132t107.5 124t127 51q39 0 65 -21t26 -54q0 -23 -13 -33t-36 -10q5 18 5 35q0 25 -12 40.5t-37 15.5q-44 0 -92.5 -49t-81 -117t-32.5 -117q0 -39 27 -39q40 0 94 63.5t116 154.5q13 -2 26.5 -8.5t13.5 -16.5
q0 -8 -9.5 -25.5t-11.5 -20.5q-17 -29 -27 -51.5t-10 -41.5q0 -17 8.5 -30.5t25.5 -13.5q29 0 73 41.5t87 116.5l10 -10q-21 -53 -54 -94.5t-71 -64.5t-73 -23t-53.5 20.5t-18.5 49.5q0 13 3 29q-45 -60 -80.5 -88t-70.5 -28q-33 0 -53.5 21.5zM254 483q10 25 26 25
t31.5 -20t25 -46t9.5 -42q0 -26 -20 -30q-32 61 -72 113zM164 489q15 17 29 17q16 0 34 -22.5t31 -51.5t13 -44t-11 -23q-45 63 -96 124z" />
    <glyph glyph-name="adieresis" unicode="&#xe4;" horiz-adv-x="436" 
d="M-5.5 -25.5q-20.5 21.5 -20.5 61.5q0 59 42.5 132t107.5 124t127 51q39 0 65 -21t26 -54q0 -23 -13 -33t-36 -10q5 18 5 35q0 25 -12 40.5t-37 15.5q-44 0 -92.5 -49t-81 -117t-32.5 -117q0 -39 27 -39q40 0 94 63.5t116 154.5q13 -2 26.5 -8.5t13.5 -16.5
q0 -8 -9.5 -25.5t-11.5 -20.5q-17 -29 -27 -51.5t-10 -41.5q0 -17 8.5 -30.5t25.5 -13.5q29 0 73 41.5t87 116.5l10 -10q-21 -53 -54 -94.5t-71 -64.5t-73 -23t-53.5 20.5t-18.5 49.5q0 13 3 29q-45 -60 -80.5 -88t-70.5 -28q-33 0 -53.5 21.5zM194.5 443.5
q-10.5 7.5 -10.5 22.5q0 18 21.5 32.5t44.5 14.5q30 0 30 -28q0 -17 -18.5 -33t-40.5 -16q-16 0 -26.5 7.5zM338.5 422.5q-10.5 7.5 -10.5 22.5q0 18 21.5 32.5t44.5 14.5q30 0 30 -28q0 -17 -18.5 -33t-40.5 -16q-16 0 -26.5 7.5z" />
    <glyph glyph-name="uni1EA1" unicode="&#x1ea1;" horiz-adv-x="436" 
d="M-5.5 -25.5q-20.5 21.5 -20.5 61.5q0 59 42.5 132t107.5 124t127 51q39 0 65 -21t26 -54q0 -23 -13 -33t-36 -10q5 18 5 35q0 25 -12 40.5t-37 15.5q-44 0 -92.5 -49t-81 -117t-32.5 -117q0 -39 27 -39q40 0 94 63.5t116 154.5q13 -2 26.5 -8.5t13.5 -16.5
q0 -8 -9.5 -25.5t-11.5 -20.5q-17 -29 -27 -51.5t-10 -41.5q0 -17 8.5 -30.5t25.5 -13.5q29 0 73 41.5t87 116.5l10 -10q-21 -53 -54 -94.5t-71 -64.5t-73 -23t-53.5 20.5t-18.5 49.5q0 13 3 29q-45 -60 -80.5 -88t-70.5 -28q-33 0 -53.5 21.5zM62 -200.5q-11 8.5 -11 24.5
q0 21 21 35t44 14q35 0 35 -33q0 -19 -19 -34t-41 -15q-18 0 -29 8.5z" />
    <glyph glyph-name="agrave" unicode="&#xe0;" horiz-adv-x="436" 
d="M-5.5 -25.5q-20.5 21.5 -20.5 61.5q0 59 42.5 132t107.5 124t127 51q39 0 65 -21t26 -54q0 -23 -13 -33t-36 -10q5 18 5 35q0 25 -12 40.5t-37 15.5q-44 0 -92.5 -49t-81 -117t-32.5 -117q0 -39 27 -39q40 0 94 63.5t116 154.5q13 -2 26.5 -8.5t13.5 -16.5
q0 -8 -9.5 -25.5t-11.5 -20.5q-17 -29 -27 -51.5t-10 -41.5q0 -17 8.5 -30.5t25.5 -13.5q29 0 73 41.5t87 116.5l10 -10q-21 -53 -54 -94.5t-71 -64.5t-73 -23t-53.5 20.5t-18.5 49.5q0 13 3 29q-45 -60 -80.5 -88t-70.5 -28q-33 0 -53.5 21.5zM213 526q3 31 22 31
q18 0 42.5 -24t43 -54.5t18.5 -42.5q0 -6 -3.5 -14.5t-10.5 -11.5q-38 52 -112 116z" />
    <glyph glyph-name="uni1EA3" unicode="&#x1ea3;" horiz-adv-x="436" 
d="M-5.5 -25.5q-20.5 21.5 -20.5 61.5q0 59 42.5 132t107.5 124t127 51q39 0 65 -21t26 -54q0 -23 -13 -33t-36 -10q5 18 5 35q0 25 -12 40.5t-37 15.5q-44 0 -92.5 -49t-81 -117t-32.5 -117q0 -39 27 -39q40 0 94 63.5t116 154.5q13 -2 26.5 -8.5t13.5 -16.5
q0 -8 -9.5 -25.5t-11.5 -20.5q-17 -29 -27 -51.5t-10 -41.5q0 -17 8.5 -30.5t25.5 -13.5q29 0 73 41.5t87 116.5l10 -10q-21 -53 -54 -94.5t-71 -64.5t-73 -23t-53.5 20.5t-18.5 49.5q0 13 3 29q-45 -60 -80.5 -88t-70.5 -28q-33 0 -53.5 21.5zM278 379q30 2 49.5 13.5
t19.5 34.5t-23 33t-70 10q0 19 13 32.5t35 13.5q34 0 56 -22t22 -55q0 -31 -19 -51t-49 -20q-21 0 -34 11z" />
    <glyph glyph-name="uni0203" unicode="&#x203;" horiz-adv-x="436" 
d="M-5.5 -25.5q-20.5 21.5 -20.5 61.5q0 59 42.5 132t107.5 124t127 51q39 0 65 -21t26 -54q0 -23 -13 -33t-36 -10q5 18 5 35q0 25 -12 40.5t-37 15.5q-44 0 -92.5 -49t-81 -117t-32.5 -117q0 -39 27 -39q40 0 94 63.5t116 154.5q13 -2 26.5 -8.5t13.5 -16.5
q0 -8 -9.5 -25.5t-11.5 -20.5q-17 -29 -27 -51.5t-10 -41.5q0 -17 8.5 -30.5t25.5 -13.5q29 0 73 41.5t87 116.5l10 -10q-21 -53 -54 -94.5t-71 -64.5t-73 -23t-53.5 20.5t-18.5 49.5q0 13 3 29q-45 -60 -80.5 -88t-70.5 -28q-33 0 -53.5 21.5zM360.5 460q-21.5 26 -64.5 26
q-56 0 -88 -60q-10 11 -10 30q0 34 31 57t76 23q34 0 57.5 -14t35 -34t11.5 -39q0 -36 -24 -54q-3 39 -24.5 65z" />
    <glyph glyph-name="amacron" unicode="&#x101;" horiz-adv-x="436" 
d="M-5.5 -25.5q-20.5 21.5 -20.5 61.5q0 59 42.5 132t107.5 124t127 51q39 0 65 -21t26 -54q0 -23 -13 -33t-36 -10q5 18 5 35q0 25 -12 40.5t-37 15.5q-44 0 -92.5 -49t-81 -117t-32.5 -117q0 -39 27 -39q40 0 94 63.5t116 154.5q13 -2 26.5 -8.5t13.5 -16.5
q0 -8 -9.5 -25.5t-11.5 -20.5q-17 -29 -27 -51.5t-10 -41.5q0 -17 8.5 -30.5t25.5 -13.5q29 0 73 41.5t87 116.5l10 -10q-21 -53 -54 -94.5t-71 -64.5t-73 -23t-53.5 20.5t-18.5 49.5q0 13 3 29q-45 -60 -80.5 -88t-70.5 -28q-33 0 -53.5 21.5zM327 431q-42 7 -83 16
q-79 16 -101 18q10 26 46 26q82 0 241 -47q-14 -20 -38 -20q-23 0 -65 7z" />
    <glyph glyph-name="aogonek" unicode="&#x105;" horiz-adv-x="436" 
d="M329 -90.5q13 -12.5 36 -12.5q27 0 50 17q-1 -28 -19 -44t-47 -16q-31 0 -50 19t-19 49q0 32 21 53q-18 -5 -33 -5q-35 0 -53.5 20.5t-18.5 49.5q0 13 3 29q-45 -60 -80.5 -88t-70.5 -28q-33 0 -53.5 21.5t-20.5 61.5q0 59 42.5 132t107.5 124t127 51q39 0 65 -21t26 -54
q0 -23 -13 -33t-36 -10q5 18 5 35q0 25 -12 40.5t-37 15.5q-44 0 -92.5 -49t-81 -117t-32.5 -117q0 -39 27 -39q40 0 94 63.5t116 154.5q13 -2 26.5 -8.5t13.5 -16.5q0 -8 -9.5 -25.5t-11.5 -20.5q-17 -29 -27 -51.5t-10 -41.5q0 -17 8.5 -30.5t25.5 -13.5q29 0 73 41.5
t87 116.5l10 -10q-20 -50 -50.5 -90t-66.5 -64q-33 -23 -33 -57q0 -19 13 -31.5z" />
    <glyph glyph-name="aring" unicode="&#xe5;" horiz-adv-x="436" 
d="M-5.5 -25.5q-20.5 21.5 -20.5 61.5q0 59 42.5 132t107.5 124t127 51q39 0 65 -21t26 -54q0 -23 -13 -33t-36 -10q5 18 5 35q0 25 -12 40.5t-37 15.5q-44 0 -92.5 -49t-81 -117t-32.5 -117q0 -39 27 -39q40 0 94 63.5t116 154.5q13 -2 26.5 -8.5t13.5 -16.5
q0 -8 -9.5 -25.5t-11.5 -20.5q-17 -29 -27 -51.5t-10 -41.5q0 -17 8.5 -30.5t25.5 -13.5q29 0 73 41.5t87 116.5l10 -10q-21 -53 -54 -94.5t-71 -64.5t-73 -23t-53.5 20.5t-18.5 49.5q0 13 3 29q-45 -60 -80.5 -88t-70.5 -28q-33 0 -53.5 21.5zM243.5 412q-17.5 15 -17.5 39
t16.5 50.5t45 44t60.5 17.5q39 0 57.5 -15t18.5 -39t-17.5 -50.5t-47 -44t-61.5 -17.5q-37 0 -54.5 15zM344.5 431q18.5 14 30.5 34.5t12 37.5q0 15 -11.5 26t-32.5 11q-19 0 -37 -13t-29.5 -32t-11.5 -37q0 -15 11 -28t31 -13q19 0 37.5 14z" />
    <glyph glyph-name="aringacute" unicode="&#x1fb;" horiz-adv-x="436" 
d="M-5.5 -25.5q-20.5 21.5 -20.5 61.5q0 59 42.5 132t107.5 124t127 51q39 0 65 -21t26 -54q0 -23 -13 -33t-36 -10q5 18 5 35q0 25 -12 40.5t-37 15.5q-44 0 -92.5 -49t-81 -117t-32.5 -117q0 -39 27 -39q40 0 94 63.5t116 154.5q13 -2 26.5 -8.5t13.5 -16.5
q0 -8 -9.5 -25.5t-11.5 -20.5q-17 -29 -27 -51.5t-10 -41.5q0 -17 8.5 -30.5t25.5 -13.5q29 0 73 41.5t87 116.5l10 -10q-21 -53 -54 -94.5t-71 -64.5t-73 -23t-53.5 20.5t-18.5 49.5q0 13 3 29q-45 -60 -80.5 -88t-70.5 -28q-33 0 -53.5 21.5zM243.5 412q-17.5 15 -17.5 39
t16.5 50.5t45 44t60.5 17.5q39 0 57.5 -15t18.5 -39t-17.5 -50.5t-47 -44t-61.5 -17.5q-37 0 -54.5 15zM344.5 431q18.5 14 30.5 34.5t12 37.5q0 15 -11.5 26t-32.5 11q-19 0 -37 -13t-29.5 -32t-11.5 -37q0 -15 11 -28t31 -13q19 0 37.5 14zM391.5 596.5
q-3.5 8.5 -3.5 14.5q0 12 18.5 42.5t43 54.5t42.5 24q19 0 22 -31q-74 -64 -112 -116q-7 3 -10.5 11.5z" />
    <glyph glyph-name="atilde" unicode="&#xe3;" horiz-adv-x="436" 
d="M-5.5 -25.5q-20.5 21.5 -20.5 61.5q0 59 42.5 132t107.5 124t127 51q39 0 65 -21t26 -54q0 -23 -13 -33t-36 -10q5 18 5 35q0 25 -12 40.5t-37 15.5q-44 0 -92.5 -49t-81 -117t-32.5 -117q0 -39 27 -39q40 0 94 63.5t116 154.5q13 -2 26.5 -8.5t13.5 -16.5
q0 -8 -9.5 -25.5t-11.5 -20.5q-17 -29 -27 -51.5t-10 -41.5q0 -17 8.5 -30.5t25.5 -13.5q29 0 73 41.5t87 116.5l10 -10q-21 -53 -54 -94.5t-71 -64.5t-73 -23t-53.5 20.5t-18.5 49.5q0 13 3 29q-45 -60 -80.5 -88t-70.5 -28q-33 0 -53.5 21.5zM352.5 407.5
q-18.5 5.5 -46.5 16.5q-29 12 -50 18t-42 6q-31 0 -54 -15q36 50 87 50q18 0 37 -5.5t45 -16.5q39 -14 61 -20t47 -6q16 0 34 8q-33 -41 -82 -41q-18 0 -36.5 5.5z" />
    <glyph glyph-name="ae" unicode="&#xe6;" horiz-adv-x="543" 
d="M-5.5 -25.5q-20.5 21.5 -20.5 61.5q0 59 42.5 132t107.5 124t127 51q54 0 69 -42q67 59 131 59q62 0 62 -61q0 -49 -37 -91.5t-95 -69.5t-116 -33q-4 -17 -4 -36q0 -36 18 -60t61 -24q61 0 123 51t101 126l12 -9q-40 -89 -111 -143t-146 -54q-57 0 -88.5 30.5t-33.5 79.5
q-44 -58 -79 -85.5t-70 -27.5q-33 0 -53.5 21.5zM358 166q46 27 78.5 63.5t32.5 76.5q0 12 -4.5 17.5t-16.5 5.5q-31 0 -67.5 -31t-67 -79t-43.5 -95q42 15 88 42zM199 99q7 44 33 92t64 87q-9 38 -47 38q-44 0 -92.5 -49t-81 -117t-32.5 -117q0 -39 27 -39q47 0 129 105z
" />
    <glyph glyph-name="aeacute" unicode="&#x1fd;" horiz-adv-x="543" 
d="M-5.5 -25.5q-20.5 21.5 -20.5 61.5q0 59 42.5 132t107.5 124t127 51q54 0 69 -42q67 59 131 59q62 0 62 -61q0 -49 -37 -91.5t-95 -69.5t-116 -33q-4 -17 -4 -36q0 -36 18 -60t61 -24q61 0 123 51t101 126l12 -9q-40 -89 -111 -143t-146 -54q-57 0 -88.5 30.5t-33.5 79.5
q-44 -58 -79 -85.5t-70 -27.5q-33 0 -53.5 21.5zM358 166q46 27 78.5 63.5t32.5 76.5q0 12 -4.5 17.5t-16.5 5.5q-31 0 -67.5 -31t-67 -79t-43.5 -95q42 15 88 42zM199 99q7 44 33 92t64 87q-9 38 -47 38q-44 0 -92.5 -49t-81 -117t-32.5 -117q0 -39 27 -39q47 0 129 105z
M354.5 415.5q-3.5 8.5 -3.5 14.5q0 12 18.5 42.5t43 54.5t42.5 24q19 0 22 -31q-74 -64 -112 -116q-7 3 -10.5 11.5z" />
    <glyph glyph-name="b" unicode="b" horiz-adv-x="394" 
d="M16 -39.5q-26 33.5 -26 92.5q0 95 60 254t135.5 283t115.5 124q15 0 23.5 -19.5t8.5 -43.5q0 -47 -33 -125t-86 -150t-109 -106q-13 -24 -30.5 -90t-17.5 -121q0 -94 55 -94q29 0 60 23.5t50 60.5q-35 18 -54 53.5t-19 75.5q0 47 24.5 76.5t59.5 29.5q29 0 46 -24t17 -68
q0 -66 -35 -136q12 -3 26 -3q47 0 75.5 30t52.5 79l12 -13q-26 -64 -62.5 -89t-80.5 -25q-17 0 -32 3q-30 -50 -70 -80.5t-89 -30.5q-51 0 -77 33.5zM201.5 407.5q42.5 64.5 70 128t27.5 89.5q0 8 -4 8q-11 0 -46.5 -51t-73.5 -126.5t-59 -146.5q43 34 85.5 98.5zM255 170
q0 34 -9.5 54.5t-23.5 20.5q-15 0 -26.5 -21t-11.5 -51t12 -59t36 -45q23 49 23 101z" />
    <glyph glyph-name="c" unicode="c" horiz-adv-x="323" 
d="M26 -23q-31 33 -31 95q0 65 33 127t84.5 100.5t101.5 38.5q38 0 54.5 -21.5t16.5 -52.5q0 -30 -13.5 -51.5t-36.5 -21.5q-17 0 -29 15q15 7 26 31.5t11 47.5q0 13 -5 19t-17 6q-34 0 -72.5 -40.5t-65 -98.5t-26.5 -106q0 -36 17 -59.5t56 -23.5q61 0 120.5 50t91.5 131
l13 -10q-23 -60 -63 -107.5t-88.5 -74.5t-96.5 -27q-50 0 -81 33z" />
    <glyph glyph-name="cacute" unicode="&#x107;" horiz-adv-x="323" 
d="M26 -23q-31 33 -31 95q0 65 33 127t84.5 100.5t101.5 38.5q38 0 54.5 -21.5t16.5 -52.5q0 -30 -13.5 -51.5t-36.5 -21.5q-17 0 -29 15q15 7 26 31.5t11 47.5q0 13 -5 19t-17 6q-34 0 -72.5 -40.5t-65 -98.5t-26.5 -106q0 -36 17 -59.5t56 -23.5q61 0 120.5 50t91.5 131
l13 -10q-23 -60 -63 -107.5t-88.5 -74.5t-96.5 -27q-50 0 -81 33zM252.5 415.5q-3.5 8.5 -3.5 14.5q0 12 18.5 42.5t43 54.5t42.5 24q19 0 22 -31q-74 -64 -112 -116q-7 3 -10.5 11.5z" />
    <glyph glyph-name="ccaron" unicode="&#x10d;" horiz-adv-x="323" 
d="M26 -23q-31 33 -31 95q0 65 33 127t84.5 100.5t101.5 38.5q38 0 54.5 -21.5t16.5 -52.5q0 -30 -13.5 -51.5t-36.5 -21.5q-17 0 -29 15q15 7 26 31.5t11 47.5q0 13 -5 19t-17 6q-34 0 -72.5 -40.5t-65 -98.5t-26.5 -106q0 -36 17 -59.5t56 -23.5q61 0 120.5 50t91.5 131
l13 -10q-23 -60 -63 -107.5t-88.5 -74.5t-96.5 -27q-50 0 -81 33zM232.5 423q-21.5 19 -37 45t-15.5 47q0 23 17 31q13 -26 30 -46t44 -46q34 12 58 25t45 32q10 -6 10 -19q0 -18 -22 -38.5t-50 -35t-42 -14.5q-16 0 -37.5 19z" />
    <glyph glyph-name="ccedilla" unicode="&#xe7;" horiz-adv-x="323" 
d="M305 -99q0 -28 -16.5 -54t-43.5 -42t-57 -16q-28 0 -44.5 10.5t-16.5 25.5q0 17 22 33q5 -23 16.5 -34t25.5 -11q18 0 37.5 14t32.5 35t13 38q0 9 -4 17t-13 8q-11 0 -24 -7t-34 -20q-4 -2 -13.5 -8t-13.5 -6q-6 0 -10 6t-4 12q0 2 16.5 26t35.5 47q-51 -31 -103 -31
q-50 0 -81 33t-31 95q0 65 33 127t84.5 100.5t101.5 38.5q38 0 54.5 -21.5t16.5 -52.5q0 -30 -13.5 -51.5t-36.5 -21.5q-17 0 -29 15q15 7 26 31.5t11 47.5q0 13 -5 19t-17 6q-34 0 -72.5 -40.5t-65 -98.5t-26.5 -106q0 -36 17 -59.5t56 -23.5q61 0 120.5 50t91.5 131
l13 -10q-36 -93 -109 -154l-53 -80q15 11 30.5 17.5t36.5 6.5q45 0 45 -42z" />
    <glyph glyph-name="ccircumflex" unicode="&#x109;" horiz-adv-x="323" 
d="M26 -23q-31 33 -31 95q0 65 33 127t84.5 100.5t101.5 38.5q38 0 54.5 -21.5t16.5 -52.5q0 -30 -13.5 -51.5t-36.5 -21.5q-17 0 -29 15q15 7 26 31.5t11 47.5q0 13 -5 19t-17 6q-34 0 -72.5 -40.5t-65 -98.5t-26.5 -106q0 -36 17 -59.5t56 -23.5q61 0 120.5 50t91.5 131
l13 -10q-23 -60 -63 -107.5t-88.5 -74.5t-96.5 -27q-50 0 -81 33zM330 442q-17 20 -44 46q-34 -12 -58 -25t-45 -32q-10 6 -10 19q0 18 22 38.5t50 35t42 14.5q16 0 37.5 -19t37 -45t15.5 -47q0 -22 -17 -31q-13 26 -30 46z" />
    <glyph glyph-name="cdotaccent" unicode="&#x10b;" horiz-adv-x="323" 
d="M26 -23q-31 33 -31 95q0 65 33 127t84.5 100.5t101.5 38.5q38 0 54.5 -21.5t16.5 -52.5q0 -30 -13.5 -51.5t-36.5 -21.5q-17 0 -29 15q15 7 26 31.5t11 47.5q0 13 -5 19t-17 6q-34 0 -72.5 -40.5t-65 -98.5t-26.5 -106q0 -36 17 -59.5t56 -23.5q61 0 120.5 50t91.5 131
l13 -10q-23 -60 -63 -107.5t-88.5 -74.5t-96.5 -27q-50 0 -81 33zM239 411.5q-11 8.5 -11 24.5q0 21 21 35t44 14q35 0 35 -33q0 -19 -19 -34t-41 -15q-18 0 -29 8.5z" />
    <glyph glyph-name="d" unicode="d" horiz-adv-x="473" 
d="M7 -8.5q-23 21.5 -23 62.5q0 55 42 128.5t105 125.5t122 52q44 0 44 -31q0 -4 -2 -14q-10 15 -38 15q-50 0 -97 -47.5t-76.5 -111.5t-29.5 -105q0 -22 9.5 -35t26.5 -13q27 0 66 34.5t79 97.5t71 143q78 202 130.5 314.5t88.5 112.5q8 0 14 -6.5t6 -16.5q0 -15 -16 -51.5
t-52 -112.5q-74 -154 -118 -266.5t-44 -196.5q0 -33 3.5 -44.5t19.5 -11.5q21 0 49.5 18.5t56.5 52t48 77.5l12 -9q-19 -50 -52 -91t-70.5 -64.5t-71.5 -23.5t-50 22t-16 53q0 34 19 107q-51 -84 -105.5 -135t-98.5 -51q-29 0 -52 21.5z" />
    <glyph glyph-name="eth" unicode="&#xf0;" horiz-adv-x="473" 
d="M7 -8.5q-23 21.5 -23 62.5q0 55 42 128.5t105 125.5t122 52q44 0 44 -31q0 -4 -2 -14q-10 15 -38 15q-50 0 -97 -47.5t-76.5 -111.5t-29.5 -105q0 -22 9.5 -35t26.5 -13q29 0 69 37.5t80 101t68 136.5q45 117 45 196q0 23 -4 43q-26 -4 -60.5 -10.5t-54.5 -12.5
q0 27 27 38t81 19q-21 76 -87 134q15 19 39 19q42 0 73 -42t46 -103q25 2 52.5 5t38.5 7q-15 -24 -31 -31.5t-54 -12.5q4 -23 4 -47q0 -47 -15.5 -102.5t-44.5 -138.5q-26 -73 -39 -117.5t-13 -79.5q0 -21 6.5 -32t21.5 -11q21 0 49.5 18.5t56.5 52t48 77.5l12 -9
q-19 -50 -52 -91t-70.5 -64.5t-71.5 -23.5t-50 22t-16 53q0 34 19 107q-51 -84 -105.5 -135t-98.5 -51q-29 0 -52 21.5z" />
    <glyph glyph-name="dcaron" unicode="&#x10f;" horiz-adv-x="473" 
d="M7 -8.5q-23 21.5 -23 62.5q0 55 42 128.5t105 125.5t122 52q44 0 44 -31q0 -4 -2 -14q-10 15 -38 15q-50 0 -97 -47.5t-76.5 -111.5t-29.5 -105q0 -22 9.5 -35t26.5 -13q27 0 66 34.5t79 97.5t71 143q78 202 130.5 314.5t88.5 112.5q8 0 14 -6.5t6 -16.5q0 -15 -16 -51.5
t-52 -112.5q-74 -154 -118 -266.5t-44 -196.5q0 -33 3.5 -44.5t19.5 -11.5q21 0 49.5 18.5t56.5 52t48 77.5l12 -9q-19 -50 -52 -91t-70.5 -64.5t-71.5 -23.5t-50 22t-16 53q0 34 19 107q-51 -84 -105.5 -135t-98.5 -51q-29 0 -52 21.5zM538.5 534q-7.5 7 -7.5 19
q0 18 14.5 42.5t35.5 42.5t39 18q9 0 14 -4q-19 -25 -35.5 -57.5t-26.5 -62.5q-7 -5 -16 -5q-10 0 -17.5 7z" />
    <glyph glyph-name="dcroat" unicode="&#x111;" horiz-adv-x="474" 
d="M478 535q-75 -155 -119 -268t-44 -197q0 -33 3.5 -44.5t19.5 -11.5q21 0 49.5 18.5t56.5 52t48 77.5l12 -9q-19 -50 -52 -91t-70.5 -64.5t-71.5 -23.5t-50 22t-16 53q0 34 19 107q-51 -84 -105.5 -135t-98.5 -51q-29 0 -52 21.5t-23 62.5q0 55 42 128.5t105 125.5t122 52
q44 0 44 -31q0 -4 -2 -14q-10 15 -38 15q-50 0 -97 -47.5t-76.5 -111.5t-29.5 -105q0 -22 9.5 -35t26.5 -13q27 0 66 34.5t79 97.5t71 143l12 32q9 22 35.5 90t49.5 120q-67 -1 -129 -11q8 23 43.5 34.5t102.5 13.5q67 148 105 148q8 0 14 -6.5t6 -16.5q0 -23 -49 -124
q86 -1 135 -9q-40 -29 -103 -29h-50z" />
    <glyph glyph-name="uni01C6" unicode="&#x1c6;" horiz-adv-x="790" 
d="M808 162l11 -12q-25 -79 -116 -148q4 -13 4 -33q0 -59 -34.5 -117.5t-90 -95t-114.5 -36.5q-66 0 -66 51q0 31 22 59t55 51.5t91 58.5q42 24 77 48q0 37 -15.5 67t-53.5 60q33 9 58 34t38 55.5t13 57.5q0 23 -10 38t-29 15q-31 0 -56 -22.5t-45.5 -57.5t-48.5 -96
q-30 -71 -84.5 -118t-103.5 -47q-34 0 -50 22t-16 53q0 34 19 107q-51 -84 -105.5 -135t-98.5 -51q-29 0 -52 21.5t-23 62.5q0 55 42 128.5t105 125.5t122 52q44 0 44 -31q0 -4 -2 -14q-10 15 -38 15q-50 0 -97 -47.5t-76.5 -111.5t-29.5 -105q0 -22 9.5 -35t26.5 -13
q27 0 66 34.5t79 97.5t71 143q78 202 130.5 314.5t88.5 112.5q8 0 14 -6.5t6 -16.5q0 -15 -16 -51.5t-52 -112.5q-74 -154 -118 -266.5t-44 -196.5q0 -33 3.5 -44.5t19.5 -11.5q31 0 74.5 38t73.5 98q39 102 77 152.5t99 50.5q35 0 59 -22.5t24 -59.5q0 -51 -34 -93t-84 -67
q52 -40 70 -90q86 65 111 141zM674.5 444q-21.5 19 -37 45t-15.5 47q0 23 17 31q13 -26 30 -46t44 -46q34 12 58 25t45 32q10 -6 10 -19q0 -18 -22 -38.5t-50 -35t-42 -14.5q-16 0 -37.5 19zM530 -224q42 27 76 76t40 113q-44 -28 -66 -40q-54 -32 -82.5 -52t-48 -43
t-19.5 -48q0 -17 8.5 -25t22.5 -8q27 0 69 27z" />
    <glyph glyph-name="e" unicode="e" horiz-adv-x="333" 
d="M17.5 -11.5q-31.5 32.5 -31.5 83.5q0 59 39 127t98.5 114.5t116.5 46.5q62 0 62 -61q0 -49 -37 -91.5t-95 -69.5t-116 -33q-4 -17 -4 -36q0 -36 18 -60t61 -24q61 0 123 51t101 126l12 -9q-40 -89 -111 -143t-146 -54q-59 0 -90.5 32.5zM147 166q46 27 78.5 63.5
t32.5 76.5q0 12 -4.5 17.5t-16.5 5.5q-31 0 -67.5 -31t-67 -79t-43.5 -95q42 15 88 42z" />
    <glyph glyph-name="eacute" unicode="&#xe9;" horiz-adv-x="333" 
d="M17.5 -11.5q-31.5 32.5 -31.5 83.5q0 59 39 127t98.5 114.5t116.5 46.5q62 0 62 -61q0 -49 -37 -91.5t-95 -69.5t-116 -33q-4 -17 -4 -36q0 -36 18 -60t61 -24q61 0 123 51t101 126l12 -9q-40 -89 -111 -143t-146 -54q-59 0 -90.5 32.5zM147 166q46 27 78.5 63.5
t32.5 76.5q0 12 -4.5 17.5t-16.5 5.5q-31 0 -67.5 -31t-67 -79t-43.5 -95q42 15 88 42zM252.5 429.5q-3.5 8.5 -3.5 14.5q0 12 18.5 42.5t43 54.5t42.5 24q19 0 22 -31q-74 -64 -112 -116q-7 3 -10.5 11.5z" />
    <glyph glyph-name="ebreve" unicode="&#x115;" horiz-adv-x="333" 
d="M17.5 -11.5q-31.5 32.5 -31.5 83.5q0 59 39 127t98.5 114.5t116.5 46.5q62 0 62 -61q0 -49 -37 -91.5t-95 -69.5t-116 -33q-4 -17 -4 -36q0 -36 18 -60t61 -24q61 0 123 51t101 126l12 -9q-40 -89 -111 -143t-146 -54q-59 0 -90.5 32.5zM147 166q46 27 78.5 63.5
t32.5 76.5q0 12 -4.5 17.5t-16.5 5.5q-31 0 -67.5 -31t-67 -79t-43.5 -95q42 15 88 42zM224.5 432.5q-23.5 14.5 -34 36t-10.5 41.5q0 33 24 49q3 -38 23 -64.5t58 -26.5q62 0 96 60q10 -10 10 -30q0 -33 -32.5 -56.5t-75.5 -23.5q-35 0 -58.5 14.5z" />
    <glyph glyph-name="ecaron" unicode="&#x11b;" horiz-adv-x="333" 
d="M17.5 -11.5q-31.5 32.5 -31.5 83.5q0 59 39 127t98.5 114.5t116.5 46.5q62 0 62 -61q0 -49 -37 -91.5t-95 -69.5t-116 -33q-4 -17 -4 -36q0 -36 18 -60t61 -24q61 0 123 51t101 126l12 -9q-40 -89 -111 -143t-146 -54q-59 0 -90.5 32.5zM147 166q46 27 78.5 63.5
t32.5 76.5q0 12 -4.5 17.5t-16.5 5.5q-31 0 -67.5 -31t-67 -79t-43.5 -95q42 15 88 42zM232.5 437q-21.5 19 -37 45t-15.5 47q0 23 17 31q13 -26 30 -46t44 -46q34 12 58 25t45 32q10 -6 10 -19q0 -18 -22 -38.5t-50 -35t-42 -14.5q-16 0 -37.5 19z" />
    <glyph glyph-name="ecircumflex" unicode="&#xea;" horiz-adv-x="333" 
d="M17.5 -11.5q-31.5 32.5 -31.5 83.5q0 59 39 127t98.5 114.5t116.5 46.5q62 0 62 -61q0 -49 -37 -91.5t-95 -69.5t-116 -33q-4 -17 -4 -36q0 -36 18 -60t61 -24q61 0 123 51t101 126l12 -9q-40 -89 -111 -143t-146 -54q-59 0 -90.5 32.5zM147 166q46 27 78.5 63.5
t32.5 76.5q0 12 -4.5 17.5t-16.5 5.5q-31 0 -67.5 -31t-67 -79t-43.5 -95q42 15 88 42zM330 456q-17 20 -44 46q-34 -12 -58 -25t-45 -32q-10 6 -10 19q0 18 22 38.5t50 35t42 14.5q16 0 37.5 -19t37 -45t15.5 -47q0 -22 -17 -31q-13 26 -30 46z" />
    <glyph glyph-name="uni1EBF" unicode="&#x1ebf;" horiz-adv-x="333" 
d="M17.5 -11.5q-31.5 32.5 -31.5 83.5q0 59 39 127t98.5 114.5t116.5 46.5q62 0 62 -61q0 -49 -37 -91.5t-95 -69.5t-116 -33q-4 -17 -4 -36q0 -36 18 -60t61 -24q61 0 123 51t101 126l12 -9q-40 -89 -111 -143t-146 -54q-59 0 -90.5 32.5zM147 166q46 27 78.5 63.5
t32.5 76.5q0 12 -4.5 17.5t-16.5 5.5q-31 0 -67.5 -31t-67 -79t-43.5 -95q42 15 88 42zM364 477q-5 8 -5 17q0 13 15.5 37t37 42.5t37.5 18.5q19 0 22 -31q-61 -55 -92 -96q-10 4 -15 12zM315 416q-17 20 -44 46q-34 -12 -58 -25t-45 -32q-10 6 -10 19q0 18 22 38.5t50 35
t42 14.5q16 0 37.5 -19t37 -45t15.5 -47q0 -22 -17 -31q-13 26 -30 46z" />
    <glyph glyph-name="uni1EC7" unicode="&#x1ec7;" horiz-adv-x="333" 
d="M17.5 -11.5q-31.5 32.5 -31.5 83.5q0 59 39 127t98.5 114.5t116.5 46.5q62 0 62 -61q0 -49 -37 -91.5t-95 -69.5t-116 -33q-4 -17 -4 -36q0 -36 18 -60t61 -24q61 0 123 51t101 126l12 -9q-40 -89 -111 -143t-146 -54q-59 0 -90.5 32.5zM147 166q46 27 78.5 63.5
t32.5 76.5q0 12 -4.5 17.5t-16.5 5.5q-31 0 -67.5 -31t-67 -79t-43.5 -95q42 15 88 42zM330 456q-17 20 -44 46q-34 -12 -58 -25t-45 -32q-10 6 -10 19q0 18 22 38.5t50 35t42 14.5q16 0 37.5 -19t37 -45t15.5 -47q0 -22 -17 -31q-13 26 -30 46zM56 -208.5q-11 8.5 -11 24.5
q0 21 21 35t44 14q35 0 35 -33q0 -19 -19 -34t-41 -15q-18 0 -29 8.5z" />
    <glyph glyph-name="uni1EC1" unicode="&#x1ec1;" horiz-adv-x="333" 
d="M17.5 -11.5q-31.5 32.5 -31.5 83.5q0 59 39 127t98.5 114.5t116.5 46.5q62 0 62 -61q0 -49 -37 -91.5t-95 -69.5t-116 -33q-4 -17 -4 -36q0 -36 18 -60t61 -24q61 0 123 51t101 126l12 -9q-40 -89 -111 -143t-146 -54q-59 0 -90.5 32.5zM147 166q46 27 78.5 63.5
t32.5 76.5q0 12 -4.5 17.5t-16.5 5.5q-31 0 -67.5 -31t-67 -79t-43.5 -95q42 15 88 42zM317 569q4 28 25 28q15 0 32.5 -19t30 -44.5t12.5 -40.5q0 -22 -21 -30q-24 43 -79 106zM315 416q-17 20 -44 46q-34 -12 -58 -25t-45 -32q-10 6 -10 19q0 18 22 38.5t50 35t42 14.5
q16 0 37.5 -19t37 -45t15.5 -47q0 -22 -17 -31q-13 26 -30 46z" />
    <glyph glyph-name="uni1EC3" unicode="&#x1ec3;" horiz-adv-x="333" 
d="M17.5 -11.5q-31.5 32.5 -31.5 83.5q0 59 39 127t98.5 114.5t116.5 46.5q62 0 62 -61q0 -49 -37 -91.5t-95 -69.5t-116 -33q-4 -17 -4 -36q0 -36 18 -60t61 -24q61 0 123 51t101 126l12 -9q-40 -89 -111 -143t-146 -54q-59 0 -90.5 32.5zM147 166q46 27 78.5 63.5
t32.5 76.5q0 12 -4.5 17.5t-16.5 5.5q-31 0 -67.5 -31t-67 -79t-43.5 -95q42 15 88 42zM375 466q23 2 40 13t17 31q0 45 -93 45q0 19 13 32.5t35 13.5q34 0 56 -24t22 -60q0 -28 -16.5 -45t-42.5 -17q-20 0 -31 11zM315 416q-17 20 -44 46q-34 -12 -58 -25t-45 -32
q-10 6 -10 19q0 18 22 38.5t50 35t42 14.5q16 0 37.5 -19t37 -45t15.5 -47q0 -22 -17 -31q-13 26 -30 46z" />
    <glyph glyph-name="uni1EC5" unicode="&#x1ec5;" horiz-adv-x="333" 
d="M17.5 -11.5q-31.5 32.5 -31.5 83.5q0 59 39 127t98.5 114.5t116.5 46.5q62 0 62 -61q0 -49 -37 -91.5t-95 -69.5t-116 -33q-4 -17 -4 -36q0 -36 18 -60t61 -24q61 0 123 51t101 126l12 -9q-40 -89 -111 -143t-146 -54q-59 0 -90.5 32.5zM147 166q46 27 78.5 63.5
t32.5 76.5q0 12 -4.5 17.5t-16.5 5.5q-31 0 -67.5 -31t-67 -79t-43.5 -95q42 15 88 42zM330 528.5q-16 5.5 -43 16.5q-27 12 -45 18t-37 6q-25 0 -49 -13q33 56 78 56q16 0 33 -5.5t40 -16.5q34 -14 54 -20t42 -6q15 0 33 8q-30 -49 -74 -49q-16 0 -32 5.5zM315 416
q-17 20 -44 46q-34 -12 -58 -25t-45 -32q-10 6 -10 19q0 18 22 38.5t50 35t42 14.5q16 0 37.5 -19t37 -45t15.5 -47q0 -22 -17 -31q-13 26 -30 46z" />
    <glyph glyph-name="uni0205" unicode="&#x205;" horiz-adv-x="333" 
d="M17.5 -11.5q-31.5 32.5 -31.5 83.5q0 59 39 127t98.5 114.5t116.5 46.5q62 0 62 -61q0 -49 -37 -91.5t-95 -69.5t-116 -33q-4 -17 -4 -36q0 -36 18 -60t61 -24q61 0 123 51t101 126l12 -9q-40 -89 -111 -143t-146 -54q-59 0 -90.5 32.5zM147 166q46 27 78.5 63.5
t32.5 76.5q0 12 -4.5 17.5t-16.5 5.5q-31 0 -67.5 -31t-67 -79t-43.5 -95q42 15 88 42zM223 534q10 25 26 25t31.5 -20t25 -46t9.5 -42q0 -26 -20 -30q-32 61 -72 113zM133 540q15 17 29 17q16 0 34 -22.5t31 -51.5t13 -44t-11 -23q-45 63 -96 124z" />
    <glyph glyph-name="edieresis" unicode="&#xeb;" horiz-adv-x="333" 
d="M17.5 -11.5q-31.5 32.5 -31.5 83.5q0 59 39 127t98.5 114.5t116.5 46.5q62 0 62 -61q0 -49 -37 -91.5t-95 -69.5t-116 -33q-4 -17 -4 -36q0 -36 18 -60t61 -24q61 0 123 51t101 126l12 -9q-40 -89 -111 -143t-146 -54q-59 0 -90.5 32.5zM147 166q46 27 78.5 63.5
t32.5 76.5q0 12 -4.5 17.5t-16.5 5.5q-31 0 -67.5 -31t-67 -79t-43.5 -95q42 15 88 42zM163.5 451.5q-10.5 7.5 -10.5 22.5q0 18 21.5 32.5t44.5 14.5q30 0 30 -28q0 -17 -18.5 -33t-40.5 -16q-16 0 -26.5 7.5zM307.5 430.5q-10.5 7.5 -10.5 22.5q0 18 21.5 32.5t44.5 14.5
q30 0 30 -28q0 -17 -18.5 -33t-40.5 -16q-16 0 -26.5 7.5z" />
    <glyph glyph-name="edotaccent" unicode="&#x117;" horiz-adv-x="333" 
d="M17.5 -11.5q-31.5 32.5 -31.5 83.5q0 59 39 127t98.5 114.5t116.5 46.5q62 0 62 -61q0 -49 -37 -91.5t-95 -69.5t-116 -33q-4 -17 -4 -36q0 -36 18 -60t61 -24q61 0 123 51t101 126l12 -9q-40 -89 -111 -143t-146 -54q-59 0 -90.5 32.5zM147 166q46 27 78.5 63.5
t32.5 76.5q0 12 -4.5 17.5t-16.5 5.5q-31 0 -67.5 -31t-67 -79t-43.5 -95q42 15 88 42zM239 425.5q-11 8.5 -11 24.5q0 21 21 35t44 14q35 0 35 -33q0 -19 -19 -34t-41 -15q-18 0 -29 8.5z" />
    <glyph glyph-name="uni1EB9" unicode="&#x1eb9;" horiz-adv-x="333" 
d="M17.5 -11.5q-31.5 32.5 -31.5 83.5q0 59 39 127t98.5 114.5t116.5 46.5q62 0 62 -61q0 -49 -37 -91.5t-95 -69.5t-116 -33q-4 -17 -4 -36q0 -36 18 -60t61 -24q61 0 123 51t101 126l12 -9q-40 -89 -111 -143t-146 -54q-59 0 -90.5 32.5zM147 166q46 27 78.5 63.5
t32.5 76.5q0 12 -4.5 17.5t-16.5 5.5q-31 0 -67.5 -31t-67 -79t-43.5 -95q42 15 88 42zM56 -208.5q-11 8.5 -11 24.5q0 21 21 35t44 14q35 0 35 -33q0 -19 -19 -34t-41 -15q-18 0 -29 8.5z" />
    <glyph glyph-name="egrave" unicode="&#xe8;" horiz-adv-x="333" 
d="M17.5 -11.5q-31.5 32.5 -31.5 83.5q0 59 39 127t98.5 114.5t116.5 46.5q62 0 62 -61q0 -49 -37 -91.5t-95 -69.5t-116 -33q-4 -17 -4 -36q0 -36 18 -60t61 -24q61 0 123 51t101 126l12 -9q-40 -89 -111 -143t-146 -54q-59 0 -90.5 32.5zM147 166q46 27 78.5 63.5
t32.5 76.5q0 12 -4.5 17.5t-16.5 5.5q-31 0 -67.5 -31t-67 -79t-43.5 -95q42 15 88 42zM182 534q3 31 22 31q18 0 42.5 -24t43 -54.5t18.5 -42.5q0 -6 -3.5 -14.5t-10.5 -11.5q-38 52 -112 116z" />
    <glyph glyph-name="uni1EBB" unicode="&#x1ebb;" horiz-adv-x="333" 
d="M17.5 -11.5q-31.5 32.5 -31.5 83.5q0 59 39 127t98.5 114.5t116.5 46.5q62 0 62 -61q0 -49 -37 -91.5t-95 -69.5t-116 -33q-4 -17 -4 -36q0 -36 18 -60t61 -24q61 0 123 51t101 126l12 -9q-40 -89 -111 -143t-146 -54q-59 0 -90.5 32.5zM147 166q46 27 78.5 63.5
t32.5 76.5q0 12 -4.5 17.5t-16.5 5.5q-31 0 -67.5 -31t-67 -79t-43.5 -95q42 15 88 42zM247 387q30 2 49.5 13.5t19.5 34.5t-23 33t-70 10q0 19 13 32.5t35 13.5q34 0 56 -22t22 -55q0 -31 -19 -51t-49 -20q-21 0 -34 11z" />
    <glyph glyph-name="uni0207" unicode="&#x207;" horiz-adv-x="333" 
d="M17.5 -11.5q-31.5 32.5 -31.5 83.5q0 59 39 127t98.5 114.5t116.5 46.5q62 0 62 -61q0 -49 -37 -91.5t-95 -69.5t-116 -33q-4 -17 -4 -36q0 -36 18 -60t61 -24q61 0 123 51t101 126l12 -9q-40 -89 -111 -143t-146 -54q-59 0 -90.5 32.5zM147 166q46 27 78.5 63.5
t32.5 76.5q0 12 -4.5 17.5t-16.5 5.5q-31 0 -67.5 -31t-67 -79t-43.5 -95q42 15 88 42zM329.5 468q-21.5 26 -64.5 26q-56 0 -88 -60q-10 11 -10 30q0 34 31 57t76 23q34 0 57.5 -14t35 -34t11.5 -39q0 -36 -24 -54q-3 39 -24.5 65z" />
    <glyph glyph-name="emacron" unicode="&#x113;" horiz-adv-x="333" 
d="M17.5 -11.5q-31.5 32.5 -31.5 83.5q0 59 39 127t98.5 114.5t116.5 46.5q62 0 62 -61q0 -49 -37 -91.5t-95 -69.5t-116 -33q-4 -17 -4 -36q0 -36 18 -60t61 -24q61 0 123 51t101 126l12 -9q-40 -89 -111 -143t-146 -54q-59 0 -90.5 32.5zM147 166q46 27 78.5 63.5
t32.5 76.5q0 12 -4.5 17.5t-16.5 5.5q-31 0 -67.5 -31t-67 -79t-43.5 -95q42 15 88 42zM296 439q-42 7 -83 16q-79 16 -101 18q10 26 46 26q82 0 241 -47q-14 -20 -38 -20q-23 0 -65 7z" />
    <glyph glyph-name="eogonek" unicode="&#x119;" horiz-adv-x="333" 
d="M217 -90.5q13 -12.5 36 -12.5q27 0 50 17q-1 -28 -19 -44t-47 -16q-31 0 -50 19t-19 49q0 28 18 49q-39 -15 -78 -15q-59 0 -90.5 32.5t-31.5 83.5q0 59 39 127t98.5 114.5t116.5 46.5q62 0 62 -61q0 -49 -37 -91.5t-95 -69.5t-116 -33q-4 -17 -4 -36q0 -36 18 -60
t61 -24q61 0 123 51t101 126l12 -9q-22 -50 -55 -89.5t-73 -65.5q-33 -25 -33 -57q0 -19 13 -31.5zM169.5 298q-36.5 -31 -67 -79t-43.5 -95q42 15 88 42t78.5 63.5t32.5 76.5q0 12 -4.5 17.5t-16.5 5.5q-31 0 -67.5 -31z" />
    <glyph glyph-name="uni1EBD" unicode="&#x1ebd;" horiz-adv-x="333" 
d="M17.5 -11.5q-31.5 32.5 -31.5 83.5q0 59 39 127t98.5 114.5t116.5 46.5q62 0 62 -61q0 -49 -37 -91.5t-95 -69.5t-116 -33q-4 -17 -4 -36q0 -36 18 -60t61 -24q61 0 123 51t101 126l12 -9q-40 -89 -111 -143t-146 -54q-59 0 -90.5 32.5zM147 166q46 27 78.5 63.5
t32.5 76.5q0 12 -4.5 17.5t-16.5 5.5q-31 0 -67.5 -31t-67 -79t-43.5 -95q42 15 88 42zM321.5 415.5q-18.5 5.5 -46.5 16.5q-29 12 -50 18t-42 6q-31 0 -54 -15q36 50 87 50q18 0 37 -5.5t45 -16.5q39 -14 61 -20t47 -6q16 0 34 8q-33 -41 -82 -41q-18 0 -36.5 5.5z" />
    <glyph glyph-name="uni0259" unicode="&#x259;" horiz-adv-x="421" 
d="M334.5 327.5q34.5 -33.5 34.5 -89.5q0 -61 -34.5 -127t-91 -110t-118.5 -44q-39 0 -62 20.5t-23 54.5q0 42 36.5 81.5t97 66.5t128.5 33q3 15 3 28q0 40 -18 65.5t-57 25.5q-46 0 -78 -34t-45 -94q-36 3 -36 35q0 28 22 56.5t60.5 47t86.5 18.5q60 0 94.5 -33.5z
M192.5 20q36.5 32 65 80.5t40.5 94.5q-47 -11 -94.5 -38.5t-78.5 -64.5t-31 -75q0 -14 7.5 -21.5t21.5 -7.5q33 0 69.5 32z" />
    <glyph glyph-name="f" unicode="f" horiz-adv-x="312" 
d="M-51 -260.5q-17 19.5 -17 68.5q0 105 75 330.5t175.5 403.5t177.5 178q19 0 26.5 -11.5t7.5 -32.5q0 -55 -39 -125t-101 -137t-127 -112q-7 -16 -19 -50q10 -2 16.5 -11.5t8.5 -20.5q8 -56 16 -87t24.5 -50t46.5 -19q33 0 56.5 23t54.5 75l15 -10q-24 -56 -61 -85
t-70 -29q-18 0 -37.5 9t-36.5 24q0 -82 -23 -164t-58.5 -134.5t-72.5 -52.5q-21 0 -38 19.5zM252.5 460q48.5 61 75.5 109.5t27 69.5q0 14 -14 14q-37 0 -90 -86.5t-108 -223.5q61 56 109.5 117zM55.5 -181q24.5 51 42 120.5t17.5 120.5q0 30 -7.5 55t-26.5 62
q-39 -115 -63 -213t-24 -148q0 -23 5 -35.5t14 -12.5q18 0 42.5 51z" />
    </font>
</defs>
</svg>
